<svg width="123" height="187" viewBox="0 0 123 187" fill="none" xmlns="http://www.w3.org/2000/svg">
<path d="M0 124L124 124L124 0L1.08404e-05 -1.08404e-05L0 124Z" fill="white"/>
<path d="M62.0004 124L124 124L124 62.0004L62.0004 62.0004L62.0004 124Z" fill="#243771"/>
<path d="M0.000370026 62.0176L62 62.0176L62 0.0179863L0.000375446 0.0179809L0.000370026 62.0176Z" fill="#243771"/>
<path d="M0 124L124 124L124 0L1.08404e-05 -1.08404e-05L0 124Z" fill="white"/>
<path d="M62.0004 124L124 124L124 62.0004L62.0004 62.0004L62.0004 124Z" fill="#243771"/>
<path d="M0.000370026 62.0176L62 62.0176L62 0.0179863L0.000375446 0.0179809L0.000370026 62.0176Z" fill="#243771"/>
<path d="M124 186.018L62 186.018L62 124.018L124 124.018L124 186.018Z" fill="#FE4D01"/>
</svg>
