<svg width="140" height="97" viewBox="0 0 140 97" fill="none" xmlns="http://www.w3.org/2000/svg">
<g clip-path="url(#clip0_1091_2690)">
<path d="M77.4027 0H140V48.9424C140 57.0883 138.404 63.832 135.175 69.2237C131.964 74.5987 127.8 79.0723 122.663 82.6445C117.544 86.2 111.839 89.0711 105.546 91.2244C99.2531 93.3777 93.0337 95.3141 86.8877 97L77.6596 81.7431C82.3195 80.1406 86.3006 78.5047 89.6029 76.8522C92.9053 75.1996 95.6205 73.3968 97.712 71.4438C99.8034 69.4908 101.345 67.2707 102.317 64.7668C103.289 62.2629 103.785 59.3251 103.785 55.9365H77.3844V0H77.4027ZM0 0H62.4505V48.9424C62.4505 57.0883 60.8544 63.832 57.6255 69.2237C54.4149 74.5987 50.2686 79.0723 45.1867 82.6445C40.1048 86.2 34.4359 89.0711 28.1431 91.2244C21.8503 93.3777 15.631 95.3141 9.485 97L0.14677 81.7431C4.80671 80.1406 8.78784 78.5047 12.0902 76.8522C15.3925 75.1996 18.1077 73.3968 20.1992 71.4438C22.2907 69.4908 23.8317 67.2707 24.8041 64.7668C25.7764 62.2629 26.2718 59.3251 26.2718 55.9365H0V0Z" fill="#243771"/>
</g>
<defs>
<clipPath id="clip0_1091_2690">
<rect width="140" height="97" fill="white"/>
</clipPath>
</defs>
</svg>
