<svg width="241" height="120" viewBox="0 0 241 120" fill="none" xmlns="http://www.w3.org/2000/svg">
<path d="M2 96.2734L28.3131 117.001L54.6262 96.2734L80.9023 117.001L107.215 96.2734L133.529 117.001L159.842 96.2734L186.155 117.001L212.505 96.2734L238.855 117.001" stroke="#FE4D01" stroke-width="4" stroke-miterlimit="10"/>
<path d="M2 65.1816L28.3131 85.909L54.6262 65.1816L80.9023 85.909L107.215 65.1816L133.529 85.909L159.842 65.1816L186.155 85.909L212.505 65.1816L238.855 85.909" stroke="#FE4D01" stroke-width="4" stroke-miterlimit="10"/>
<path d="M2 34.0918L28.3131 54.8192L54.6262 34.0918L80.9023 54.8192L107.215 34.0918L133.529 54.8192L159.842 34.0918L186.155 54.8192L212.505 34.0918L238.855 54.8192" stroke="#FE4D01" stroke-width="4" stroke-miterlimit="10"/>
<path d="M2 3L28.3131 23.7274L54.6262 3L80.9023 23.7274L107.215 3L133.529 23.7274L159.842 3L186.155 23.7274L212.505 3L238.855 23.7274" stroke="#FE4D01" stroke-width="4" stroke-miterlimit="10"/>
</svg>
