<?xml version="1.0" encoding="UTF-8"?>
<!DOCTYPE svg PUBLIC "-//W3C//DTD SVG 1.1//EN" "http://www.w3.org/Graphics/SVG/1.1/DTD/svg11.dtd">
<svg xmlns="http://www.w3.org/2000/svg" version="1.1" width="890px" height="840px" style="shape-rendering:geometricPrecision; text-rendering:geometricPrecision; image-rendering:optimizeQuality; fill-rule:evenodd; clip-rule:evenodd" xmlns:xlink="http://www.w3.org/1999/xlink">
<g><path style="opacity:0.996" fill="#e3b73e" d="M 431.5,-0.5 C 441.833,-0.5 452.167,-0.5 462.5,-0.5C 588.88,5.44989 695.046,54.4499 781,146.5C 877.284,260.217 905.284,389.217 865,533.5C 855.009,576.193 828.509,594.026 785.5,587C 753.042,574.597 739.208,551.097 744,516.5C 756.925,479.951 763.258,442.284 763,403.5C 766.238,382.158 777.404,366.658 796.5,357C 798.844,355.972 801.177,355.306 803.5,355C 807.453,363.523 810.62,372.357 813,381.5C 816.389,395.446 819.389,409.446 822,423.5C 822.877,317.076 784.044,228.243 705.5,157C 613.136,79.3123 506.803,48.6457 386.5,65C 281.998,81.9683 198.165,132.468 135,216.5C 91.05,278.361 70.05,347.361 72,423.5C 74.2489,409.676 77.2489,396.009 81,382.5C 83.6961,372.738 87.3628,363.404 92,354.5C 111.76,362.934 124.427,377.601 130,398.5C 130.291,439.244 136.957,478.911 150,517.5C 154.358,548.621 142.525,571.121 114.5,585C 84.882,594.974 60.382,587.807 41,563.5C 34.0953,549.457 28.762,534.79 25,519.5C -8.984,379.789 20.3493,255.456 113,146.5C 198.954,54.4496 305.121,5.4496 431.5,-0.5 Z"/></g>
<g><path style="opacity:0.991" fill="#bd8828" d="M 433.5,114.5 C 538.691,113.231 623.191,153.898 687,236.5C 746.604,323.738 758.937,417.405 724,517.5C 687.233,607.601 622.4,667.101 529.5,696C 435.334,720.642 348.667,704.975 269.5,649C 187.787,584.652 148.287,500.152 151,395.5C 159.586,288.755 209.419,207.922 300.5,153C 342.003,130.045 386.336,117.211 433.5,114.5 Z M 426.5,184.5 C 523.139,180.392 596.305,219.392 646,301.5C 683.999,374.505 683.999,447.505 646,520.5C 601.334,595.691 535.001,635.024 447,638.5C 358.999,635.024 292.666,595.691 248,520.5C 210.628,448.32 210.294,375.987 247,303.5C 287.05,234.21 346.883,194.544 426.5,184.5 Z"/></g>
<g><path style="opacity:0.984" fill="#cba043" d="M 578.5,284.5 C 578.214,290.259 578.548,295.925 579.5,301.5C 554.383,286.746 527.716,283.079 499.5,290.5C 499.819,285.637 499.486,280.97 498.5,276.5C 521.605,269.723 544.605,270.557 567.5,279C 571.507,280.337 575.173,282.17 578.5,284.5 Z"/></g>
<g><path style="opacity:1" fill="#fbf9fa" d="M 579.5,301.5 C 619.192,331.421 631.025,370.088 615,417.5C 609.287,430.366 601.453,441.7 591.5,451.5C 574.75,465.422 555.417,473.089 533.5,474.5C 517.359,475.972 502.026,473.138 487.5,466C 483.606,463.554 479.606,461.388 475.5,459.5C 466.399,452.233 458.065,444.067 450.5,435C 446.612,432.777 443.112,433.277 440,436.5C 436.215,447.398 431.382,457.732 425.5,467.5C 415.676,479.658 404.009,489.658 390.5,497.5C 363.76,509.973 336.76,510.639 309.5,499.5C 266.738,476.644 248.905,440.977 256,392.5C 258.416,383.013 261.916,374.013 266.5,365.5C 286.849,333.323 316.182,317.989 354.5,319.5C 383.977,322.238 407.644,335.405 425.5,359C 427.895,360.598 430.228,360.764 432.5,359.5C 434.371,359.141 435.871,358.141 437,356.5C 447.436,324.566 468.269,302.566 499.5,290.5C 527.716,283.079 554.383,286.746 579.5,301.5 Z"/></g>
<g><path style="opacity:1" fill="#38079b" d="M 515.5,294.5 C 559.232,291.268 590.399,309.268 609,348.5C 622.271,390.012 612.104,424.512 578.5,452C 547.961,471.01 516.627,472.343 484.5,456C 447.198,430.776 434.365,396.276 446,352.5C 458.599,320.311 481.766,300.978 515.5,294.5 Z"/></g>
<g><path style="opacity:1" fill="#e8e1f3" d="M 537.5,300.5 C 546.065,300.734 550.732,305.068 551.5,313.5C 549.571,325.219 546.405,336.552 542,347.5C 543.983,336.552 546.149,325.552 548.5,314.5C 547.765,307.264 543.765,303.097 536.5,302C 537.056,301.617 537.389,301.117 537.5,300.5 Z"/></g>
<g><path style="opacity:0.987" fill="#dcbb5f" d="M 498.5,276.5 C 499.486,280.97 499.819,285.637 499.5,290.5C 468.269,302.566 447.436,324.566 437,356.5C 435.871,358.141 434.371,359.141 432.5,359.5C 431.167,359.5 429.833,359.5 428.5,359.5C 428.5,348.5 428.5,337.5 428.5,326.5C 430.14,325.68 431.807,324.847 433.5,324C 438.711,318.458 443.544,312.625 448,306.5C 461.809,291.508 478.642,281.508 498.5,276.5 Z"/></g>
<g><path style="opacity:1" fill="#fdfcfe" d="M 527.5,306.5 C 531.514,306.334 535.514,306.501 539.5,307C 541.667,307.833 543.167,309.333 544,311.5C 543.314,321.952 541.647,332.285 539,342.5C 534.155,356.902 524.655,361.069 510.5,355C 502.883,345.379 496.05,335.212 490,324.5C 488.74,319.186 490.574,315.353 495.5,313C 506.331,310.961 516.998,308.794 527.5,306.5 Z"/></g>
<g><path style="opacity:0.988" fill="#c18e30" d="M 578.5,284.5 C 613.703,303.59 633.203,333.256 637,373.5C 638.713,413.733 623.546,445.733 591.5,469.5C 591.5,463.5 591.5,457.5 591.5,451.5C 601.453,441.7 609.287,430.366 615,417.5C 631.025,370.088 619.192,331.421 579.5,301.5C 578.548,295.925 578.214,290.259 578.5,284.5 Z"/></g>
<g><path style="opacity:0.989" fill="#e4c96e" d="M 344.5,304.5 C 370.315,303.717 393.649,310.884 414.5,326C 419.126,327.756 423.793,327.923 428.5,326.5C 428.5,337.5 428.5,348.5 428.5,359.5C 429.833,359.5 431.167,359.5 432.5,359.5C 430.228,360.764 427.895,360.598 425.5,359C 407.644,335.405 383.977,322.238 354.5,319.5C 351.713,318.523 348.713,318.19 345.5,318.5C 345.774,313.737 345.441,309.07 344.5,304.5 Z"/></g>
<g><path style="opacity:1" fill="#fdfcfe" d="M 572.5,325.5 C 577.347,324.84 581.181,326.507 584,330.5C 590.579,342.492 596.746,354.659 602.5,367C 602.304,370.267 600.97,372.934 598.5,375C 587.432,376.925 576.265,378.425 565,379.5C 550.71,377.188 545.044,368.855 548,354.5C 553.284,346.881 558.951,339.548 565,332.5C 567.396,329.933 569.896,327.6 572.5,325.5 Z"/></g>
<g><path style="opacity:1" fill="#38079b" d="M 335.5,326.5 C 388.173,324.368 421.006,348.701 434,399.5C 438.055,437.549 424.222,467.049 392.5,488C 349.764,509.184 312.264,502.351 280,467.5C 260.799,441.146 256.465,412.48 267,381.5C 280.523,351.469 303.356,333.135 335.5,326.5 Z"/></g>
<g><path style="opacity:0.975" fill="#f5e58c" d="M 344.5,304.5 C 345.441,309.07 345.774,313.737 345.5,318.5C 348.713,318.19 351.713,318.523 354.5,319.5C 316.182,317.989 286.849,333.323 266.5,365.5C 266.825,357.648 266.492,349.982 265.5,342.5C 286.095,318.372 312.429,305.705 344.5,304.5 Z"/></g>
<g><path style="opacity:1" fill="#ebe5f5" d="M 356.5,334.5 C 365.421,332.483 370.421,336.149 371.5,345.5C 369.265,357.107 366.099,368.44 362,379.5C 363.704,368.481 365.87,357.481 368.5,346.5C 367.489,339.489 363.489,335.489 356.5,334.5 Z"/></g>
<g><path style="opacity:1" fill="#ede8f6" d="M 462.5,337.5 C 467.449,336.959 472.116,337.792 476.5,340C 485.112,345.613 493.446,351.613 501.5,358C 491.65,352.399 481.65,346.732 471.5,341C 464.807,339.427 459.641,341.594 456,347.5C 456.281,343.033 458.448,339.699 462.5,337.5 Z"/></g>
<g><path style="opacity:1" fill="#fcfbfd" d="M 348.5,338.5 C 351.85,338.335 355.183,338.502 358.5,339C 361,340.167 362.833,342 364,344.5C 362.749,356.664 360.416,368.664 357,380.5C 350.546,389.906 342.046,392.406 331.5,388C 323.239,378.66 316.072,368.493 310,357.5C 308.435,351.799 310.268,347.633 315.5,345C 326.685,343.052 337.685,340.886 348.5,338.5 Z"/></g>
<g><path style="opacity:1" fill="#fcfcfd" d="M 464.5,344.5 C 468.131,344.16 471.464,344.994 474.5,347C 483.753,351.874 492.587,357.374 501,363.5C 508.245,376.726 505.078,386.559 491.5,393C 483.13,394.842 474.797,396.842 466.5,399C 458.426,400.597 454.092,397.264 453.5,389C 455.171,376.14 457.005,363.306 459,350.5C 460.36,347.977 462.193,345.977 464.5,344.5 Z"/></g>
<g><path style="opacity:1" fill="#fcfbfd" d="M 392.5,357.5 C 396.803,356.796 400.303,358.13 403,361.5C 409.773,374.047 416.273,386.713 422.5,399.5C 421.82,402.36 420.487,404.86 418.5,407C 405.699,410.113 392.699,411.447 379.5,411C 367.587,405.522 364.087,396.688 369,384.5C 375.981,374.69 383.815,365.69 392.5,357.5 Z"/></g>
<g><path style="opacity:1" fill="#f2eef8" d="M 533.5,361.5 C 539.643,362.026 540.976,364.86 537.5,370C 531.254,369.705 529.921,366.872 533.5,361.5 Z"/></g>
<g><path style="opacity:1" fill="#f1edf8" d="M 513.5,365.5 C 520.004,365.138 521.671,367.638 518.5,373C 511.745,373.756 510.078,371.256 513.5,365.5 Z"/></g>
<g><path style="opacity:1" fill="#e9e3f4" d="M 606.5,365.5 C 609.635,372.274 607.968,377.774 601.5,382C 591.555,383.27 581.555,384.103 571.5,384.5C 568.076,384.518 564.743,384.018 561.5,383C 573.541,382.495 585.541,381.495 597.5,380C 603.393,377.063 606.393,372.23 606.5,365.5 Z"/></g>
<g><path style="opacity:1" fill="#ece7f5" d="M 282.5,369.5 C 287.947,368.826 292.947,369.992 297.5,373C 304.833,378 312.167,383 319.5,388C 320.451,388.718 320.617,389.551 320,390.5C 310.382,384.275 300.549,378.442 290.5,373C 284.446,372.274 279.612,374.441 276,379.5C 276.281,375.033 278.448,371.699 282.5,369.5 Z"/></g>
<g><path style="opacity:1" fill="#f8f6fb" d="M 525.5,374.5 C 534.306,374.464 536.639,378.297 532.5,386C 525.074,388.902 521.574,386.402 522,378.5C 522.69,376.65 523.856,375.316 525.5,374.5 Z"/></g>
<g><path style="opacity:1" fill="#fcfcfd" d="M 285.5,376.5 C 286.873,376.343 288.207,376.51 289.5,377C 301.093,382.708 311.926,389.542 322,397.5C 326.646,407.425 324.812,415.925 316.5,423C 305.349,426.732 294.015,429.899 282.5,432.5C 275.931,431.434 272.931,427.6 273.5,421C 275.115,408.13 276.948,395.297 279,382.5C 280.494,379.686 282.66,377.686 285.5,376.5 Z"/></g>
<g><path style="opacity:1" fill="#f0ebf7" d="M 542.5,379.5 C 549.004,379.138 550.671,381.638 547.5,387C 540.745,387.756 539.078,385.256 542.5,379.5 Z"/></g>
<g><path style="opacity:1" fill="#f1ecf8" d="M 511.5,384.5 C 517.643,385.026 518.976,387.86 515.5,393C 510.504,393.664 508.67,391.498 510,386.5C 510.717,385.956 511.217,385.289 511.5,384.5 Z"/></g>
<g><path style="opacity:1" fill="#fcfcfd" d="M 554.5,391.5 C 556.857,391.337 559.19,391.503 561.5,392C 572.665,395.837 583.498,400.337 594,405.5C 596.704,408.999 597.037,412.666 595,416.5C 585.5,427.333 575.333,437.5 564.5,447C 560.495,448.098 556.995,447.265 554,444.5C 549.472,434.582 545.139,424.582 541,414.5C 539.361,403.098 543.861,395.431 554.5,391.5 Z"/></g>
<g><path style="opacity:1" fill="#f7f5fb" d="M 528.5,393.5 C 535.004,393.138 536.671,395.638 533.5,401C 527.593,401.746 525.927,399.246 528.5,393.5 Z"/></g>
<g><path style="opacity:1" fill="#f2eef8" d="M 353.5,393.5 C 359.651,394.103 360.984,396.936 357.5,402C 352.504,402.664 350.67,400.498 352,395.5C 352.717,394.956 353.217,394.289 353.5,393.5 Z"/></g>
<g><path style="opacity:1" fill="#f2eef8" d="M 333.5,397.5 C 337.459,396.578 339.792,398.078 340.5,402C 338.335,405.966 335.502,406.466 332,403.5C 331.252,401.16 331.752,399.16 333.5,397.5 Z"/></g>
<g><path style="opacity:1" fill="#e4dcf1" d="M 384.5,416.5 C 386.167,415.833 387.833,415.167 389.5,414.5C 398.888,414.298 408.222,413.465 417.5,412C 423.817,408.875 426.65,403.709 426,396.5C 430.034,404.727 427.868,410.893 419.5,415C 407.869,416.268 396.203,416.768 384.5,416.5 Z"/></g>
<g><path style="opacity:1" fill="#fcfcfd" d="M 504.5,400.5 C 516.227,398.937 524.061,403.604 528,414.5C 527.917,426.909 526.917,439.242 525,451.5C 521.95,455.13 518.117,456.297 513.5,455C 501.5,449 489.5,443 477.5,437C 473.759,432.63 473.593,428.13 477,423.5C 486.065,415.592 495.231,407.926 504.5,400.5 Z"/></g>
<g><path style="opacity:1" fill="#f8f6fb" d="M 345.5,406.5 C 352.771,406.036 355.604,409.369 354,416.5C 351.441,419.349 348.274,420.183 344.5,419C 340.334,414.368 340.667,410.202 345.5,406.5 Z"/></g>
<g><path style="opacity:1" fill="#ece6f5" d="M 496.5,399.5 C 497.552,399.351 498.552,399.517 499.5,400C 489.72,407.113 480.553,414.947 472,423.5C 469.908,428.705 470.408,433.705 473.5,438.5C 473.333,438.833 473.167,439.167 473,439.5C 469.213,437.095 467.38,433.595 467.5,429C 467.329,425.871 468.162,423.037 470,420.5C 478.994,413.601 487.827,406.601 496.5,399.5 Z"/></g>
<g><path style="opacity:1" fill="#f7f4fb" d="M 362.5,411.5 C 368.313,411.062 369.98,413.562 367.5,419C 360.745,419.756 359.078,417.256 362.5,411.5 Z"/></g>
<g><path style="opacity:1" fill="#8e71c6" d="M 389.5,414.5 C 387.833,415.167 386.167,415.833 384.5,416.5C 383.527,416.013 382.527,415.513 381.5,415C 384.146,414.503 386.813,414.336 389.5,414.5 Z"/></g>
<g><path style="opacity:1" fill="#f7f4fb" d="M 330.5,417.5 C 337.004,417.138 338.671,419.638 335.5,425C 329.98,425.37 328.313,422.87 330.5,417.5 Z"/></g>
<g><path style="opacity:1" fill="#fdfcfe" d="M 371.5,424.5 C 376.599,424.175 381.599,424.675 386.5,426C 394.167,429 401.833,432 409.5,435C 415.612,438.293 417.112,443.127 414,449.5C 404.833,460 395,469.833 384.5,479C 379.883,480.297 376.05,479.13 373,475.5C 369,466.167 365,456.833 361,447.5C 358.585,437.003 362.085,429.336 371.5,424.5 Z"/></g>
<g><path style="opacity:1" fill="#eee9f6" d="M 349.5,425.5 C 352.864,424.873 354.864,426.206 355.5,429.5C 352.814,435.898 349.814,436.065 346.5,430C 346.957,428.06 347.957,426.56 349.5,425.5 Z"/></g>
<g><path style="opacity:1" fill="#ece7f5" d="M 536.5,412.5 C 540.717,424.286 545.55,435.953 551,447.5C 555.909,451.386 561.409,452.552 567.5,451C 560.21,456.276 553.71,455.443 548,448.5C 544.333,438.833 540.667,429.167 537,419.5C 536.503,417.19 536.337,414.857 536.5,412.5 Z"/></g>
<g><path style="opacity:1" fill="#fdfcfe" d="M 325.5,432.5 C 335.388,431.693 342.555,435.693 347,444.5C 347.487,457.58 346.82,470.58 345,483.5C 341.95,487.13 338.117,488.297 333.5,487C 321.711,481.606 310.044,475.939 298.5,470C 294.143,466.003 293.477,461.503 296.5,456.5C 303.016,450.149 309.683,443.983 316.5,438C 319.263,435.626 322.263,433.792 325.5,432.5 Z"/></g>
<g><path style="opacity:1" fill="#ebe5f5" d="M 313.5,433.5 C 314.239,433.369 314.906,433.536 315.5,434C 307.641,441.195 299.807,448.362 292,455.5C 289.821,460.908 290.321,466.075 293.5,471C 289.72,470.204 287.553,467.704 287,463.5C 286.313,458.562 287.813,454.395 291.5,451C 299.085,445.388 306.418,439.555 313.5,433.5 Z"/></g>
<g><path style="opacity:1" fill="#dbba5d" d="M 475.5,459.5 C 474.503,476.325 474.17,493.325 474.5,510.5C 458.416,514.136 442.082,517.136 425.5,519.5C 425.5,502.167 425.5,484.833 425.5,467.5C 431.382,457.732 436.215,447.398 440,436.5C 443.112,433.277 446.612,432.777 450.5,435C 458.065,444.067 466.399,452.233 475.5,459.5 Z"/></g>
<g><path style="opacity:1" fill="#d5b053" d="M 475.5,459.5 C 479.606,461.388 483.606,463.554 487.5,466C 502.026,473.138 517.359,475.972 533.5,474.5C 529.702,475.483 525.702,475.817 521.5,475.5C 521.174,484.349 521.507,493.016 522.5,501.5C 506.712,504.99 490.712,507.99 474.5,510.5C 474.17,493.325 474.503,476.325 475.5,459.5 Z"/></g>
<g><path style="opacity:1" fill="#ede7f6" d="M 356.5,445.5 C 360.478,456.574 364.978,467.574 370,478.5C 374.54,483.447 380.04,484.78 386.5,482.5C 387.293,483.355 386.96,484.189 385.5,485C 379.467,487.516 373.967,486.682 369,482.5C 363.314,470.609 359.148,458.275 356.5,445.5 Z"/></g>
<g><path style="opacity:1" fill="#cca143" d="M 591.5,451.5 C 591.5,457.5 591.5,463.5 591.5,469.5C 586.653,473.183 581.487,476.516 576,479.5C 574.491,486.536 572.824,493.536 571,500.5C 568.227,506.94 563.394,510.774 556.5,512C 544.778,513.978 533.111,516.145 521.5,518.5C 521.5,515.5 521.5,512.5 521.5,509.5C 532.281,506.929 543.281,504.762 554.5,503C 558.567,502.562 561.067,500.395 562,496.5C 562.667,492.5 562.667,488.5 562,484.5C 559.863,488.951 557.363,493.118 554.5,497C 543.82,498.505 533.154,500.005 522.5,501.5C 521.507,493.016 521.174,484.349 521.5,475.5C 525.702,475.817 529.702,475.483 533.5,474.5C 555.417,473.089 574.75,465.422 591.5,451.5 Z"/></g>
<g><path style="opacity:0.986" fill="#f9ec93" d="M 265.5,342.5 C 266.492,349.982 266.825,357.648 266.5,365.5C 261.916,374.013 258.416,383.013 256,392.5C 248.905,440.977 266.738,476.644 309.5,499.5C 309.821,504.695 309.487,509.695 308.5,514.5C 269.534,498.35 246.7,469.35 240,427.5C 236.146,395.245 244.646,366.912 265.5,342.5 Z"/></g>
<g><path style="opacity:1" fill="#fdfbf7" d="M 521.5,509.5 C 489.206,514.25 457.206,519.916 425.5,526.5C 405.036,529.994 384.536,533.327 364,536.5C 361.41,536.624 359.077,535.958 357,534.5C 354.474,530.807 353.14,526.807 353,522.5C 356.085,526.093 359.585,529.093 363.5,531.5C 372.208,529.625 380.874,527.625 389.5,525.5C 401.564,523.711 413.564,521.711 425.5,519.5C 442.082,517.136 458.416,514.136 474.5,510.5C 490.712,507.99 506.712,504.99 522.5,501.5C 533.154,500.005 543.82,498.505 554.5,497C 557.363,493.118 559.863,488.951 562,484.5C 562.667,488.5 562.667,492.5 562,496.5C 561.067,500.395 558.567,502.562 554.5,503C 543.281,504.762 532.281,506.929 521.5,509.5 Z"/></g>
<g><path style="opacity:1" fill="#e3c76c" d="M 425.5,467.5 C 425.5,484.833 425.5,502.167 425.5,519.5C 413.564,521.711 401.564,523.711 389.5,525.5C 389.195,516.083 389.528,506.75 390.5,497.5C 404.009,489.658 415.676,479.658 425.5,467.5 Z"/></g>
<g><path style="opacity:0.983" fill="#ead379" d="M 390.5,497.5 C 389.528,506.75 389.195,516.083 389.5,525.5C 380.874,527.625 372.208,529.625 363.5,531.5C 359.585,529.093 356.085,526.093 353,522.5C 353.14,526.807 354.474,530.807 357,534.5C 359.077,535.958 361.41,536.624 364,536.5C 384.536,533.327 405.036,529.994 425.5,526.5C 425.736,529.609 425.403,532.609 424.5,535.5C 402.959,539.976 381.293,543.476 359.5,546C 354.761,544.881 350.928,542.381 348,538.5C 344.697,533.031 341.197,527.698 337.5,522.5C 327.448,520.831 317.781,518.164 308.5,514.5C 309.487,509.695 309.821,504.695 309.5,499.5C 336.76,510.639 363.76,509.973 390.5,497.5 Z"/></g>
<g><path style="opacity:0.964" fill="#dab95e" d="M 521.5,509.5 C 521.5,512.5 521.5,515.5 521.5,518.5C 489.147,524.059 456.814,529.725 424.5,535.5C 425.403,532.609 425.736,529.609 425.5,526.5C 457.206,519.916 489.206,514.25 521.5,509.5 Z"/></g>
<g><path style="opacity:0.097" fill="#010000" d="M 436.5,744.5 C 449.974,743.822 461.474,748.155 471,757.5C 473,761.833 473,766.167 471,770.5C 466.5,775 462,779.5 457.5,784C 451.728,784.689 446.062,784.189 440.5,782.5C 435.024,782.307 432.024,784.973 431.5,790.5C 432.024,796.027 435.024,798.693 440.5,798.5C 445.362,796.709 450.362,795.876 455.5,796C 462.672,800.672 468.672,806.506 473.5,813.5C 483.902,792.36 494.068,771.027 504,749.5C 507.222,746.069 511.222,744.735 516,745.5C 521.414,744.473 525.747,746.139 529,750.5C 537.289,768.044 545.956,785.377 555,802.5C 556.629,799.374 558.795,796.707 561.5,794.5C 559.032,791.528 557.198,788.194 556,784.5C 552.467,761.213 562.3,747.879 585.5,744.5C 596.957,744.976 605.79,749.976 612,759.5C 612.956,755.765 614.122,752.099 615.5,748.5C 617.953,746.08 620.953,744.914 624.5,745C 644.205,744.076 663.871,744.41 683.5,746C 686.167,749.333 688.833,749.333 691.5,746C 699.833,744 708.167,744 716.5,746C 718.342,747.344 720.008,748.844 721.5,750.5C 722.992,748.844 724.658,747.344 726.5,746C 732.426,744.89 738.092,745.556 743.5,748C 749.352,755.352 756.019,761.852 763.5,767.5C 764.329,762.533 764.829,757.533 765,752.5C 765.833,749 768,746.833 771.5,746C 778.5,745.333 785.5,745.333 792.5,746C 796,746.833 798.167,749 799,752.5C 799.071,756.687 799.738,760.687 801,764.5C 817.531,744.133 837.697,739.633 861.5,751C 865.138,752.98 868.138,755.647 870.5,759C 871.517,761.787 871.684,764.62 871,767.5C 868.354,770.98 865.521,774.314 862.5,777.5C 878.226,775.394 885.059,782.061 883,797.5C 877.155,820.502 862.322,832.836 838.5,834.5C 830.891,833.797 823.557,831.964 816.5,829C 810.368,825.034 805.034,820.2 800.5,814.5C 801.237,831.794 793.57,837.294 777.5,831C 770.951,823.949 763.951,817.449 756.5,811.5C 755.671,816.467 755.171,821.467 755,826.5C 754.167,830 752,832.167 748.5,833C 741.183,834.892 733.849,834.892 726.5,833C 724.658,831.656 722.992,830.156 721.5,828.5C 720.008,830.156 718.342,831.656 716.5,833C 708.167,835 699.833,835 691.5,833C 689.274,831.773 687.774,829.939 687,827.5C 686.972,810.742 686.305,794.075 685,777.5C 684.5,778 684,778.5 683.5,779C 678.6,779.715 673.767,780.548 669,781.5C 668.899,796.873 668.233,812.206 667,827.5C 666.226,829.939 664.726,831.773 662.5,833C 654.167,835 645.833,835 637.5,833C 635.274,831.773 633.774,829.939 633,827.5C 632.667,812.167 632.333,796.833 632,781.5C 627.577,780.485 623.077,779.652 618.5,779C 618,778.5 617.5,778 617,777.5C 614.812,779.688 612.645,781.855 610.5,784C 620.889,802.04 617.889,817.374 601.5,830C 592.373,834.477 583.04,835.144 573.5,832C 570.059,830.224 566.892,828.057 564,825.5C 562.618,831.543 558.785,834.71 552.5,835C 546.118,835.689 539.785,835.355 533.5,834C 530.574,832.493 528.574,830.159 527.5,827C 520.167,826.333 512.833,826.333 505.5,827C 501.089,833.767 494.756,836.601 486.5,835.5C 482.459,835.327 478.459,834.827 474.5,834C 471.692,831.756 469.692,828.923 468.5,825.5C 439.333,842.223 416,836.223 398.5,807.5C 390.379,823.562 377.379,832.729 359.5,835C 338.797,834.878 318.13,834.544 297.5,834C 292.986,832.82 289.653,830.154 287.5,826C 281.167,825.333 274.833,825.333 268.5,826C 266.347,830.154 263.014,832.82 258.5,834C 251.833,834.667 245.167,834.667 238.5,834C 235.943,833.315 234.109,831.815 233,829.5C 232.233,825.406 232.566,821.406 234,817.5C 244.606,795.955 254.939,774.288 265,752.5C 269.578,746.945 275.412,745.112 282.5,747C 285.034,747.516 287.2,748.683 289,750.5C 298.426,770.352 308.093,790.018 318,809.5C 318.333,791.167 318.667,772.833 319,754.5C 319.979,751.375 321.813,748.875 324.5,747C 340.987,744.522 357.321,745.189 373.5,749C 385,753.833 393.167,762 398,773.5C 401.808,767.367 405.975,761.534 410.5,756C 418.168,749.661 426.835,745.828 436.5,744.5 Z M 355.5,782.5 C 360.323,782.983 363.323,785.65 364.5,790.5C 363.425,795.025 360.758,798.025 356.5,799.5C 355.914,799.291 355.414,798.957 355,798.5C 354.219,793.083 354.385,787.75 355.5,782.5 Z M 830.5,786.5 C 831.782,787.708 831.782,789.042 830.5,790.5C 829.708,789.3 829.708,787.967 830.5,786.5 Z"/></g>
<g><path style="opacity:0.122" fill="#020100" d="M 10.5,746.5 C 25.2387,746.05 39.9054,746.55 54.5,748C 63.0575,752.224 69.2242,758.724 73,767.5C 72.6645,760.781 74.1645,754.614 77.5,749C 78.8333,748.333 80.1667,747.667 81.5,747C 95.1667,746.333 108.833,746.333 122.5,747C 136.136,751.971 144.969,761.471 149,775.5C 162.79,748.531 183.956,740.364 212.5,751C 236.881,766.344 243.047,787.177 231,813.5C 212.421,836.738 190.254,840.904 164.5,826C 154.508,817.69 148.341,807.19 146,794.5C 144.445,796.443 143.278,798.61 142.5,801C 145.866,807.564 149.366,814.064 153,820.5C 155.277,826.216 153.777,830.716 148.5,834C 139.424,834.913 130.424,834.58 121.5,833C 117.458,828.397 113.791,823.564 110.5,818.5C 110.018,823.048 108.851,827.381 107,831.5C 105.581,832.46 104.081,833.293 102.5,834C 95.5,834.667 88.5,834.667 81.5,834C 79.9194,833.293 78.4194,832.46 77,831.5C 74.8796,828.359 73.213,825.026 72,821.5C 67.5852,827.571 61.7519,831.738 54.5,834C 39.8333,834.667 25.1667,834.667 10.5,834C 7,833.167 4.83333,831 4,827.5C 3.33333,802.833 3.33333,778.167 4,753.5C 5.01828,749.985 7.18495,747.652 10.5,746.5 Z M 110.5,777.5 C 118.646,780.398 118.313,782.398 109.5,783.5C 109.325,781.379 109.659,779.379 110.5,777.5 Z M 188.5,781.5 C 198.157,780.658 201.99,784.991 200,794.5C 197.459,799.069 193.625,800.569 188.5,799C 179.316,793.191 179.316,787.358 188.5,781.5 Z M 72.5,784.5 C 73.7879,786.035 73.7879,787.701 72.5,789.5C 71.3336,787.833 71.3336,786.166 72.5,784.5 Z"/></g>
<g><path style="opacity:1" fill="#bb8728" d="M 16.5,751.5 C 29.1711,751.333 41.8377,751.5 54.5,752C 71.1954,759.25 75.5287,771.083 67.5,787.5C 79.1483,801.748 77.4816,814.248 62.5,825C 59.5755,825.988 56.5755,826.654 53.5,827C 41.1712,827.5 28.8378,827.667 16.5,827.5C 16.5,802.167 16.5,776.833 16.5,751.5 Z"/></g>
<g><path style="opacity:1" fill="#bb8728" d="M 118.5,807.5 C 114.366,806.515 110.032,806.182 105.5,806.5C 105.5,813.167 105.5,819.833 105.5,826.5C 99.1667,826.5 92.8333,826.5 86.5,826.5C 86.5,801.5 86.5,776.5 86.5,751.5C 98.8378,751.333 111.171,751.5 123.5,752C 142.193,757.879 149.026,770.379 144,789.5C 142.58,793.345 140.413,796.678 137.5,799.5C 143.054,808.612 148.054,817.945 152.5,827.5C 144.804,827.831 137.138,827.497 129.5,826.5C 126.074,819.976 122.408,813.642 118.5,807.5 Z M 110.5,777.5 C 109.659,779.379 109.325,781.379 109.5,783.5C 118.313,782.398 118.646,780.398 110.5,777.5 Z"/></g>
<g><path style="opacity:1" fill="#ba8628" d="M 189.5,751.5 C 220.301,751.467 234.801,766.8 233,797.5C 225.621,820.207 210.121,829.707 186.5,826C 163.194,816.795 154.694,799.961 161,775.5C 166.762,762.893 176.262,754.893 189.5,751.5 Z M 188.5,781.5 C 179.316,787.358 179.316,793.191 188.5,799C 193.625,800.569 197.459,799.069 200,794.5C 201.99,784.991 198.157,780.658 188.5,781.5 Z"/></g>
<g><path style="opacity:1" fill="#b98628" d="M 276.5,751.5 C 279.898,751.18 283.232,751.513 286.5,752.5C 298.167,777.167 309.833,801.833 321.5,826.5C 314.858,827.664 308.192,827.831 301.5,827C 299.467,824.104 298.134,820.937 297.5,817.5C 286.833,817.5 276.167,817.5 265.5,817.5C 264.5,820.833 263.5,824.167 262.5,827.5C 255.492,827.666 248.492,827.5 241.5,827C 253.29,801.918 264.957,776.751 276.5,751.5 Z"/></g>
<g><path style="opacity:1" fill="#bc8728" d="M 331.5,751.5 C 342.838,751.333 354.172,751.5 365.5,752C 388.6,759.025 398.433,774.525 395,798.5C 389.729,814.942 378.562,824.275 361.5,826.5C 351.5,826.5 341.5,826.5 331.5,826.5C 331.5,801.5 331.5,776.5 331.5,751.5 Z M 355.5,782.5 C 354.385,787.75 354.219,793.083 355,798.5C 355.414,798.957 355.914,799.291 356.5,799.5C 360.758,798.025 363.425,795.025 364.5,790.5C 363.323,785.65 360.323,782.983 355.5,782.5 Z"/></g>
<g><path style="opacity:1" fill="#ba8628" d="M 436.5,751.5 C 449.726,749.956 461.059,753.789 470.5,763C 465.351,767.315 460.351,771.815 455.5,776.5C 446.779,769.797 438.279,770.13 430,777.5C 424.713,786.684 425.546,795.184 432.5,803C 440.645,807.948 448.479,807.448 456,801.5C 461.235,806.386 465.901,811.386 470,816.5C 456.021,827.6 440.854,829.434 424.5,822C 406.485,808.955 401.652,792.121 410,771.5C 416.445,761.54 425.279,754.874 436.5,751.5 Z"/></g>
<g><path style="opacity:1" fill="#ba8628" d="M 499.5,826.5 C 492.978,826.823 486.645,826.49 480.5,825.5C 491.655,801.188 502.822,776.855 514,752.5C 517.455,751.209 520.955,751.209 524.5,752.5C 535.765,777.53 547.432,802.363 559.5,827C 552.508,827.5 545.508,827.666 538.5,827.5C 537.866,824.063 536.533,820.896 534.5,818C 524.151,817.168 513.817,817.334 503.5,818.5C 502.339,821.358 501.006,824.025 499.5,826.5 Z"/></g>
<g><path style="opacity:1" fill="#b98528" d="M 582.5,751.5 C 600.092,750.102 609.759,758.102 611.5,775.5C 605.5,775.5 599.5,775.5 593.5,775.5C 593.11,770.466 590.444,768.633 585.5,770C 582.455,772.448 581.955,775.281 584,778.5C 590.999,779.612 597.499,782.112 603.5,786C 614.686,798.987 614.019,811.321 601.5,823C 588.138,830.195 576.971,827.695 568,815.5C 566.521,811.583 565.354,807.583 564.5,803.5C 570.509,803.334 576.509,803.501 582.5,804C 582.839,807.339 584.672,808.839 588,808.5C 592.749,808.414 594.415,806.08 593,801.5C 592.692,800.692 592.192,800.025 591.5,799.5C 568.289,796.073 560.789,783.407 569,761.5C 572.579,756.731 577.079,753.397 582.5,751.5 Z"/></g>
<g><path style="opacity:1" fill="#ba8628" d="M 662.5,826.5 C 656.167,826.5 649.833,826.5 643.5,826.5C 643.5,808.167 643.5,789.833 643.5,771.5C 636.833,771.5 630.167,771.5 623.5,771.5C 623.5,764.833 623.5,758.167 623.5,751.5C 643.167,751.5 662.833,751.5 682.5,751.5C 682.5,758.5 682.5,765.5 682.5,772.5C 675.833,772.5 669.167,772.5 662.5,772.5C 662.5,790.5 662.5,808.5 662.5,826.5 Z"/></g>
<g><path style="opacity:1" fill="#bb8728" d="M 695.5,751.5 C 702.167,751.5 708.833,751.5 715.5,751.5C 715.5,776.833 715.5,802.167 715.5,827.5C 708.833,827.5 702.167,827.5 695.5,827.5C 695.5,802.167 695.5,776.833 695.5,751.5 Z"/></g>
<g><path style="opacity:1" fill="#bb8728" d="M 730.5,751.5 C 733.518,751.335 736.518,751.502 739.5,752C 751.03,763.196 762.197,774.696 773,786.5C 773.5,774.838 773.667,763.171 773.5,751.5C 780.167,751.5 786.833,751.5 793.5,751.5C 793.5,776.833 793.5,802.167 793.5,827.5C 790.428,827.817 787.428,827.484 784.5,826.5C 773.514,815.014 762.348,803.681 751,792.5C 750.5,804.162 750.333,815.829 750.5,827.5C 743.833,827.5 737.167,827.5 730.5,827.5C 730.5,802.167 730.5,776.833 730.5,751.5 Z"/></g>
<g><path style="opacity:1" fill="#ba8628" d="M 832.5,751.5 C 845.556,750.037 856.89,753.704 866.5,762.5C 861.5,767.167 856.5,771.833 851.5,776.5C 843.369,769.878 835.203,769.878 827,776.5C 821.828,783.73 821.161,791.396 825,799.5C 830.357,806.085 837.191,808.251 845.5,806C 848.732,804.77 851.399,802.77 853.5,800C 848.845,799.501 844.179,799.334 839.5,799.5C 839.5,795.167 839.5,790.833 839.5,786.5C 852.167,786.5 864.833,786.5 877.5,786.5C 876.586,811.08 863.919,824.747 839.5,827.5C 820.94,825.764 808.774,816.098 803,798.5C 799.725,774.347 809.559,758.681 832.5,751.5 Z M 830.5,786.5 C 829.708,787.967 829.708,789.3 830.5,790.5C 831.782,789.042 831.782,787.708 830.5,786.5 Z"/></g>
<g><path style="opacity:0.678" fill="#6f5118" d="M 331.5,751.5 C 331.5,776.5 331.5,801.5 331.5,826.5C 341.5,826.5 351.5,826.5 361.5,826.5C 351.347,827.494 341.014,827.828 330.5,827.5C 330.169,801.995 330.502,776.661 331.5,751.5 Z"/></g>
<g><path style="opacity:0.272" fill="#020100" d="M 46.5,768.5 C 51.0779,769.843 52.5779,772.843 51,777.5C 49.871,779.141 48.371,780.141 46.5,780.5C 43.1667,780.5 39.8333,780.5 36.5,780.5C 36.5,776.5 36.5,772.5 36.5,768.5C 39.8333,768.5 43.1667,768.5 46.5,768.5 Z"/></g>
<g><path style="opacity:0.182" fill="#010100" d="M 106.5,768.5 C 111.511,768.334 116.511,768.501 121.5,769C 128.053,771.73 130.22,776.563 128,783.5C 127.215,785.286 126.049,786.786 124.5,788C 118.593,789.361 112.593,789.861 106.5,789.5C 106.5,782.5 106.5,775.5 106.5,768.5 Z M 110.5,777.5 C 109.659,779.379 109.325,781.379 109.5,783.5C 118.313,782.398 118.646,780.398 110.5,777.5 Z"/></g>
<g><path style="opacity:0.158" fill="#020100" d="M 191.5,771.5 C 209.002,771.829 215.835,780.496 212,797.5C 205.975,806.485 197.809,808.985 187.5,805C 177.915,797.861 176.082,789.028 182,778.5C 184.79,775.535 187.957,773.202 191.5,771.5 Z M 188.5,781.5 C 179.316,787.358 179.316,793.191 188.5,799C 193.625,800.569 197.459,799.069 200,794.5C 201.99,784.991 198.157,780.658 188.5,781.5 Z"/></g>
<g><path style="opacity:0.147" fill="#030200" d="M 350.5,771.5 C 368.228,770.062 376.394,778.062 375,795.5C 369.834,805.495 361.668,809.161 350.5,806.5C 350.5,794.833 350.5,783.167 350.5,771.5 Z M 355.5,782.5 C 354.385,787.75 354.219,793.083 355,798.5C 355.414,798.957 355.914,799.291 356.5,799.5C 360.758,798.025 363.425,795.025 364.5,790.5C 363.323,785.65 360.323,782.983 355.5,782.5 Z"/></g>
<g><path style="opacity:0.255" fill="#845f1b" d="M 46.5,768.5 C 43.1667,768.5 39.8333,768.5 36.5,768.5C 36.5,772.5 36.5,776.5 36.5,780.5C 39.8333,780.5 43.1667,780.5 46.5,780.5C 43.0381,781.482 39.3714,781.815 35.5,781.5C 35.5,776.833 35.5,772.167 35.5,767.5C 39.3714,767.185 43.0381,767.518 46.5,768.5 Z"/></g>
<g><path style="opacity:0.647" fill="#725218" d="M 623.5,771.5 C 630.167,771.5 636.833,771.5 643.5,771.5C 643.5,789.833 643.5,808.167 643.5,826.5C 649.833,826.5 656.167,826.5 662.5,826.5C 656.021,827.491 649.354,827.824 642.5,827.5C 642.5,809.167 642.5,790.833 642.5,772.5C 635.978,772.823 629.645,772.49 623.5,771.5 Z"/></g>
<g><path style="opacity:0.275" fill="#080501" d="M 518.5,784.5 C 521.378,789.248 524.044,794.248 526.5,799.5C 521.533,800.662 516.533,800.829 511.5,800C 514.511,795.143 516.845,789.977 518.5,784.5 Z"/></g>
<g><path style="opacity:0.301" fill="#040200" d="M 280.5,785.5 C 281.376,785.369 282.043,785.702 282.5,786.5C 284.5,790.833 286.5,795.167 288.5,799.5C 283.833,800.833 279.167,800.833 274.5,799.5C 277.063,795.044 279.063,790.377 280.5,785.5 Z"/></g>
<g><path style="opacity:0.236" fill="#020100" d="M 36.5,797.5 C 41.1785,797.334 45.8452,797.501 50.5,798C 56.6459,801.338 56.9792,805.338 51.5,810C 46.5111,810.499 41.5111,810.666 36.5,810.5C 36.5,806.167 36.5,801.833 36.5,797.5 Z"/></g>
<g><path style="opacity:0.459" fill="#88611c" d="M 118.5,807.5 C 114.5,807.5 110.5,807.5 106.5,807.5C 106.5,814.167 106.5,820.833 106.5,827.5C 99.6457,827.824 92.979,827.491 86.5,826.5C 92.8333,826.5 99.1667,826.5 105.5,826.5C 105.5,819.833 105.5,813.167 105.5,806.5C 110.032,806.182 114.366,806.515 118.5,807.5 Z"/></g>
<g><path style="opacity:0.424" fill="#5d4313" d="M 480.5,825.5 C 486.645,826.49 492.978,826.823 499.5,826.5C 492.989,827.818 486.322,827.818 479.5,826.5C 479.624,825.893 479.957,825.56 480.5,825.5 Z"/></g>
</svg>
