<?xml version="1.0" encoding="UTF-8"?>
<!DOCTYPE svg PUBLIC "-//W3C//DTD SVG 1.1//EN" "http://www.w3.org/Graphics/SVG/1.1/DTD/svg11.dtd">
<svg xmlns="http://www.w3.org/2000/svg" version="1.1" width="2890px" height="2890px" style="shape-rendering:geometricPrecision; text-rendering:geometricPrecision; image-rendering:optimizeQuality; fill-rule:evenodd; clip-rule:evenodd" xmlns:xlink="http://www.w3.org/1999/xlink">
<g><path style="opacity:0.082" fill="#e3e7e8" d="M 2109.5,418.5 C 2027.86,358.296 1937.2,316.796 1837.5,294C 1772.61,279.731 1706.95,271.731 1640.5,270C 1533.83,269.5 1427.17,269.333 1320.5,269.5C 1137.83,269.5 955.167,269.5 772.5,269.5C 772.5,427.5 772.5,585.5 772.5,743.5C 772.5,744.5 772.5,745.5 772.5,746.5C 772.5,1306.83 772.5,1867.17 772.5,2427.5C 772.5,2427.83 772.5,2428.17 772.5,2428.5C 771.5,1708.67 771.167,988.667 771.5,268.5C 1066.17,268.333 1360.83,268.5 1655.5,269C 1755.66,272.099 1852.66,291.099 1946.5,326C 2005.76,348.899 2060.09,379.732 2109.5,418.5 Z"/></g>
<g><path style="opacity:1" fill="#0b7abf" d="M 1320.5,269.5 C 1146.63,270.798 1004.13,337.798 893,470.5C 829.447,550.959 789.281,641.959 772.5,743.5C 772.5,585.5 772.5,427.5 772.5,269.5C 955.167,269.5 1137.83,269.5 1320.5,269.5 Z"/></g>
<g><path style="opacity:1" fill="#2990cb" d="M 1320.5,269.5 C 1427.17,269.333 1533.83,269.5 1640.5,270C 1706.95,271.731 1772.61,279.731 1837.5,294C 1937.2,316.796 2027.86,358.296 2109.5,418.5C 2113.92,423.253 2118.92,427.253 2124.5,430.5C 2125.91,432.914 2127.91,434.581 2130.5,435.5C 2132.24,438.243 2134.57,440.243 2137.5,441.5C 2140.18,445.183 2143.52,448.183 2147.5,450.5C 2158.79,462.452 2170.45,474.119 2182.5,485.5C 2185.1,489.771 2188.43,493.437 2192.5,496.5C 2193.76,499.427 2195.76,501.761 2198.5,503.5C 2199.42,506.089 2201.09,508.089 2203.5,509.5C 2204.42,512.089 2206.09,514.089 2208.5,515.5C 2209.08,517.749 2210.41,519.415 2212.5,520.5C 2213.08,522.749 2214.41,524.415 2216.5,525.5C 2218.26,526.262 2219.26,527.596 2219.5,529.5C 2219.62,533.615 2221.62,536.281 2225.5,537.5C 2258.85,582.18 2285.52,630.846 2305.5,683.5C 2305.21,688.725 2306.87,693.058 2310.5,696.5C 2313.43,703.285 2315.76,710.285 2317.5,717.5C 2318.54,724.182 2320.54,730.515 2323.5,736.5C 2334.54,770.69 2342.54,805.69 2347.5,841.5C 2347.52,851.191 2348.85,860.525 2351.5,869.5C 2353.68,882.272 2355.01,895.272 2355.5,908.5C 2355.33,914.842 2355.5,921.175 2356,927.5C 2356.21,929.058 2356.71,930.391 2357.5,931.5C 2357.5,934.167 2357.5,936.833 2357.5,939.5C 2357.53,976.504 2357.19,1013.5 2356.5,1050.5C 2356.16,1062.24 2355.16,1073.91 2353.5,1085.5C 2351.93,1087.81 2351.1,1090.48 2351,1093.5C 2350.5,1097.82 2350.33,1102.15 2350.5,1106.5C 2333.56,1238.29 2283.39,1355.29 2200,1457.5C 2123.07,1546.58 2028.91,1610.75 1917.5,1650C 1827.11,1681.07 1734.11,1697.23 1638.5,1698.5C 1535.83,1698.5 1433.17,1698.5 1330.5,1698.5C 1330.5,1860.17 1330.5,2021.83 1330.5,2183.5C 1329.5,2183.83 1328.83,2184.5 1328.5,2185.5C 1191.13,2324.84 1024.47,2404.17 828.5,2423.5C 823.821,2423.33 819.155,2423.5 814.5,2424C 813.263,2424.23 812.263,2424.73 811.5,2425.5C 803.858,2426.26 796.191,2426.6 788.5,2426.5C 784.833,2426.5 781.167,2426.5 777.5,2426.5C 776.167,2426.5 774.833,2426.5 773.5,2426.5C 773.833,1866.33 773.5,1306.33 772.5,746.5C 772.5,745.5 772.5,744.5 772.5,743.5C 789.281,641.959 829.447,550.959 893,470.5C 1004.13,337.798 1146.63,270.798 1320.5,269.5 Z M 1331.5,753.5 C 1384.5,753.5 1437.5,753.5 1490.5,753.5C 1501.03,754.816 1511.69,756.149 1522.5,757.5C 1526.62,758.943 1530.95,759.943 1535.5,760.5C 1538.62,761.87 1541.95,762.87 1545.5,763.5C 1547.94,764.871 1550.6,765.871 1553.5,766.5C 1560.1,769.462 1566.76,772.462 1573.5,775.5C 1573.97,776.906 1574.97,777.573 1576.5,777.5C 1576.84,778.338 1577.51,778.672 1578.5,778.5C 1579.66,780.25 1581.33,781.25 1583.5,781.5C 1583.97,782.906 1584.97,783.573 1586.5,783.5C 1587.26,785.262 1588.6,786.262 1590.5,786.5C 1591.26,788.262 1592.6,789.262 1594.5,789.5C 1595.91,791.914 1597.91,793.581 1600.5,794.5C 1632.73,827.634 1652.23,867.301 1659,913.5C 1668.52,972.208 1666.69,1030.54 1653.5,1088.5C 1644.45,1123.77 1626.78,1153.94 1600.5,1179C 1571,1203.29 1537,1216.62 1498.5,1219C 1442.85,1220.4 1387.18,1220.9 1331.5,1220.5C 1331.5,1064.83 1331.5,909.167 1331.5,753.5 Z"/></g>
<g><path style="opacity:0.004" fill="#e8f0f4" d="M 2109.5,418.5 C 2115.08,421.747 2120.08,425.747 2124.5,430.5C 2118.92,427.253 2113.92,423.253 2109.5,418.5 Z"/></g>
<g><path style="opacity:0.004" fill="#e8eff4" d="M 2124.5,430.5 C 2127.09,431.419 2129.09,433.086 2130.5,435.5C 2127.91,434.581 2125.91,432.914 2124.5,430.5 Z"/></g>
<g><path style="opacity:0.004" fill="#eaf1f5" d="M 2130.5,435.5 C 2133.43,436.757 2135.76,438.757 2137.5,441.5C 2134.57,440.243 2132.24,438.243 2130.5,435.5 Z"/></g>
<g><path style="opacity:0.004" fill="#dfeaf0" d="M 2137.5,441.5 C 2141.46,443.788 2144.79,446.788 2147.5,450.5C 2143.52,448.183 2140.18,445.183 2137.5,441.5 Z"/></g>
<g><path style="opacity:0.004" fill="#deeaf1" d="M 2147.5,450.5 C 2159.43,460.932 2170.93,471.932 2182,483.5C 2182.46,484.094 2182.63,484.761 2182.5,485.5C 2170.45,474.119 2158.79,462.452 2147.5,450.5 Z"/></g>
<g><path style="opacity:0.106" fill="#dde9f1" d="M 2182.5,485.5 C 2186.57,488.563 2189.9,492.229 2192.5,496.5C 2188.43,493.437 2185.1,489.771 2182.5,485.5 Z"/></g>
<g><path style="opacity:0.208" fill="#dce8f0" d="M 2192.5,496.5 C 2195.24,498.239 2197.24,500.573 2198.5,503.5C 2195.76,501.761 2193.76,499.427 2192.5,496.5 Z"/></g>
<g><path style="opacity:0.208" fill="#d5e4ee" d="M 2198.5,503.5 C 2200.91,504.911 2202.58,506.911 2203.5,509.5C 2201.09,508.089 2199.42,506.089 2198.5,503.5 Z"/></g>
<g><path style="opacity:0.2" fill="#d5e4ee" d="M 2203.5,509.5 C 2205.91,510.911 2207.58,512.911 2208.5,515.5C 2206.09,514.089 2204.42,512.089 2203.5,509.5 Z"/></g>
<g><path style="opacity:0.098" fill="#dce9f1" d="M 2208.5,515.5 C 2210.59,516.585 2211.92,518.251 2212.5,520.5C 2210.41,519.415 2209.08,517.749 2208.5,515.5 Z"/></g>
<g><path style="opacity:0.09" fill="#e0ebf2" d="M 2212.5,520.5 C 2214.59,521.585 2215.92,523.251 2216.5,525.5C 2214.41,524.415 2213.08,522.749 2212.5,520.5 Z"/></g>
<g><path style="opacity:0.961" fill="#9dc3e0" d="M 2219.5,529.5 C 2221.98,531.8 2223.98,534.467 2225.5,537.5C 2221.62,536.281 2219.62,533.615 2219.5,529.5 Z"/></g>
<g><path style="opacity:0.847" fill="#97c0dd" d="M 2305.5,683.5 C 2307.4,687.655 2309.07,691.989 2310.5,696.5C 2306.87,693.058 2305.21,688.725 2305.5,683.5 Z"/></g>
<g><path style="opacity:0.741" fill="#9ec3db" d="M 2317.5,717.5 C 2320.28,723.499 2322.28,729.833 2323.5,736.5C 2320.54,730.515 2318.54,724.182 2317.5,717.5 Z"/></g>
<g><path style="opacity:1" fill="#d05a2b" d="M 1490.5,753.5 C 1517.84,753.333 1545.17,753.5 1572.5,754C 1617.43,754.732 1659.43,766.065 1698.5,788C 1737.9,813.586 1764.07,849.086 1777,894.5C 1781.7,911.899 1784.87,929.566 1786.5,947.5C 1787.38,971.154 1787.71,994.821 1787.5,1018.5C 1785.72,1064.33 1771.89,1106 1746,1143.5C 1720.35,1175.92 1687.52,1197.76 1647.5,1209C 1621.34,1216.37 1594.68,1220.2 1567.5,1220.5C 1547.33,1220.83 1527.33,1220.5 1507.5,1219.5C 1584.46,1209.21 1633.13,1166.54 1653.5,1091.5C 1664.53,1050 1668.7,1007.67 1666,964.5C 1665.36,920.948 1655.69,879.614 1637,840.5C 1630.17,828.009 1622.17,816.343 1613,805.5C 1609.24,801.23 1605.07,797.563 1600.5,794.5C 1599.09,792.086 1597.09,790.419 1594.5,789.5C 1593.74,787.738 1592.4,786.738 1590.5,786.5C 1589.74,784.738 1588.4,783.738 1586.5,783.5C 1586.03,782.094 1585.03,781.427 1583.5,781.5C 1582.34,779.75 1580.67,778.75 1578.5,778.5C 1577.51,778.672 1576.84,778.338 1576.5,777.5C 1576.03,776.094 1575.03,775.427 1573.5,775.5C 1566.76,772.462 1560.1,769.462 1553.5,766.5C 1551.5,764.018 1548.83,763.018 1545.5,763.5C 1542.62,761.32 1539.29,760.32 1535.5,760.5C 1531.65,757.965 1527.31,756.965 1522.5,757.5C 1511.69,756.149 1501.03,754.816 1490.5,753.5 Z"/></g>
<g><path style="opacity:0.616" fill="#e3a48b" d="M 1522.5,757.5 C 1527.31,756.965 1531.65,757.965 1535.5,760.5C 1530.95,759.943 1526.62,758.943 1522.5,757.5 Z"/></g>
<g><path style="opacity:0.878" fill="#e5ad97" d="M 1535.5,760.5 C 1539.29,760.32 1542.62,761.32 1545.5,763.5C 1541.95,762.87 1538.62,761.87 1535.5,760.5 Z"/></g>
<g><path style="opacity:0.933" fill="#e8aa92" d="M 1545.5,763.5 C 1548.83,763.018 1551.5,764.018 1553.5,766.5C 1550.6,765.871 1547.94,764.871 1545.5,763.5 Z"/></g>
<g><path style="opacity:0.796" fill="#54a5d5" d="M 772.5,746.5 C 773.5,1306.33 773.833,1866.33 773.5,2426.5C 774.833,2426.5 776.167,2426.5 777.5,2426.5C 776.081,2427.45 774.415,2427.78 772.5,2427.5C 772.5,1867.17 772.5,1306.83 772.5,746.5 Z"/></g>
<g><path style="opacity:0.125" fill="#f4e3dc" d="M 1573.5,775.5 C 1575.03,775.427 1576.03,776.094 1576.5,777.5C 1574.97,777.573 1573.97,776.906 1573.5,775.5 Z"/></g>
<g><path style="opacity:0.125" fill="#f2ddd4" d="M 1578.5,778.5 C 1580.67,778.75 1582.34,779.75 1583.5,781.5C 1581.33,781.25 1579.66,780.25 1578.5,778.5 Z"/></g>
<g><path style="opacity:0.271" fill="#edd1c7" d="M 1583.5,781.5 C 1585.03,781.427 1586.03,782.094 1586.5,783.5C 1584.97,783.573 1583.97,782.906 1583.5,781.5 Z"/></g>
<g><path style="opacity:0.329" fill="#efd5ca" d="M 1586.5,783.5 C 1588.4,783.738 1589.74,784.738 1590.5,786.5C 1588.6,786.262 1587.26,785.262 1586.5,783.5 Z"/></g>
<g><path style="opacity:0.278" fill="#f1d9d0" d="M 1590.5,786.5 C 1592.4,786.738 1593.74,787.738 1594.5,789.5C 1592.6,789.262 1591.26,788.262 1590.5,786.5 Z"/></g>
<g><path style="opacity:0.29" fill="#f0d9cf" d="M 1594.5,789.5 C 1597.09,790.419 1599.09,792.086 1600.5,794.5C 1597.91,793.581 1595.91,791.914 1594.5,789.5 Z"/></g>
<g><path style="opacity:0.847" fill="#81b3d5" d="M 2347.5,841.5 C 2349.65,850.584 2350.99,859.918 2351.5,869.5C 2348.85,860.525 2347.52,851.191 2347.5,841.5 Z"/></g>
<g><path style="opacity:0.137" fill="#ecd8d0" d="M 1600.5,794.5 C 1605.07,797.563 1609.24,801.23 1613,805.5C 1622.17,816.343 1630.17,828.009 1637,840.5C 1655.69,879.614 1665.36,920.948 1666,964.5C 1668.7,1007.67 1664.53,1050 1653.5,1091.5C 1653.5,1090.5 1653.5,1089.5 1653.5,1088.5C 1666.69,1030.54 1668.52,972.208 1659,913.5C 1652.23,867.301 1632.73,827.634 1600.5,794.5 Z"/></g>
<g><path style="opacity:0.875" fill="#82b4d5" d="M 2355.5,908.5 C 2356.58,915.983 2357.25,923.65 2357.5,931.5C 2356.71,930.391 2356.21,929.058 2356,927.5C 2355.5,921.175 2355.33,914.842 2355.5,908.5 Z"/></g>
<g><path style="opacity:0.875" fill="#7bb0d4" d="M 2357.5,939.5 C 2360.21,976.522 2359.87,1013.52 2356.5,1050.5C 2357.19,1013.5 2357.53,976.504 2357.5,939.5 Z"/></g>
<g><path style="opacity:1" fill="#be603e" d="M 1786.5,947.5 C 1787.32,949.969 1787.82,952.635 1788,955.5C 1788.83,976.671 1788.66,997.671 1787.5,1018.5C 1787.71,994.821 1787.38,971.154 1786.5,947.5 Z"/></g>
<g><path style="opacity:0.863" fill="#79b0d4" d="M 2353.5,1085.5 C 2353.06,1092.71 2352.06,1099.71 2350.5,1106.5C 2350.33,1102.15 2350.5,1097.82 2351,1093.5C 2351.1,1090.48 2351.93,1087.81 2353.5,1085.5 Z"/></g>
<g><path style="opacity:0.082" fill="#d6dde2" d="M 1331.5,753.5 C 1331.5,909.167 1331.5,1064.83 1331.5,1220.5C 1387.18,1220.9 1442.85,1220.4 1498.5,1219C 1537,1216.62 1571,1203.29 1600.5,1179C 1626.78,1153.94 1644.45,1123.77 1653.5,1088.5C 1653.5,1089.5 1653.5,1090.5 1653.5,1091.5C 1633.13,1166.54 1584.46,1209.21 1507.5,1219.5C 1501,1219.94 1494.67,1220.6 1488.5,1221.5C 1435.83,1221.5 1383.17,1221.5 1330.5,1221.5C 1330.17,1065.33 1330.5,909.332 1331.5,753.5 Z"/></g>
<g><path style="opacity:1" fill="#c16644" d="M 1507.5,1219.5 C 1527.33,1220.5 1547.33,1220.83 1567.5,1220.5C 1541.34,1221.5 1515.01,1221.83 1488.5,1221.5C 1494.67,1220.6 1501,1219.94 1507.5,1219.5 Z"/></g>
<g><path style="opacity:0.416" fill="#a1becc" d="M 1638.5,1698.5 C 1536.33,1699.5 1434,1699.83 1331.5,1699.5C 1331.5,1942.17 1331.5,2184.83 1331.5,2427.5C 1331.17,2427.5 1330.83,2427.5 1330.5,2427.5C 1330.5,2346.17 1330.5,2264.83 1330.5,2183.5C 1330.5,2021.83 1330.5,1860.17 1330.5,1698.5C 1433.17,1698.5 1535.83,1698.5 1638.5,1698.5 Z"/></g>
<g><path style="opacity:0.937" fill="#e7c039" d="M 1330.5,2183.5 C 1330.5,2264.83 1330.5,2346.17 1330.5,2427.5C 1330.17,2427.5 1329.83,2427.5 1329.5,2427.5C 1329.83,2346.66 1329.5,2266 1328.5,2185.5C 1328.83,2184.5 1329.5,2183.83 1330.5,2183.5 Z"/></g>
<g><path style="opacity:1" fill="#fac11a" d="M 1328.5,2185.5 C 1329.5,2266 1329.83,2346.66 1329.5,2427.5C 1149,2427.83 968.666,2427.5 788.5,2426.5C 796.191,2426.6 803.858,2426.26 811.5,2425.5C 817.349,2425.18 823.016,2424.52 828.5,2423.5C 1024.47,2404.17 1191.13,2324.84 1328.5,2185.5 Z"/></g>
<g><path style="opacity:1" fill="#6a9ba3" d="M 828.5,2423.5 C 823.016,2424.52 817.349,2425.18 811.5,2425.5C 812.263,2424.73 813.263,2424.23 814.5,2424C 819.155,2423.5 823.821,2423.33 828.5,2423.5 Z"/></g>
<g><path style="opacity:0.231" fill="#f7ebc8" d="M 777.5,2426.5 C 781.167,2426.5 784.833,2426.5 788.5,2426.5C 968.666,2427.5 1149,2427.83 1329.5,2427.5C 1329.83,2427.5 1330.17,2427.5 1330.5,2427.5C 1330.83,2427.5 1331.17,2427.5 1331.5,2427.5C 1145.33,2428.5 959.001,2428.83 772.5,2428.5C 772.5,2428.17 772.5,2427.83 772.5,2427.5C 774.415,2427.78 776.081,2427.45 777.5,2426.5 Z"/></g>
<g><path style="opacity:1" fill="#3091cc" d="M 1456.5,2598.5 C 1457.91,2598.97 1458.57,2599.97 1458.5,2601.5C 1459.61,2606.89 1460.61,2612.22 1461.5,2617.5C 1450.83,2617.5 1440.17,2617.5 1429.5,2617.5C 1428.66,2611.65 1425.32,2608.65 1419.5,2608.5C 1414.04,2609.63 1411.71,2612.96 1412.5,2618.5C 1414.02,2622.12 1416.69,2624.62 1420.5,2626C 1428.58,2628.8 1436.58,2631.8 1444.5,2635C 1450.23,2637.9 1455.23,2641.73 1459.5,2646.5C 1462.17,2654.52 1463.17,2662.85 1462.5,2671.5C 1458.36,2685.47 1449.03,2693.63 1434.5,2696C 1422.59,2697.35 1410.93,2696.35 1399.5,2693C 1396.76,2691.97 1394.43,2690.47 1392.5,2688.5C 1390.17,2685.5 1387.5,2682.83 1384.5,2680.5C 1381.35,2674.54 1379.68,2668.21 1379.5,2661.5C 1390.17,2661.5 1400.83,2661.5 1411.5,2661.5C 1411.26,2662.79 1411.6,2663.79 1412.5,2664.5C 1413.6,2665.6 1414.27,2666.94 1414.5,2668.5C 1414.94,2670.07 1415.94,2671.24 1417.5,2672C 1426.56,2673.92 1431.06,2670.42 1431,2661.5C 1430.24,2659.94 1429.07,2658.94 1427.5,2658.5C 1415.88,2653.7 1404.22,2648.86 1392.5,2644C 1389.33,2642 1386.67,2639.5 1384.5,2636.5C 1379.83,2627.43 1378.33,2617.76 1380,2607.5C 1385.32,2594.86 1394.82,2587.36 1408.5,2585C 1426.94,2581.59 1442.94,2586.09 1456.5,2598.5 Z"/></g>
<g><path style="opacity:1" fill="#3091cc" d="M 1761.5,2598.5 C 1762.91,2598.97 1763.57,2599.97 1763.5,2601.5C 1764.61,2606.89 1765.61,2612.22 1766.5,2617.5C 1755.83,2617.5 1745.17,2617.5 1734.5,2617.5C 1733.66,2611.65 1730.32,2608.65 1724.5,2608.5C 1719.04,2609.63 1716.71,2612.96 1717.5,2618.5C 1719.02,2622.12 1721.69,2624.62 1725.5,2626C 1733.58,2628.8 1741.58,2631.8 1749.5,2635C 1755.23,2637.9 1760.23,2641.73 1764.5,2646.5C 1767.17,2654.52 1768.17,2662.85 1767.5,2671.5C 1763.36,2685.47 1754.03,2693.63 1739.5,2696C 1727.59,2697.35 1715.93,2696.35 1704.5,2693C 1701.76,2691.97 1699.43,2690.47 1697.5,2688.5C 1695.17,2685.5 1692.5,2682.83 1689.5,2680.5C 1686.35,2674.54 1684.68,2668.21 1684.5,2661.5C 1695.17,2661.5 1705.83,2661.5 1716.5,2661.5C 1716.26,2662.79 1716.6,2663.79 1717.5,2664.5C 1718.6,2665.6 1719.27,2666.94 1719.5,2668.5C 1719.94,2670.07 1720.94,2671.24 1722.5,2672C 1731.56,2673.92 1736.06,2670.42 1736,2661.5C 1735.24,2659.94 1734.07,2658.94 1732.5,2658.5C 1720.88,2653.7 1709.22,2648.86 1697.5,2644C 1694.33,2642 1691.67,2639.5 1689.5,2636.5C 1684.83,2627.43 1683.33,2617.76 1685,2607.5C 1690.32,2594.86 1699.82,2587.36 1713.5,2585C 1731.94,2581.59 1747.94,2586.09 1761.5,2598.5 Z"/></g>
<g><path style="opacity:1" fill="#3192cc" d="M 1040.5,2597.5 C 1041.76,2600.43 1043.76,2602.76 1046.5,2604.5C 1050.78,2609.65 1053.11,2615.65 1053.5,2622.5C 1041.83,2622.67 1030.16,2622.5 1018.5,2622C 1007.06,2610.76 995.562,2610.93 984,2622.5C 976.688,2635.31 976.855,2647.97 984.5,2660.5C 987.16,2664.96 991.16,2667.79 996.5,2669C 1009.35,2671.83 1019.51,2668 1027,2657.5C 1027.53,2656.18 1027.03,2655.52 1025.5,2655.5C 1016.17,2655.5 1006.83,2655.5 997.5,2655.5C 997.5,2648.17 997.5,2640.83 997.5,2633.5C 1016.5,2633.5 1035.5,2633.5 1054.5,2633.5C 1060.73,2664.39 1049.07,2684.89 1019.5,2695C 1006.28,2697.97 993.11,2697.47 980,2693.5C 974.875,2691.7 970.375,2689.03 966.5,2685.5C 964.167,2682.5 961.5,2679.83 958.5,2677.5C 944.855,2655.02 944.021,2632.02 956,2608.5C 966.883,2592.89 981.883,2585.22 1001,2585.5C 1015.64,2584.99 1028.8,2588.99 1040.5,2597.5 Z"/></g>
<g><path style="opacity:0.043" fill="#dfeaf0" d="M 758.5,2599.5 C 751.321,2592.41 742.654,2588.25 732.5,2587C 714.836,2586.5 697.17,2586.33 679.5,2586.5C 679.5,2622.83 679.5,2659.17 679.5,2695.5C 677.506,2659.18 676.84,2622.52 677.5,2585.5C 696.836,2585.33 716.17,2585.5 735.5,2586C 742.446,2587.31 748.779,2589.98 754.5,2594C 756.464,2595.45 757.797,2597.28 758.5,2599.5 Z"/></g>
<g><path style="opacity:1" fill="#2d90cc" d="M 758.5,2599.5 C 763.671,2605.99 766.005,2613.49 765.5,2622C 765.732,2639.77 757.398,2651.44 740.5,2657C 730.232,2658.4 719.898,2658.9 709.5,2658.5C 709.5,2670.83 709.5,2683.17 709.5,2695.5C 699.5,2695.5 689.5,2695.5 679.5,2695.5C 679.5,2659.17 679.5,2622.83 679.5,2586.5C 697.17,2586.33 714.836,2586.5 732.5,2587C 742.654,2588.25 751.321,2592.41 758.5,2599.5 Z M 729.5,2613.5 C 733.013,2618.63 733.346,2623.96 730.5,2629.5C 727.932,2631.72 724.932,2632.88 721.5,2633C 717.514,2633.5 713.514,2633.67 709.5,2633.5C 709.5,2626.17 709.5,2618.83 709.5,2611.5C 716.346,2611.01 723.012,2611.68 729.5,2613.5 Z"/></g>
<g><path style="opacity:0.043" fill="#dfeaf0" d="M 856.5,2599.5 C 849.321,2592.41 840.654,2588.25 830.5,2587C 812.836,2586.5 795.17,2586.33 777.5,2586.5C 777.5,2622.83 777.5,2659.17 777.5,2695.5C 775.506,2659.18 774.84,2622.52 775.5,2585.5C 794.836,2585.33 814.17,2585.5 833.5,2586C 840.446,2587.31 846.779,2589.98 852.5,2594C 854.464,2595.45 855.797,2597.28 856.5,2599.5 Z"/></g>
<g><path style="opacity:1" fill="#2d90cc" d="M 856.5,2599.5 C 861.671,2605.99 864.005,2613.49 863.5,2622C 863.732,2639.77 855.398,2651.44 838.5,2657C 828.232,2658.4 817.898,2658.9 807.5,2658.5C 807.5,2670.83 807.5,2683.17 807.5,2695.5C 797.5,2695.5 787.5,2695.5 777.5,2695.5C 777.5,2659.17 777.5,2622.83 777.5,2586.5C 795.17,2586.33 812.836,2586.5 830.5,2587C 840.654,2588.25 849.321,2592.41 856.5,2599.5 Z M 827.5,2613.5 C 831.013,2618.63 831.346,2623.96 828.5,2629.5C 825.932,2631.72 822.932,2632.88 819.5,2633C 815.514,2633.5 811.514,2633.67 807.5,2633.5C 807.5,2626.17 807.5,2618.83 807.5,2611.5C 814.346,2611.01 821.012,2611.68 827.5,2613.5 Z"/></g>
<g><path style="opacity:0.043" fill="#dae8f0" d="M 905.5,2586.5 C 895.5,2586.5 885.5,2586.5 875.5,2586.5C 875.5,2622.83 875.5,2659.17 875.5,2695.5C 896.833,2695.5 918.167,2695.5 939.5,2695.5C 917.673,2696.5 895.673,2696.83 873.5,2696.5C 873.5,2659.5 873.5,2622.5 873.5,2585.5C 884.346,2585.17 895.013,2585.51 905.5,2586.5 Z"/></g>
<g><path style="opacity:1" fill="#2a90cb" d="M 905.5,2586.5 C 905.5,2614.5 905.5,2642.5 905.5,2670.5C 916.451,2672.48 927.784,2673.14 939.5,2672.5C 939.5,2680.17 939.5,2687.83 939.5,2695.5C 918.167,2695.5 896.833,2695.5 875.5,2695.5C 875.5,2659.17 875.5,2622.83 875.5,2586.5C 885.5,2586.5 895.5,2586.5 905.5,2586.5 Z"/></g>
<g><path style="opacity:0.043" fill="#dfeaf0" d="M 1176.5,2599.5 C 1169.32,2592.41 1160.65,2588.25 1150.5,2587C 1132.84,2586.5 1115.17,2586.33 1097.5,2586.5C 1097.5,2622.83 1097.5,2659.17 1097.5,2695.5C 1095.51,2659.18 1094.84,2622.52 1095.5,2585.5C 1114.84,2585.33 1134.17,2585.5 1153.5,2586C 1160.45,2587.31 1166.78,2589.98 1172.5,2594C 1174.46,2595.45 1175.8,2597.28 1176.5,2599.5 Z"/></g>
<g><path style="opacity:1" fill="#2d90cc" d="M 1176.5,2599.5 C 1181.67,2605.99 1184,2613.49 1183.5,2622C 1183.73,2639.77 1175.4,2651.44 1158.5,2657C 1148.23,2658.4 1137.9,2658.9 1127.5,2658.5C 1127.5,2670.83 1127.5,2683.17 1127.5,2695.5C 1117.5,2695.5 1107.5,2695.5 1097.5,2695.5C 1097.5,2659.17 1097.5,2622.83 1097.5,2586.5C 1115.17,2586.33 1132.84,2586.5 1150.5,2587C 1160.65,2588.25 1169.32,2592.41 1176.5,2599.5 Z M 1147.5,2613.5 C 1151.01,2618.63 1151.35,2623.96 1148.5,2629.5C 1145.93,2631.72 1142.93,2632.88 1139.5,2633C 1135.51,2633.5 1131.51,2633.67 1127.5,2633.5C 1127.5,2626.17 1127.5,2618.83 1127.5,2611.5C 1134.35,2611.01 1141.01,2611.68 1147.5,2613.5 Z"/></g>
<g><path style="opacity:0.043" fill="#dfeaf0" d="M 1277.5,2600.5 C 1270.65,2593.41 1262.32,2588.91 1252.5,2587C 1233.5,2586.5 1214.5,2586.33 1195.5,2586.5C 1195.5,2622.83 1195.5,2659.17 1195.5,2695.5C 1193.51,2659.18 1192.84,2622.52 1193.5,2585.5C 1213.84,2585.33 1234.17,2585.5 1254.5,2586C 1261.22,2587.13 1267.22,2589.79 1272.5,2594C 1274.79,2595.78 1276.46,2597.94 1277.5,2600.5 Z"/></g>
<g><path style="opacity:1" fill="#2e91cc" d="M 1277.5,2600.5 C 1278.91,2600.97 1279.57,2601.97 1279.5,2603.5C 1281.8,2614.05 1282.13,2624.72 1280.5,2635.5C 1277,2644.34 1270.66,2650 1261.5,2652.5C 1268.61,2666.72 1276.28,2680.72 1284.5,2694.5C 1272.85,2695.5 1261.19,2695.83 1249.5,2695.5C 1243.18,2681.52 1235.85,2668.18 1227.5,2655.5C 1225.52,2668.46 1224.85,2681.79 1225.5,2695.5C 1215.5,2695.5 1205.5,2695.5 1195.5,2695.5C 1195.5,2659.17 1195.5,2622.83 1195.5,2586.5C 1214.5,2586.33 1233.5,2586.5 1252.5,2587C 1262.32,2588.91 1270.65,2593.41 1277.5,2600.5 Z M 1246.5,2613.5 C 1252.08,2619.21 1252.41,2625.05 1247.5,2631C 1245.91,2631.86 1244.25,2632.53 1242.5,2633C 1236.84,2633.5 1231.18,2633.67 1225.5,2633.5C 1225.5,2626.5 1225.5,2619.5 1225.5,2612.5C 1232.54,2612.28 1239.54,2612.61 1246.5,2613.5 Z"/></g>
<g><path style="opacity:0.043" fill="#dfeaf0" d="M 1366.5,2586.5 C 1343.5,2586.5 1320.5,2586.5 1297.5,2586.5C 1297.5,2622.83 1297.5,2659.17 1297.5,2695.5C 1295.51,2659.18 1294.84,2622.52 1295.5,2585.5C 1319.34,2585.17 1343.01,2585.5 1366.5,2586.5 Z"/></g>
<g><path style="opacity:1" fill="#2e91cb" d="M 1366.5,2586.5 C 1366.5,2594.83 1366.5,2603.17 1366.5,2611.5C 1353.5,2611.5 1340.5,2611.5 1327.5,2611.5C 1327.5,2616.83 1327.5,2622.17 1327.5,2627.5C 1339.17,2627.5 1350.83,2627.5 1362.5,2627.5C 1362.5,2635.5 1362.5,2643.5 1362.5,2651.5C 1350.83,2651.5 1339.17,2651.5 1327.5,2651.5C 1327.5,2657.5 1327.5,2663.5 1327.5,2669.5C 1340.12,2671.48 1353.12,2672.15 1366.5,2671.5C 1366.5,2679.5 1366.5,2687.5 1366.5,2695.5C 1343.5,2695.5 1320.5,2695.5 1297.5,2695.5C 1297.5,2659.17 1297.5,2622.83 1297.5,2586.5C 1320.5,2586.5 1343.5,2586.5 1366.5,2586.5 Z"/></g>
<g><path style="opacity:0.031" fill="#e5ecf1" d="M 1456.5,2598.5 C 1442.94,2586.09 1426.94,2581.59 1408.5,2585C 1394.82,2587.36 1385.32,2594.86 1380,2607.5C 1378.33,2617.76 1379.83,2627.43 1384.5,2636.5C 1381.68,2634.2 1379.84,2631.2 1379,2627.5C 1374.57,2603.86 1384.07,2589.36 1407.5,2584C 1415.83,2583.33 1424.17,2583.33 1432.5,2584C 1441.7,2585.68 1449.54,2589.85 1456,2596.5C 1456.46,2597.09 1456.63,2597.76 1456.5,2598.5 Z"/></g>
<g><path style="opacity:1" fill="#3091cc" d="M 1637.5,2586.5 C 1651.47,2622.41 1664.47,2658.74 1676.5,2695.5C 1665.83,2695.5 1655.17,2695.5 1644.5,2695.5C 1642.92,2689.08 1640.59,2683.08 1637.5,2677.5C 1625.15,2677.17 1612.82,2677.5 1600.5,2678.5C 1598.63,2684.12 1596.96,2689.79 1595.5,2695.5C 1584.5,2695.5 1573.5,2695.5 1562.5,2695.5C 1575.1,2659.38 1588.1,2623.38 1601.5,2587.5C 1613.48,2586.5 1625.48,2586.17 1637.5,2586.5 Z M 1618.5,2623.5 C 1622.41,2633.22 1625.74,2643.22 1628.5,2653.5C 1622.17,2653.5 1615.83,2653.5 1609.5,2653.5C 1609.5,2652.5 1609.5,2651.5 1609.5,2650.5C 1613.07,2641.78 1616.07,2632.78 1618.5,2623.5 Z"/></g>
<g><path style="opacity:0.031" fill="#e5ecf1" d="M 1761.5,2598.5 C 1747.94,2586.09 1731.94,2581.59 1713.5,2585C 1699.82,2587.36 1690.32,2594.86 1685,2607.5C 1683.33,2617.76 1684.83,2627.43 1689.5,2636.5C 1686.68,2634.2 1684.84,2631.2 1684,2627.5C 1679.57,2603.86 1689.07,2589.36 1712.5,2584C 1720.83,2583.33 1729.17,2583.33 1737.5,2584C 1746.7,2585.68 1754.54,2589.85 1761,2596.5C 1761.46,2597.09 1761.63,2597.76 1761.5,2598.5 Z"/></g>
<g><path style="opacity:0.043" fill="#deeaf0" d="M 1812.5,2586.5 C 1802.5,2586.5 1792.5,2586.5 1782.5,2586.5C 1782.5,2622.83 1782.5,2659.17 1782.5,2695.5C 1780.51,2659.18 1779.84,2622.52 1780.5,2585.5C 1791.35,2585.17 1802.01,2585.51 1812.5,2586.5 Z"/></g>
<g><path style="opacity:1" fill="#2a8fcb" d="M 1812.5,2586.5 C 1812.5,2622.83 1812.5,2659.17 1812.5,2695.5C 1802.5,2695.5 1792.5,2695.5 1782.5,2695.5C 1782.5,2659.17 1782.5,2622.83 1782.5,2586.5C 1792.5,2586.5 1802.5,2586.5 1812.5,2586.5 Z"/></g>
<g><path style="opacity:0.043" fill="#dfeaf0" d="M 1938.5,2599.5 C 1931.32,2592.41 1922.65,2588.25 1912.5,2587C 1894.84,2586.5 1877.17,2586.33 1859.5,2586.5C 1859.5,2622.83 1859.5,2659.17 1859.5,2695.5C 1857.51,2659.18 1856.84,2622.52 1857.5,2585.5C 1876.84,2585.33 1896.17,2585.5 1915.5,2586C 1922.45,2587.31 1928.78,2589.98 1934.5,2594C 1936.46,2595.45 1937.8,2597.28 1938.5,2599.5 Z"/></g>
<g><path style="opacity:1" fill="#2d90cc" d="M 1938.5,2599.5 C 1943.67,2605.99 1946,2613.49 1945.5,2622C 1945.73,2639.77 1937.4,2651.44 1920.5,2657C 1910.23,2658.4 1899.9,2658.9 1889.5,2658.5C 1889.5,2670.83 1889.5,2683.17 1889.5,2695.5C 1879.5,2695.5 1869.5,2695.5 1859.5,2695.5C 1859.5,2659.17 1859.5,2622.83 1859.5,2586.5C 1877.17,2586.33 1894.84,2586.5 1912.5,2587C 1922.65,2588.25 1931.32,2592.41 1938.5,2599.5 Z M 1909.5,2613.5 C 1913.01,2618.63 1913.35,2623.96 1910.5,2629.5C 1907.93,2631.72 1904.93,2632.88 1901.5,2633C 1897.51,2633.5 1893.51,2633.67 1889.5,2633.5C 1889.5,2626.17 1889.5,2618.83 1889.5,2611.5C 1896.35,2611.01 1903.01,2611.68 1909.5,2613.5 Z"/></g>
<g><path style="opacity:0.043" fill="#dfeaf0" d="M 2039.5,2600.5 C 2032.65,2593.41 2024.32,2588.91 2014.5,2587C 1995.5,2586.5 1976.5,2586.33 1957.5,2586.5C 1957.5,2622.83 1957.5,2659.17 1957.5,2695.5C 1955.51,2659.18 1954.84,2622.52 1955.5,2585.5C 1975.84,2585.33 1996.17,2585.5 2016.5,2586C 2023.22,2587.13 2029.22,2589.79 2034.5,2594C 2036.79,2595.78 2038.46,2597.94 2039.5,2600.5 Z"/></g>
<g><path style="opacity:1" fill="#2e91cc" d="M 2039.5,2600.5 C 2040.91,2600.97 2041.57,2601.97 2041.5,2603.5C 2043.8,2614.05 2044.13,2624.72 2042.5,2635.5C 2039,2644.34 2032.66,2650 2023.5,2652.5C 2030.61,2666.72 2038.28,2680.72 2046.5,2694.5C 2034.85,2695.5 2023.19,2695.83 2011.5,2695.5C 2005.18,2681.52 1997.85,2668.18 1989.5,2655.5C 1987.52,2668.46 1986.85,2681.79 1987.5,2695.5C 1977.5,2695.5 1967.5,2695.5 1957.5,2695.5C 1957.5,2659.17 1957.5,2622.83 1957.5,2586.5C 1976.5,2586.33 1995.5,2586.5 2014.5,2587C 2024.32,2588.91 2032.65,2593.41 2039.5,2600.5 Z M 2008.5,2613.5 C 2014.08,2619.21 2014.41,2625.05 2009.5,2631C 2007.91,2631.86 2006.25,2632.53 2004.5,2633C 1998.84,2633.5 1993.18,2633.67 1987.5,2633.5C 1987.5,2626.5 1987.5,2619.5 1987.5,2612.5C 1994.54,2612.28 2001.54,2612.61 2008.5,2613.5 Z"/></g>
<g><path style="opacity:0.043" fill="#deeaf0" d="M 2089.5,2586.5 C 2079.5,2586.5 2069.5,2586.5 2059.5,2586.5C 2059.5,2622.83 2059.5,2659.17 2059.5,2695.5C 2057.51,2659.18 2056.84,2622.52 2057.5,2585.5C 2068.35,2585.17 2079.01,2585.51 2089.5,2586.5 Z"/></g>
<g><path style="opacity:1" fill="#2a8fcb" d="M 2089.5,2586.5 C 2089.5,2622.83 2089.5,2659.17 2089.5,2695.5C 2079.5,2695.5 2069.5,2695.5 2059.5,2695.5C 2059.5,2659.17 2059.5,2622.83 2059.5,2586.5C 2069.5,2586.5 2079.5,2586.5 2089.5,2586.5 Z"/></g>
<g><path style="opacity:0.043" fill="#deeaf0" d="M 2144.5,2586.5 C 2132.17,2586.5 2119.83,2586.5 2107.5,2586.5C 2107.5,2622.83 2107.5,2659.17 2107.5,2695.5C 2105.51,2659.18 2104.84,2622.52 2105.5,2585.5C 2118.68,2585.17 2131.68,2585.5 2144.5,2586.5 Z"/></g>
<g><path style="opacity:1" fill="#2d91cc" d="M 2144.5,2586.5 C 2153.35,2608.22 2161.69,2630.22 2169.5,2652.5C 2169.95,2655.52 2170.78,2655.86 2172,2653.5C 2180.47,2631.25 2188.64,2608.91 2196.5,2586.5C 2208.83,2586.5 2221.17,2586.5 2233.5,2586.5C 2233.5,2622.83 2233.5,2659.17 2233.5,2695.5C 2223.5,2695.5 2213.5,2695.5 2203.5,2695.5C 2203.67,2676.16 2203.5,2656.83 2203,2637.5C 2202.21,2638.74 2201.71,2640.08 2201.5,2641.5C 2196.17,2659.32 2190.34,2676.98 2184,2694.5C 2175.25,2695.48 2166.42,2695.82 2157.5,2695.5C 2151.51,2675.68 2145.01,2656.02 2138,2636.5C 2137.51,2638.13 2137.34,2639.8 2137.5,2641.5C 2137.5,2659.5 2137.5,2677.5 2137.5,2695.5C 2127.5,2695.5 2117.5,2695.5 2107.5,2695.5C 2107.5,2659.17 2107.5,2622.83 2107.5,2586.5C 2119.83,2586.5 2132.17,2586.5 2144.5,2586.5 Z"/></g>
<g><path style="opacity:1" fill="#3091cc" d="M 2318.5,2586.5 C 2332.47,2622.41 2345.47,2658.74 2357.5,2695.5C 2346.83,2695.5 2336.17,2695.5 2325.5,2695.5C 2323.92,2689.08 2321.59,2683.08 2318.5,2677.5C 2306.15,2677.17 2293.82,2677.5 2281.5,2678.5C 2279.63,2684.12 2277.96,2689.79 2276.5,2695.5C 2265.5,2695.5 2254.5,2695.5 2243.5,2695.5C 2256.1,2659.38 2269.1,2623.38 2282.5,2587.5C 2294.48,2586.5 2306.48,2586.17 2318.5,2586.5 Z M 2299.5,2623.5 C 2303.41,2633.22 2306.74,2643.22 2309.5,2653.5C 2303.17,2653.5 2296.83,2653.5 2290.5,2653.5C 2290.5,2652.5 2290.5,2651.5 2290.5,2650.5C 2294.07,2641.78 2297.07,2632.78 2299.5,2623.5 Z"/></g>
<g><path style="opacity:0.557" fill="#c6dae7" d="M 1040.5,2597.5 C 1043.24,2599.24 1045.24,2601.57 1046.5,2604.5C 1043.76,2602.76 1041.76,2600.43 1040.5,2597.5 Z"/></g>
<g><path style="opacity:0.055" fill="#e2eaef" d="M 1040.5,2597.5 C 1028.8,2588.99 1015.64,2584.99 1001,2585.5C 981.883,2585.22 966.883,2592.89 956,2608.5C 944.021,2632.02 944.855,2655.02 958.5,2677.5C 952.299,2670.76 948.466,2662.76 947,2653.5C 943.037,2631.74 948.537,2612.9 963.5,2597C 982.916,2583.47 1003.92,2580.47 1026.5,2588C 1032.1,2589.95 1036.77,2593.12 1040.5,2597.5 Z"/></g>
<g><path style="opacity:0.176" fill="#cfdfea" d="M 1419.5,2608.5 C 1425.32,2608.65 1428.66,2611.65 1429.5,2617.5C 1429.5,2617.83 1429.5,2618.17 1429.5,2618.5C 1427.8,2613.47 1424.47,2610.13 1419.5,2608.5 Z"/></g>
<g><path style="opacity:0.176" fill="#cfdfea" d="M 1724.5,2608.5 C 1730.32,2608.65 1733.66,2611.65 1734.5,2617.5C 1734.5,2617.83 1734.5,2618.17 1734.5,2618.5C 1732.8,2613.47 1729.47,2610.13 1724.5,2608.5 Z"/></g>
<g><path style="opacity:0.169" fill="#d7e0e5" d="M 1529.5,2695.5 C 1529.5,2667.17 1529.5,2638.83 1529.5,2610.5C 1539.17,2610.5 1548.83,2610.5 1558.5,2610.5C 1558.5,2602.5 1558.5,2594.5 1558.5,2586.5C 1529.17,2586.5 1499.83,2586.5 1470.5,2586.5C 1470.5,2594.5 1470.5,2602.5 1470.5,2610.5C 1480.17,2610.5 1489.83,2610.5 1499.5,2610.5C 1499.5,2638.83 1499.5,2667.17 1499.5,2695.5C 1498.5,2667.67 1498.17,2639.67 1498.5,2611.5C 1488.83,2611.5 1479.17,2611.5 1469.5,2611.5C 1469.5,2602.83 1469.5,2594.17 1469.5,2585.5C 1499.5,2585.5 1529.5,2585.5 1559.5,2585.5C 1559.5,2594.17 1559.5,2602.83 1559.5,2611.5C 1549.83,2611.5 1540.17,2611.5 1530.5,2611.5C 1530.83,2639.67 1530.5,2667.67 1529.5,2695.5 Z"/></g>
<g><path style="opacity:1" fill="#2a90cc" d="M 1529.5,2695.5 C 1519.5,2695.5 1509.5,2695.5 1499.5,2695.5C 1499.5,2667.17 1499.5,2638.83 1499.5,2610.5C 1489.83,2610.5 1480.17,2610.5 1470.5,2610.5C 1470.5,2602.5 1470.5,2594.5 1470.5,2586.5C 1499.83,2586.5 1529.17,2586.5 1558.5,2586.5C 1558.5,2594.5 1558.5,2602.5 1558.5,2610.5C 1548.83,2610.5 1539.17,2610.5 1529.5,2610.5C 1529.5,2638.83 1529.5,2667.17 1529.5,2695.5 Z"/></g>
<g><path style="opacity:0.957" fill="#75aed5" d="M 1279.5,2603.5 C 1282.62,2608.8 1283.95,2614.64 1283.5,2621C 1283.33,2623.83 1283.17,2626.67 1283,2629.5C 1282.76,2631.85 1281.93,2633.85 1280.5,2635.5C 1282.13,2624.72 1281.8,2614.05 1279.5,2603.5 Z"/></g>
<g><path style="opacity:0.69" fill="#70abd0" d="M 1458.5,2601.5 C 1461.85,2606.58 1463.18,2612.25 1462.5,2618.5C 1451.5,2618.5 1440.5,2618.5 1429.5,2618.5C 1429.5,2618.17 1429.5,2617.83 1429.5,2617.5C 1440.17,2617.5 1450.83,2617.5 1461.5,2617.5C 1460.61,2612.22 1459.61,2606.89 1458.5,2601.5 Z"/></g>
<g><path style="opacity:0.69" fill="#70abd0" d="M 1763.5,2601.5 C 1766.85,2606.58 1768.18,2612.25 1767.5,2618.5C 1756.5,2618.5 1745.5,2618.5 1734.5,2618.5C 1734.5,2618.17 1734.5,2617.83 1734.5,2617.5C 1745.17,2617.5 1755.83,2617.5 1766.5,2617.5C 1765.61,2612.22 1764.61,2606.89 1763.5,2601.5 Z"/></g>
<g><path style="opacity:0.957" fill="#75aed5" d="M 2041.5,2603.5 C 2044.62,2608.8 2045.95,2614.64 2045.5,2621C 2045.33,2623.83 2045.17,2626.67 2045,2629.5C 2044.76,2631.85 2043.93,2633.85 2042.5,2635.5C 2044.13,2624.72 2043.8,2614.05 2041.5,2603.5 Z"/></g>
<g><path style="opacity:0.043" fill="#e0e8ee" d="M 729.5,2613.5 C 731.888,2614.22 733.388,2615.89 734,2618.5C 735.699,2626.28 732.866,2631.44 725.5,2634C 719.984,2634.82 714.65,2634.65 709.5,2633.5C 713.514,2633.67 717.514,2633.5 721.5,2633C 724.932,2632.88 727.932,2631.72 730.5,2629.5C 733.346,2623.96 733.013,2618.63 729.5,2613.5 Z"/></g>
<g><path style="opacity:0.043" fill="#e0e8ee" d="M 827.5,2613.5 C 829.888,2614.22 831.388,2615.89 832,2618.5C 833.699,2626.28 830.866,2631.44 823.5,2634C 817.984,2634.82 812.65,2634.65 807.5,2633.5C 811.514,2633.67 815.514,2633.5 819.5,2633C 822.932,2632.88 825.932,2631.72 828.5,2629.5C 831.346,2623.96 831.013,2618.63 827.5,2613.5 Z"/></g>
<g><path style="opacity:0.043" fill="#e0e8ee" d="M 1147.5,2613.5 C 1149.89,2614.22 1151.39,2615.89 1152,2618.5C 1153.7,2626.28 1150.87,2631.44 1143.5,2634C 1137.98,2634.82 1132.65,2634.65 1127.5,2633.5C 1131.51,2633.67 1135.51,2633.5 1139.5,2633C 1142.93,2632.88 1145.93,2631.72 1148.5,2629.5C 1151.35,2623.96 1151.01,2618.63 1147.5,2613.5 Z"/></g>
<g><path style="opacity:0.043" fill="#e2ecf2" d="M 1412.5,2618.5 C 1415.29,2621.4 1418.63,2623.57 1422.5,2625C 1432.95,2628.37 1442.95,2632.7 1452.5,2638C 1455.45,2640.44 1457.78,2643.27 1459.5,2646.5C 1455.23,2641.73 1450.23,2637.9 1444.5,2635C 1436.58,2631.8 1428.58,2628.8 1420.5,2626C 1416.69,2624.62 1414.02,2622.12 1412.5,2618.5 Z"/></g>
<g><path style="opacity:0.043" fill="#e2ecf2" d="M 1717.5,2618.5 C 1720.29,2621.4 1723.63,2623.57 1727.5,2625C 1737.95,2628.37 1747.95,2632.7 1757.5,2638C 1760.45,2640.44 1762.78,2643.27 1764.5,2646.5C 1760.23,2641.73 1755.23,2637.9 1749.5,2635C 1741.58,2631.8 1733.58,2628.8 1725.5,2626C 1721.69,2624.62 1719.02,2622.12 1717.5,2618.5 Z"/></g>
<g><path style="opacity:0.043" fill="#e0e8ee" d="M 1909.5,2613.5 C 1911.89,2614.22 1913.39,2615.89 1914,2618.5C 1915.7,2626.28 1912.87,2631.44 1905.5,2634C 1899.98,2634.82 1894.65,2634.65 1889.5,2633.5C 1893.51,2633.67 1897.51,2633.5 1901.5,2633C 1904.93,2632.88 1907.93,2631.72 1910.5,2629.5C 1913.35,2623.96 1913.01,2618.63 1909.5,2613.5 Z"/></g>
<g><path style="opacity:0.082" fill="#eaebeb" d="M 1054.5,2633.5 C 1035.5,2633.5 1016.5,2633.5 997.5,2633.5C 997.5,2640.83 997.5,2648.17 997.5,2655.5C 996.508,2648.02 996.175,2640.35 996.5,2632.5C 1016.01,2632.17 1035.34,2632.5 1054.5,2633.5 Z"/></g>
<g><path style="opacity:0.033" fill="#dfe8ee" d="M 1246.5,2613.5 C 1248.02,2613.51 1249.18,2614.18 1250,2615.5C 1255,2629.02 1250.17,2635.35 1235.5,2634.5C 1231.98,2634.5 1228.65,2634.17 1225.5,2633.5C 1231.18,2633.67 1236.84,2633.5 1242.5,2633C 1244.25,2632.53 1245.91,2631.86 1247.5,2631C 1252.41,2625.05 1252.08,2619.21 1246.5,2613.5 Z"/></g>
<g><path style="opacity:0.033" fill="#dfe8ee" d="M 2008.5,2613.5 C 2010.02,2613.51 2011.18,2614.18 2012,2615.5C 2017,2629.02 2012.17,2635.35 1997.5,2634.5C 1993.98,2634.5 1990.65,2634.17 1987.5,2633.5C 1993.18,2633.67 1998.84,2633.5 2004.5,2633C 2006.25,2632.53 2007.91,2631.86 2009.5,2631C 2014.41,2625.05 2014.08,2619.21 2008.5,2613.5 Z"/></g>
<g><path style="opacity:0.078" fill="#dfe8ed" d="M 2233.5,2695.5 C 2233.5,2659.17 2233.5,2622.83 2233.5,2586.5C 2221.17,2586.5 2208.83,2586.5 2196.5,2586.5C 2188.64,2608.91 2180.47,2631.25 2172,2653.5C 2170.78,2655.86 2169.95,2655.52 2169.5,2652.5C 2170.79,2651.94 2171.62,2650.94 2172,2649.5C 2179.83,2628.5 2187.67,2607.5 2195.5,2586.5C 2208.48,2585.5 2221.48,2585.17 2234.5,2585.5C 2234.83,2622.34 2234.5,2659 2233.5,2695.5 Z"/></g>
<g><path style="opacity:0.169" fill="#d3d7da" d="M 2203.5,2695.5 C 2202.83,2677.5 2202.17,2659.5 2201.5,2641.5C 2201.71,2640.08 2202.21,2638.74 2203,2637.5C 2203.5,2656.83 2203.67,2676.16 2203.5,2695.5 Z"/></g>
<g><path style="opacity:0.071" fill="#d2e1eb" d="M 2157.5,2695.5 C 2156.88,2695.39 2156.38,2695.06 2156,2694.5C 2150.3,2676.55 2144.13,2658.88 2137.5,2641.5C 2137.34,2639.8 2137.51,2638.13 2138,2636.5C 2145.01,2656.02 2151.51,2675.68 2157.5,2695.5 Z"/></g>
<g><path style="opacity:0.078" fill="#e5eaed" d="M 1637.5,2586.5 C 1625.48,2586.17 1613.48,2586.5 1601.5,2587.5C 1588.1,2623.38 1575.1,2659.38 1562.5,2695.5C 1561.4,2694.4 1561.24,2693.07 1562,2691.5C 1574.73,2656.46 1587.57,2621.46 1600.5,2586.5C 1612.99,2585.18 1625.33,2585.18 1637.5,2586.5 Z"/></g>
<g><path style="opacity:0.078" fill="#e5eaed" d="M 2318.5,2586.5 C 2306.48,2586.17 2294.48,2586.5 2282.5,2587.5C 2269.1,2623.38 2256.1,2659.38 2243.5,2695.5C 2242.4,2694.4 2242.24,2693.07 2243,2691.5C 2255.73,2656.46 2268.57,2621.46 2281.5,2586.5C 2293.99,2585.18 2306.33,2585.18 2318.5,2586.5 Z"/></g>
<g><path style="opacity:0.792" fill="#87b3d1" d="M 1459.5,2646.5 C 1461.31,2648.39 1462.48,2650.72 1463,2653.5C 1463.82,2659.68 1463.65,2665.68 1462.5,2671.5C 1463.17,2662.85 1462.17,2654.52 1459.5,2646.5 Z"/></g>
<g><path style="opacity:0.082" fill="#dce5eb" d="M 1609.5,2650.5 C 1609.5,2651.5 1609.5,2652.5 1609.5,2653.5C 1615.83,2653.5 1622.17,2653.5 1628.5,2653.5C 1625.74,2643.22 1622.41,2633.22 1618.5,2623.5C 1618.85,2621.3 1619.51,2621.13 1620.5,2623C 1624.14,2633.43 1627.48,2643.93 1630.5,2654.5C 1623.17,2654.5 1615.83,2654.5 1608.5,2654.5C 1608.23,2652.9 1608.57,2651.57 1609.5,2650.5 Z"/></g>
<g><path style="opacity:0.792" fill="#87b3d1" d="M 1764.5,2646.5 C 1766.31,2648.39 1767.48,2650.72 1768,2653.5C 1768.82,2659.68 1768.65,2665.68 1767.5,2671.5C 1768.17,2662.85 1767.17,2654.52 1764.5,2646.5 Z"/></g>
<g><path style="opacity:0.082" fill="#dce5eb" d="M 2290.5,2650.5 C 2290.5,2651.5 2290.5,2652.5 2290.5,2653.5C 2296.83,2653.5 2303.17,2653.5 2309.5,2653.5C 2306.74,2643.22 2303.41,2633.22 2299.5,2623.5C 2299.85,2621.3 2300.51,2621.13 2301.5,2623C 2305.14,2633.43 2308.48,2643.93 2311.5,2654.5C 2304.17,2654.5 2296.83,2654.5 2289.5,2654.5C 2289.23,2652.9 2289.57,2651.57 2290.5,2650.5 Z"/></g>
<g><path style="opacity:0.082" fill="#e5e9ec" d="M 1412.5,2664.5 C 1411.6,2663.79 1411.26,2662.79 1411.5,2661.5C 1400.83,2661.5 1390.17,2661.5 1379.5,2661.5C 1379.68,2668.21 1381.35,2674.54 1384.5,2680.5C 1379.81,2674.77 1377.48,2668.11 1377.5,2660.5C 1389.17,2660.5 1400.83,2660.5 1412.5,2660.5C 1412.5,2661.83 1412.5,2663.17 1412.5,2664.5 Z"/></g>
<g><path style="opacity:0.082" fill="#e5e9ec" d="M 1717.5,2664.5 C 1716.6,2663.79 1716.26,2662.79 1716.5,2661.5C 1705.83,2661.5 1695.17,2661.5 1684.5,2661.5C 1684.68,2668.21 1686.35,2674.54 1689.5,2680.5C 1684.81,2674.77 1682.48,2668.11 1682.5,2660.5C 1694.17,2660.5 1705.83,2660.5 1717.5,2660.5C 1717.5,2661.83 1717.5,2663.17 1717.5,2664.5 Z"/></g>
<g><path style="opacity:0.153" fill="#e4ebf0" d="M 1025.5,2655.5 C 1027.03,2655.52 1027.53,2656.18 1027,2657.5C 1019.51,2668 1009.35,2671.83 996.5,2669C 991.16,2667.79 987.16,2664.96 984.5,2660.5C 998.046,2671.44 1011.21,2671.11 1024,2659.5C 1024.79,2658.26 1025.29,2656.92 1025.5,2655.5 Z"/></g>
<g><path style="opacity:0.031" fill="#dce7ef" d="M 1427.5,2658.5 C 1429.07,2658.94 1430.24,2659.94 1431,2661.5C 1431.06,2670.42 1426.56,2673.92 1417.5,2672C 1415.94,2671.24 1414.94,2670.07 1414.5,2668.5C 1418.29,2671.27 1422.29,2671.77 1426.5,2670C 1430.16,2666.52 1430.49,2662.68 1427.5,2658.5 Z"/></g>
<g><path style="opacity:0.031" fill="#dce7ef" d="M 1732.5,2658.5 C 1734.07,2658.94 1735.24,2659.94 1736,2661.5C 1736.06,2670.42 1731.56,2673.92 1722.5,2672C 1720.94,2671.24 1719.94,2670.07 1719.5,2668.5C 1723.29,2671.27 1727.29,2671.77 1731.5,2670C 1735.16,2666.52 1735.49,2662.68 1732.5,2658.5 Z"/></g>
<g><path style="opacity:0.314" fill="#d0e5f2" d="M 1327.5,2669.5 C 1340.88,2668.85 1353.88,2669.52 1366.5,2671.5C 1353.12,2672.15 1340.12,2671.48 1327.5,2669.5 Z"/></g>
<g><path style="opacity:0.314" fill="#d0e5f2" d="M 905.5,2670.5 C 917.216,2669.86 928.549,2670.52 939.5,2672.5C 927.784,2673.14 916.451,2672.48 905.5,2670.5 Z"/></g>
<g><path style="opacity:0.008" fill="#e5eef4" d="M 958.5,2677.5 C 961.5,2679.83 964.167,2682.5 966.5,2685.5C 962.833,2683.83 960.167,2681.17 958.5,2677.5 Z"/></g>
<g><path style="opacity:0.263" fill="#cddeea" d="M 1637.5,2677.5 C 1640.59,2683.08 1642.92,2689.08 1644.5,2695.5C 1643.5,2695.53 1642.84,2695.03 1642.5,2694C 1640.52,2688.57 1638.86,2683.07 1637.5,2677.5 Z"/></g>
<g><path style="opacity:0.263" fill="#cddeea" d="M 2318.5,2677.5 C 2321.59,2683.08 2323.92,2689.08 2325.5,2695.5C 2324.5,2695.53 2323.84,2695.03 2323.5,2694C 2321.52,2688.57 2319.86,2683.07 2318.5,2677.5 Z"/></g>
<g><path style="opacity:0.02" fill="#d9e6ef" d="M 1384.5,2680.5 C 1387.5,2682.83 1390.17,2685.5 1392.5,2688.5C 1388.83,2686.83 1386.17,2684.17 1384.5,2680.5 Z"/></g>
<g><path style="opacity:0.02" fill="#d9e6ef" d="M 1689.5,2680.5 C 1692.5,2682.83 1695.17,2685.5 1697.5,2688.5C 1693.83,2686.83 1691.17,2684.17 1689.5,2680.5 Z"/></g>
<g><path style="opacity:0.098" fill="#dae6ee" d="M 1227.5,2655.5 C 1235.85,2668.18 1243.18,2681.52 1249.5,2695.5C 1241.15,2682.82 1233.82,2669.48 1227.5,2655.5 Z"/></g>
<g><path style="opacity:0.098" fill="#dae6ee" d="M 1989.5,2655.5 C 1997.85,2668.18 2005.18,2681.52 2011.5,2695.5C 2003.15,2682.82 1995.82,2669.48 1989.5,2655.5 Z"/></g>
</svg>
