<?xml version="1.0" encoding="UTF-8"?>
<!DOCTYPE svg PUBLIC "-//W3C//DTD SVG 1.1//EN" "http://www.w3.org/Graphics/SVG/1.1/DTD/svg11.dtd">
<svg xmlns="http://www.w3.org/2000/svg" version="1.1" width="3334px" height="3334px" style="shape-rendering:geometricPrecision; text-rendering:geometricPrecision; image-rendering:optimizeQuality; fill-rule:evenodd; clip-rule:evenodd" xmlns:xlink="http://www.w3.org/1999/xlink">
<g><path style="opacity:0.997" fill="#092c2d" d="M 733.5,220.5 C 1344.17,220.333 1954.83,220.5 2565.5,221C 2658.59,229.8 2725.76,275.966 2767,359.5C 2778.37,384.98 2785.04,411.647 2787,439.5C 2787.5,508.166 2787.67,576.833 2787.5,645.5C 2028.83,645.5 1270.17,645.5 511.5,645.5C 511.036,573.481 511.536,501.481 513,429.5C 523.361,354.898 559.861,297.064 622.5,256C 656.721,235.203 693.721,223.37 733.5,220.5 Z"/></g>
<g><path style="opacity:1" fill="#fefefe" d="M 858.5,287.5 C 955.5,287.5 1052.5,287.5 1149.5,287.5C 1149.5,304.167 1149.5,320.833 1149.5,337.5C 1113.83,337.5 1078.17,337.5 1042.5,337.5C 1042.5,421.5 1042.5,505.5 1042.5,589.5C 1016.83,589.5 991.167,589.5 965.5,589.5C 965.5,505.5 965.5,421.5 965.5,337.5C 929.833,337.5 894.167,337.5 858.5,337.5C 858.5,320.833 858.5,304.167 858.5,287.5 Z"/></g>
<g><path style="opacity:1" fill="#fefefe" d="M 1541.5,287.5 C 1566.83,287.5 1592.17,287.5 1617.5,287.5C 1617.33,333.835 1617.5,380.168 1618,426.5C 1662.83,380.333 1707.67,334.167 1752.5,288C 1781.5,287.333 1810.5,287.333 1839.5,288C 1801.65,324.346 1763.99,360.846 1726.5,397.5C 1770.64,461.471 1814.97,525.305 1859.5,589C 1830.16,589.833 1800.83,589.667 1771.5,588.5C 1739.14,541.304 1706.97,493.97 1675,446.5C 1656.3,464.866 1637.3,482.866 1618,500.5C 1617.5,530.165 1617.33,559.831 1617.5,589.5C 1592.17,589.5 1566.83,589.5 1541.5,589.5C 1541.5,488.833 1541.5,388.167 1541.5,287.5 Z"/></g>
<g><path style="opacity:1" fill="#fefefe" d="M 2330.5,287.5 C 2356.17,287.5 2381.83,287.5 2407.5,287.5C 2407.67,362.501 2407.5,437.501 2407,512.5C 2405.37,555.458 2383.54,581.292 2341.5,590C 2312.74,596.293 2284.07,595.96 2255.5,589C 2234.29,582.108 2216.62,570.108 2202.5,553C 2221.09,542.12 2239.92,531.62 2259,521.5C 2272.47,542.436 2290.97,548.602 2314.5,540C 2324.11,534.303 2329.27,525.803 2330,514.5C 2330.5,438.834 2330.67,363.167 2330.5,287.5 Z"/></g>
<g><path style="opacity:0.968" fill="#092c2c" d="M 1115.5,683.5 C 1126.84,683.333 1138.17,683.5 1149.5,684C 1169.77,685.512 1186.27,694.012 1199,709.5C 1200.75,712.005 1202.25,714.671 1203.5,717.5C 1192.14,721.217 1180.64,724.55 1169,727.5C 1168.17,727.333 1167.33,727.167 1166.5,727C 1152.46,708.984 1134.46,703.65 1112.5,711C 1099.19,719.228 1099.19,727.562 1112.5,736C 1117.75,738.528 1123.08,740.861 1128.5,743C 1145.09,747.565 1161.43,752.898 1177.5,759C 1188.72,762.898 1197.55,769.732 1204,779.5C 1213.29,807.75 1204.12,827.25 1176.5,838C 1163.37,842.447 1149.87,844.281 1136,843.5C 1112.72,844.984 1091.55,839.15 1072.5,826C 1065.84,820.517 1060.51,814.017 1056.5,806.5C 1068.15,802.005 1079.99,798.005 1092,794.5C 1097.44,800.271 1103.28,805.771 1109.5,811C 1121.43,817.208 1134.09,819.208 1147.5,817C 1156.78,816.031 1163.61,811.531 1168,803.5C 1169.73,796.795 1167.9,791.295 1162.5,787C 1159.39,784.894 1156.06,783.228 1152.5,782C 1133.07,776.31 1113.74,770.31 1094.5,764C 1081.6,759.655 1072.1,751.488 1066,739.5C 1060.49,723.021 1064.33,709.187 1077.5,698C 1089.15,690.285 1101.82,685.452 1115.5,683.5 Z"/></g>
<g><path style="opacity:0.968" fill="#092c2c" d="M 1603.5,683.5 C 1614.84,683.333 1626.17,683.5 1637.5,684C 1657.77,685.512 1674.27,694.012 1687,709.5C 1688.75,712.005 1690.25,714.671 1691.5,717.5C 1680.14,721.217 1668.64,724.55 1657,727.5C 1656.17,727.333 1655.33,727.167 1654.5,727C 1640.46,708.984 1622.46,703.65 1600.5,711C 1587.19,719.228 1587.19,727.562 1600.5,736C 1605.75,738.528 1611.08,740.861 1616.5,743C 1633.09,747.565 1649.43,752.898 1665.5,759C 1676.72,762.898 1685.55,769.732 1692,779.5C 1701.29,807.75 1692.12,827.25 1664.5,838C 1651.37,842.447 1637.87,844.281 1624,843.5C 1600.72,844.984 1579.55,839.15 1560.5,826C 1553.84,820.517 1548.51,814.017 1544.5,806.5C 1556.15,802.005 1567.99,798.005 1580,794.5C 1585.44,800.271 1591.28,805.771 1597.5,811C 1609.43,817.208 1622.09,819.208 1635.5,817C 1644.78,816.031 1651.61,811.531 1656,803.5C 1657.73,796.795 1655.9,791.295 1650.5,787C 1647.39,784.894 1644.06,783.228 1640.5,782C 1621.07,776.31 1601.74,770.31 1582.5,764C 1569.6,759.655 1560.1,751.488 1554,739.5C 1548.49,723.021 1552.33,709.187 1565.5,698C 1577.15,690.285 1589.82,685.452 1603.5,683.5 Z"/></g>
<g><path style="opacity:0.98" fill="#092c2c" d="M 525.5,686.5 C 559.865,686.049 594.198,686.549 628.5,688C 664.44,692.919 678.94,713.086 672,748.5C 666.303,761.86 656.47,770.694 642.5,775C 636.248,776.717 629.914,778.05 623.5,779C 604.503,779.5 585.503,779.667 566.5,779.5C 566.5,800.167 566.5,820.833 566.5,841.5C 552.833,841.5 539.167,841.5 525.5,841.5C 525.5,789.833 525.5,738.167 525.5,686.5 Z M 566.5,710.5 C 584.632,709.956 602.632,711.123 620.5,714C 633.487,720.285 636.987,730.118 631,743.5C 625.514,749.492 618.68,752.659 610.5,753C 595.854,754.118 581.187,754.618 566.5,754.5C 566.5,739.833 566.5,725.167 566.5,710.5 Z"/></g>
<g><path style="opacity:0.984" fill="#092c2c" d="M 707.5,686.5 C 738.502,686.333 769.502,686.5 800.5,687C 815.605,687.925 829.605,692.258 842.5,700C 858.157,714.616 861.657,731.782 853,751.5C 844.644,762.843 833.477,769.676 819.5,772C 834.833,795 850.167,818 865.5,841C 850.833,841.667 836.167,841.667 821.5,841C 808.167,820.333 794.833,799.667 781.5,779C 769.838,778.5 758.171,778.333 746.5,778.5C 746.5,799.5 746.5,820.5 746.5,841.5C 733.5,841.5 720.5,841.5 707.5,841.5C 707.5,789.833 707.5,738.167 707.5,686.5 Z M 746.5,711.5 C 757.838,711.333 769.172,711.5 780.5,712C 790.705,711.574 800.372,713.574 809.5,718C 816.991,724.994 818.491,733.16 814,742.5C 811.292,746.104 807.792,748.604 803.5,750C 795.958,751.896 788.291,752.896 780.5,753C 769.172,753.5 757.838,753.667 746.5,753.5C 746.5,739.5 746.5,725.5 746.5,711.5 Z"/></g>
<g><path style="opacity:0.993" fill="#092c2c" d="M 900.5,686.5 C 946.167,686.5 991.833,686.5 1037.5,686.5C 1037.5,694.833 1037.5,703.167 1037.5,711.5C 1005.17,711.5 972.833,711.5 940.5,711.5C 940.5,723.833 940.5,736.167 940.5,748.5C 963.833,748.5 987.167,748.5 1010.5,748.5C 1010.5,756.833 1010.5,765.167 1010.5,773.5C 987.167,773.5 963.833,773.5 940.5,773.5C 940.5,787.5 940.5,801.5 940.5,815.5C 974.167,815.5 1007.83,815.5 1041.5,815.5C 1041.5,824.167 1041.5,832.833 1041.5,841.5C 994.5,841.5 947.5,841.5 900.5,841.5C 900.5,789.833 900.5,738.167 900.5,686.5 Z"/></g>
<g><path style="opacity:0.983" fill="#092c2c" d="M 1222.5,686.5 C 1272.83,686.5 1323.17,686.5 1373.5,686.5C 1373.5,695.167 1373.5,703.833 1373.5,712.5C 1355.17,712.5 1336.83,712.5 1318.5,712.5C 1318.5,755.5 1318.5,798.5 1318.5,841.5C 1304.83,841.5 1291.17,841.5 1277.5,841.5C 1277.5,798.5 1277.5,755.5 1277.5,712.5C 1259.17,712.5 1240.83,712.5 1222.5,712.5C 1222.5,703.833 1222.5,695.167 1222.5,686.5 Z"/></g>
<g><path style="opacity:0.98" fill="#092c2c" d="M 1423.5,686.5 C 1440.74,686.175 1457.91,686.508 1475,687.5C 1495.45,738.844 1516.28,790.011 1537.5,841C 1523.82,841.833 1510.15,841.666 1496.5,840.5C 1492.46,829.53 1488.12,818.697 1483.5,808C 1459.84,807.5 1436.17,807.333 1412.5,807.5C 1408.66,818.844 1404.33,830.011 1399.5,841C 1386.84,841.5 1374.17,841.667 1361.5,841.5C 1382.16,789.845 1402.83,738.179 1423.5,686.5 Z M 1447.5,715.5 C 1456.59,737.536 1465.59,759.703 1474.5,782C 1457.16,782.833 1439.82,782.666 1422.5,781.5C 1431.41,759.689 1439.74,737.689 1447.5,715.5 Z"/></g>
<g><path style="opacity:0.994" fill="#092c2c" d="M 1733.5,686.5 C 1746.83,686.5 1760.17,686.5 1773.5,686.5C 1773.5,738.167 1773.5,789.833 1773.5,841.5C 1760.17,841.5 1746.83,841.5 1733.5,841.5C 1733.5,789.833 1733.5,738.167 1733.5,686.5 Z"/></g>
<g><path style="opacity:0.98" fill="#092c2c" d="M 1911.5,686.5 C 1945.86,686.049 1980.2,686.549 2014.5,688C 2050.44,692.919 2064.94,713.086 2058,748.5C 2052.3,761.86 2042.47,770.694 2028.5,775C 2022.25,776.717 2015.91,778.05 2009.5,779C 1990.5,779.5 1971.5,779.667 1952.5,779.5C 1952.5,800.167 1952.5,820.833 1952.5,841.5C 1938.83,841.5 1925.17,841.5 1911.5,841.5C 1911.5,789.833 1911.5,738.167 1911.5,686.5 Z M 1952.5,710.5 C 1970.63,709.956 1988.63,711.123 2006.5,714C 2019.49,720.285 2022.99,730.118 2017,743.5C 2011.51,749.492 2004.68,752.659 1996.5,753C 1981.85,754.118 1967.19,754.618 1952.5,754.5C 1952.5,739.833 1952.5,725.167 1952.5,710.5 Z"/></g>
<g><path style="opacity:0.984" fill="#092c2c" d="M 2093.5,686.5 C 2124.5,686.333 2155.5,686.5 2186.5,687C 2201.61,687.925 2215.61,692.258 2228.5,700C 2244.16,714.616 2247.66,731.782 2239,751.5C 2230.64,762.843 2219.48,769.676 2205.5,772C 2220.83,795 2236.17,818 2251.5,841C 2236.83,841.667 2222.17,841.667 2207.5,841C 2194.17,820.333 2180.83,799.667 2167.5,779C 2155.84,778.5 2144.17,778.333 2132.5,778.5C 2132.5,799.5 2132.5,820.5 2132.5,841.5C 2119.5,841.5 2106.5,841.5 2093.5,841.5C 2093.5,789.833 2093.5,738.167 2093.5,686.5 Z M 2132.5,711.5 C 2143.84,711.333 2155.17,711.5 2166.5,712C 2176.7,711.574 2186.37,713.574 2195.5,718C 2202.99,724.994 2204.49,733.16 2200,742.5C 2197.29,746.104 2193.79,748.604 2189.5,750C 2181.96,751.896 2174.29,752.896 2166.5,753C 2155.17,753.5 2143.84,753.667 2132.5,753.5C 2132.5,739.5 2132.5,725.5 2132.5,711.5 Z"/></g>
<g><path style="opacity:0.994" fill="#092c2c" d="M 2289.5,686.5 C 2302.83,686.5 2316.17,686.5 2329.5,686.5C 2329.5,738.167 2329.5,789.833 2329.5,841.5C 2316.17,841.5 2302.83,841.5 2289.5,841.5C 2289.5,789.833 2289.5,738.167 2289.5,686.5 Z"/></g>
<g><path style="opacity:0.98" fill="#092c2c" d="M 2379.5,686.5 C 2398.83,686.5 2418.17,686.5 2437.5,686.5C 2447.7,713.25 2458.2,739.916 2469,766.5C 2472.81,776.602 2475.81,786.936 2478,797.5C 2491.35,760.439 2505.69,723.772 2521,687.5C 2539.42,686.507 2557.92,686.174 2576.5,686.5C 2576.5,738.167 2576.5,789.833 2576.5,841.5C 2565.17,841.5 2553.83,841.5 2542.5,841.5C 2542.67,799.499 2542.5,757.499 2542,715.5C 2526.45,757.483 2510.12,799.149 2493,840.5C 2482.67,841.833 2472.33,841.833 2462,840.5C 2446.06,799.611 2430.39,758.611 2415,717.5C 2414.5,758.832 2414.33,800.165 2414.5,841.5C 2402.83,841.5 2391.17,841.5 2379.5,841.5C 2379.5,789.833 2379.5,738.167 2379.5,686.5 Z"/></g>
<g><path style="opacity:0.98" fill="#092c2c" d="M 2662.5,686.5 C 2679.74,686.175 2696.91,686.508 2714,687.5C 2734.45,738.844 2755.28,790.011 2776.5,841C 2762.82,841.833 2749.15,841.666 2735.5,840.5C 2731.46,829.53 2727.12,818.697 2722.5,808C 2698.84,807.5 2675.17,807.333 2651.5,807.5C 2647.66,818.844 2643.33,830.011 2638.5,841C 2625.84,841.5 2613.17,841.667 2600.5,841.5C 2621.16,789.845 2641.83,738.179 2662.5,686.5 Z M 2686.5,715.5 C 2695.59,737.536 2704.59,759.703 2713.5,782C 2696.16,782.833 2678.82,782.666 2661.5,781.5C 2670.41,759.689 2678.74,737.689 2686.5,715.5 Z"/></g>
<g><path style="opacity:0.994" fill="#092c2d" d="M 1522.5,873.5 C 1941.5,874.998 2360.5,876.664 2779.5,878.5C 2782.08,933.159 2784.58,987.826 2787,1042.5C 2789.11,1194.91 2779.44,1346.57 2758,1497.5C 2731.52,1687.25 2694.52,1874.92 2647,2060.5C 2604.35,2211.45 2537.02,2349.78 2445,2475.5C 2365.75,2582.43 2274.91,2678.93 2172.5,2765C 2076.92,2844.25 1976.59,2916.91 1871.5,2983C 1797.67,3029.08 1723.67,3074.92 1649.5,3120.5C 1580.7,3078.2 1512.03,3035.7 1443.5,2993C 1332.2,2924.03 1226.2,2847.7 1125.5,2764C 1039.18,2690.35 960.345,2609.51 889,2521.5C 790.278,2397.44 715.945,2259.44 666,2107.5C 650.97,2058.38 637.97,2008.71 627,1958.5C 582.554,1770.49 549.554,1580.49 528,1388.5C 515.417,1274.17 510.083,1159.5 512,1044.5C 514.417,989.16 516.917,933.826 519.5,878.5C 854.001,877.372 1188.33,875.705 1522.5,873.5 Z"/></g>
<g><path style="opacity:1" fill="#0c6c3d" d="M 593.5,939.5 C 947.504,941.199 1301.5,943.532 1655.5,946.5C 1979.83,943.934 2304.16,941.6 2628.5,939.5C 2654.07,939.502 2679.57,939.836 2705,940.5C 2713.29,1045.13 2713.63,1149.79 2706,1254.5C 2696.72,1387.39 2680.39,1519.39 2657,1650.5C 2634.06,1781.6 2606.06,1911.6 2573,2040.5C 2527.76,2198.66 2454.43,2341.66 2353,2469.5C 2285.08,2555.09 2209.25,2633.25 2125.5,2704C 2036.94,2778.11 1943.94,2846.11 1846.5,2908C 1781.17,2948.67 1715.83,2989.33 1650.5,3030C 1547.32,2968.74 1445.99,2904.4 1346.5,2837C 1252.84,2771.6 1164.5,2699.27 1081.5,2620C 989.002,2529.9 909.835,2429.73 844,2319.5C 778.389,2206.02 732.055,2085.02 705,1956.5C 663.446,1781.6 631.446,1604.94 609,1426.5C 591.833,1289.67 585.167,1152.33 589,1014.5C 590.424,989.491 591.924,964.491 593.5,939.5 Z"/></g>
<g><path style="opacity:1" fill="#fefefe" d="M 1599.5,1019.5 C 1636.04,1015.6 1662.71,1029.77 1679.5,1062C 1913.98,1075.67 2109.15,1169.5 2265,1343.5C 2420.19,1526.12 2486.53,1737.45 2464,1977.5C 2434.06,2211.63 2326.9,2401.13 2142.5,2546C 2004.17,2648.62 1848.5,2704.46 1675.5,2713.5C 1657.52,2740.68 1632.19,2752.18 1599.5,2748C 1557.38,2735.63 1538.22,2707.47 1542,2663.5C 1549.7,2631.13 1569.87,2611.63 1602.5,2605C 1631.15,2602.21 1654.31,2612.04 1672,2634.5C 1675.24,2638.31 1677.4,2642.64 1678.5,2647.5C 1839.35,2638.57 1983.01,2584.9 2109.5,2486.5C 2138.12,2455.15 2142.28,2420.82 2122,2383.5C 2110.22,2363.13 2095.05,2345.63 2076.5,2331C 2057.48,2317.82 2038.81,2304.16 2020.5,2290C 2003.32,2275.45 1990.15,2257.95 1981,2237.5C 1970.86,2211.42 1960.53,2185.42 1950,2159.5C 1947.67,2155.5 1945.33,2151.5 1943,2147.5C 1942.2,2146.2 1941.03,2145.53 1939.5,2145.5C 1932.01,2149.48 1925.51,2154.81 1920,2161.5C 1903.29,2181.21 1886.96,2201.21 1871,2221.5C 1848.91,2247.59 1823.75,2270.09 1795.5,2289C 1774.55,2301.99 1751.88,2310.65 1727.5,2315C 1702.92,2318.37 1678.25,2321.04 1653.5,2323C 1644.86,2324.32 1636.86,2327.32 1629.5,2332C 1602.25,2334.97 1588.41,2322.8 1588,2295.5C 1589.7,2285.91 1594.54,2278.41 1602.5,2273C 1615.09,2266.19 1628.42,2261.52 1642.5,2259C 1667.19,2256.55 1691.86,2253.89 1716.5,2251C 1743.2,2245.32 1766.53,2233.32 1786.5,2215C 1795.67,2205.83 1804.83,2196.67 1814,2187.5C 1832.67,2164.83 1851.33,2142.17 1870,2119.5C 1879.65,2108.51 1890.48,2099.01 1902.5,2091C 1930.25,2075.58 1956.92,2077.25 1982.5,2096C 1996.14,2109.66 2006.64,2125.49 2014,2143.5C 2022,2164.18 2030,2184.84 2038,2205.5C 2041.57,2213.65 2045.91,2221.32 2051,2228.5C 2056.86,2234.7 2063.03,2240.53 2069.5,2246C 2090.73,2260.56 2111.4,2275.9 2131.5,2292C 2165.39,2322.59 2187.89,2360.09 2199,2404.5C 2324.73,2267.77 2392.73,2106.1 2403,1919.5C 2405.08,1873.9 2402.75,1828.57 2396,1783.5C 2380.73,1787.92 2365.56,1792.76 2350.5,1798C 2338.24,1802.04 2328.74,1809.54 2322,1820.5C 2317.17,1843.65 2309.17,1865.65 2298,1886.5C 2261.92,1949.92 2213.42,2001.75 2152.5,2042C 2128.48,2057 2102.48,2067 2074.5,2072C 2034.24,2077.25 2000.41,2065.08 1973,2035.5C 1962.63,2020.66 1959.3,2004.32 1963,1986.5C 1969.5,1963.17 1979.5,1941.51 1993,1921.5C 2008.6,1897.97 2024.93,1874.97 2042,1852.5C 2054.84,1834.83 2066.17,1816.17 2076,1796.5C 2077.93,1792.94 2078.43,1789.27 2077.5,1785.5C 2053.19,1776.78 2028.19,1774.11 2002.5,1777.5C 1975.54,1778.02 1953.38,1768.02 1936,1747.5C 1920.53,1729.23 1906.53,1709.89 1894,1689.5C 1879.41,1672.95 1861.91,1660.45 1841.5,1652C 1806,1639.04 1769.67,1629.04 1732.5,1622C 1710.3,1617.38 1689.63,1609.05 1670.5,1597C 1650.51,1581.38 1642.01,1560.88 1645,1535.5C 1650.27,1506.95 1662.94,1482.28 1683,1461.5C 1727.04,1416.59 1780.54,1396.09 1843.5,1400C 1862.59,1403.25 1880.92,1408.92 1898.5,1417C 1915.63,1422.47 1932.3,1421.47 1948.5,1414C 1950.02,1412.65 1951.35,1411.15 1952.5,1409.5C 1948.32,1404.16 1943.32,1399.66 1937.5,1396C 1914.55,1375.73 1897.05,1351.56 1885,1323.5C 1877.58,1306.12 1875.24,1288.12 1878,1269.5C 1884.87,1243.96 1901.37,1228.8 1927.5,1224C 1938.5,1223.33 1949.5,1223.33 1960.5,1224C 1981.6,1228.65 2002.94,1230.65 2024.5,1230C 1916.69,1166.9 1800.36,1132.9 1675.5,1128C 1658.38,1154.39 1634.05,1166.06 1602.5,1163C 1568.97,1156.13 1548.8,1135.97 1542,1102.5C 1539.01,1059.35 1558.17,1031.68 1599.5,1019.5 Z"/></g>
<g><path style="opacity:1" fill="#fefefe" d="M 1330.5,1143.5 C 1372.71,1142.24 1402.88,1160.58 1421,1198.5C 1434.09,1237.3 1425.92,1270.8 1396.5,1299C 1389.42,1304.96 1381.59,1309.79 1373,1313.5C 1372.5,1427.83 1372.33,1542.17 1372.5,1656.5C 1492.83,1656.33 1613.17,1656.5 1733.5,1657C 1748.31,1658.99 1757.81,1667.15 1762,1681.5C 1764.42,1701.86 1755.92,1715.03 1736.5,1721C 1601.83,1721.67 1467.17,1721.67 1332.5,1721C 1319.22,1717.39 1311.06,1708.89 1308,1695.5C 1307.83,1568.5 1307.33,1441.5 1306.5,1314.5C 1263.44,1294.05 1245.27,1260.05 1252,1212.5C 1263.48,1172.5 1289.65,1149.5 1330.5,1143.5 Z"/></g>
<g><path style="opacity:1" fill="#fefefe" d="M 1607.5,1181.5 C 1627.6,1179.13 1640.76,1187.46 1647,1206.5C 1647.67,1291.17 1647.67,1375.83 1647,1460.5C 1638.81,1480.35 1624.31,1487.51 1603.5,1482C 1593.07,1477.91 1586.57,1470.41 1584,1459.5C 1583.33,1374.5 1583.33,1289.5 1584,1204.5C 1588.44,1193.22 1596.27,1185.56 1607.5,1181.5 Z"/></g>
<g><path style="opacity:1" fill="#fefefe" d="M 1705.5,1181.5 C 1724.84,1179.92 1737.68,1188.25 1744,1206.5C 1744.67,1262.5 1744.67,1318.5 1744,1374.5C 1737.71,1395.07 1723.88,1403.57 1702.5,1400C 1691.24,1395.74 1683.74,1387.91 1680,1376.5C 1679.33,1320.17 1679.33,1263.83 1680,1207.5C 1683.35,1193.65 1691.85,1184.99 1705.5,1181.5 Z"/></g>
<g><path style="opacity:1" fill="#fefefe" d="M 1797.5,1181.5 C 1816.83,1179.91 1829.67,1188.25 1836,1206.5C 1836.67,1245.83 1836.67,1285.17 1836,1324.5C 1830.08,1346.41 1815.91,1355.24 1793.5,1351C 1782.06,1346.64 1774.89,1338.47 1772,1326.5C 1771.33,1286.17 1771.33,1245.83 1772,1205.5C 1776.23,1192.77 1784.73,1184.77 1797.5,1181.5 Z"/></g>
<g><path style="opacity:1" fill="#106c3e" d="M 1331.5,1199.5 C 1358.85,1199.01 1371.68,1212.35 1370,1239.5C 1361.47,1260.52 1346.3,1267.68 1324.5,1261C 1310.49,1252.81 1304.65,1240.64 1307,1224.5C 1311.33,1212.34 1319.49,1204.01 1331.5,1199.5 Z"/></g>
<g><path style="opacity:1" fill="#0d6c3d" d="M 1942.5,1290.5 C 1944.28,1288.66 1946.61,1287.99 1949.5,1288.5C 2000.95,1299.21 2051.95,1297.54 2102.5,1283.5C 2103.94,1283.72 2105.27,1284.22 2106.5,1285C 2249.39,1397.18 2342.06,1542.02 2384.5,1719.5C 2371.08,1723.03 2357.75,1726.86 2344.5,1731C 2320.06,1738.13 2298.56,1750.3 2280,1767.5C 2272.17,1776.49 2265.83,1786.49 2261,1797.5C 2256.94,1812.24 2252.61,1826.91 2248,1841.5C 2222.73,1889.47 2189.23,1930.97 2147.5,1966C 2127.47,1982.52 2105.14,1995.19 2080.5,2004C 2069.05,2007.31 2057.39,2008.31 2045.5,2007C 2038.34,2005.26 2032.34,2001.76 2027.5,1996.5C 2030.92,1986.33 2035.42,1976.66 2041,1967.5C 2064.28,1933.22 2087.94,1899.22 2112,1865.5C 2125.2,1846.42 2135.2,1825.76 2142,1803.5C 2149.41,1758.5 2130.91,1730.67 2086.5,1720C 2057.02,1711.83 2027.02,1709.16 1996.5,1712C 1990.35,1709.51 1985.19,1705.67 1981,1700.5C 1969.93,1686.02 1959.59,1671.02 1950,1655.5C 1927.95,1626.79 1900.12,1605.62 1866.5,1592C 1828.14,1577.58 1788.8,1566.58 1748.5,1559C 1738.34,1556.61 1728.34,1553.61 1718.5,1550C 1715.75,1548.88 1713.25,1547.38 1711,1545.5C 1710.64,1536.25 1713.3,1527.92 1719,1520.5C 1748.51,1481.66 1787.67,1463.16 1836.5,1465C 1848.17,1466.67 1859.17,1470.34 1869.5,1476C 1905.67,1489.6 1941.34,1488.6 1976.5,1473C 2016.34,1449.49 2026.84,1416.66 2008,1374.5C 2000.83,1363.33 1991.67,1354.17 1980.5,1347C 1962.45,1331.71 1949.78,1312.87 1942.5,1290.5 Z"/></g>
<g><path style="opacity:1" fill="#9bb29c" d="M 1949.5,1288.5 C 1946.61,1287.99 1944.28,1288.66 1942.5,1290.5C 1941.6,1289.79 1941.26,1288.79 1941.5,1287.5C 1944.39,1287.19 1947.05,1287.53 1949.5,1288.5 Z"/></g>
<g><path style="opacity:1" fill="#fec011" d="M 949.5,1508.5 C 995.22,1506.43 1026.72,1526.43 1044,1568.5C 1054.45,1606.86 1044.95,1639.36 1015.5,1666C 1008.83,1670.67 1001.83,1674.84 994.5,1678.5C 993.5,1721.16 993.167,1763.83 993.5,1806.5C 1280.17,1806.33 1566.83,1806.5 1853.5,1807C 1874.71,1812.25 1883.88,1825.75 1881,1847.5C 1877.07,1859.76 1868.9,1867.6 1856.5,1871C 1554.11,1872 1251.78,1871.66 949.5,1870C 938.029,1865.22 931.196,1856.72 929,1844.5C 928.667,1789.5 928.333,1734.5 928,1679.5C 885.698,1659.58 867.365,1626.24 873,1579.5C 883.389,1539.27 908.889,1515.6 949.5,1508.5 Z"/></g>
<g><path style="opacity:1" fill="#136c3c" d="M 953.5,1564.5 C 973.058,1563.35 985.891,1572.02 992,1590.5C 992.286,1617.88 978.786,1630.38 951.5,1628C 931.668,1619.83 924.501,1605.33 930,1584.5C 934.984,1574.34 942.818,1567.67 953.5,1564.5 Z"/></g>
<g><path style="opacity:1" fill="#fdfefd" d="M 905.5,1904.5 C 943.891,1901.62 973.724,1915.95 995,1947.5C 996.5,1950.5 998,1953.5 999.5,1956.5C 1290.83,1957.33 1582.17,1957.83 1873.5,1958C 1891.77,1963.28 1900.27,1975.45 1899,1994.5C 1895.96,2009.21 1887.12,2018.38 1872.5,2022C 1582.17,2022.5 1291.83,2022.67 1001.5,2022.5C 988.448,2056.54 963.781,2076.04 927.5,2081C 885.208,2082.66 855.042,2064.5 837,2026.5C 823.406,1987.85 831.239,1954.35 860.5,1926C 873.751,1915.04 888.751,1907.87 905.5,1904.5 Z"/></g>
<g><path style="opacity:1" fill="#106c3e" d="M 912.5,1960.5 C 939.813,1960.65 952.313,1974.31 950,2001.5C 942.95,2019.52 929.784,2027.02 910.5,2024C 893.182,2017.55 885.349,2005.05 887,1986.5C 891.017,1973.32 899.517,1964.65 912.5,1960.5 Z"/></g>
<g><path style="opacity:1" fill="#fec011" d="M 1289.5,2114.5 C 1442.17,2114.33 1594.83,2114.5 1747.5,2115C 1768.19,2123.21 1775.35,2138.04 1769,2159.5C 1763.99,2170.51 1755.49,2177.01 1743.5,2179C 1605.5,2179.5 1467.5,2179.67 1329.5,2179.5C 1329.67,2240.5 1329.5,2301.5 1329,2362.5C 1326.7,2376.95 1318.54,2386.12 1304.5,2390C 1261.83,2390.33 1219.17,2390.67 1176.5,2391C 1154.92,2429.96 1121.92,2446.29 1077.5,2440C 1039.32,2429.82 1016.49,2405.32 1009,2366.5C 1004.99,2330.37 1017.49,2301.53 1046.5,2280C 1081.81,2258.5 1116.48,2259.5 1150.5,2283C 1164.37,2294.21 1174.37,2308.21 1180.5,2325C 1208.5,2325.5 1236.5,2325.67 1264.5,2325.5C 1264.33,2263.17 1264.5,2200.83 1265,2138.5C 1269.16,2126.17 1277.32,2118.17 1289.5,2114.5 Z"/></g>
<g><path style="opacity:1" fill="#116c3c" d="M 1088.5,2321.5 C 1106.49,2319.24 1119.32,2326.24 1127,2342.5C 1131.29,2362.43 1124.12,2376.27 1105.5,2384C 1086.6,2388.07 1073.43,2381.24 1066,2363.5C 1061.72,2343.05 1069.22,2329.05 1088.5,2321.5 Z"/></g>
<g><path style="opacity:1" fill="#fefefe" d="M 1665.5,2365.5 C 1722.17,2365.33 1778.83,2365.5 1835.5,2366C 1854.69,2372.2 1862.86,2385.37 1860,2405.5C 1856.83,2418 1849,2425.83 1836.5,2429C 1779.83,2429.67 1723.17,2429.67 1666.5,2429C 1650.77,2424.24 1642.44,2413.57 1641.5,2397C 1642.9,2381.34 1650.9,2370.84 1665.5,2365.5 Z"/></g>
<g><path style="opacity:1" fill="#fdfdfd" d="M 1588.5,2451.5 C 1636.83,2451.33 1685.17,2451.5 1733.5,2452C 1751.18,2457.7 1759.35,2469.86 1758,2488.5C 1754.83,2503.67 1745.67,2512.83 1730.5,2516C 1683.83,2516.67 1637.17,2516.67 1590.5,2516C 1569.49,2508.82 1561.32,2494.32 1566,2472.5C 1570.5,2462.16 1578,2455.16 1588.5,2451.5 Z"/></g>
<g><path style="opacity:1" fill="#fdfefd" d="M 1675.5,2537.5 C 1723.5,2537.33 1771.5,2537.5 1819.5,2538C 1838.22,2544.07 1846.39,2556.9 1844,2576.5C 1840.73,2590.77 1831.89,2599.27 1817.5,2602C 1770.5,2602.67 1723.5,2602.67 1676.5,2602C 1656.66,2595.17 1648.5,2581.34 1652,2560.5C 1656.42,2549.25 1664.25,2541.58 1675.5,2537.5 Z"/></g>
</svg>
