<svg width="384" height="396" viewBox="0 0 384 396" fill="none" xmlns="http://www.w3.org/2000/svg">
<path d="M96.3934 134.521C96.3934 135.681 95.9934 136.648 95.1934 137.421C94.4068 138.181 93.2001 138.561 91.5734 138.561H88.8934V144.381H87.0734V130.441H91.5734C93.1468 130.441 94.3401 130.821 95.1534 131.581C95.9801 132.341 96.3934 133.321 96.3934 134.521ZM91.5734 137.061C92.5868 137.061 93.3334 136.841 93.8134 136.401C94.2934 135.961 94.5334 135.334 94.5334 134.521C94.5334 132.801 93.5468 131.941 91.5734 131.941H88.8934V137.061H91.5734ZM100.475 135.201C100.795 134.574 101.249 134.088 101.835 133.741C102.435 133.394 103.162 133.221 104.015 133.221V135.101H103.535C101.495 135.101 100.475 136.208 100.475 138.421V144.381H98.6554V133.421H100.475V135.201ZM116.116 138.481C116.116 138.828 116.096 139.194 116.056 139.581H107.296C107.363 140.661 107.73 141.508 108.396 142.121C109.076 142.721 109.896 143.021 110.856 143.021C111.643 143.021 112.296 142.841 112.816 142.481C113.35 142.108 113.723 141.614 113.936 141.001H115.896C115.603 142.054 115.016 142.914 114.136 143.581C113.256 144.234 112.163 144.561 110.856 144.561C109.816 144.561 108.883 144.328 108.056 143.861C107.243 143.394 106.603 142.734 106.136 141.881C105.67 141.014 105.436 140.014 105.436 138.881C105.436 137.748 105.663 136.754 106.116 135.901C106.57 135.048 107.203 134.394 108.016 133.941C108.843 133.474 109.79 133.241 110.856 133.241C111.896 133.241 112.816 133.468 113.616 133.921C114.416 134.374 115.03 135.001 115.456 135.801C115.896 136.588 116.116 137.481 116.116 138.481ZM114.236 138.101C114.236 137.408 114.083 136.814 113.776 136.321C113.47 135.814 113.05 135.434 112.516 135.181C111.996 134.914 111.416 134.781 110.776 134.781C109.856 134.781 109.07 135.074 108.416 135.661C107.776 136.248 107.41 137.061 107.316 138.101H114.236ZM120.339 135.441C120.699 134.814 121.232 134.294 121.939 133.881C122.659 133.454 123.492 133.241 124.439 133.241C125.412 133.241 126.292 133.474 127.079 133.941C127.879 134.408 128.505 135.068 128.959 135.921C129.412 136.761 129.639 137.741 129.639 138.861C129.639 139.968 129.412 140.954 128.959 141.821C128.505 142.688 127.879 143.361 127.079 143.841C126.292 144.321 125.412 144.561 124.439 144.561C123.505 144.561 122.679 144.354 121.959 143.941C121.252 143.514 120.712 142.988 120.339 142.361V149.581H118.519V133.421H120.339V135.441ZM127.779 138.861C127.779 138.034 127.612 137.314 127.279 136.701C126.945 136.088 126.492 135.621 125.919 135.301C125.359 134.981 124.739 134.821 124.059 134.821C123.392 134.821 122.772 134.988 122.199 135.321C121.639 135.641 121.185 136.114 120.839 136.741C120.505 137.354 120.339 138.068 120.339 138.881C120.339 139.708 120.505 140.434 120.839 141.061C121.185 141.674 121.639 142.148 122.199 142.481C122.772 142.801 123.392 142.961 124.059 142.961C124.739 142.961 125.359 142.801 125.919 142.481C126.492 142.148 126.945 141.674 127.279 141.061C127.612 140.434 127.779 139.701 127.779 138.861ZM131.354 138.861C131.354 137.741 131.581 136.761 132.034 135.921C132.488 135.068 133.108 134.408 133.894 133.941C134.694 133.474 135.581 133.241 136.554 133.241C137.514 133.241 138.348 133.448 139.054 133.861C139.761 134.274 140.288 134.794 140.634 135.421V133.421H142.474V144.381H140.634V142.341C140.274 142.981 139.734 143.514 139.014 143.941C138.308 144.354 137.481 144.561 136.534 144.561C135.561 144.561 134.681 144.321 133.894 143.841C133.108 143.361 132.488 142.688 132.034 141.821C131.581 140.954 131.354 139.968 131.354 138.861ZM140.634 138.881C140.634 138.054 140.468 137.334 140.134 136.721C139.801 136.108 139.348 135.641 138.774 135.321C138.214 134.988 137.594 134.821 136.914 134.821C136.234 134.821 135.614 134.981 135.054 135.301C134.494 135.621 134.048 136.088 133.714 136.701C133.381 137.314 133.214 138.034 133.214 138.861C133.214 139.701 133.381 140.434 133.714 141.061C134.048 141.674 134.494 142.148 135.054 142.481C135.614 142.801 136.234 142.961 136.914 142.961C137.594 142.961 138.214 142.801 138.774 142.481C139.348 142.148 139.801 141.674 140.134 141.061C140.468 140.434 140.634 139.708 140.634 138.881ZM147.37 135.201C147.69 134.574 148.143 134.088 148.73 133.741C149.33 133.394 150.057 133.221 150.91 133.221V135.101H150.43C148.39 135.101 147.37 136.208 147.37 138.421V144.381H145.55V133.421H147.37V135.201ZM153.951 131.641C153.604 131.641 153.311 131.521 153.071 131.281C152.831 131.041 152.711 130.748 152.711 130.401C152.711 130.054 152.831 129.761 153.071 129.521C153.311 129.281 153.604 129.161 153.951 129.161C154.284 129.161 154.564 129.281 154.791 129.521C155.031 129.761 155.151 130.054 155.151 130.401C155.151 130.748 155.031 131.041 154.791 131.281C154.564 131.521 154.284 131.641 153.951 131.641ZM154.831 133.421V144.381H153.011V133.421H154.831ZM163.273 133.221C164.606 133.221 165.686 133.628 166.513 134.441C167.339 135.241 167.753 136.401 167.753 137.921V144.381H165.953V138.181C165.953 137.088 165.679 136.254 165.133 135.681C164.586 135.094 163.839 134.801 162.893 134.801C161.933 134.801 161.166 135.101 160.593 135.701C160.033 136.301 159.753 137.174 159.753 138.321V144.381H157.933V133.421H159.753V134.981C160.113 134.421 160.599 133.988 161.213 133.681C161.839 133.374 162.526 133.221 163.273 133.221ZM175.246 133.241C176.192 133.241 177.019 133.448 177.726 133.861C178.446 134.274 178.979 134.794 179.326 135.421V133.421H181.166V144.621C181.166 145.621 180.952 146.508 180.526 147.281C180.099 148.068 179.486 148.681 178.686 149.121C177.899 149.561 176.979 149.781 175.926 149.781C174.486 149.781 173.286 149.441 172.326 148.761C171.366 148.081 170.799 147.154 170.626 145.981H172.426C172.626 146.648 173.039 147.181 173.666 147.581C174.292 147.994 175.046 148.201 175.926 148.201C176.926 148.201 177.739 147.888 178.366 147.261C179.006 146.634 179.326 145.754 179.326 144.621V142.321C178.966 142.961 178.432 143.494 177.726 143.921C177.019 144.348 176.192 144.561 175.246 144.561C174.272 144.561 173.386 144.321 172.586 143.841C171.799 143.361 171.179 142.688 170.726 141.821C170.272 140.954 170.046 139.968 170.046 138.861C170.046 137.741 170.272 136.761 170.726 135.921C171.179 135.068 171.799 134.408 172.586 133.941C173.386 133.474 174.272 133.241 175.246 133.241ZM179.326 138.881C179.326 138.054 179.159 137.334 178.826 136.721C178.492 136.108 178.039 135.641 177.466 135.321C176.906 134.988 176.286 134.821 175.606 134.821C174.926 134.821 174.306 134.981 173.746 135.301C173.186 135.621 172.739 136.088 172.406 136.701C172.072 137.314 171.906 138.034 171.906 138.861C171.906 139.701 172.072 140.434 172.406 141.061C172.739 141.674 173.186 142.148 173.746 142.481C174.306 142.801 174.926 142.961 175.606 142.961C176.286 142.961 176.906 142.801 177.466 142.481C178.039 142.148 178.492 141.674 178.826 141.061C179.159 140.434 179.326 139.708 179.326 138.881ZM188.893 138.881C188.893 137.748 189.12 136.761 189.573 135.921C190.027 135.068 190.653 134.408 191.453 133.941C192.267 133.474 193.193 133.241 194.233 133.241C195.58 133.241 196.687 133.568 197.553 134.221C198.433 134.874 199.013 135.781 199.293 136.941H197.333C197.147 136.274 196.78 135.748 196.233 135.361C195.7 134.974 195.033 134.781 194.233 134.781C193.193 134.781 192.353 135.141 191.713 135.861C191.073 136.568 190.753 137.574 190.753 138.881C190.753 140.201 191.073 141.221 191.713 141.941C192.353 142.661 193.193 143.021 194.233 143.021C195.033 143.021 195.7 142.834 196.233 142.461C196.767 142.088 197.133 141.554 197.333 140.861H199.293C199 141.981 198.413 142.881 197.533 143.561C196.653 144.228 195.553 144.561 194.233 144.561C193.193 144.561 192.267 144.328 191.453 143.861C190.653 143.394 190.027 142.734 189.573 141.881C189.12 141.028 188.893 140.028 188.893 138.881ZM206.502 144.561C205.475 144.561 204.542 144.328 203.702 143.861C202.875 143.394 202.222 142.734 201.742 141.881C201.275 141.014 201.042 140.014 201.042 138.881C201.042 137.761 201.282 136.774 201.762 135.921C202.255 135.054 202.922 134.394 203.762 133.941C204.602 133.474 205.542 133.241 206.582 133.241C207.622 133.241 208.562 133.474 209.402 133.941C210.242 134.394 210.902 135.048 211.382 135.901C211.875 136.754 212.122 137.748 212.122 138.881C212.122 140.014 211.869 141.014 211.362 141.881C210.869 142.734 210.195 143.394 209.342 143.861C208.489 144.328 207.542 144.561 206.502 144.561ZM206.502 142.961C207.155 142.961 207.769 142.808 208.342 142.501C208.915 142.194 209.375 141.734 209.722 141.121C210.082 140.508 210.262 139.761 210.262 138.881C210.262 138.001 210.089 137.254 209.742 136.641C209.395 136.028 208.942 135.574 208.382 135.281C207.822 134.974 207.215 134.821 206.562 134.821C205.895 134.821 205.282 134.974 204.722 135.281C204.175 135.574 203.735 136.028 203.402 136.641C203.069 137.254 202.902 138.001 202.902 138.881C202.902 139.774 203.062 140.528 203.382 141.141C203.715 141.754 204.155 142.214 204.702 142.521C205.249 142.814 205.849 142.961 206.502 142.961ZM227.695 133.221C228.548 133.221 229.308 133.401 229.975 133.761C230.641 134.108 231.168 134.634 231.555 135.341C231.941 136.048 232.135 136.908 232.135 137.921V144.381H230.335V138.181C230.335 137.088 230.061 136.254 229.515 135.681C228.981 135.094 228.255 134.801 227.335 134.801C226.388 134.801 225.635 135.108 225.075 135.721C224.515 136.321 224.235 137.194 224.235 138.341V144.381H222.435V138.181C222.435 137.088 222.161 136.254 221.615 135.681C221.081 135.094 220.355 134.801 219.435 134.801C218.488 134.801 217.735 135.108 217.175 135.721C216.615 136.321 216.335 137.194 216.335 138.341V144.381H214.515V133.421H216.335V135.001C216.695 134.428 217.175 133.988 217.775 133.681C218.388 133.374 219.061 133.221 219.795 133.221C220.715 133.221 221.528 133.428 222.235 133.841C222.941 134.254 223.468 134.861 223.815 135.661C224.121 134.888 224.628 134.288 225.335 133.861C226.041 133.434 226.828 133.221 227.695 133.221ZM236.94 135.441C237.3 134.814 237.834 134.294 238.54 133.881C239.26 133.454 240.094 133.241 241.04 133.241C242.014 133.241 242.894 133.474 243.68 133.941C244.48 134.408 245.107 135.068 245.56 135.921C246.014 136.761 246.24 137.741 246.24 138.861C246.24 139.968 246.014 140.954 245.56 141.821C245.107 142.688 244.48 143.361 243.68 143.841C242.894 144.321 242.014 144.561 241.04 144.561C240.107 144.561 239.28 144.354 238.56 143.941C237.854 143.514 237.314 142.988 236.94 142.361V149.581H235.12V133.421H236.94V135.441ZM244.38 138.861C244.38 138.034 244.214 137.314 243.88 136.701C243.547 136.088 243.094 135.621 242.52 135.301C241.96 134.981 241.34 134.821 240.66 134.821C239.994 134.821 239.374 134.988 238.8 135.321C238.24 135.641 237.787 136.114 237.44 136.741C237.107 137.354 236.94 138.068 236.94 138.881C236.94 139.708 237.107 140.434 237.44 141.061C237.787 141.674 238.24 142.148 238.8 142.481C239.374 142.801 239.994 142.961 240.66 142.961C241.34 142.961 241.96 142.801 242.52 142.481C243.094 142.148 243.547 141.674 243.88 141.061C244.214 140.434 244.38 139.701 244.38 138.861ZM258.636 138.481C258.636 138.828 258.616 139.194 258.576 139.581H249.816C249.883 140.661 250.249 141.508 250.916 142.121C251.596 142.721 252.416 143.021 253.376 143.021C254.163 143.021 254.816 142.841 255.336 142.481C255.869 142.108 256.243 141.614 256.456 141.001H258.416C258.123 142.054 257.536 142.914 256.656 143.581C255.776 144.234 254.683 144.561 253.376 144.561C252.336 144.561 251.403 144.328 250.576 143.861C249.763 143.394 249.123 142.734 248.656 141.881C248.189 141.014 247.956 140.014 247.956 138.881C247.956 137.748 248.183 136.754 248.636 135.901C249.089 135.048 249.723 134.394 250.536 133.941C251.363 133.474 252.309 133.241 253.376 133.241C254.416 133.241 255.336 133.468 256.136 133.921C256.936 134.374 257.549 135.001 257.976 135.801C258.416 136.588 258.636 137.481 258.636 138.481ZM256.756 138.101C256.756 137.408 256.603 136.814 256.296 136.321C255.989 135.814 255.569 135.434 255.036 135.181C254.516 134.914 253.936 134.781 253.296 134.781C252.376 134.781 251.589 135.074 250.936 135.661C250.296 136.248 249.929 137.061 249.836 138.101H256.756ZM263.258 134.921V141.381C263.258 141.914 263.372 142.294 263.598 142.521C263.825 142.734 264.218 142.841 264.778 142.841H266.118V144.381H264.478C263.465 144.381 262.705 144.148 262.198 143.681C261.692 143.214 261.438 142.448 261.438 141.381V134.921H260.018V133.421H261.438V130.661H263.258V133.421H266.118V134.921H263.258ZM278.323 138.481C278.323 138.828 278.303 139.194 278.263 139.581H269.503C269.57 140.661 269.937 141.508 270.603 142.121C271.283 142.721 272.103 143.021 273.063 143.021C273.85 143.021 274.503 142.841 275.023 142.481C275.557 142.108 275.93 141.614 276.143 141.001H278.103C277.81 142.054 277.223 142.914 276.343 143.581C275.463 144.234 274.37 144.561 273.063 144.561C272.023 144.561 271.09 144.328 270.263 143.861C269.45 143.394 268.81 142.734 268.343 141.881C267.877 141.014 267.643 140.014 267.643 138.881C267.643 137.748 267.87 136.754 268.323 135.901C268.777 135.048 269.41 134.394 270.223 133.941C271.05 133.474 271.997 133.241 273.063 133.241C274.103 133.241 275.023 133.468 275.823 133.921C276.623 134.374 277.237 135.001 277.663 135.801C278.103 136.588 278.323 137.481 278.323 138.481ZM276.443 138.101C276.443 137.408 276.29 136.814 275.983 136.321C275.677 135.814 275.257 135.434 274.723 135.181C274.203 134.914 273.623 134.781 272.983 134.781C272.063 134.781 271.277 135.074 270.623 135.661C269.983 136.248 269.617 137.061 269.523 138.101H276.443ZM286.066 133.221C287.399 133.221 288.479 133.628 289.306 134.441C290.132 135.241 290.546 136.401 290.546 137.921V144.381H288.746V138.181C288.746 137.088 288.472 136.254 287.926 135.681C287.379 135.094 286.632 134.801 285.686 134.801C284.726 134.801 283.959 135.101 283.386 135.701C282.826 136.301 282.546 137.174 282.546 138.321V144.381H280.726V133.421H282.546V134.981C282.906 134.421 283.392 133.988 284.006 133.681C284.632 133.374 285.319 133.221 286.066 133.221ZM295.739 134.921V141.381C295.739 141.914 295.852 142.294 296.079 142.521C296.305 142.734 296.699 142.841 297.259 142.841H298.599V144.381H296.959C295.945 144.381 295.185 144.148 294.679 143.681C294.172 143.214 293.919 142.448 293.919 141.381V134.921H292.499V133.421H293.919V130.661H295.739V133.421H298.599V134.921H295.739ZM71.4665 163.241C72.4131 163.241 73.2398 163.448 73.9465 163.861C74.6665 164.274 75.1998 164.794 75.5465 165.421V163.421H77.3865V174.621C77.3865 175.621 77.1731 176.508 76.7465 177.281C76.3198 178.068 75.7065 178.681 74.9065 179.121C74.1198 179.561 73.1998 179.781 72.1465 179.781C70.7065 179.781 69.5065 179.441 68.5465 178.761C67.5865 178.081 67.0198 177.154 66.8465 175.981H68.6465C68.8465 176.648 69.2598 177.181 69.8865 177.581C70.5131 177.994 71.2665 178.201 72.1465 178.201C73.1465 178.201 73.9598 177.888 74.5865 177.261C75.2265 176.634 75.5465 175.754 75.5465 174.621V172.321C75.1865 172.961 74.6531 173.494 73.9465 173.921C73.2398 174.348 72.4131 174.561 71.4665 174.561C70.4931 174.561 69.6065 174.321 68.8065 173.841C68.0198 173.361 67.3998 172.688 66.9465 171.821C66.4931 170.954 66.2665 169.968 66.2665 168.861C66.2665 167.741 66.4931 166.761 66.9465 165.921C67.3998 165.068 68.0198 164.408 68.8065 163.941C69.6065 163.474 70.4931 163.241 71.4665 163.241ZM75.5465 168.881C75.5465 168.054 75.3798 167.334 75.0465 166.721C74.7131 166.108 74.2598 165.641 73.6865 165.321C73.1265 164.988 72.5065 164.821 71.8265 164.821C71.1465 164.821 70.5265 164.981 69.9665 165.301C69.4065 165.621 68.9598 166.088 68.6265 166.701C68.2931 167.314 68.1265 168.034 68.1265 168.861C68.1265 169.701 68.2931 170.434 68.6265 171.061C68.9598 171.674 69.4065 172.148 69.9665 172.481C70.5265 172.801 71.1465 172.961 71.8265 172.961C72.5065 172.961 73.1265 172.801 73.6865 172.481C74.2598 172.148 74.7131 171.674 75.0465 171.061C75.3798 170.434 75.5465 169.708 75.5465 168.881ZM82.2821 165.201C82.6021 164.574 83.0554 164.088 83.6421 163.741C84.2421 163.394 84.9688 163.221 85.8221 163.221V165.101H85.3421C83.3021 165.101 82.2821 166.208 82.2821 168.421V174.381H80.4621V163.421H82.2821V165.201ZM87.243 168.861C87.243 167.741 87.4697 166.761 87.923 165.921C88.3764 165.068 88.9964 164.408 89.783 163.941C90.583 163.474 91.4697 163.241 92.443 163.241C93.403 163.241 94.2364 163.448 94.943 163.861C95.6497 164.274 96.1764 164.794 96.523 165.421V163.421H98.363V174.381H96.523V172.341C96.163 172.981 95.623 173.514 94.903 173.941C94.1964 174.354 93.3697 174.561 92.423 174.561C91.4497 174.561 90.5697 174.321 89.783 173.841C88.9964 173.361 88.3764 172.688 87.923 171.821C87.4697 170.954 87.243 169.968 87.243 168.861ZM96.523 168.881C96.523 168.054 96.3564 167.334 96.023 166.721C95.6897 166.108 95.2364 165.641 94.663 165.321C94.103 164.988 93.483 164.821 92.803 164.821C92.123 164.821 91.503 164.981 90.943 165.301C90.383 165.621 89.9364 166.088 89.603 166.701C89.2697 167.314 89.103 168.034 89.103 168.861C89.103 169.701 89.2697 170.434 89.603 171.061C89.9364 171.674 90.383 172.148 90.943 172.481C91.503 172.801 92.123 172.961 92.803 172.961C93.483 172.961 94.103 172.801 94.663 172.481C95.2364 172.148 95.6897 171.674 96.023 171.061C96.3564 170.434 96.523 169.708 96.523 168.881ZM100.759 168.861C100.759 167.741 100.985 166.761 101.439 165.921C101.892 165.068 102.512 164.408 103.299 163.941C104.099 163.474 104.992 163.241 105.979 163.241C106.832 163.241 107.625 163.441 108.359 163.841C109.092 164.228 109.652 164.741 110.039 165.381V159.581H111.879V174.381H110.039V172.321C109.679 172.974 109.145 173.514 108.439 173.941C107.732 174.354 106.905 174.561 105.959 174.561C104.985 174.561 104.099 174.321 103.299 173.841C102.512 173.361 101.892 172.688 101.439 171.821C100.985 170.954 100.759 169.968 100.759 168.861ZM110.039 168.881C110.039 168.054 109.872 167.334 109.539 166.721C109.205 166.108 108.752 165.641 108.179 165.321C107.619 164.988 106.999 164.821 106.319 164.821C105.639 164.821 105.019 164.981 104.459 165.301C103.899 165.621 103.452 166.088 103.119 166.701C102.785 167.314 102.619 168.034 102.619 168.861C102.619 169.701 102.785 170.434 103.119 171.061C103.452 171.674 103.899 172.148 104.459 172.481C105.019 172.801 105.639 172.961 106.319 172.961C106.999 172.961 107.619 172.801 108.179 172.481C108.752 172.148 109.205 171.674 109.539 171.061C109.872 170.434 110.039 169.708 110.039 168.881ZM124.674 163.421V174.381H122.854V172.761C122.508 173.321 122.021 173.761 121.394 174.081C120.781 174.388 120.101 174.541 119.354 174.541C118.501 174.541 117.734 174.368 117.054 174.021C116.374 173.661 115.834 173.128 115.434 172.421C115.048 171.714 114.854 170.854 114.854 169.841V163.421H116.654V169.601C116.654 170.681 116.928 171.514 117.474 172.101C118.021 172.674 118.768 172.961 119.714 172.961C120.688 172.961 121.454 172.661 122.014 172.061C122.574 171.461 122.854 170.588 122.854 169.441V163.421H124.674ZM127.067 168.861C127.067 167.741 127.294 166.761 127.747 165.921C128.201 165.068 128.821 164.408 129.607 163.941C130.407 163.474 131.294 163.241 132.267 163.241C133.227 163.241 134.061 163.448 134.767 163.861C135.474 164.274 136.001 164.794 136.347 165.421V163.421H138.187V174.381H136.347V172.341C135.987 172.981 135.447 173.514 134.727 173.941C134.021 174.354 133.194 174.561 132.247 174.561C131.274 174.561 130.394 174.321 129.607 173.841C128.821 173.361 128.201 172.688 127.747 171.821C127.294 170.954 127.067 169.968 127.067 168.861ZM136.347 168.881C136.347 168.054 136.181 167.334 135.847 166.721C135.514 166.108 135.061 165.641 134.487 165.321C133.927 164.988 133.307 164.821 132.627 164.821C131.947 164.821 131.327 164.981 130.767 165.301C130.207 165.621 129.761 166.088 129.427 166.701C129.094 167.314 128.927 168.034 128.927 168.861C128.927 169.701 129.094 170.434 129.427 171.061C129.761 171.674 130.207 172.148 130.767 172.481C131.327 172.801 131.947 172.961 132.627 172.961C133.307 172.961 133.927 172.801 134.487 172.481C135.061 172.148 135.514 171.674 135.847 171.061C136.181 170.434 136.347 169.708 136.347 168.881ZM143.483 164.921V171.381C143.483 171.914 143.596 172.294 143.823 172.521C144.05 172.734 144.443 172.841 145.003 172.841H146.343V174.381H144.703C143.69 174.381 142.93 174.148 142.423 173.681C141.916 173.214 141.663 172.448 141.663 171.381V164.921H140.243V163.421H141.663V160.661H143.483V163.421H146.343V164.921H143.483ZM158.548 168.481C158.548 168.828 158.528 169.194 158.488 169.581H149.728C149.795 170.661 150.161 171.508 150.828 172.121C151.508 172.721 152.328 173.021 153.288 173.021C154.075 173.021 154.728 172.841 155.248 172.481C155.781 172.108 156.155 171.614 156.368 171.001H158.328C158.035 172.054 157.448 172.914 156.568 173.581C155.688 174.234 154.595 174.561 153.288 174.561C152.248 174.561 151.315 174.328 150.488 173.861C149.675 173.394 149.035 172.734 148.568 171.881C148.101 171.014 147.868 170.014 147.868 168.881C147.868 167.748 148.095 166.754 148.548 165.901C149.001 165.048 149.635 164.394 150.448 163.941C151.275 163.474 152.221 163.241 153.288 163.241C154.328 163.241 155.248 163.468 156.048 163.921C156.848 164.374 157.461 165.001 157.888 165.801C158.328 166.588 158.548 167.481 158.548 168.481ZM156.668 168.101C156.668 167.408 156.515 166.814 156.208 166.321C155.901 165.814 155.481 165.434 154.948 165.181C154.428 164.914 153.848 164.781 153.208 164.781C152.288 164.781 151.501 165.074 150.848 165.661C150.208 166.248 149.841 167.061 149.748 168.101H156.668ZM164.83 174.561C163.99 174.561 163.237 174.421 162.57 174.141C161.904 173.848 161.377 173.448 160.99 172.941C160.604 172.421 160.39 171.828 160.35 171.161H162.23C162.284 171.708 162.537 172.154 162.99 172.501C163.457 172.848 164.064 173.021 164.81 173.021C165.504 173.021 166.05 172.868 166.45 172.561C166.85 172.254 167.05 171.868 167.05 171.401C167.05 170.921 166.837 170.568 166.41 170.341C165.984 170.101 165.324 169.868 164.43 169.641C163.617 169.428 162.95 169.214 162.43 169.001C161.924 168.774 161.484 168.448 161.11 168.021C160.75 167.581 160.57 167.008 160.57 166.301C160.57 165.741 160.737 165.228 161.07 164.761C161.404 164.294 161.877 163.928 162.49 163.661C163.104 163.381 163.804 163.241 164.59 163.241C165.804 163.241 166.784 163.548 167.53 164.161C168.277 164.774 168.677 165.614 168.73 166.681H166.91C166.87 166.108 166.637 165.648 166.21 165.301C165.797 164.954 165.237 164.781 164.53 164.781C163.877 164.781 163.357 164.921 162.97 165.201C162.584 165.481 162.39 165.848 162.39 166.301C162.39 166.661 162.504 166.961 162.73 167.201C162.97 167.428 163.264 167.614 163.61 167.761C163.97 167.894 164.464 168.048 165.09 168.221C165.877 168.434 166.517 168.648 167.01 168.861C167.504 169.061 167.924 169.368 168.27 169.781C168.63 170.194 168.817 170.734 168.83 171.401C168.83 172.001 168.664 172.541 168.33 173.021C167.997 173.501 167.524 173.881 166.91 174.161C166.31 174.428 165.617 174.561 164.83 174.561ZM191.332 163.421L187.912 174.381H186.032L183.392 165.681L180.752 174.381H178.872L175.432 163.421H177.292L179.812 172.621L182.532 163.421H184.392L187.052 172.641L189.532 163.421H191.332ZM198.578 163.221C199.405 163.221 200.151 163.401 200.818 163.761C201.485 164.108 202.005 164.634 202.378 165.341C202.765 166.048 202.958 166.908 202.958 167.921V174.381H201.158V168.181C201.158 167.088 200.885 166.254 200.338 165.681C199.791 165.094 199.045 164.801 198.098 164.801C197.138 164.801 196.371 165.101 195.798 165.701C195.238 166.301 194.958 167.174 194.958 168.321V174.381H193.138V159.581H194.958V164.981C195.318 164.421 195.811 163.988 196.438 163.681C197.078 163.374 197.791 163.221 198.578 163.221ZM210.711 174.561C209.684 174.561 208.751 174.328 207.911 173.861C207.084 173.394 206.431 172.734 205.951 171.881C205.484 171.014 205.251 170.014 205.251 168.881C205.251 167.761 205.491 166.774 205.971 165.921C206.464 165.054 207.131 164.394 207.971 163.941C208.811 163.474 209.751 163.241 210.791 163.241C211.831 163.241 212.771 163.474 213.611 163.941C214.451 164.394 215.111 165.048 215.591 165.901C216.084 166.754 216.331 167.748 216.331 168.881C216.331 170.014 216.078 171.014 215.571 171.881C215.078 172.734 214.404 173.394 213.551 173.861C212.698 174.328 211.751 174.561 210.711 174.561ZM210.711 172.961C211.364 172.961 211.978 172.808 212.551 172.501C213.124 172.194 213.584 171.734 213.931 171.121C214.291 170.508 214.471 169.761 214.471 168.881C214.471 168.001 214.298 167.254 213.951 166.641C213.604 166.028 213.151 165.574 212.591 165.281C212.031 164.974 211.424 164.821 210.771 164.821C210.104 164.821 209.491 164.974 208.931 165.281C208.384 165.574 207.944 166.028 207.611 166.641C207.278 167.254 207.111 168.001 207.111 168.881C207.111 169.774 207.271 170.528 207.591 171.141C207.924 171.754 208.364 172.214 208.911 172.521C209.458 172.814 210.058 172.961 210.711 172.961ZM223.376 168.861C223.376 167.741 223.603 166.761 224.056 165.921C224.509 165.068 225.129 164.408 225.916 163.941C226.716 163.474 227.603 163.241 228.576 163.241C229.536 163.241 230.369 163.448 231.076 163.861C231.783 164.274 232.309 164.794 232.656 165.421V163.421H234.496V174.381H232.656V172.341C232.296 172.981 231.756 173.514 231.036 173.941C230.329 174.354 229.503 174.561 228.556 174.561C227.583 174.561 226.703 174.321 225.916 173.841C225.129 173.361 224.509 172.688 224.056 171.821C223.603 170.954 223.376 169.968 223.376 168.861ZM232.656 168.881C232.656 168.054 232.489 167.334 232.156 166.721C231.823 166.108 231.369 165.641 230.796 165.321C230.236 164.988 229.616 164.821 228.936 164.821C228.256 164.821 227.636 164.981 227.076 165.301C226.516 165.621 226.069 166.088 225.736 166.701C225.403 167.314 225.236 168.034 225.236 168.861C225.236 169.701 225.403 170.434 225.736 171.061C226.069 171.674 226.516 172.148 227.076 172.481C227.636 172.801 228.256 172.961 228.936 172.961C229.616 172.961 230.236 172.801 230.796 172.481C231.369 172.148 231.823 171.674 232.156 171.061C232.489 170.434 232.656 169.708 232.656 168.881ZM239.391 165.201C239.711 164.574 240.165 164.088 240.751 163.741C241.351 163.394 242.078 163.221 242.931 163.221V165.101H242.451C240.411 165.101 239.391 166.208 239.391 168.421V174.381H237.571V163.421H239.391V165.201ZM255.032 168.481C255.032 168.828 255.012 169.194 254.972 169.581H246.212C246.279 170.661 246.646 171.508 247.312 172.121C247.992 172.721 248.812 173.021 249.772 173.021C250.559 173.021 251.212 172.841 251.732 172.481C252.266 172.108 252.639 171.614 252.852 171.001H254.812C254.519 172.054 253.932 172.914 253.052 173.581C252.172 174.234 251.079 174.561 249.772 174.561C248.732 174.561 247.799 174.328 246.972 173.861C246.159 173.394 245.519 172.734 245.052 171.881C244.586 171.014 244.352 170.014 244.352 168.881C244.352 167.748 244.579 166.754 245.032 165.901C245.486 165.048 246.119 164.394 246.932 163.941C247.759 163.474 248.706 163.241 249.772 163.241C250.812 163.241 251.732 163.468 252.532 163.921C253.332 164.374 253.946 165.001 254.372 165.801C254.812 166.588 255.032 167.481 255.032 168.481ZM253.152 168.101C253.152 167.408 252.999 166.814 252.692 166.321C252.386 165.814 251.966 165.434 251.432 165.181C250.912 164.914 250.332 164.781 249.692 164.781C248.772 164.781 247.986 165.074 247.332 165.661C246.692 166.248 246.326 167.061 246.232 168.101H253.152ZM264.587 165.201C264.907 164.574 265.36 164.088 265.947 163.741C266.547 163.394 267.273 163.221 268.127 163.221V165.101H267.647C265.607 165.101 264.587 166.208 264.587 168.421V174.381H262.767V163.421H264.587V165.201ZM280.228 168.481C280.228 168.828 280.208 169.194 280.168 169.581H271.408C271.474 170.661 271.841 171.508 272.508 172.121C273.188 172.721 274.008 173.021 274.968 173.021C275.754 173.021 276.408 172.841 276.928 172.481C277.461 172.108 277.834 171.614 278.048 171.001H280.008C279.714 172.054 279.128 172.914 278.248 173.581C277.368 174.234 276.274 174.561 274.968 174.561C273.928 174.561 272.994 174.328 272.168 173.861C271.354 173.394 270.714 172.734 270.248 171.881C269.781 171.014 269.548 170.014 269.548 168.881C269.548 167.748 269.774 166.754 270.228 165.901C270.681 165.048 271.314 164.394 272.128 163.941C272.954 163.474 273.901 163.241 274.968 163.241C276.008 163.241 276.928 163.468 277.728 163.921C278.528 164.374 279.141 165.001 279.568 165.801C280.008 166.588 280.228 167.481 280.228 168.481ZM278.348 168.101C278.348 167.408 278.194 166.814 277.888 166.321C277.581 165.814 277.161 165.434 276.628 165.181C276.108 164.914 275.528 164.781 274.888 164.781C273.968 164.781 273.181 165.074 272.528 165.661C271.888 166.248 271.521 167.061 271.428 168.101H278.348ZM281.95 168.861C281.95 167.741 282.177 166.761 282.63 165.921C283.083 165.068 283.703 164.408 284.49 163.941C285.29 163.474 286.177 163.241 287.15 163.241C288.11 163.241 288.943 163.448 289.65 163.861C290.357 164.274 290.883 164.794 291.23 165.421V163.421H293.07V174.381H291.23V172.341C290.87 172.981 290.33 173.514 289.61 173.941C288.903 174.354 288.077 174.561 287.13 174.561C286.157 174.561 285.277 174.321 284.49 173.841C283.703 173.361 283.083 172.688 282.63 171.821C282.177 170.954 281.95 169.968 281.95 168.861ZM291.23 168.881C291.23 168.054 291.063 167.334 290.73 166.721C290.397 166.108 289.943 165.641 289.37 165.321C288.81 164.988 288.19 164.821 287.51 164.821C286.83 164.821 286.21 164.981 285.65 165.301C285.09 165.621 284.643 166.088 284.31 166.701C283.977 167.314 283.81 168.034 283.81 168.861C283.81 169.701 283.977 170.434 284.31 171.061C284.643 171.674 285.09 172.148 285.65 172.481C286.21 172.801 286.83 172.961 287.51 172.961C288.19 172.961 288.81 172.801 289.37 172.481C289.943 172.148 290.397 171.674 290.73 171.061C291.063 170.434 291.23 169.708 291.23 168.881ZM295.466 168.861C295.466 167.741 295.692 166.761 296.146 165.921C296.599 165.068 297.219 164.408 298.006 163.941C298.806 163.474 299.699 163.241 300.686 163.241C301.539 163.241 302.332 163.441 303.066 163.841C303.799 164.228 304.359 164.741 304.746 165.381V159.581H306.586V174.381H304.746V172.321C304.386 172.974 303.852 173.514 303.146 173.941C302.439 174.354 301.612 174.561 300.666 174.561C299.692 174.561 298.806 174.321 298.006 173.841C297.219 173.361 296.599 172.688 296.146 171.821C295.692 170.954 295.466 169.968 295.466 168.861ZM304.746 168.881C304.746 168.054 304.579 167.334 304.246 166.721C303.912 166.108 303.459 165.641 302.886 165.321C302.326 164.988 301.706 164.821 301.026 164.821C300.346 164.821 299.726 164.981 299.166 165.301C298.606 165.621 298.159 166.088 297.826 166.701C297.492 167.314 297.326 168.034 297.326 168.861C297.326 169.701 297.492 170.434 297.826 171.061C298.159 171.674 298.606 172.148 299.166 172.481C299.726 172.801 300.346 172.961 301.026 172.961C301.706 172.961 302.326 172.801 302.886 172.481C303.459 172.148 303.912 171.674 304.246 171.061C304.579 170.434 304.746 169.708 304.746 168.881ZM319.101 163.421L312.501 179.541H310.621L312.781 174.261L308.361 163.421H310.381L313.821 172.301L317.221 163.421H319.101ZM75.7387 194.921V201.381C75.7387 201.914 75.8521 202.294 76.0787 202.521C76.3054 202.734 76.6987 202.841 77.2587 202.841H78.5987V204.381H76.9587C75.9454 204.381 75.1854 204.148 74.6787 203.681C74.1721 203.214 73.9187 202.448 73.9187 201.381V194.921H72.4987V193.421H73.9187V190.661H75.7387V193.421H78.5987V194.921H75.7387ZM85.5839 204.561C84.5572 204.561 83.6239 204.328 82.7839 203.861C81.9572 203.394 81.3039 202.734 80.8239 201.881C80.3572 201.014 80.1239 200.014 80.1239 198.881C80.1239 197.761 80.3639 196.774 80.8439 195.921C81.3372 195.054 82.0039 194.394 82.8439 193.941C83.6839 193.474 84.6239 193.241 85.6639 193.241C86.7039 193.241 87.6439 193.474 88.4839 193.941C89.3239 194.394 89.9839 195.048 90.4639 195.901C90.9572 196.754 91.2039 197.748 91.2039 198.881C91.2039 200.014 90.9506 201.014 90.4439 201.881C89.9506 202.734 89.2772 203.394 88.4239 203.861C87.5706 204.328 86.6239 204.561 85.5839 204.561ZM85.5839 202.961C86.2372 202.961 86.8506 202.808 87.4239 202.501C87.9972 202.194 88.4572 201.734 88.8039 201.121C89.1639 200.508 89.3439 199.761 89.3439 198.881C89.3439 198.001 89.1706 197.254 88.8239 196.641C88.4772 196.028 88.0239 195.574 87.4639 195.281C86.9039 194.974 86.2972 194.821 85.6439 194.821C84.9772 194.821 84.3639 194.974 83.8039 195.281C83.2572 195.574 82.8172 196.028 82.4839 196.641C82.1506 197.254 81.9839 198.001 81.9839 198.881C81.9839 199.774 82.1439 200.528 82.4639 201.141C82.7972 201.754 83.2372 202.214 83.7839 202.521C84.3306 202.814 84.9306 202.961 85.5839 202.961ZM98.2489 198.881C98.2489 197.748 98.4756 196.761 98.9289 195.921C99.3822 195.068 100.009 194.408 100.809 193.941C101.622 193.474 102.549 193.241 103.589 193.241C104.936 193.241 106.042 193.568 106.909 194.221C107.789 194.874 108.369 195.781 108.649 196.941H106.689C106.502 196.274 106.136 195.748 105.589 195.361C105.056 194.974 104.389 194.781 103.589 194.781C102.549 194.781 101.709 195.141 101.069 195.861C100.429 196.568 100.109 197.574 100.109 198.881C100.109 200.201 100.429 201.221 101.069 201.941C101.709 202.661 102.549 203.021 103.589 203.021C104.389 203.021 105.056 202.834 105.589 202.461C106.122 202.088 106.489 201.554 106.689 200.861H108.649C108.356 201.981 107.769 202.881 106.889 203.561C106.009 204.228 104.909 204.561 103.589 204.561C102.549 204.561 101.622 204.328 100.809 203.861C100.009 203.394 99.3822 202.734 98.9289 201.881C98.4756 201.028 98.2489 200.028 98.2489 198.881ZM115.857 204.561C114.831 204.561 113.897 204.328 113.057 203.861C112.231 203.394 111.577 202.734 111.097 201.881C110.631 201.014 110.397 200.014 110.397 198.881C110.397 197.761 110.637 196.774 111.117 195.921C111.611 195.054 112.277 194.394 113.117 193.941C113.957 193.474 114.897 193.241 115.937 193.241C116.977 193.241 117.917 193.474 118.757 193.941C119.597 194.394 120.257 195.048 120.737 195.901C121.231 196.754 121.477 197.748 121.477 198.881C121.477 200.014 121.224 201.014 120.717 201.881C120.224 202.734 119.551 203.394 118.697 203.861C117.844 204.328 116.897 204.561 115.857 204.561ZM115.857 202.961C116.511 202.961 117.124 202.808 117.697 202.501C118.271 202.194 118.731 201.734 119.077 201.121C119.437 200.508 119.617 199.761 119.617 198.881C119.617 198.001 119.444 197.254 119.097 196.641C118.751 196.028 118.297 195.574 117.737 195.281C117.177 194.974 116.571 194.821 115.917 194.821C115.251 194.821 114.637 194.974 114.077 195.281C113.531 195.574 113.091 196.028 112.757 196.641C112.424 197.254 112.257 198.001 112.257 198.881C112.257 199.774 112.417 200.528 112.737 201.141C113.071 201.754 113.511 202.214 114.057 202.521C114.604 202.814 115.204 202.961 115.857 202.961ZM137.05 193.221C137.904 193.221 138.664 193.401 139.33 193.761C139.997 194.108 140.524 194.634 140.91 195.341C141.297 196.048 141.49 196.908 141.49 197.921V204.381H139.69V198.181C139.69 197.088 139.417 196.254 138.87 195.681C138.337 195.094 137.61 194.801 136.69 194.801C135.744 194.801 134.99 195.108 134.43 195.721C133.87 196.321 133.59 197.194 133.59 198.341V204.381H131.79V198.181C131.79 197.088 131.517 196.254 130.97 195.681C130.437 195.094 129.71 194.801 128.79 194.801C127.844 194.801 127.09 195.108 126.53 195.721C125.97 196.321 125.69 197.194 125.69 198.341V204.381H123.87V193.421H125.69V195.001C126.05 194.428 126.53 193.988 127.13 193.681C127.744 193.374 128.417 193.221 129.15 193.221C130.07 193.221 130.884 193.428 131.59 193.841C132.297 194.254 132.824 194.861 133.17 195.661C133.477 194.888 133.984 194.288 134.69 193.861C135.397 193.434 136.184 193.221 137.05 193.221ZM146.296 195.441C146.656 194.814 147.189 194.294 147.896 193.881C148.616 193.454 149.449 193.241 150.396 193.241C151.369 193.241 152.249 193.474 153.036 193.941C153.836 194.408 154.462 195.068 154.916 195.921C155.369 196.761 155.596 197.741 155.596 198.861C155.596 199.968 155.369 200.954 154.916 201.821C154.462 202.688 153.836 203.361 153.036 203.841C152.249 204.321 151.369 204.561 150.396 204.561C149.462 204.561 148.636 204.354 147.916 203.941C147.209 203.514 146.669 202.988 146.296 202.361V209.581H144.476V193.421H146.296V195.441ZM153.736 198.861C153.736 198.034 153.569 197.314 153.236 196.701C152.902 196.088 152.449 195.621 151.876 195.301C151.316 194.981 150.696 194.821 150.016 194.821C149.349 194.821 148.729 194.988 148.156 195.321C147.596 195.641 147.142 196.114 146.796 196.741C146.462 197.354 146.296 198.068 146.296 198.881C146.296 199.708 146.462 200.434 146.796 201.061C147.142 201.674 147.596 202.148 148.156 202.481C148.729 202.801 149.349 202.961 150.016 202.961C150.696 202.961 151.316 202.801 151.876 202.481C152.449 202.148 152.902 201.674 153.236 201.061C153.569 200.434 153.736 199.701 153.736 198.861ZM167.991 198.481C167.991 198.828 167.971 199.194 167.931 199.581H159.171C159.238 200.661 159.605 201.508 160.271 202.121C160.951 202.721 161.771 203.021 162.731 203.021C163.518 203.021 164.171 202.841 164.691 202.481C165.225 202.108 165.598 201.614 165.811 201.001H167.771C167.478 202.054 166.891 202.914 166.011 203.581C165.131 204.234 164.038 204.561 162.731 204.561C161.691 204.561 160.758 204.328 159.931 203.861C159.118 203.394 158.478 202.734 158.011 201.881C157.545 201.014 157.311 200.014 157.311 198.881C157.311 197.748 157.538 196.754 157.991 195.901C158.445 195.048 159.078 194.394 159.891 193.941C160.718 193.474 161.665 193.241 162.731 193.241C163.771 193.241 164.691 193.468 165.491 193.921C166.291 194.374 166.905 195.001 167.331 195.801C167.771 196.588 167.991 197.481 167.991 198.481ZM166.111 198.101C166.111 197.408 165.958 196.814 165.651 196.321C165.345 195.814 164.925 195.434 164.391 195.181C163.871 194.914 163.291 194.781 162.651 194.781C161.731 194.781 160.945 195.074 160.291 195.661C159.651 196.248 159.285 197.061 159.191 198.101H166.111ZM172.614 194.921V201.381C172.614 201.914 172.727 202.294 172.954 202.521C173.18 202.734 173.574 202.841 174.134 202.841H175.474V204.381H173.834C172.82 204.381 172.06 204.148 171.554 203.681C171.047 203.214 170.794 202.448 170.794 201.381V194.921H169.374V193.421H170.794V190.661H172.614V193.421H175.474V194.921H172.614ZM187.679 198.481C187.679 198.828 187.659 199.194 187.619 199.581H178.859C178.926 200.661 179.292 201.508 179.959 202.121C180.639 202.721 181.459 203.021 182.419 203.021C183.206 203.021 183.859 202.841 184.379 202.481C184.912 202.108 185.286 201.614 185.499 201.001H187.459C187.166 202.054 186.579 202.914 185.699 203.581C184.819 204.234 183.726 204.561 182.419 204.561C181.379 204.561 180.446 204.328 179.619 203.861C178.806 203.394 178.166 202.734 177.699 201.881C177.232 201.014 176.999 200.014 176.999 198.881C176.999 197.748 177.226 196.754 177.679 195.901C178.132 195.048 178.766 194.394 179.579 193.941C180.406 193.474 181.352 193.241 182.419 193.241C183.459 193.241 184.379 193.468 185.179 193.921C185.979 194.374 186.592 195.001 187.019 195.801C187.459 196.588 187.679 197.481 187.679 198.481ZM185.799 198.101C185.799 197.408 185.646 196.814 185.339 196.321C185.032 195.814 184.612 195.434 184.079 195.181C183.559 194.914 182.979 194.781 182.339 194.781C181.419 194.781 180.632 195.074 179.979 195.661C179.339 196.248 178.972 197.061 178.879 198.101H185.799ZM196.353 191.641C196.007 191.641 195.713 191.521 195.473 191.281C195.233 191.041 195.113 190.748 195.113 190.401C195.113 190.054 195.233 189.761 195.473 189.521C195.713 189.281 196.007 189.161 196.353 189.161C196.687 189.161 196.967 189.281 197.193 189.521C197.433 189.761 197.553 190.054 197.553 190.401C197.553 190.748 197.433 191.041 197.193 191.281C196.967 191.521 196.687 191.641 196.353 191.641ZM197.233 193.421V204.381H195.413V193.421H197.233ZM205.675 193.221C207.008 193.221 208.088 193.628 208.915 194.441C209.742 195.241 210.155 196.401 210.155 197.921V204.381H208.355V198.181C208.355 197.088 208.082 196.254 207.535 195.681C206.988 195.094 206.242 194.801 205.295 194.801C204.335 194.801 203.568 195.101 202.995 195.701C202.435 196.301 202.155 197.174 202.155 198.321V204.381H200.335V193.421H202.155V194.981C202.515 194.421 203.002 193.988 203.615 193.681C204.242 193.374 204.928 193.221 205.675 193.221ZM220.68 194.921V201.381C220.68 201.914 220.793 202.294 221.02 202.521C221.247 202.734 221.64 202.841 222.2 202.841H223.54V204.381H221.9C220.887 204.381 220.127 204.148 219.62 203.681C219.113 203.214 218.86 202.448 218.86 201.381V194.921H217.44V193.421H218.86V190.661H220.68V193.421H223.54V194.921H220.68ZM231.185 193.221C232.012 193.221 232.759 193.401 233.425 193.761C234.092 194.108 234.612 194.634 234.985 195.341C235.372 196.048 235.565 196.908 235.565 197.921V204.381H233.765V198.181C233.765 197.088 233.492 196.254 232.945 195.681C232.399 195.094 231.652 194.801 230.705 194.801C229.745 194.801 228.979 195.101 228.405 195.701C227.845 196.301 227.565 197.174 227.565 198.321V204.381H225.745V189.581H227.565V194.981C227.925 194.421 228.419 193.988 229.045 193.681C229.685 193.374 230.399 193.221 231.185 193.221ZM248.538 198.481C248.538 198.828 248.518 199.194 248.478 199.581H239.718C239.785 200.661 240.152 201.508 240.818 202.121C241.498 202.721 242.318 203.021 243.278 203.021C244.065 203.021 244.718 202.841 245.238 202.481C245.772 202.108 246.145 201.614 246.358 201.001H248.318C248.025 202.054 247.438 202.914 246.558 203.581C245.678 204.234 244.585 204.561 243.278 204.561C242.238 204.561 241.305 204.328 240.478 203.861C239.665 203.394 239.025 202.734 238.558 201.881C238.092 201.014 237.858 200.014 237.858 198.881C237.858 197.748 238.085 196.754 238.538 195.901C238.992 195.048 239.625 194.394 240.438 193.941C241.265 193.474 242.212 193.241 243.278 193.241C244.318 193.241 245.238 193.468 246.038 193.921C246.838 194.374 247.452 195.001 247.878 195.801C248.318 196.588 248.538 197.481 248.538 198.481ZM246.658 198.101C246.658 197.408 246.505 196.814 246.198 196.321C245.892 195.814 245.472 195.434 244.938 195.181C244.418 194.914 243.838 194.781 243.198 194.781C242.278 194.781 241.492 195.074 240.838 195.661C240.198 196.248 239.832 197.061 239.738 198.101H246.658ZM266.273 198.481C266.273 198.828 266.253 199.194 266.213 199.581H257.453C257.519 200.661 257.886 201.508 258.553 202.121C259.233 202.721 260.053 203.021 261.013 203.021C261.799 203.021 262.453 202.841 262.973 202.481C263.506 202.108 263.879 201.614 264.093 201.001H266.053C265.759 202.054 265.173 202.914 264.293 203.581C263.413 204.234 262.319 204.561 261.013 204.561C259.973 204.561 259.039 204.328 258.213 203.861C257.399 203.394 256.759 202.734 256.293 201.881C255.826 201.014 255.593 200.014 255.593 198.881C255.593 197.748 255.819 196.754 256.273 195.901C256.726 195.048 257.359 194.394 258.173 193.941C258.999 193.474 259.946 193.241 261.013 193.241C262.053 193.241 262.973 193.468 263.773 193.921C264.573 194.374 265.186 195.001 265.613 195.801C266.053 196.588 266.273 197.481 266.273 198.481ZM264.393 198.101C264.393 197.408 264.239 196.814 263.933 196.321C263.626 195.814 263.206 195.434 262.673 195.181C262.153 194.914 261.573 194.781 260.933 194.781C260.013 194.781 259.226 195.074 258.573 195.661C257.933 196.248 257.566 197.061 257.473 198.101H264.393ZM270.495 195.201C270.815 194.574 271.268 194.088 271.855 193.741C272.455 193.394 273.182 193.221 274.035 193.221V195.101H273.555C271.515 195.101 270.495 196.208 270.495 198.421V204.381H268.675V193.421H270.495V195.201ZM275.456 198.861C275.456 197.741 275.683 196.761 276.136 195.921C276.589 195.068 277.209 194.408 277.996 193.941C278.796 193.474 279.683 193.241 280.656 193.241C281.616 193.241 282.449 193.448 283.156 193.861C283.863 194.274 284.389 194.794 284.736 195.421V193.421H286.576V204.381H284.736V202.341C284.376 202.981 283.836 203.514 283.116 203.941C282.409 204.354 281.583 204.561 280.636 204.561C279.663 204.561 278.783 204.321 277.996 203.841C277.209 203.361 276.589 202.688 276.136 201.821C275.683 200.954 275.456 199.968 275.456 198.861ZM284.736 198.881C284.736 198.054 284.569 197.334 284.236 196.721C283.903 196.108 283.449 195.641 282.876 195.321C282.316 194.988 281.696 194.821 281.016 194.821C280.336 194.821 279.716 194.981 279.156 195.301C278.596 195.621 278.149 196.088 277.816 196.701C277.483 197.314 277.316 198.034 277.316 198.861C277.316 199.701 277.483 200.434 277.816 201.061C278.149 201.674 278.596 202.148 279.156 202.481C279.716 202.801 280.336 202.961 281.016 202.961C281.696 202.961 282.316 202.801 282.876 202.481C283.449 202.148 283.903 201.674 284.236 201.061C284.569 200.434 284.736 199.708 284.736 198.881ZM299.764 204.561C298.737 204.561 297.804 204.328 296.964 203.861C296.137 203.394 295.484 202.734 295.004 201.881C294.537 201.014 294.304 200.014 294.304 198.881C294.304 197.761 294.544 196.774 295.024 195.921C295.517 195.054 296.184 194.394 297.024 193.941C297.864 193.474 298.804 193.241 299.844 193.241C300.884 193.241 301.824 193.474 302.664 193.941C303.504 194.394 304.164 195.048 304.644 195.901C305.137 196.754 305.384 197.748 305.384 198.881C305.384 200.014 305.13 201.014 304.624 201.881C304.13 202.734 303.457 203.394 302.604 203.861C301.75 204.328 300.804 204.561 299.764 204.561ZM299.764 202.961C300.417 202.961 301.03 202.808 301.604 202.501C302.177 202.194 302.637 201.734 302.984 201.121C303.344 200.508 303.524 199.761 303.524 198.881C303.524 198.001 303.35 197.254 303.004 196.641C302.657 196.028 302.204 195.574 301.644 195.281C301.084 194.974 300.477 194.821 299.824 194.821C299.157 194.821 298.544 194.974 297.984 195.281C297.437 195.574 296.997 196.028 296.664 196.641C296.33 197.254 296.164 198.001 296.164 198.881C296.164 199.774 296.324 200.528 296.644 201.141C296.977 201.754 297.417 202.214 297.964 202.521C298.51 202.814 299.11 202.961 299.764 202.961ZM312.237 194.921H309.937V204.381H308.117V194.921H306.697V193.421H308.117V192.641C308.117 191.414 308.43 190.521 309.057 189.961C309.697 189.388 310.717 189.101 312.117 189.101V190.621C311.317 190.621 310.75 190.781 310.417 191.101C310.097 191.408 309.937 191.921 309.937 192.641V193.421H312.237V194.921ZM76.2563 224.921V231.381C76.2563 231.914 76.3696 232.294 76.5963 232.521C76.823 232.734 77.2163 232.841 77.7763 232.841H79.1163V234.381H77.4763C76.463 234.381 75.703 234.148 75.1963 233.681C74.6896 233.214 74.4363 232.448 74.4363 231.381V224.921H73.0163V223.421H74.4363V220.661H76.2563V223.421H79.1163V224.921H76.2563ZM86.7615 223.221C87.5881 223.221 88.3348 223.401 89.0015 223.761C89.6681 224.108 90.1881 224.634 90.5615 225.341C90.9481 226.048 91.1415 226.908 91.1415 227.921V234.381H89.3415V228.181C89.3415 227.088 89.0681 226.254 88.5215 225.681C87.9748 225.094 87.2281 224.801 86.2815 224.801C85.3215 224.801 84.5548 225.101 83.9815 225.701C83.4215 226.301 83.1415 227.174 83.1415 228.321V234.381H81.3215V219.581H83.1415V224.981C83.5015 224.421 83.9948 223.988 84.6215 223.681C85.2615 223.374 85.9748 223.221 86.7615 223.221ZM104.114 228.481C104.114 228.828 104.094 229.194 104.054 229.581H95.2944C95.3611 230.661 95.7278 231.508 96.3944 232.121C97.0744 232.721 97.8944 233.021 98.8544 233.021C99.6411 233.021 100.294 232.841 100.814 232.481C101.348 232.108 101.721 231.614 101.934 231.001H103.894C103.601 232.054 103.014 232.914 102.134 233.581C101.254 234.234 100.161 234.561 98.8544 234.561C97.8144 234.561 96.8811 234.328 96.0544 233.861C95.2411 233.394 94.6011 232.734 94.1344 231.881C93.6678 231.014 93.4344 230.014 93.4344 228.881C93.4344 227.748 93.6611 226.754 94.1144 225.901C94.5678 225.048 95.2011 224.394 96.0144 223.941C96.8411 223.474 97.7878 223.241 98.8544 223.241C99.8944 223.241 100.814 223.468 101.614 223.921C102.414 224.374 103.028 225.001 103.454 225.801C103.894 226.588 104.114 227.481 104.114 228.481ZM102.234 228.101C102.234 227.408 102.081 226.814 101.774 226.321C101.468 225.814 101.048 225.434 100.514 225.181C99.9944 224.914 99.4144 224.781 98.7744 224.781C97.8544 224.781 97.0678 225.074 96.4144 225.661C95.7744 226.248 95.4078 227.061 95.3144 228.101H102.234ZM113.669 220.441V234.381H111.849V220.441H113.669ZM122.111 223.221C123.444 223.221 124.524 223.628 125.351 224.441C126.177 225.241 126.591 226.401 126.591 227.921V234.381H124.791V228.181C124.791 227.088 124.517 226.254 123.971 225.681C123.424 225.094 122.677 224.801 121.731 224.801C120.771 224.801 120.004 225.101 119.431 225.701C118.871 226.301 118.591 227.174 118.591 228.321V234.381H116.771V223.421H118.591V224.981C118.951 224.421 119.437 223.988 120.051 223.681C120.677 223.374 121.364 223.221 122.111 223.221ZM128.884 228.861C128.884 227.741 129.11 226.761 129.564 225.921C130.017 225.068 130.637 224.408 131.424 223.941C132.224 223.474 133.117 223.241 134.104 223.241C134.957 223.241 135.75 223.441 136.484 223.841C137.217 224.228 137.777 224.741 138.164 225.381V219.581H140.004V234.381H138.164V232.321C137.804 232.974 137.27 233.514 136.564 233.941C135.857 234.354 135.03 234.561 134.084 234.561C133.11 234.561 132.224 234.321 131.424 233.841C130.637 233.361 130.017 232.688 129.564 231.821C129.11 230.954 128.884 229.968 128.884 228.861ZM138.164 228.881C138.164 228.054 137.997 227.334 137.664 226.721C137.33 226.108 136.877 225.641 136.304 225.321C135.744 224.988 135.124 224.821 134.444 224.821C133.764 224.821 133.144 224.981 132.584 225.301C132.024 225.621 131.577 226.088 131.244 226.701C130.91 227.314 130.744 228.034 130.744 228.861C130.744 229.701 130.91 230.434 131.244 231.061C131.577 231.674 132.024 232.148 132.584 232.481C133.144 232.801 133.764 232.961 134.444 232.961C135.124 232.961 135.744 232.801 136.304 232.481C136.877 232.148 137.33 231.674 137.664 231.061C137.997 230.434 138.164 229.708 138.164 228.881ZM152.799 223.421V234.381H150.979V232.761C150.633 233.321 150.146 233.761 149.519 234.081C148.906 234.388 148.226 234.541 147.479 234.541C146.626 234.541 145.859 234.368 145.179 234.021C144.499 233.661 143.959 233.128 143.559 232.421C143.173 231.714 142.979 230.854 142.979 229.841V223.421H144.779V229.601C144.779 230.681 145.053 231.514 145.599 232.101C146.146 232.674 146.893 232.961 147.839 232.961C148.813 232.961 149.579 232.661 150.139 232.061C150.699 231.461 150.979 230.588 150.979 229.441V223.421H152.799ZM159.752 234.561C158.912 234.561 158.159 234.421 157.492 234.141C156.826 233.848 156.299 233.448 155.912 232.941C155.526 232.421 155.312 231.828 155.272 231.161H157.152C157.206 231.708 157.459 232.154 157.912 232.501C158.379 232.848 158.986 233.021 159.732 233.021C160.426 233.021 160.972 232.868 161.372 232.561C161.772 232.254 161.972 231.868 161.972 231.401C161.972 230.921 161.759 230.568 161.332 230.341C160.906 230.101 160.246 229.868 159.352 229.641C158.539 229.428 157.872 229.214 157.352 229.001C156.846 228.774 156.406 228.448 156.032 228.021C155.672 227.581 155.492 227.008 155.492 226.301C155.492 225.741 155.659 225.228 155.992 224.761C156.326 224.294 156.799 223.928 157.412 223.661C158.026 223.381 158.726 223.241 159.512 223.241C160.726 223.241 161.706 223.548 162.452 224.161C163.199 224.774 163.599 225.614 163.652 226.681H161.832C161.792 226.108 161.559 225.648 161.132 225.301C160.719 224.954 160.159 224.781 159.452 224.781C158.799 224.781 158.279 224.921 157.892 225.201C157.506 225.481 157.312 225.848 157.312 226.301C157.312 226.661 157.426 226.961 157.652 227.201C157.892 227.428 158.186 227.614 158.532 227.761C158.892 227.894 159.386 228.048 160.012 228.221C160.799 228.434 161.439 228.648 161.932 228.861C162.426 229.061 162.846 229.368 163.192 229.781C163.552 230.194 163.739 230.734 163.752 231.401C163.752 232.001 163.586 232.541 163.252 233.021C162.919 233.501 162.446 233.881 161.832 234.161C161.232 234.428 160.539 234.561 159.752 234.561ZM168.541 224.921V231.381C168.541 231.914 168.655 232.294 168.881 232.521C169.108 232.734 169.501 232.841 170.061 232.841H171.401V234.381H169.761C168.748 234.381 167.988 234.148 167.481 233.681C166.975 233.214 166.721 232.448 166.721 231.381V224.921H165.301V223.421H166.721V220.661H168.541V223.421H171.401V224.921H168.541ZM175.427 225.201C175.747 224.574 176.2 224.088 176.787 223.741C177.387 223.394 178.113 223.221 178.967 223.221V225.101H178.487C176.447 225.101 175.427 226.208 175.427 228.421V234.381H173.607V223.421H175.427V225.201ZM182.008 221.641C181.661 221.641 181.368 221.521 181.128 221.281C180.888 221.041 180.768 220.748 180.768 220.401C180.768 220.054 180.888 219.761 181.128 219.521C181.368 219.281 181.661 219.161 182.008 219.161C182.341 219.161 182.621 219.281 182.848 219.521C183.088 219.761 183.208 220.054 183.208 220.401C183.208 220.748 183.088 221.041 182.848 221.281C182.621 221.521 182.341 221.641 182.008 221.641ZM182.888 223.421V234.381H181.068V223.421H182.888ZM185.309 228.861C185.309 227.741 185.536 226.761 185.989 225.921C186.443 225.068 187.063 224.408 187.849 223.941C188.649 223.474 189.536 223.241 190.509 223.241C191.469 223.241 192.303 223.448 193.009 223.861C193.716 224.274 194.243 224.794 194.589 225.421V223.421H196.429V234.381H194.589V232.341C194.229 232.981 193.689 233.514 192.969 233.941C192.263 234.354 191.436 234.561 190.489 234.561C189.516 234.561 188.636 234.321 187.849 233.841C187.063 233.361 186.443 232.688 185.989 231.821C185.536 230.954 185.309 229.968 185.309 228.861ZM194.589 228.881C194.589 228.054 194.423 227.334 194.089 226.721C193.756 226.108 193.303 225.641 192.729 225.321C192.169 224.988 191.549 224.821 190.869 224.821C190.189 224.821 189.569 224.981 189.009 225.301C188.449 225.621 188.003 226.088 187.669 226.701C187.336 227.314 187.169 228.034 187.169 228.861C187.169 229.701 187.336 230.434 187.669 231.061C188.003 231.674 188.449 232.148 189.009 232.481C189.569 232.801 190.189 232.961 190.869 232.961C191.549 232.961 192.169 232.801 192.729 232.481C193.303 232.148 193.756 231.674 194.089 231.061C194.423 230.434 194.589 229.708 194.589 228.881ZM201.325 219.581V234.381H199.505V219.581H201.325ZM217.099 234.381L213.779 228.681H211.579V234.381H209.759V220.441H214.259C215.312 220.441 216.199 220.621 216.919 220.981C217.652 221.341 218.199 221.828 218.559 222.441C218.919 223.054 219.099 223.754 219.099 224.541C219.099 225.501 218.819 226.348 218.259 227.081C217.712 227.814 216.886 228.301 215.779 228.541L219.279 234.381H217.099ZM211.579 227.221H214.259C215.246 227.221 215.986 226.981 216.479 226.501C216.972 226.008 217.219 225.354 217.219 224.541C217.219 223.714 216.972 223.074 216.479 222.621C215.999 222.168 215.259 221.941 214.259 221.941H211.579V227.221ZM231.927 228.481C231.927 228.828 231.907 229.194 231.867 229.581H223.107C223.174 230.661 223.54 231.508 224.207 232.121C224.887 232.721 225.707 233.021 226.667 233.021C227.454 233.021 228.107 232.841 228.627 232.481C229.16 232.108 229.534 231.614 229.747 231.001H231.707C231.414 232.054 230.827 232.914 229.947 233.581C229.067 234.234 227.974 234.561 226.667 234.561C225.627 234.561 224.694 234.328 223.867 233.861C223.054 233.394 222.414 232.734 221.947 231.881C221.48 231.014 221.247 230.014 221.247 228.881C221.247 227.748 221.474 226.754 221.927 225.901C222.38 225.048 223.014 224.394 223.827 223.941C224.654 223.474 225.6 223.241 226.667 223.241C227.707 223.241 228.627 223.468 229.427 223.921C230.227 224.374 230.84 225.001 231.267 225.801C231.707 226.588 231.927 227.481 231.927 228.481ZM230.047 228.101C230.047 227.408 229.894 226.814 229.587 226.321C229.28 225.814 228.86 225.434 228.327 225.181C227.807 224.914 227.227 224.781 226.587 224.781C225.667 224.781 224.88 225.074 224.227 225.661C223.587 226.248 223.22 227.061 223.127 228.101H230.047ZM238.409 232.701L241.809 223.421H243.749L239.449 234.381H237.329L233.029 223.421H234.989L238.409 232.701ZM250.32 234.561C249.294 234.561 248.36 234.328 247.52 233.861C246.694 233.394 246.04 232.734 245.56 231.881C245.094 231.014 244.86 230.014 244.86 228.881C244.86 227.761 245.1 226.774 245.58 225.921C246.074 225.054 246.74 224.394 247.58 223.941C248.42 223.474 249.36 223.241 250.4 223.241C251.44 223.241 252.38 223.474 253.22 223.941C254.06 224.394 254.72 225.048 255.2 225.901C255.694 226.754 255.94 227.748 255.94 228.881C255.94 230.014 255.687 231.014 255.18 231.881C254.687 232.734 254.014 233.394 253.16 233.861C252.307 234.328 251.36 234.561 250.32 234.561ZM250.32 232.961C250.974 232.961 251.587 232.808 252.16 232.501C252.734 232.194 253.194 231.734 253.54 231.121C253.9 230.508 254.08 229.761 254.08 228.881C254.08 228.001 253.907 227.254 253.56 226.641C253.214 226.028 252.76 225.574 252.2 225.281C251.64 224.974 251.034 224.821 250.38 224.821C249.714 224.821 249.1 224.974 248.54 225.281C247.994 225.574 247.554 226.028 247.22 226.641C246.887 227.254 246.72 228.001 246.72 228.881C246.72 229.774 246.88 230.528 247.2 231.141C247.534 231.754 247.974 232.214 248.52 232.521C249.067 232.814 249.667 232.961 250.32 232.961ZM260.153 219.581V234.381H258.333V219.581H260.153ZM272.975 223.421V234.381H271.155V232.761C270.808 233.321 270.322 233.761 269.695 234.081C269.082 234.388 268.402 234.541 267.655 234.541C266.802 234.541 266.035 234.368 265.355 234.021C264.675 233.661 264.135 233.128 263.735 232.421C263.348 231.714 263.155 230.854 263.155 229.841V223.421H264.955V229.601C264.955 230.681 265.228 231.514 265.775 232.101C266.322 232.674 267.068 232.961 268.015 232.961C268.988 232.961 269.755 232.661 270.315 232.061C270.875 231.461 271.155 230.588 271.155 229.441V223.421H272.975ZM278.268 224.921V231.381C278.268 231.914 278.381 232.294 278.608 232.521C278.835 232.734 279.228 232.841 279.788 232.841H281.128V234.381H279.488C278.475 234.381 277.715 234.148 277.208 233.681C276.701 233.214 276.448 232.448 276.448 231.381V224.921H275.028V223.421H276.448V220.661H278.268V223.421H281.128V224.921H278.268ZM284.273 221.641C283.927 221.641 283.633 221.521 283.393 221.281C283.153 221.041 283.033 220.748 283.033 220.401C283.033 220.054 283.153 219.761 283.393 219.521C283.633 219.281 283.927 219.161 284.273 219.161C284.607 219.161 284.887 219.281 285.113 219.521C285.353 219.761 285.473 220.054 285.473 220.401C285.473 220.748 285.353 221.041 285.113 221.281C284.887 221.521 284.607 221.641 284.273 221.641ZM285.153 223.421V234.381H283.333V223.421H285.153ZM293.035 234.561C292.008 234.561 291.075 234.328 290.235 233.861C289.408 233.394 288.755 232.734 288.275 231.881C287.808 231.014 287.575 230.014 287.575 228.881C287.575 227.761 287.815 226.774 288.295 225.921C288.788 225.054 289.455 224.394 290.295 223.941C291.135 223.474 292.075 223.241 293.115 223.241C294.155 223.241 295.095 223.474 295.935 223.941C296.775 224.394 297.435 225.048 297.915 225.901C298.408 226.754 298.655 227.748 298.655 228.881C298.655 230.014 298.402 231.014 297.895 231.881C297.402 232.734 296.728 233.394 295.875 233.861C295.022 234.328 294.075 234.561 293.035 234.561ZM293.035 232.961C293.688 232.961 294.302 232.808 294.875 232.501C295.448 232.194 295.908 231.734 296.255 231.121C296.615 230.508 296.795 229.761 296.795 228.881C296.795 228.001 296.622 227.254 296.275 226.641C295.928 226.028 295.475 225.574 294.915 225.281C294.355 224.974 293.748 224.821 293.095 224.821C292.428 224.821 291.815 224.974 291.255 225.281C290.708 225.574 290.268 226.028 289.935 226.641C289.602 227.254 289.435 228.001 289.435 228.881C289.435 229.774 289.595 230.528 289.915 231.141C290.248 231.754 290.688 232.214 291.235 232.521C291.782 232.814 292.382 232.961 293.035 232.961ZM306.388 223.221C307.721 223.221 308.801 223.628 309.628 224.441C310.455 225.241 310.868 226.401 310.868 227.921V234.381H309.068V228.181C309.068 227.088 308.795 226.254 308.248 225.681C307.701 225.094 306.955 224.801 306.008 224.801C305.048 224.801 304.281 225.101 303.708 225.701C303.148 226.301 302.868 227.174 302.868 228.321V234.381H301.048V223.421H302.868V224.981C303.228 224.421 303.715 223.988 304.328 223.681C304.955 223.374 305.641 223.221 306.388 223.221ZM86.9291 261.161V259.781L93.9491 250.061H96.1291V259.581H98.1291V261.161H96.1291V264.381H94.3291V261.161H86.9291ZM94.4091 251.961L89.0291 259.581H94.4091V251.961ZM100.827 264.501C100.481 264.501 100.187 264.381 99.9472 264.141C99.7072 263.901 99.5872 263.608 99.5872 263.261C99.5872 262.914 99.7072 262.621 99.9472 262.381C100.187 262.141 100.481 262.021 100.827 262.021C101.161 262.021 101.441 262.141 101.667 262.381C101.907 262.621 102.027 262.914 102.027 263.261C102.027 263.608 101.907 263.901 101.667 264.141C101.441 264.381 101.161 264.501 100.827 264.501ZM104.146 257.001C104.146 254.708 104.52 252.921 105.266 251.641C106.013 250.348 107.32 249.701 109.186 249.701C111.04 249.701 112.34 250.348 113.086 251.641C113.833 252.921 114.206 254.708 114.206 257.001C114.206 259.334 113.833 261.148 113.086 262.441C112.34 263.734 111.04 264.381 109.186 264.381C107.32 264.381 106.013 263.734 105.266 262.441C104.52 261.148 104.146 259.334 104.146 257.001ZM112.406 257.001C112.406 255.841 112.326 254.861 112.166 254.061C112.02 253.248 111.706 252.594 111.226 252.101C110.76 251.608 110.08 251.361 109.186 251.361C108.28 251.361 107.586 251.608 107.106 252.101C106.64 252.594 106.326 253.248 106.166 254.061C106.02 254.861 105.946 255.841 105.946 257.001C105.946 258.201 106.02 259.208 106.166 260.021C106.326 260.834 106.64 261.488 107.106 261.981C107.586 262.474 108.28 262.721 109.186 262.721C110.08 262.721 110.76 262.474 111.226 261.981C111.706 261.488 112.02 260.834 112.166 260.021C112.326 259.208 112.406 258.201 112.406 257.001ZM121.657 258.861C121.657 257.741 121.884 256.761 122.337 255.921C122.79 255.068 123.41 254.408 124.197 253.941C124.997 253.474 125.884 253.241 126.857 253.241C127.817 253.241 128.65 253.448 129.357 253.861C130.064 254.274 130.59 254.794 130.937 255.421V253.421H132.777V264.381H130.937V262.341C130.577 262.981 130.037 263.514 129.317 263.941C128.61 264.354 127.784 264.561 126.837 264.561C125.864 264.561 124.984 264.321 124.197 263.841C123.41 263.361 122.79 262.688 122.337 261.821C121.884 260.954 121.657 259.968 121.657 258.861ZM130.937 258.881C130.937 258.054 130.77 257.334 130.437 256.721C130.104 256.108 129.65 255.641 129.077 255.321C128.517 254.988 127.897 254.821 127.217 254.821C126.537 254.821 125.917 254.981 125.357 255.301C124.797 255.621 124.35 256.088 124.017 256.701C123.684 257.314 123.517 258.034 123.517 258.861C123.517 259.701 123.684 260.434 124.017 261.061C124.35 261.674 124.797 262.148 125.357 262.481C125.917 262.801 126.537 262.961 127.217 262.961C127.897 262.961 128.517 262.801 129.077 262.481C129.65 262.148 130.104 261.674 130.437 261.061C130.77 260.434 130.937 259.708 130.937 258.881ZM141.193 253.221C142.526 253.221 143.606 253.628 144.433 254.441C145.259 255.241 145.673 256.401 145.673 257.921V264.381H143.873V258.181C143.873 257.088 143.599 256.254 143.053 255.681C142.506 255.094 141.759 254.801 140.813 254.801C139.853 254.801 139.086 255.101 138.513 255.701C137.953 256.301 137.673 257.174 137.673 258.321V264.381H135.853V253.421H137.673V254.981C138.033 254.421 138.519 253.988 139.133 253.681C139.759 253.374 140.446 253.221 141.193 253.221ZM147.966 258.861C147.966 257.741 148.192 256.761 148.646 255.921C149.099 255.068 149.719 254.408 150.506 253.941C151.306 253.474 152.199 253.241 153.186 253.241C154.039 253.241 154.832 253.441 155.566 253.841C156.299 254.228 156.859 254.741 157.246 255.381V249.581H159.086V264.381H157.246V262.321C156.886 262.974 156.352 263.514 155.646 263.941C154.939 264.354 154.112 264.561 153.166 264.561C152.192 264.561 151.306 264.321 150.506 263.841C149.719 263.361 149.099 262.688 148.646 261.821C148.192 260.954 147.966 259.968 147.966 258.861ZM157.246 258.881C157.246 258.054 157.079 257.334 156.746 256.721C156.412 256.108 155.959 255.641 155.386 255.321C154.826 254.988 154.206 254.821 153.526 254.821C152.846 254.821 152.226 254.981 151.666 255.301C151.106 255.621 150.659 256.088 150.326 256.701C149.992 257.314 149.826 258.034 149.826 258.861C149.826 259.701 149.992 260.434 150.326 261.061C150.659 261.674 151.106 262.148 151.666 262.481C152.226 262.801 152.846 262.961 153.526 262.961C154.206 262.961 154.826 262.801 155.386 262.481C155.959 262.148 156.412 261.674 156.746 261.061C157.079 260.434 157.246 259.708 157.246 258.881ZM172.013 253.241C172.96 253.241 173.787 253.448 174.493 253.861C175.213 254.274 175.747 254.794 176.093 255.421V253.421H177.933V264.621C177.933 265.621 177.72 266.508 177.293 267.281C176.867 268.068 176.253 268.681 175.453 269.121C174.667 269.561 173.747 269.781 172.693 269.781C171.253 269.781 170.053 269.441 169.093 268.761C168.133 268.081 167.567 267.154 167.393 265.981H169.193C169.393 266.648 169.807 267.181 170.433 267.581C171.06 267.994 171.813 268.201 172.693 268.201C173.693 268.201 174.507 267.888 175.133 267.261C175.773 266.634 176.093 265.754 176.093 264.621V262.321C175.733 262.961 175.2 263.494 174.493 263.921C173.787 264.348 172.96 264.561 172.013 264.561C171.04 264.561 170.153 264.321 169.353 263.841C168.567 263.361 167.947 262.688 167.493 261.821C167.04 260.954 166.813 259.968 166.813 258.861C166.813 257.741 167.04 256.761 167.493 255.921C167.947 255.068 168.567 254.408 169.353 253.941C170.153 253.474 171.04 253.241 172.013 253.241ZM176.093 258.881C176.093 258.054 175.927 257.334 175.593 256.721C175.26 256.108 174.807 255.641 174.233 255.321C173.673 254.988 173.053 254.821 172.373 254.821C171.693 254.821 171.073 254.981 170.513 255.301C169.953 255.621 169.507 256.088 169.173 256.701C168.84 257.314 168.673 258.034 168.673 258.861C168.673 259.701 168.84 260.434 169.173 261.061C169.507 261.674 169.953 262.148 170.513 262.481C171.073 262.801 171.693 262.961 172.373 262.961C173.053 262.961 173.673 262.801 174.233 262.481C174.807 262.148 175.26 261.674 175.593 261.061C175.927 260.434 176.093 259.708 176.093 258.881ZM182.829 249.581V264.381H181.009V249.581H182.829ZM190.711 264.561C189.684 264.561 188.751 264.328 187.911 263.861C187.084 263.394 186.431 262.734 185.951 261.881C185.484 261.014 185.251 260.014 185.251 258.881C185.251 257.761 185.491 256.774 185.971 255.921C186.464 255.054 187.131 254.394 187.971 253.941C188.811 253.474 189.751 253.241 190.791 253.241C191.831 253.241 192.771 253.474 193.611 253.941C194.451 254.394 195.111 255.048 195.591 255.901C196.084 256.754 196.331 257.748 196.331 258.881C196.331 260.014 196.078 261.014 195.571 261.881C195.078 262.734 194.404 263.394 193.551 263.861C192.698 264.328 191.751 264.561 190.711 264.561ZM190.711 262.961C191.364 262.961 191.978 262.808 192.551 262.501C193.124 262.194 193.584 261.734 193.931 261.121C194.291 260.508 194.471 259.761 194.471 258.881C194.471 258.001 194.298 257.254 193.951 256.641C193.604 256.028 193.151 255.574 192.591 255.281C192.031 254.974 191.424 254.821 190.771 254.821C190.104 254.821 189.491 254.974 188.931 255.281C188.384 255.574 187.944 256.028 187.611 256.641C187.278 257.254 187.111 258.001 187.111 258.881C187.111 259.774 187.271 260.528 187.591 261.141C187.924 261.754 188.364 262.214 188.911 262.521C189.458 262.814 190.058 262.961 190.711 262.961ZM200.544 255.461C200.917 254.808 201.464 254.274 202.184 253.861C202.904 253.448 203.724 253.241 204.644 253.241C205.63 253.241 206.517 253.474 207.304 253.941C208.09 254.408 208.71 255.068 209.164 255.921C209.617 256.761 209.844 257.741 209.844 258.861C209.844 259.968 209.617 260.954 209.164 261.821C208.71 262.688 208.084 263.361 207.284 263.841C206.497 264.321 205.617 264.561 204.644 264.561C203.697 264.561 202.864 264.354 202.144 263.941C201.437 263.528 200.904 263.001 200.544 262.361V264.381H198.724V249.581H200.544V255.461ZM207.984 258.861C207.984 258.034 207.817 257.314 207.484 256.701C207.15 256.088 206.697 255.621 206.124 255.301C205.564 254.981 204.944 254.821 204.264 254.821C203.597 254.821 202.977 254.988 202.404 255.321C201.844 255.641 201.39 256.114 201.044 256.741C200.71 257.354 200.544 258.068 200.544 258.881C200.544 259.708 200.71 260.434 201.044 261.061C201.39 261.674 201.844 262.148 202.404 262.481C202.977 262.801 203.597 262.961 204.264 262.961C204.944 262.961 205.564 262.801 206.124 262.481C206.697 262.148 207.15 261.674 207.484 261.061C207.817 260.434 207.984 259.701 207.984 258.861ZM211.559 258.861C211.559 257.741 211.786 256.761 212.239 255.921C212.693 255.068 213.313 254.408 214.099 253.941C214.899 253.474 215.786 253.241 216.759 253.241C217.719 253.241 218.553 253.448 219.259 253.861C219.966 254.274 220.493 254.794 220.839 255.421V253.421H222.679V264.381H220.839V262.341C220.479 262.981 219.939 263.514 219.219 263.941C218.513 264.354 217.686 264.561 216.739 264.561C215.766 264.561 214.886 264.321 214.099 263.841C213.313 263.361 212.693 262.688 212.239 261.821C211.786 260.954 211.559 259.968 211.559 258.861ZM220.839 258.881C220.839 258.054 220.673 257.334 220.339 256.721C220.006 256.108 219.553 255.641 218.979 255.321C218.419 254.988 217.799 254.821 217.119 254.821C216.439 254.821 215.819 254.981 215.259 255.301C214.699 255.621 214.253 256.088 213.919 256.701C213.586 257.314 213.419 258.034 213.419 258.861C213.419 259.701 213.586 260.434 213.919 261.061C214.253 261.674 214.699 262.148 215.259 262.481C215.819 262.801 216.439 262.961 217.119 262.961C217.799 262.961 218.419 262.801 218.979 262.481C219.553 262.148 220.006 261.674 220.339 261.061C220.673 260.434 220.839 259.708 220.839 258.881ZM227.575 249.581V264.381H225.755V249.581H227.575ZM231.617 251.641C231.27 251.641 230.977 251.521 230.737 251.281C230.497 251.041 230.377 250.748 230.377 250.401C230.377 250.054 230.497 249.761 230.737 249.521C230.977 249.281 231.27 249.161 231.617 249.161C231.95 249.161 232.23 249.281 232.457 249.521C232.697 249.761 232.817 250.054 232.817 250.401C232.817 250.748 232.697 251.041 232.457 251.281C232.23 251.521 231.95 251.641 231.617 251.641ZM232.497 253.421V264.381H230.677V253.421H232.497ZM236.959 262.881H242.339V264.381H234.879V262.881L240.199 254.901H234.919V253.421H242.299V254.901L236.959 262.881ZM244.02 258.861C244.02 257.741 244.247 256.761 244.7 255.921C245.154 255.068 245.774 254.408 246.56 253.941C247.36 253.474 248.247 253.241 249.22 253.241C250.18 253.241 251.014 253.448 251.72 253.861C252.427 254.274 252.954 254.794 253.3 255.421V253.421H255.14V264.381H253.3V262.341C252.94 262.981 252.4 263.514 251.68 263.941C250.974 264.354 250.147 264.561 249.2 264.561C248.227 264.561 247.347 264.321 246.56 263.841C245.774 263.361 245.154 262.688 244.7 261.821C244.247 260.954 244.02 259.968 244.02 258.861ZM253.3 258.881C253.3 258.054 253.134 257.334 252.8 256.721C252.467 256.108 252.014 255.641 251.44 255.321C250.88 254.988 250.26 254.821 249.58 254.821C248.9 254.821 248.28 254.981 247.72 255.301C247.16 255.621 246.714 256.088 246.38 256.701C246.047 257.314 245.88 258.034 245.88 258.861C245.88 259.701 246.047 260.434 246.38 261.061C246.714 261.674 247.16 262.148 247.72 262.481C248.28 262.801 248.9 262.961 249.58 262.961C250.26 262.961 250.88 262.801 251.44 262.481C252.014 262.148 252.467 261.674 252.8 261.061C253.134 260.434 253.3 259.708 253.3 258.881ZM260.436 254.921V261.381C260.436 261.914 260.549 262.294 260.776 262.521C261.003 262.734 261.396 262.841 261.956 262.841H263.296V264.381H261.656C260.643 264.381 259.883 264.148 259.376 263.681C258.869 263.214 258.616 262.448 258.616 261.381V254.921H257.196V253.421H258.616V250.661H260.436V253.421H263.296V254.921H260.436ZM266.441 251.641C266.094 251.641 265.801 251.521 265.561 251.281C265.321 251.041 265.201 250.748 265.201 250.401C265.201 250.054 265.321 249.761 265.561 249.521C265.801 249.281 266.094 249.161 266.441 249.161C266.774 249.161 267.054 249.281 267.281 249.521C267.521 249.761 267.641 250.054 267.641 250.401C267.641 250.748 267.521 251.041 267.281 251.281C267.054 251.521 266.774 251.641 266.441 251.641ZM267.321 253.421V264.381H265.501V253.421H267.321ZM275.203 264.561C274.176 264.561 273.243 264.328 272.403 263.861C271.576 263.394 270.923 262.734 270.443 261.881C269.976 261.014 269.743 260.014 269.743 258.881C269.743 257.761 269.983 256.774 270.463 255.921C270.956 255.054 271.623 254.394 272.463 253.941C273.303 253.474 274.243 253.241 275.283 253.241C276.323 253.241 277.263 253.474 278.103 253.941C278.943 254.394 279.603 255.048 280.083 255.901C280.576 256.754 280.823 257.748 280.823 258.881C280.823 260.014 280.57 261.014 280.063 261.881C279.57 262.734 278.896 263.394 278.043 263.861C277.19 264.328 276.243 264.561 275.203 264.561ZM275.203 262.961C275.856 262.961 276.47 262.808 277.043 262.501C277.616 262.194 278.076 261.734 278.423 261.121C278.783 260.508 278.963 259.761 278.963 258.881C278.963 258.001 278.79 257.254 278.443 256.641C278.096 256.028 277.643 255.574 277.083 255.281C276.523 254.974 275.916 254.821 275.263 254.821C274.596 254.821 273.983 254.974 273.423 255.281C272.876 255.574 272.436 256.028 272.103 256.641C271.77 257.254 271.603 258.001 271.603 258.881C271.603 259.774 271.763 260.528 272.083 261.141C272.416 261.754 272.856 262.214 273.403 262.521C273.95 262.814 274.55 262.961 275.203 262.961ZM288.556 253.221C289.889 253.221 290.969 253.628 291.796 254.441C292.623 255.241 293.036 256.401 293.036 257.921V264.381H291.236V258.181C291.236 257.088 290.963 256.254 290.416 255.681C289.869 255.094 289.123 254.801 288.176 254.801C287.216 254.801 286.449 255.101 285.876 255.701C285.316 256.301 285.036 257.174 285.036 258.321V264.381H283.216V253.421H285.036V254.981C285.396 254.421 285.883 253.988 286.496 253.681C287.123 253.374 287.809 253.221 288.556 253.221ZM296.589 264.501C296.242 264.501 295.949 264.381 295.709 264.141C295.469 263.901 295.349 263.608 295.349 263.261C295.349 262.914 295.469 262.621 295.709 262.381C295.949 262.141 296.242 262.021 296.589 262.021C296.922 262.021 297.202 262.141 297.429 262.381C297.669 262.621 297.789 262.914 297.789 263.261C297.789 263.608 297.669 263.901 297.429 264.141C297.202 264.381 296.922 264.501 296.589 264.501Z" fill="#243771"/>
<path d="M366.9 86.8311C366.9 48.7235 336.008 17.8311 297.9 17.8311L1.0996 17.8311L1.09961 325.461C1.09961 363.569 31.992 394.461 70.0996 394.461L366.9 394.461L366.9 86.8311Z" stroke="#243771" stroke-width="2"/>
<path d="M382.896 70.0049C382.896 31.8973 352.004 1.00489 313.896 1.00489L17.0957 1.00491L17.0957 308.635C17.0957 346.742 47.9881 377.635 86.0957 377.635L382.896 377.635L382.896 70.0049Z" stroke="#FE4D01" stroke-width="2"/>
</svg>
