<svg width="384" height="397" viewBox="0 0 384 397" fill="none" xmlns="http://www.w3.org/2000/svg">
<path d="M68.6824 116.396C70.2024 116.396 71.5157 116.683 72.6224 117.256C73.7424 117.816 74.5957 118.623 75.1824 119.676C75.7824 120.729 76.0824 121.969 76.0824 123.396C76.0824 124.823 75.7824 126.063 75.1824 127.116C74.5957 128.156 73.7424 128.956 72.6224 129.516C71.5157 130.063 70.2024 130.336 68.6824 130.336H64.3424V116.396H68.6824ZM68.6824 128.836C70.4824 128.836 71.8557 128.363 72.8024 127.416C73.7491 126.456 74.2224 125.116 74.2224 123.396C74.2224 121.663 73.7424 120.309 72.7824 119.336C71.8357 118.363 70.4691 117.876 68.6824 117.876H66.1624V128.836H68.6824ZM88.483 124.436C88.483 124.783 88.463 125.149 88.423 125.536H79.663C79.7297 126.616 80.0964 127.463 80.763 128.076C81.443 128.676 82.263 128.976 83.223 128.976C84.0097 128.976 84.663 128.796 85.183 128.436C85.7164 128.063 86.0897 127.569 86.303 126.956H88.263C87.9697 128.009 87.383 128.869 86.503 129.536C85.623 130.189 84.5297 130.516 83.223 130.516C82.183 130.516 81.2497 130.283 80.423 129.816C79.6097 129.349 78.9697 128.689 78.503 127.836C78.0364 126.969 77.803 125.969 77.803 124.836C77.803 123.703 78.0297 122.709 78.483 121.856C78.9364 121.003 79.5697 120.349 80.383 119.896C81.2097 119.429 82.1564 119.196 83.223 119.196C84.263 119.196 85.183 119.423 85.983 119.876C86.783 120.329 87.3964 120.956 87.823 121.756C88.263 122.543 88.483 123.436 88.483 124.436ZM86.603 124.056C86.603 123.363 86.4497 122.769 86.143 122.276C85.8364 121.769 85.4164 121.389 84.883 121.136C84.363 120.869 83.783 120.736 83.143 120.736C82.223 120.736 81.4364 121.029 80.783 121.616C80.143 122.203 79.7764 123.016 79.683 124.056H86.603ZM94.9654 128.656L98.3654 119.376H100.305L96.0054 130.336H93.8854L89.5854 119.376H91.5454L94.9654 128.656ZM112.096 124.436C112.096 124.783 112.076 125.149 112.036 125.536H103.276C103.343 126.616 103.71 127.463 104.376 128.076C105.056 128.676 105.876 128.976 106.836 128.976C107.623 128.976 108.276 128.796 108.796 128.436C109.33 128.063 109.703 127.569 109.916 126.956H111.876C111.583 128.009 110.996 128.869 110.116 129.536C109.236 130.189 108.143 130.516 106.836 130.516C105.796 130.516 104.863 130.283 104.036 129.816C103.223 129.349 102.583 128.689 102.116 127.836C101.65 126.969 101.416 125.969 101.416 124.836C101.416 123.703 101.643 122.709 102.096 121.856C102.55 121.003 103.183 120.349 103.996 119.896C104.823 119.429 105.77 119.196 106.836 119.196C107.876 119.196 108.796 119.423 109.596 119.876C110.396 120.329 111.01 120.956 111.436 121.756C111.876 122.543 112.096 123.436 112.096 124.436ZM110.216 124.056C110.216 123.363 110.063 122.769 109.756 122.276C109.45 121.769 109.03 121.389 108.496 121.136C107.976 120.869 107.396 120.736 106.756 120.736C105.836 120.736 105.05 121.029 104.396 121.616C103.756 122.203 103.39 123.016 103.296 124.056H110.216ZM116.319 115.536V130.336H114.499V115.536H116.319ZM124.201 130.516C123.174 130.516 122.241 130.283 121.401 129.816C120.574 129.349 119.921 128.689 119.441 127.836C118.974 126.969 118.741 125.969 118.741 124.836C118.741 123.716 118.981 122.729 119.461 121.876C119.954 121.009 120.621 120.349 121.461 119.896C122.301 119.429 123.241 119.196 124.281 119.196C125.321 119.196 126.261 119.429 127.101 119.896C127.941 120.349 128.601 121.003 129.081 121.856C129.574 122.709 129.821 123.703 129.821 124.836C129.821 125.969 129.567 126.969 129.061 127.836C128.567 128.689 127.894 129.349 127.041 129.816C126.187 130.283 125.241 130.516 124.201 130.516ZM124.201 128.916C124.854 128.916 125.467 128.763 126.041 128.456C126.614 128.149 127.074 127.689 127.421 127.076C127.781 126.463 127.961 125.716 127.961 124.836C127.961 123.956 127.787 123.209 127.441 122.596C127.094 121.983 126.641 121.529 126.081 121.236C125.521 120.929 124.914 120.776 124.261 120.776C123.594 120.776 122.981 120.929 122.421 121.236C121.874 121.529 121.434 121.983 121.101 122.596C120.767 123.209 120.601 123.956 120.601 124.836C120.601 125.729 120.761 126.483 121.081 127.096C121.414 127.709 121.854 128.169 122.401 128.476C122.947 128.769 123.547 128.916 124.201 128.916ZM134.033 121.396C134.393 120.769 134.927 120.249 135.633 119.836C136.353 119.409 137.187 119.196 138.133 119.196C139.107 119.196 139.987 119.429 140.773 119.896C141.573 120.363 142.2 121.023 142.653 121.876C143.107 122.716 143.333 123.696 143.333 124.816C143.333 125.923 143.107 126.909 142.653 127.776C142.2 128.643 141.573 129.316 140.773 129.796C139.987 130.276 139.107 130.516 138.133 130.516C137.2 130.516 136.373 130.309 135.653 129.896C134.947 129.469 134.407 128.943 134.033 128.316V135.536H132.213V119.376H134.033V121.396ZM141.473 124.816C141.473 123.989 141.307 123.269 140.973 122.656C140.64 122.043 140.187 121.576 139.613 121.256C139.053 120.936 138.433 120.776 137.753 120.776C137.087 120.776 136.467 120.943 135.893 121.276C135.333 121.596 134.88 122.069 134.533 122.696C134.2 123.309 134.033 124.023 134.033 124.836C134.033 125.663 134.2 126.389 134.533 127.016C134.88 127.629 135.333 128.103 135.893 128.436C136.467 128.756 137.087 128.916 137.753 128.916C138.433 128.916 139.053 128.756 139.613 128.436C140.187 128.103 140.64 127.629 140.973 127.016C141.307 126.389 141.473 125.656 141.473 124.816ZM146.669 117.596C146.322 117.596 146.029 117.476 145.789 117.236C145.549 116.996 145.429 116.703 145.429 116.356C145.429 116.009 145.549 115.716 145.789 115.476C146.029 115.236 146.322 115.116 146.669 115.116C147.002 115.116 147.282 115.236 147.509 115.476C147.749 115.716 147.869 116.009 147.869 116.356C147.869 116.703 147.749 116.996 147.509 117.236C147.282 117.476 147.002 117.596 146.669 117.596ZM147.549 119.376V130.336H145.729V119.376H147.549ZM155.991 119.176C157.324 119.176 158.404 119.583 159.231 120.396C160.058 121.196 160.471 122.356 160.471 123.876V130.336H158.671V124.136C158.671 123.043 158.398 122.209 157.851 121.636C157.304 121.049 156.558 120.756 155.611 120.756C154.651 120.756 153.884 121.056 153.311 121.656C152.751 122.256 152.471 123.129 152.471 124.276V130.336H150.651V119.376H152.471V120.936C152.831 120.376 153.318 119.943 153.931 119.636C154.558 119.329 155.244 119.176 155.991 119.176ZM167.964 119.196C168.911 119.196 169.737 119.403 170.444 119.816C171.164 120.229 171.697 120.749 172.044 121.376V119.376H173.884V130.576C173.884 131.576 173.671 132.463 173.244 133.236C172.817 134.023 172.204 134.636 171.404 135.076C170.617 135.516 169.697 135.736 168.644 135.736C167.204 135.736 166.004 135.396 165.044 134.716C164.084 134.036 163.517 133.109 163.344 131.936H165.144C165.344 132.603 165.757 133.136 166.384 133.536C167.011 133.949 167.764 134.156 168.644 134.156C169.644 134.156 170.457 133.843 171.084 133.216C171.724 132.589 172.044 131.709 172.044 130.576V128.276C171.684 128.916 171.151 129.449 170.444 129.876C169.737 130.303 168.911 130.516 167.964 130.516C166.991 130.516 166.104 130.276 165.304 129.796C164.517 129.316 163.897 128.643 163.444 127.776C162.991 126.909 162.764 125.923 162.764 124.816C162.764 123.696 162.991 122.716 163.444 121.876C163.897 121.023 164.517 120.363 165.304 119.896C166.104 119.429 166.991 119.196 167.964 119.196ZM172.044 124.836C172.044 124.009 171.877 123.289 171.544 122.676C171.211 122.063 170.757 121.596 170.184 121.276C169.624 120.943 169.004 120.776 168.324 120.776C167.644 120.776 167.024 120.936 166.464 121.256C165.904 121.576 165.457 122.043 165.124 122.656C164.791 123.269 164.624 123.989 164.624 124.816C164.624 125.656 164.791 126.389 165.124 127.016C165.457 127.629 165.904 128.103 166.464 128.436C167.024 128.756 167.644 128.916 168.324 128.916C169.004 128.916 169.624 128.756 170.184 128.436C170.757 128.103 171.211 127.629 171.544 127.016C171.877 126.389 172.044 125.663 172.044 124.836ZM181.612 124.816C181.612 123.696 181.838 122.716 182.292 121.876C182.745 121.023 183.365 120.363 184.152 119.896C184.952 119.429 185.838 119.196 186.812 119.196C187.772 119.196 188.605 119.403 189.312 119.816C190.018 120.229 190.545 120.749 190.892 121.376V119.376H192.732V130.336H190.892V128.296C190.532 128.936 189.992 129.469 189.272 129.896C188.565 130.309 187.738 130.516 186.792 130.516C185.818 130.516 184.938 130.276 184.152 129.796C183.365 129.316 182.745 128.643 182.292 127.776C181.838 126.909 181.612 125.923 181.612 124.816ZM190.892 124.836C190.892 124.009 190.725 123.289 190.392 122.676C190.058 122.063 189.605 121.596 189.032 121.276C188.472 120.943 187.852 120.776 187.172 120.776C186.492 120.776 185.872 120.936 185.312 121.256C184.752 121.576 184.305 122.043 183.972 122.656C183.638 123.269 183.472 123.989 183.472 124.816C183.472 125.656 183.638 126.389 183.972 127.016C184.305 127.629 184.752 128.103 185.312 128.436C185.872 128.756 186.492 128.916 187.172 128.916C187.852 128.916 188.472 128.756 189.032 128.436C189.605 128.103 190.058 127.629 190.392 127.016C190.725 126.389 190.892 125.663 190.892 124.836ZM202.959 121.396C203.319 120.769 203.853 120.249 204.559 119.836C205.279 119.409 206.113 119.196 207.059 119.196C208.033 119.196 208.913 119.429 209.699 119.896C210.499 120.363 211.126 121.023 211.579 121.876C212.033 122.716 212.259 123.696 212.259 124.816C212.259 125.923 212.033 126.909 211.579 127.776C211.126 128.643 210.499 129.316 209.699 129.796C208.913 130.276 208.033 130.516 207.059 130.516C206.126 130.516 205.299 130.309 204.579 129.896C203.873 129.469 203.333 128.943 202.959 128.316V135.536H201.139V119.376H202.959V121.396ZM210.399 124.816C210.399 123.989 210.233 123.269 209.899 122.656C209.566 122.043 209.113 121.576 208.539 121.256C207.979 120.936 207.359 120.776 206.679 120.776C206.013 120.776 205.393 120.943 204.819 121.276C204.259 121.596 203.806 122.069 203.459 122.696C203.126 123.309 202.959 124.023 202.959 124.836C202.959 125.663 203.126 126.389 203.459 127.016C203.806 127.629 204.259 128.103 204.819 128.436C205.393 128.756 206.013 128.916 206.679 128.916C207.359 128.916 207.979 128.756 208.539 128.436C209.113 128.103 209.566 127.629 209.899 127.016C210.233 126.389 210.399 125.656 210.399 124.816ZM216.475 121.156C216.795 120.529 217.248 120.043 217.835 119.696C218.435 119.349 219.162 119.176 220.015 119.176V121.056H219.535C217.495 121.056 216.475 122.163 216.475 124.376V130.336H214.655V119.376H216.475V121.156ZM226.896 130.516C225.869 130.516 224.936 130.283 224.096 129.816C223.269 129.349 222.616 128.689 222.136 127.836C221.669 126.969 221.436 125.969 221.436 124.836C221.436 123.716 221.676 122.729 222.156 121.876C222.649 121.009 223.316 120.349 224.156 119.896C224.996 119.429 225.936 119.196 226.976 119.196C228.016 119.196 228.956 119.429 229.796 119.896C230.636 120.349 231.296 121.003 231.776 121.856C232.269 122.709 232.516 123.703 232.516 124.836C232.516 125.969 232.263 126.969 231.756 127.836C231.263 128.689 230.589 129.349 229.736 129.816C228.883 130.283 227.936 130.516 226.896 130.516ZM226.896 128.916C227.549 128.916 228.163 128.763 228.736 128.456C229.309 128.149 229.769 127.689 230.116 127.076C230.476 126.463 230.656 125.716 230.656 124.836C230.656 123.956 230.483 123.209 230.136 122.596C229.789 121.983 229.336 121.529 228.776 121.236C228.216 120.929 227.609 120.776 226.956 120.776C226.289 120.776 225.676 120.929 225.116 121.236C224.569 121.529 224.129 121.983 223.796 122.596C223.463 123.209 223.296 123.956 223.296 124.836C223.296 125.729 223.456 126.483 223.776 127.096C224.109 127.709 224.549 128.169 225.096 128.476C225.643 128.769 226.243 128.916 226.896 128.916ZM239.369 120.876H237.069V130.336H235.249V120.876H233.829V119.376H235.249V118.596C235.249 117.369 235.562 116.476 236.189 115.916C236.829 115.343 237.849 115.056 239.249 115.056V116.576C238.449 116.576 237.882 116.736 237.549 117.056C237.229 117.363 237.069 117.876 237.069 118.596V119.376H239.369V120.876ZM251.491 124.436C251.491 124.783 251.471 125.149 251.431 125.536H242.671C242.738 126.616 243.104 127.463 243.771 128.076C244.451 128.676 245.271 128.976 246.231 128.976C247.018 128.976 247.671 128.796 248.191 128.436C248.724 128.063 249.098 127.569 249.311 126.956H251.271C250.978 128.009 250.391 128.869 249.511 129.536C248.631 130.189 247.538 130.516 246.231 130.516C245.191 130.516 244.258 130.283 243.431 129.816C242.618 129.349 241.978 128.689 241.511 127.836C241.044 126.969 240.811 125.969 240.811 124.836C240.811 123.703 241.038 122.709 241.491 121.856C241.944 121.003 242.578 120.349 243.391 119.896C244.218 119.429 245.164 119.196 246.231 119.196C247.271 119.196 248.191 119.423 248.991 119.876C249.791 120.329 250.404 120.956 250.831 121.756C251.271 122.543 251.491 123.436 251.491 124.436ZM249.611 124.056C249.611 123.363 249.458 122.769 249.151 122.276C248.844 121.769 248.424 121.389 247.891 121.136C247.371 120.869 246.791 120.736 246.151 120.736C245.231 120.736 244.444 121.029 243.791 121.616C243.151 122.203 242.784 123.016 242.691 124.056H249.611ZM257.773 130.516C256.933 130.516 256.18 130.376 255.513 130.096C254.847 129.803 254.32 129.403 253.933 128.896C253.547 128.376 253.333 127.783 253.293 127.116H255.173C255.227 127.663 255.48 128.109 255.933 128.456C256.4 128.803 257.007 128.976 257.753 128.976C258.447 128.976 258.993 128.823 259.393 128.516C259.793 128.209 259.993 127.823 259.993 127.356C259.993 126.876 259.78 126.523 259.353 126.296C258.927 126.056 258.267 125.823 257.373 125.596C256.56 125.383 255.893 125.169 255.373 124.956C254.867 124.729 254.427 124.403 254.053 123.976C253.693 123.536 253.513 122.963 253.513 122.256C253.513 121.696 253.68 121.183 254.013 120.716C254.347 120.249 254.82 119.883 255.433 119.616C256.047 119.336 256.747 119.196 257.533 119.196C258.747 119.196 259.727 119.503 260.473 120.116C261.22 120.729 261.62 121.569 261.673 122.636H259.853C259.813 122.063 259.58 121.603 259.153 121.256C258.74 120.909 258.18 120.736 257.473 120.736C256.82 120.736 256.3 120.876 255.913 121.156C255.527 121.436 255.333 121.803 255.333 122.256C255.333 122.616 255.447 122.916 255.673 123.156C255.913 123.383 256.207 123.569 256.553 123.716C256.913 123.849 257.407 124.003 258.033 124.176C258.82 124.389 259.46 124.603 259.953 124.816C260.447 125.016 260.867 125.323 261.213 125.736C261.573 126.149 261.76 126.689 261.773 127.356C261.773 127.956 261.607 128.496 261.273 128.976C260.94 129.456 260.467 129.836 259.853 130.116C259.253 130.383 258.56 130.516 257.773 130.516ZM268.222 130.516C267.382 130.516 266.629 130.376 265.962 130.096C265.296 129.803 264.769 129.403 264.382 128.896C263.996 128.376 263.782 127.783 263.742 127.116H265.622C265.676 127.663 265.929 128.109 266.382 128.456C266.849 128.803 267.456 128.976 268.202 128.976C268.896 128.976 269.442 128.823 269.842 128.516C270.242 128.209 270.442 127.823 270.442 127.356C270.442 126.876 270.229 126.523 269.802 126.296C269.376 126.056 268.716 125.823 267.822 125.596C267.009 125.383 266.342 125.169 265.822 124.956C265.316 124.729 264.876 124.403 264.502 123.976C264.142 123.536 263.962 122.963 263.962 122.256C263.962 121.696 264.129 121.183 264.462 120.716C264.796 120.249 265.269 119.883 265.882 119.616C266.496 119.336 267.196 119.196 267.982 119.196C269.196 119.196 270.176 119.503 270.922 120.116C271.669 120.729 272.069 121.569 272.122 122.636H270.302C270.262 122.063 270.029 121.603 269.602 121.256C269.189 120.909 268.629 120.736 267.922 120.736C267.269 120.736 266.749 120.876 266.362 121.156C265.976 121.436 265.782 121.803 265.782 122.256C265.782 122.616 265.896 122.916 266.122 123.156C266.362 123.383 266.656 123.569 267.002 123.716C267.362 123.849 267.856 124.003 268.482 124.176C269.269 124.389 269.909 124.603 270.402 124.816C270.896 125.016 271.316 125.323 271.662 125.736C272.022 126.149 272.209 126.689 272.222 127.356C272.222 127.956 272.056 128.496 271.722 128.976C271.389 129.456 270.916 129.836 270.302 130.116C269.702 130.383 269.009 130.516 268.222 130.516ZM275.732 117.596C275.385 117.596 275.092 117.476 274.852 117.236C274.612 116.996 274.492 116.703 274.492 116.356C274.492 116.009 274.612 115.716 274.852 115.476C275.092 115.236 275.385 115.116 275.732 115.116C276.065 115.116 276.345 115.236 276.572 115.476C276.812 115.716 276.932 116.009 276.932 116.356C276.932 116.703 276.812 116.996 276.572 117.236C276.345 117.476 276.065 117.596 275.732 117.596ZM276.612 119.376V130.336H274.792V119.376H276.612ZM284.493 130.516C283.467 130.516 282.533 130.283 281.693 129.816C280.867 129.349 280.213 128.689 279.733 127.836C279.267 126.969 279.033 125.969 279.033 124.836C279.033 123.716 279.273 122.729 279.753 121.876C280.247 121.009 280.913 120.349 281.753 119.896C282.593 119.429 283.533 119.196 284.573 119.196C285.613 119.196 286.553 119.429 287.393 119.896C288.233 120.349 288.893 121.003 289.373 121.856C289.867 122.709 290.113 123.703 290.113 124.836C290.113 125.969 289.86 126.969 289.353 127.836C288.86 128.689 288.187 129.349 287.333 129.816C286.48 130.283 285.533 130.516 284.493 130.516ZM284.493 128.916C285.147 128.916 285.76 128.763 286.333 128.456C286.907 128.149 287.367 127.689 287.713 127.076C288.073 126.463 288.253 125.716 288.253 124.836C288.253 123.956 288.08 123.209 287.733 122.596C287.387 121.983 286.933 121.529 286.373 121.236C285.813 120.929 285.207 120.776 284.553 120.776C283.887 120.776 283.273 120.929 282.713 121.236C282.167 121.529 281.727 121.983 281.393 122.596C281.06 123.209 280.893 123.956 280.893 124.836C280.893 125.729 281.053 126.483 281.373 127.096C281.707 127.709 282.147 128.169 282.693 128.476C283.24 128.769 283.84 128.916 284.493 128.916ZM297.846 119.176C299.18 119.176 300.26 119.583 301.086 120.396C301.913 121.196 302.326 122.356 302.326 123.876V130.336H300.526V124.136C300.526 123.043 300.253 122.209 299.706 121.636C299.16 121.049 298.413 120.756 297.466 120.756C296.506 120.756 295.74 121.056 295.166 121.656C294.606 122.256 294.326 123.129 294.326 124.276V130.336H292.506V119.376H294.326V120.936C294.686 120.376 295.173 119.943 295.786 119.636C296.413 119.329 297.1 119.176 297.846 119.176ZM304.619 124.816C304.619 123.696 304.846 122.716 305.299 121.876C305.753 121.023 306.373 120.363 307.159 119.896C307.959 119.429 308.846 119.196 309.819 119.196C310.779 119.196 311.613 119.403 312.319 119.816C313.026 120.229 313.553 120.749 313.899 121.376V119.376H315.739V130.336H313.899V128.296C313.539 128.936 312.999 129.469 312.279 129.896C311.573 130.309 310.746 130.516 309.799 130.516C308.826 130.516 307.946 130.276 307.159 129.796C306.373 129.316 305.753 128.643 305.299 127.776C304.846 126.909 304.619 125.923 304.619 124.816ZM313.899 124.836C313.899 124.009 313.733 123.289 313.399 122.676C313.066 122.063 312.613 121.596 312.039 121.276C311.479 120.943 310.859 120.776 310.179 120.776C309.499 120.776 308.879 120.936 308.319 121.256C307.759 121.576 307.313 122.043 306.979 122.656C306.646 123.269 306.479 123.989 306.479 124.816C306.479 125.656 306.646 126.389 306.979 127.016C307.313 127.629 307.759 128.103 308.319 128.436C308.879 128.756 309.499 128.916 310.179 128.916C310.859 128.916 311.479 128.756 312.039 128.436C312.613 128.103 313.066 127.629 313.399 127.016C313.733 126.389 313.899 125.663 313.899 124.836ZM320.635 115.536V130.336H318.815V115.536H320.635ZM92.7737 154.816C92.7737 153.696 93.0004 152.716 93.4537 151.876C93.9071 151.023 94.5271 150.363 95.3137 149.896C96.1137 149.429 97.0004 149.196 97.9737 149.196C98.9337 149.196 99.7671 149.403 100.474 149.816C101.18 150.229 101.707 150.749 102.054 151.376V149.376H103.894V160.336H102.054V158.296C101.694 158.936 101.154 159.469 100.434 159.896C99.7271 160.309 98.9004 160.516 97.9537 160.516C96.9804 160.516 96.1004 160.276 95.3137 159.796C94.5271 159.316 93.9071 158.643 93.4537 157.776C93.0004 156.909 92.7737 155.923 92.7737 154.816ZM102.054 154.836C102.054 154.009 101.887 153.289 101.554 152.676C101.22 152.063 100.767 151.596 100.194 151.276C99.6337 150.943 99.0137 150.776 98.3337 150.776C97.6537 150.776 97.0337 150.936 96.4737 151.256C95.9137 151.576 95.4671 152.043 95.1337 152.656C94.8004 153.269 94.6337 153.989 94.6337 154.816C94.6337 155.656 94.8004 156.389 95.1337 157.016C95.4671 157.629 95.9137 158.103 96.4737 158.436C97.0337 158.756 97.6537 158.916 98.3337 158.916C99.0137 158.916 99.6337 158.756 100.194 158.436C100.767 158.103 101.22 157.629 101.554 157.016C101.887 156.389 102.054 155.663 102.054 154.836ZM109.189 150.876V157.336C109.189 157.869 109.303 158.249 109.529 158.476C109.756 158.689 110.149 158.796 110.709 158.796H112.049V160.336H110.409C109.396 160.336 108.636 160.103 108.129 159.636C107.623 159.169 107.369 158.403 107.369 157.336V150.876H105.949V149.376H107.369V146.616H109.189V149.376H112.049V150.876H109.189ZM116.475 150.876V157.336C116.475 157.869 116.588 158.249 116.815 158.476C117.041 158.689 117.435 158.796 117.995 158.796H119.335V160.336H117.695C116.681 160.336 115.921 160.103 115.415 159.636C114.908 159.169 114.655 158.403 114.655 157.336V150.876H113.235V149.376H114.655V146.616H116.475V149.376H119.335V150.876H116.475ZM122.48 147.596C122.133 147.596 121.84 147.476 121.6 147.236C121.36 146.996 121.24 146.703 121.24 146.356C121.24 146.009 121.36 145.716 121.6 145.476C121.84 145.236 122.133 145.116 122.48 145.116C122.813 145.116 123.093 145.236 123.32 145.476C123.56 145.716 123.68 146.009 123.68 146.356C123.68 146.703 123.56 146.996 123.32 147.236C123.093 147.476 122.813 147.596 122.48 147.596ZM123.36 149.376V160.336H121.54V149.376H123.36ZM128.682 150.876V157.336C128.682 157.869 128.795 158.249 129.022 158.476C129.248 158.689 129.642 158.796 130.202 158.796H131.542V160.336H129.902C128.888 160.336 128.128 160.103 127.622 159.636C127.115 159.169 126.862 158.403 126.862 157.336V150.876H125.442V149.376H126.862V146.616H128.682V149.376H131.542V150.876H128.682ZM143.467 149.376V160.336H141.647V158.716C141.3 159.276 140.813 159.716 140.187 160.036C139.573 160.343 138.893 160.496 138.147 160.496C137.293 160.496 136.527 160.323 135.847 159.976C135.167 159.616 134.627 159.083 134.227 158.376C133.84 157.669 133.647 156.809 133.647 155.796V149.376H135.447V155.556C135.447 156.636 135.72 157.469 136.267 158.056C136.813 158.629 137.56 158.916 138.507 158.916C139.48 158.916 140.247 158.616 140.807 158.016C141.367 157.416 141.647 156.543 141.647 155.396V149.376H143.467ZM145.86 154.816C145.86 153.696 146.086 152.716 146.54 151.876C146.993 151.023 147.613 150.363 148.4 149.896C149.2 149.429 150.093 149.196 151.08 149.196C151.933 149.196 152.726 149.396 153.46 149.796C154.193 150.183 154.753 150.696 155.14 151.336V145.536H156.98V160.336H155.14V158.276C154.78 158.929 154.246 159.469 153.54 159.896C152.833 160.309 152.006 160.516 151.06 160.516C150.086 160.516 149.2 160.276 148.4 159.796C147.613 159.316 146.993 158.643 146.54 157.776C146.086 156.909 145.86 155.923 145.86 154.816ZM155.14 154.836C155.14 154.009 154.973 153.289 154.64 152.676C154.306 152.063 153.853 151.596 153.28 151.276C152.72 150.943 152.1 150.776 151.42 150.776C150.74 150.776 150.12 150.936 149.56 151.256C149 151.576 148.553 152.043 148.22 152.656C147.886 153.269 147.72 153.989 147.72 154.816C147.72 155.656 147.886 156.389 148.22 157.016C148.553 157.629 149 158.103 149.56 158.436C150.12 158.756 150.74 158.916 151.42 158.916C152.1 158.916 152.72 158.756 153.28 158.436C153.853 158.103 154.306 157.629 154.64 157.016C154.973 156.389 155.14 155.663 155.14 154.836ZM170.055 154.436C170.055 154.783 170.035 155.149 169.995 155.536H161.235C161.302 156.616 161.669 157.463 162.335 158.076C163.015 158.676 163.835 158.976 164.795 158.976C165.582 158.976 166.235 158.796 166.755 158.436C167.289 158.063 167.662 157.569 167.875 156.956H169.835C169.542 158.009 168.955 158.869 168.075 159.536C167.195 160.189 166.102 160.516 164.795 160.516C163.755 160.516 162.822 160.283 161.995 159.816C161.182 159.349 160.542 158.689 160.075 157.836C159.609 156.969 159.375 155.969 159.375 154.836C159.375 153.703 159.602 152.709 160.055 151.856C160.509 151.003 161.142 150.349 161.955 149.896C162.782 149.429 163.729 149.196 164.795 149.196C165.835 149.196 166.755 149.423 167.555 149.876C168.355 150.329 168.969 150.956 169.395 151.756C169.835 152.543 170.055 153.436 170.055 154.436ZM168.175 154.056C168.175 153.363 168.022 152.769 167.715 152.276C167.409 151.769 166.989 151.389 166.455 151.136C165.935 150.869 165.355 150.736 164.715 150.736C163.795 150.736 163.009 151.029 162.355 151.616C161.715 152.203 161.349 153.016 161.255 154.056H168.175ZM180.01 150.876V157.336C180.01 157.869 180.123 158.249 180.35 158.476C180.576 158.689 180.97 158.796 181.53 158.796H182.87V160.336H181.23C180.216 160.336 179.456 160.103 178.95 159.636C178.443 159.169 178.19 158.403 178.19 157.336V150.876H176.77V149.376H178.19V146.616H180.01V149.376H182.87V150.876H180.01ZM190.515 149.176C191.341 149.176 192.088 149.356 192.755 149.716C193.421 150.063 193.941 150.589 194.315 151.296C194.701 152.003 194.895 152.863 194.895 153.876V160.336H193.095V154.136C193.095 153.043 192.821 152.209 192.275 151.636C191.728 151.049 190.981 150.756 190.035 150.756C189.075 150.756 188.308 151.056 187.735 151.656C187.175 152.256 186.895 153.129 186.895 154.276V160.336H185.075V145.536H186.895V150.936C187.255 150.376 187.748 149.943 188.375 149.636C189.015 149.329 189.728 149.176 190.515 149.176ZM197.188 154.816C197.188 153.696 197.414 152.716 197.868 151.876C198.321 151.023 198.941 150.363 199.728 149.896C200.528 149.429 201.414 149.196 202.388 149.196C203.348 149.196 204.181 149.403 204.888 149.816C205.594 150.229 206.121 150.749 206.468 151.376V149.376H208.308V160.336H206.468V158.296C206.108 158.936 205.568 159.469 204.848 159.896C204.141 160.309 203.314 160.516 202.368 160.516C201.394 160.516 200.514 160.276 199.728 159.796C198.941 159.316 198.321 158.643 197.868 157.776C197.414 156.909 197.188 155.923 197.188 154.816ZM206.468 154.836C206.468 154.009 206.301 153.289 205.968 152.676C205.634 152.063 205.181 151.596 204.608 151.276C204.048 150.943 203.428 150.776 202.748 150.776C202.068 150.776 201.448 150.936 200.888 151.256C200.328 151.576 199.881 152.043 199.548 152.656C199.214 153.269 199.048 153.989 199.048 154.816C199.048 155.656 199.214 156.389 199.548 157.016C199.881 157.629 200.328 158.103 200.888 158.436C201.448 158.756 202.068 158.916 202.748 158.916C203.428 158.916 204.048 158.756 204.608 158.436C205.181 158.103 205.634 157.629 205.968 157.016C206.301 156.389 206.468 155.663 206.468 154.836ZM213.603 150.876V157.336C213.603 157.869 213.717 158.249 213.943 158.476C214.17 158.689 214.563 158.796 215.123 158.796H216.463V160.336H214.823C213.81 160.336 213.05 160.103 212.543 159.636C212.037 159.169 211.783 158.403 211.783 157.336V150.876H210.363V149.376H211.783V146.616H213.603V149.376H216.463V150.876H213.603ZM228.081 158.656L231.481 149.376H233.421L229.121 160.336H227.001L222.701 149.376H224.661L228.081 158.656ZM234.532 154.816C234.532 153.696 234.758 152.716 235.212 151.876C235.665 151.023 236.285 150.363 237.072 149.896C237.872 149.429 238.758 149.196 239.732 149.196C240.692 149.196 241.525 149.403 242.232 149.816C242.938 150.229 243.465 150.749 243.812 151.376V149.376H245.652V160.336H243.812V158.296C243.452 158.936 242.912 159.469 242.192 159.896C241.485 160.309 240.658 160.516 239.712 160.516C238.738 160.516 237.858 160.276 237.072 159.796C236.285 159.316 235.665 158.643 235.212 157.776C234.758 156.909 234.532 155.923 234.532 154.816ZM243.812 154.836C243.812 154.009 243.645 153.289 243.312 152.676C242.978 152.063 242.525 151.596 241.952 151.276C241.392 150.943 240.772 150.776 240.092 150.776C239.412 150.776 238.792 150.936 238.232 151.256C237.672 151.576 237.225 152.043 236.892 152.656C236.558 153.269 236.392 153.989 236.392 154.816C236.392 155.656 236.558 156.389 236.892 157.016C237.225 157.629 237.672 158.103 238.232 158.436C238.792 158.756 239.412 158.916 240.092 158.916C240.772 158.916 241.392 158.756 241.952 158.436C242.525 158.103 242.978 157.629 243.312 157.016C243.645 156.389 243.812 155.663 243.812 154.836ZM250.547 145.536V160.336H248.727V145.536H250.547ZM263.369 149.376V160.336H261.549V158.716C261.202 159.276 260.716 159.716 260.089 160.036C259.476 160.343 258.796 160.496 258.049 160.496C257.196 160.496 256.429 160.323 255.749 159.976C255.069 159.616 254.529 159.083 254.129 158.376C253.742 157.669 253.549 156.809 253.549 155.796V149.376H255.349V155.556C255.349 156.636 255.622 157.469 256.169 158.056C256.716 158.629 257.462 158.916 258.409 158.916C259.382 158.916 260.149 158.616 260.709 158.016C261.269 157.416 261.549 156.543 261.549 155.396V149.376H263.369ZM276.442 154.436C276.442 154.783 276.422 155.149 276.382 155.536H267.622C267.689 156.616 268.055 157.463 268.722 158.076C269.402 158.676 270.222 158.976 271.182 158.976C271.969 158.976 272.622 158.796 273.142 158.436C273.675 158.063 274.049 157.569 274.262 156.956H276.222C275.929 158.009 275.342 158.869 274.462 159.536C273.582 160.189 272.489 160.516 271.182 160.516C270.142 160.516 269.209 160.283 268.382 159.816C267.569 159.349 266.929 158.689 266.462 157.836C265.995 156.969 265.762 155.969 265.762 154.836C265.762 153.703 265.989 152.709 266.442 151.856C266.895 151.003 267.529 150.349 268.342 149.896C269.169 149.429 270.115 149.196 271.182 149.196C272.222 149.196 273.142 149.423 273.942 149.876C274.742 150.329 275.355 150.956 275.782 151.756C276.222 152.543 276.442 153.436 276.442 154.436ZM274.562 154.056C274.562 153.363 274.409 152.769 274.102 152.276C273.795 151.769 273.375 151.389 272.842 151.136C272.322 150.869 271.742 150.736 271.102 150.736C270.182 150.736 269.395 151.029 268.742 151.616C268.102 152.203 267.735 153.016 267.642 154.056H274.562ZM282.724 160.516C281.884 160.516 281.131 160.376 280.464 160.096C279.798 159.803 279.271 159.403 278.884 158.896C278.498 158.376 278.284 157.783 278.244 157.116H280.124C280.178 157.663 280.431 158.109 280.884 158.456C281.351 158.803 281.958 158.976 282.704 158.976C283.398 158.976 283.944 158.823 284.344 158.516C284.744 158.209 284.944 157.823 284.944 157.356C284.944 156.876 284.731 156.523 284.304 156.296C283.878 156.056 283.218 155.823 282.324 155.596C281.511 155.383 280.844 155.169 280.324 154.956C279.818 154.729 279.378 154.403 279.004 153.976C278.644 153.536 278.464 152.963 278.464 152.256C278.464 151.696 278.631 151.183 278.964 150.716C279.298 150.249 279.771 149.883 280.384 149.616C280.998 149.336 281.698 149.196 282.484 149.196C283.698 149.196 284.678 149.503 285.424 150.116C286.171 150.729 286.571 151.569 286.624 152.636H284.804C284.764 152.063 284.531 151.603 284.104 151.256C283.691 150.909 283.131 150.736 282.424 150.736C281.771 150.736 281.251 150.876 280.864 151.156C280.478 151.436 280.284 151.803 280.284 152.256C280.284 152.616 280.398 152.916 280.624 153.156C280.864 153.383 281.158 153.569 281.504 153.716C281.864 153.849 282.358 154.003 282.984 154.176C283.771 154.389 284.411 154.603 284.904 154.816C285.398 155.016 285.818 155.323 286.164 155.736C286.524 156.149 286.711 156.689 286.724 157.356C286.724 157.956 286.558 158.496 286.224 158.976C285.891 159.456 285.418 159.836 284.804 160.116C284.204 160.383 283.511 160.516 282.724 160.516ZM103.112 184.436C103.112 184.783 103.092 185.149 103.052 185.536H94.2919C94.3586 186.616 94.7253 187.463 95.3919 188.076C96.0719 188.676 96.8919 188.976 97.8519 188.976C98.6386 188.976 99.2919 188.796 99.8119 188.436C100.345 188.063 100.719 187.569 100.932 186.956H102.892C102.599 188.009 102.012 188.869 101.132 189.536C100.252 190.189 99.1586 190.516 97.8519 190.516C96.8119 190.516 95.8786 190.283 95.0519 189.816C94.2386 189.349 93.5986 188.689 93.1319 187.836C92.6653 186.969 92.4319 185.969 92.4319 184.836C92.4319 183.703 92.6586 182.709 93.1119 181.856C93.5653 181.003 94.1986 180.349 95.0119 179.896C95.8386 179.429 96.7853 179.196 97.8519 179.196C98.8919 179.196 99.8119 179.423 100.612 179.876C101.412 180.329 102.025 180.956 102.452 181.756C102.892 182.543 103.112 183.436 103.112 184.436ZM101.232 184.056C101.232 183.363 101.079 182.769 100.772 182.276C100.465 181.769 100.045 181.389 99.5119 181.136C98.9919 180.869 98.4119 180.736 97.7719 180.736C96.8519 180.736 96.0653 181.029 95.4119 181.616C94.7719 182.203 94.4053 183.016 94.3119 184.056H101.232ZM107.734 180.876V187.336C107.734 187.869 107.848 188.249 108.074 188.476C108.301 188.689 108.694 188.796 109.254 188.796H110.594V190.336H108.954C107.941 190.336 107.181 190.103 106.674 189.636C106.168 189.169 105.914 188.403 105.914 187.336V180.876H104.494V179.376H105.914V176.616H107.734V179.376H110.594V180.876H107.734ZM118.239 179.176C119.066 179.176 119.813 179.356 120.479 179.716C121.146 180.063 121.666 180.589 122.039 181.296C122.426 182.003 122.619 182.863 122.619 183.876V190.336H120.819V184.136C120.819 183.043 120.546 182.209 119.999 181.636C119.453 181.049 118.706 180.756 117.759 180.756C116.799 180.756 116.033 181.056 115.459 181.656C114.899 182.256 114.619 183.129 114.619 184.276V190.336H112.799V175.536H114.619V180.936C114.979 180.376 115.473 179.943 116.099 179.636C116.739 179.329 117.453 179.176 118.239 179.176ZM126.532 177.596C126.186 177.596 125.892 177.476 125.652 177.236C125.412 176.996 125.292 176.703 125.292 176.356C125.292 176.009 125.412 175.716 125.652 175.476C125.892 175.236 126.186 175.116 126.532 175.116C126.866 175.116 127.146 175.236 127.372 175.476C127.612 175.716 127.732 176.009 127.732 176.356C127.732 176.703 127.612 176.996 127.372 177.236C127.146 177.476 126.866 177.596 126.532 177.596ZM127.412 179.376V190.336H125.592V179.376H127.412ZM129.834 184.836C129.834 183.703 130.061 182.716 130.514 181.876C130.968 181.023 131.594 180.363 132.394 179.896C133.208 179.429 134.134 179.196 135.174 179.196C136.521 179.196 137.628 179.523 138.494 180.176C139.374 180.829 139.954 181.736 140.234 182.896H138.274C138.088 182.229 137.721 181.703 137.174 181.316C136.641 180.929 135.974 180.736 135.174 180.736C134.134 180.736 133.294 181.096 132.654 181.816C132.014 182.523 131.694 183.529 131.694 184.836C131.694 186.156 132.014 187.176 132.654 187.896C133.294 188.616 134.134 188.976 135.174 188.976C135.974 188.976 136.641 188.789 137.174 188.416C137.708 188.043 138.074 187.509 138.274 186.816H140.234C139.941 187.936 139.354 188.836 138.474 189.516C137.594 190.183 136.494 190.516 135.174 190.516C134.134 190.516 133.208 190.283 132.394 189.816C131.594 189.349 130.968 188.689 130.514 187.836C130.061 186.983 129.834 185.983 129.834 184.836ZM146.543 190.516C145.703 190.516 144.949 190.376 144.283 190.096C143.616 189.803 143.089 189.403 142.703 188.896C142.316 188.376 142.103 187.783 142.063 187.116H143.943C143.996 187.663 144.249 188.109 144.703 188.456C145.169 188.803 145.776 188.976 146.523 188.976C147.216 188.976 147.763 188.823 148.163 188.516C148.563 188.209 148.763 187.823 148.763 187.356C148.763 186.876 148.549 186.523 148.123 186.296C147.696 186.056 147.036 185.823 146.143 185.596C145.329 185.383 144.663 185.169 144.143 184.956C143.636 184.729 143.196 184.403 142.823 183.976C142.463 183.536 142.283 182.963 142.283 182.256C142.283 181.696 142.449 181.183 142.783 180.716C143.116 180.249 143.589 179.883 144.203 179.616C144.816 179.336 145.516 179.196 146.303 179.196C147.516 179.196 148.496 179.503 149.243 180.116C149.989 180.729 150.389 181.569 150.443 182.636H148.623C148.583 182.063 148.349 181.603 147.923 181.256C147.509 180.909 146.949 180.736 146.243 180.736C145.589 180.736 145.069 180.876 144.683 181.156C144.296 181.436 144.103 181.803 144.103 182.256C144.103 182.616 144.216 182.916 144.443 183.156C144.683 183.383 144.976 183.569 145.323 183.716C145.683 183.849 146.176 184.003 146.803 184.176C147.589 184.389 148.229 184.603 148.723 184.816C149.216 185.016 149.636 185.323 149.983 185.736C150.343 186.149 150.529 186.689 150.543 187.356C150.543 187.956 150.376 188.496 150.043 188.976C149.709 189.456 149.236 189.836 148.623 190.116C148.023 190.383 147.329 190.516 146.543 190.516ZM154.992 187.816L152.752 193.196H151.532L152.992 187.816H154.992ZM161.729 184.816C161.729 183.696 161.955 182.716 162.409 181.876C162.862 181.023 163.482 180.363 164.269 179.896C165.069 179.429 165.962 179.196 166.949 179.196C167.802 179.196 168.595 179.396 169.329 179.796C170.062 180.183 170.622 180.696 171.009 181.336V175.536H172.849V190.336H171.009V188.276C170.649 188.929 170.115 189.469 169.409 189.896C168.702 190.309 167.875 190.516 166.929 190.516C165.955 190.516 165.069 190.276 164.269 189.796C163.482 189.316 162.862 188.643 162.409 187.776C161.955 186.909 161.729 185.923 161.729 184.816ZM171.009 184.836C171.009 184.009 170.842 183.289 170.509 182.676C170.175 182.063 169.722 181.596 169.149 181.276C168.589 180.943 167.969 180.776 167.289 180.776C166.609 180.776 165.989 180.936 165.429 181.256C164.869 181.576 164.422 182.043 164.089 182.656C163.755 183.269 163.589 183.989 163.589 184.816C163.589 185.656 163.755 186.389 164.089 187.016C164.422 187.629 164.869 188.103 165.429 188.436C165.989 188.756 166.609 188.916 167.289 188.916C167.969 188.916 168.589 188.756 169.149 188.436C169.722 188.103 170.175 187.629 170.509 187.016C170.842 186.389 171.009 185.663 171.009 184.836ZM176.864 177.596C176.518 177.596 176.224 177.476 175.984 177.236C175.744 176.996 175.624 176.703 175.624 176.356C175.624 176.009 175.744 175.716 175.984 175.476C176.224 175.236 176.518 175.116 176.864 175.116C177.198 175.116 177.478 175.236 177.704 175.476C177.944 175.716 178.064 176.009 178.064 176.356C178.064 176.703 177.944 176.996 177.704 177.236C177.478 177.476 177.198 177.596 176.864 177.596ZM177.744 179.376V190.336H175.924V179.376H177.744ZM184.926 188.656L188.326 179.376H190.266L185.966 190.336H183.846L179.546 179.376H181.506L184.926 188.656ZM202.057 184.436C202.057 184.783 202.037 185.149 201.997 185.536H193.237C193.304 186.616 193.671 187.463 194.337 188.076C195.017 188.676 195.837 188.976 196.797 188.976C197.584 188.976 198.237 188.796 198.757 188.436C199.291 188.063 199.664 187.569 199.877 186.956H201.837C201.544 188.009 200.957 188.869 200.077 189.536C199.197 190.189 198.104 190.516 196.797 190.516C195.757 190.516 194.824 190.283 193.997 189.816C193.184 189.349 192.544 188.689 192.077 187.836C191.611 186.969 191.377 185.969 191.377 184.836C191.377 183.703 191.604 182.709 192.057 181.856C192.511 181.003 193.144 180.349 193.957 179.896C194.784 179.429 195.731 179.196 196.797 179.196C197.837 179.196 198.757 179.423 199.557 179.876C200.357 180.329 200.971 180.956 201.397 181.756C201.837 182.543 202.057 183.436 202.057 184.436ZM200.177 184.056C200.177 183.363 200.024 182.769 199.717 182.276C199.411 181.769 198.991 181.389 198.457 181.136C197.937 180.869 197.357 180.736 196.717 180.736C195.797 180.736 195.011 181.029 194.357 181.616C193.717 182.203 193.351 183.016 193.257 184.056H200.177ZM206.28 181.156C206.6 180.529 207.053 180.043 207.64 179.696C208.24 179.349 208.966 179.176 209.82 179.176V181.056H209.34C207.3 181.056 206.28 182.163 206.28 184.376V190.336H204.46V179.376H206.28V181.156ZM215.801 190.516C214.961 190.516 214.207 190.376 213.541 190.096C212.874 189.803 212.347 189.403 211.961 188.896C211.574 188.376 211.361 187.783 211.321 187.116H213.201C213.254 187.663 213.507 188.109 213.961 188.456C214.427 188.803 215.034 188.976 215.781 188.976C216.474 188.976 217.021 188.823 217.421 188.516C217.821 188.209 218.021 187.823 218.021 187.356C218.021 186.876 217.807 186.523 217.381 186.296C216.954 186.056 216.294 185.823 215.401 185.596C214.587 185.383 213.921 185.169 213.401 184.956C212.894 184.729 212.454 184.403 212.081 183.976C211.721 183.536 211.541 182.963 211.541 182.256C211.541 181.696 211.707 181.183 212.041 180.716C212.374 180.249 212.847 179.883 213.461 179.616C214.074 179.336 214.774 179.196 215.561 179.196C216.774 179.196 217.754 179.503 218.501 180.116C219.247 180.729 219.647 181.569 219.701 182.636H217.881C217.841 182.063 217.607 181.603 217.181 181.256C216.767 180.909 216.207 180.736 215.501 180.736C214.847 180.736 214.327 180.876 213.941 181.156C213.554 181.436 213.361 181.803 213.361 182.256C213.361 182.616 213.474 182.916 213.701 183.156C213.941 183.383 214.234 183.569 214.581 183.716C214.941 183.849 215.434 184.003 216.061 184.176C216.847 184.389 217.487 184.603 217.981 184.816C218.474 185.016 218.894 185.323 219.241 185.736C219.601 186.149 219.787 186.689 219.801 187.356C219.801 187.956 219.634 188.496 219.301 188.976C218.967 189.456 218.494 189.836 217.881 190.116C217.281 190.383 216.587 190.516 215.801 190.516ZM223.31 177.596C222.963 177.596 222.67 177.476 222.43 177.236C222.19 176.996 222.07 176.703 222.07 176.356C222.07 176.009 222.19 175.716 222.43 175.476C222.67 175.236 222.963 175.116 223.31 175.116C223.643 175.116 223.923 175.236 224.15 175.476C224.39 175.716 224.51 176.009 224.51 176.356C224.51 176.703 224.39 176.996 224.15 177.236C223.923 177.476 223.643 177.596 223.31 177.596ZM224.19 179.376V190.336H222.37V179.376H224.19ZM229.512 180.876V187.336C229.512 187.869 229.625 188.249 229.852 188.476C230.078 188.689 230.472 188.796 231.032 188.796H232.372V190.336H230.732C229.718 190.336 228.958 190.103 228.452 189.636C227.945 189.169 227.692 188.403 227.692 187.336V180.876H226.272V179.376H227.692V176.616H229.512V179.376H232.372V180.876H229.512ZM244.017 179.376L237.417 195.496H235.537L237.697 190.216L233.277 179.376H235.297L238.737 188.256L242.137 179.376H244.017ZM247.726 187.816L245.486 193.196H244.266L245.726 187.816H247.726ZM254.463 184.816C254.463 183.696 254.69 182.716 255.143 181.876C255.597 181.023 256.217 180.363 257.003 179.896C257.803 179.429 258.69 179.196 259.663 179.196C260.623 179.196 261.457 179.403 262.163 179.816C262.87 180.229 263.397 180.749 263.743 181.376V179.376H265.583V190.336H263.743V188.296C263.383 188.936 262.843 189.469 262.123 189.896C261.417 190.309 260.59 190.516 259.643 190.516C258.67 190.516 257.79 190.276 257.003 189.796C256.217 189.316 255.597 188.643 255.143 187.776C254.69 186.909 254.463 185.923 254.463 184.816ZM263.743 184.836C263.743 184.009 263.577 183.289 263.243 182.676C262.91 182.063 262.457 181.596 261.883 181.276C261.323 180.943 260.703 180.776 260.023 180.776C259.343 180.776 258.723 180.936 258.163 181.256C257.603 181.576 257.157 182.043 256.823 182.656C256.49 183.269 256.323 183.989 256.323 184.816C256.323 185.656 256.49 186.389 256.823 187.016C257.157 187.629 257.603 188.103 258.163 188.436C258.723 188.756 259.343 188.916 260.023 188.916C260.703 188.916 261.323 188.756 261.883 188.436C262.457 188.103 262.91 187.629 263.243 187.016C263.577 186.389 263.743 185.663 263.743 184.836ZM273.999 179.176C275.332 179.176 276.412 179.583 277.239 180.396C278.065 181.196 278.479 182.356 278.479 183.876V190.336H276.679V184.136C276.679 183.043 276.405 182.209 275.859 181.636C275.312 181.049 274.565 180.756 273.619 180.756C272.659 180.756 271.892 181.056 271.319 181.656C270.759 182.256 270.479 183.129 270.479 184.276V190.336H268.659V179.376H270.479V180.936C270.839 180.376 271.325 179.943 271.939 179.636C272.565 179.329 273.252 179.176 273.999 179.176ZM280.772 184.816C280.772 183.696 280.998 182.716 281.452 181.876C281.905 181.023 282.525 180.363 283.312 179.896C284.112 179.429 285.005 179.196 285.992 179.196C286.845 179.196 287.638 179.396 288.372 179.796C289.105 180.183 289.665 180.696 290.052 181.336V175.536H291.892V190.336H290.052V188.276C289.692 188.929 289.158 189.469 288.452 189.896C287.745 190.309 286.918 190.516 285.972 190.516C284.998 190.516 284.112 190.276 283.312 189.796C282.525 189.316 281.905 188.643 281.452 187.776C280.998 186.909 280.772 185.923 280.772 184.816ZM290.052 184.836C290.052 184.009 289.885 183.289 289.552 182.676C289.218 182.063 288.765 181.596 288.192 181.276C287.632 180.943 287.012 180.776 286.332 180.776C285.652 180.776 285.032 180.936 284.472 181.256C283.912 181.576 283.465 182.043 283.132 182.656C282.798 183.269 282.632 183.989 282.632 184.816C282.632 185.656 282.798 186.389 283.132 187.016C283.465 187.629 283.912 188.103 284.472 188.436C285.032 188.756 285.652 188.916 286.332 188.916C287.012 188.916 287.632 188.756 288.192 188.436C288.765 188.103 289.218 187.629 289.552 187.016C289.885 186.389 290.052 185.663 290.052 184.836ZM72.4612 214.816C72.4612 213.696 72.6879 212.716 73.1412 211.876C73.5946 211.023 74.2146 210.363 75.0012 209.896C75.8012 209.429 76.6879 209.196 77.6612 209.196C78.6212 209.196 79.4546 209.403 80.1612 209.816C80.8679 210.229 81.3946 210.749 81.7412 211.376V209.376H83.5812V220.336H81.7412V218.296C81.3812 218.936 80.8412 219.469 80.1212 219.896C79.4146 220.309 78.5879 220.516 77.6412 220.516C76.6679 220.516 75.7879 220.276 75.0012 219.796C74.2146 219.316 73.5946 218.643 73.1412 217.776C72.6879 216.909 72.4612 215.923 72.4612 214.816ZM81.7412 214.836C81.7412 214.009 81.5746 213.289 81.2412 212.676C80.9079 212.063 80.4546 211.596 79.8812 211.276C79.3212 210.943 78.7012 210.776 78.0212 210.776C77.3412 210.776 76.7212 210.936 76.1612 211.256C75.6012 211.576 75.1546 212.043 74.8212 212.656C74.4879 213.269 74.3212 213.989 74.3212 214.816C74.3212 215.656 74.4879 216.389 74.8212 217.016C75.1546 217.629 75.6012 218.103 76.1612 218.436C76.7212 218.756 77.3412 218.916 78.0212 218.916C78.7012 218.916 79.3212 218.756 79.8812 218.436C80.4546 218.103 80.9079 217.629 81.2412 217.016C81.5746 216.389 81.7412 215.663 81.7412 214.836ZM88.4769 211.396C88.8369 210.769 89.3702 210.249 90.0769 209.836C90.7969 209.409 91.6302 209.196 92.5769 209.196C93.5502 209.196 94.4302 209.429 95.2169 209.896C96.0169 210.363 96.6435 211.023 97.0969 211.876C97.5502 212.716 97.7769 213.696 97.7769 214.816C97.7769 215.923 97.5502 216.909 97.0969 217.776C96.6435 218.643 96.0169 219.316 95.2169 219.796C94.4302 220.276 93.5502 220.516 92.5769 220.516C91.6435 220.516 90.8169 220.309 90.0969 219.896C89.3902 219.469 88.8502 218.943 88.4769 218.316V225.536H86.6569V209.376H88.4769V211.396ZM95.9169 214.816C95.9169 213.989 95.7502 213.269 95.4169 212.656C95.0835 212.043 94.6302 211.576 94.0569 211.256C93.4969 210.936 92.8769 210.776 92.1969 210.776C91.5302 210.776 90.9102 210.943 90.3369 211.276C89.7769 211.596 89.3235 212.069 88.9769 212.696C88.6435 213.309 88.4769 214.023 88.4769 214.836C88.4769 215.663 88.6435 216.389 88.9769 217.016C89.3235 217.629 89.7769 218.103 90.3369 218.436C90.9102 218.756 91.5302 218.916 92.1969 218.916C92.8769 218.916 93.4969 218.756 94.0569 218.436C94.6302 218.103 95.0835 217.629 95.4169 217.016C95.7502 216.389 95.9169 215.656 95.9169 214.816ZM101.992 211.396C102.352 210.769 102.886 210.249 103.592 209.836C104.312 209.409 105.146 209.196 106.092 209.196C107.066 209.196 107.946 209.429 108.732 209.896C109.532 210.363 110.159 211.023 110.612 211.876C111.066 212.716 111.292 213.696 111.292 214.816C111.292 215.923 111.066 216.909 110.612 217.776C110.159 218.643 109.532 219.316 108.732 219.796C107.946 220.276 107.066 220.516 106.092 220.516C105.159 220.516 104.332 220.309 103.612 219.896C102.906 219.469 102.366 218.943 101.992 218.316V225.536H100.172V209.376H101.992V211.396ZM109.432 214.816C109.432 213.989 109.266 213.269 108.932 212.656C108.599 212.043 108.146 211.576 107.572 211.256C107.012 210.936 106.392 210.776 105.712 210.776C105.046 210.776 104.426 210.943 103.852 211.276C103.292 211.596 102.839 212.069 102.492 212.696C102.159 213.309 101.992 214.023 101.992 214.836C101.992 215.663 102.159 216.389 102.492 217.016C102.839 217.629 103.292 218.103 103.852 218.436C104.426 218.756 105.046 218.916 105.712 218.916C106.392 218.916 107.012 218.756 107.572 218.436C108.146 218.103 108.599 217.629 108.932 217.016C109.266 216.389 109.432 215.656 109.432 214.816ZM115.508 205.536V220.336H113.688V205.536H115.508ZM119.55 207.596C119.203 207.596 118.91 207.476 118.67 207.236C118.43 206.996 118.31 206.703 118.31 206.356C118.31 206.009 118.43 205.716 118.67 205.476C118.91 205.236 119.203 205.116 119.55 205.116C119.883 205.116 120.163 205.236 120.39 205.476C120.63 205.716 120.75 206.009 120.75 206.356C120.75 206.703 120.63 206.996 120.39 207.236C120.163 207.476 119.883 207.596 119.55 207.596ZM120.43 209.376V220.336H118.61V209.376H120.43ZM133.532 214.436C133.532 214.783 133.512 215.149 133.472 215.536H124.712C124.779 216.616 125.145 217.463 125.812 218.076C126.492 218.676 127.312 218.976 128.272 218.976C129.059 218.976 129.712 218.796 130.232 218.436C130.765 218.063 131.139 217.569 131.352 216.956H133.312C133.019 218.009 132.432 218.869 131.552 219.536C130.672 220.189 129.579 220.516 128.272 220.516C127.232 220.516 126.299 220.283 125.472 219.816C124.659 219.349 124.019 218.689 123.552 217.836C123.085 216.969 122.852 215.969 122.852 214.836C122.852 213.703 123.079 212.709 123.532 211.856C123.985 211.003 124.619 210.349 125.432 209.896C126.259 209.429 127.205 209.196 128.272 209.196C129.312 209.196 130.232 209.423 131.032 209.876C131.832 210.329 132.445 210.956 132.872 211.756C133.312 212.543 133.532 213.436 133.532 214.436ZM131.652 214.056C131.652 213.363 131.499 212.769 131.192 212.276C130.885 211.769 130.465 211.389 129.932 211.136C129.412 210.869 128.832 210.736 128.192 210.736C127.272 210.736 126.485 211.029 125.832 211.616C125.192 212.203 124.825 213.016 124.732 214.056H131.652ZM139.814 220.516C138.974 220.516 138.221 220.376 137.554 220.096C136.888 219.803 136.361 219.403 135.974 218.896C135.588 218.376 135.374 217.783 135.334 217.116H137.214C137.268 217.663 137.521 218.109 137.974 218.456C138.441 218.803 139.048 218.976 139.794 218.976C140.488 218.976 141.034 218.823 141.434 218.516C141.834 218.209 142.034 217.823 142.034 217.356C142.034 216.876 141.821 216.523 141.394 216.296C140.968 216.056 140.308 215.823 139.414 215.596C138.601 215.383 137.934 215.169 137.414 214.956C136.908 214.729 136.468 214.403 136.094 213.976C135.734 213.536 135.554 212.963 135.554 212.256C135.554 211.696 135.721 211.183 136.054 210.716C136.388 210.249 136.861 209.883 137.474 209.616C138.088 209.336 138.788 209.196 139.574 209.196C140.788 209.196 141.768 209.503 142.514 210.116C143.261 210.729 143.661 211.569 143.714 212.636H141.894C141.854 212.063 141.621 211.603 141.194 211.256C140.781 210.909 140.221 210.736 139.514 210.736C138.861 210.736 138.341 210.876 137.954 211.156C137.568 211.436 137.374 211.803 137.374 212.256C137.374 212.616 137.488 212.916 137.714 213.156C137.954 213.383 138.248 213.569 138.594 213.716C138.954 213.849 139.448 214.003 140.074 214.176C140.861 214.389 141.501 214.603 141.994 214.816C142.488 215.016 142.908 215.323 143.254 215.736C143.614 216.149 143.801 216.689 143.814 217.356C143.814 217.956 143.648 218.496 143.314 218.976C142.981 219.456 142.508 219.836 141.894 220.116C141.294 220.383 140.601 220.516 139.814 220.516ZM151.035 214.836C151.035 213.703 151.262 212.716 151.715 211.876C152.169 211.023 152.795 210.363 153.595 209.896C154.409 209.429 155.335 209.196 156.375 209.196C157.722 209.196 158.829 209.523 159.695 210.176C160.575 210.829 161.155 211.736 161.435 212.896H159.475C159.289 212.229 158.922 211.703 158.375 211.316C157.842 210.929 157.175 210.736 156.375 210.736C155.335 210.736 154.495 211.096 153.855 211.816C153.215 212.523 152.895 213.529 152.895 214.836C152.895 216.156 153.215 217.176 153.855 217.896C154.495 218.616 155.335 218.976 156.375 218.976C157.175 218.976 157.842 218.789 158.375 218.416C158.909 218.043 159.275 217.509 159.475 216.816H161.435C161.142 217.936 160.555 218.836 159.675 219.516C158.795 220.183 157.695 220.516 156.375 220.516C155.335 220.516 154.409 220.283 153.595 219.816C152.795 219.349 152.169 218.689 151.715 217.836C151.262 216.983 151.035 215.983 151.035 214.836ZM173.584 209.376V220.336H171.764V218.716C171.417 219.276 170.931 219.716 170.304 220.036C169.691 220.343 169.011 220.496 168.264 220.496C167.411 220.496 166.644 220.323 165.964 219.976C165.284 219.616 164.744 219.083 164.344 218.376C163.957 217.669 163.764 216.809 163.764 215.796V209.376H165.564V215.556C165.564 216.636 165.837 217.469 166.384 218.056C166.931 218.629 167.677 218.916 168.624 218.916C169.597 218.916 170.364 218.616 170.924 218.016C171.484 217.416 171.764 216.543 171.764 215.396V209.376H173.584ZM178.477 205.536V220.336H176.657V205.536H178.477ZM183.799 210.876V217.336C183.799 217.869 183.912 218.249 184.139 218.476C184.365 218.689 184.759 218.796 185.319 218.796H186.659V220.336H185.019C184.005 220.336 183.245 220.103 182.739 219.636C182.232 219.169 181.979 218.403 181.979 217.336V210.876H180.559V209.376H181.979V206.616H183.799V209.376H186.659V210.876H183.799ZM198.584 209.376V220.336H196.764V218.716C196.417 219.276 195.931 219.716 195.304 220.036C194.691 220.343 194.011 220.496 193.264 220.496C192.411 220.496 191.644 220.323 190.964 219.976C190.284 219.616 189.744 219.083 189.344 218.376C188.957 217.669 188.764 216.809 188.764 215.796V209.376H190.564V215.556C190.564 216.636 190.837 217.469 191.384 218.056C191.931 218.629 192.677 218.916 193.624 218.916C194.597 218.916 195.364 218.616 195.924 218.016C196.484 217.416 196.764 216.543 196.764 215.396V209.376H198.584ZM203.477 211.156C203.797 210.529 204.25 210.043 204.837 209.696C205.437 209.349 206.164 209.176 207.017 209.176V211.056H206.537C204.497 211.056 203.477 212.163 203.477 214.376V220.336H201.657V209.376H203.477V211.156ZM219.118 214.436C219.118 214.783 219.098 215.149 219.058 215.536H210.298C210.364 216.616 210.731 217.463 211.398 218.076C212.078 218.676 212.898 218.976 213.858 218.976C214.644 218.976 215.298 218.796 215.818 218.436C216.351 218.063 216.724 217.569 216.938 216.956H218.898C218.604 218.009 218.018 218.869 217.138 219.536C216.258 220.189 215.164 220.516 213.858 220.516C212.818 220.516 211.884 220.283 211.058 219.816C210.244 219.349 209.604 218.689 209.138 217.836C208.671 216.969 208.438 215.969 208.438 214.836C208.438 213.703 208.664 212.709 209.118 211.856C209.571 211.003 210.204 210.349 211.018 209.896C211.844 209.429 212.791 209.196 213.858 209.196C214.898 209.196 215.818 209.423 216.618 209.876C217.418 210.329 218.031 210.956 218.458 211.756C218.898 212.543 219.118 213.436 219.118 214.436ZM217.238 214.056C217.238 213.363 217.084 212.769 216.778 212.276C216.471 211.769 216.051 211.389 215.518 211.136C214.998 210.869 214.418 210.736 213.778 210.736C212.858 210.736 212.071 211.029 211.418 211.616C210.778 212.203 210.411 213.016 210.318 214.056H217.238ZM229.072 210.876V217.336C229.072 217.869 229.185 218.249 229.412 218.476C229.639 218.689 230.032 218.796 230.592 218.796H231.932V220.336H230.292C229.279 220.336 228.519 220.103 228.012 219.636C227.505 219.169 227.252 218.403 227.252 217.336V210.876H225.832V209.376H227.252V206.616H229.072V209.376H231.932V210.876H229.072ZM238.917 220.516C237.891 220.516 236.957 220.283 236.117 219.816C235.291 219.349 234.637 218.689 234.157 217.836C233.691 216.969 233.457 215.969 233.457 214.836C233.457 213.716 233.697 212.729 234.177 211.876C234.671 211.009 235.337 210.349 236.177 209.896C237.017 209.429 237.957 209.196 238.997 209.196C240.037 209.196 240.977 209.429 241.817 209.896C242.657 210.349 243.317 211.003 243.797 211.856C244.291 212.709 244.537 213.703 244.537 214.836C244.537 215.969 244.284 216.969 243.777 217.836C243.284 218.689 242.611 219.349 241.757 219.816C240.904 220.283 239.957 220.516 238.917 220.516ZM238.917 218.916C239.571 218.916 240.184 218.763 240.757 218.456C241.331 218.149 241.791 217.689 242.137 217.076C242.497 216.463 242.677 215.716 242.677 214.836C242.677 213.956 242.504 213.209 242.157 212.596C241.811 211.983 241.357 211.529 240.797 211.236C240.237 210.929 239.631 210.776 238.977 210.776C238.311 210.776 237.697 210.929 237.137 211.236C236.591 211.529 236.151 211.983 235.817 212.596C235.484 213.209 235.317 213.956 235.317 214.836C235.317 215.729 235.477 216.483 235.797 217.096C236.131 217.709 236.571 218.169 237.117 218.476C237.664 218.769 238.264 218.916 238.917 218.916ZM256.142 220.516C255.302 220.516 254.549 220.376 253.882 220.096C253.216 219.803 252.689 219.403 252.302 218.896C251.916 218.376 251.702 217.783 251.662 217.116H253.542C253.596 217.663 253.849 218.109 254.302 218.456C254.769 218.803 255.376 218.976 256.122 218.976C256.816 218.976 257.362 218.823 257.762 218.516C258.162 218.209 258.362 217.823 258.362 217.356C258.362 216.876 258.149 216.523 257.722 216.296C257.296 216.056 256.636 215.823 255.742 215.596C254.929 215.383 254.262 215.169 253.742 214.956C253.236 214.729 252.796 214.403 252.422 213.976C252.062 213.536 251.882 212.963 251.882 212.256C251.882 211.696 252.049 211.183 252.382 210.716C252.716 210.249 253.189 209.883 253.802 209.616C254.416 209.336 255.116 209.196 255.902 209.196C257.116 209.196 258.096 209.503 258.842 210.116C259.589 210.729 259.989 211.569 260.042 212.636H258.222C258.182 212.063 257.949 211.603 257.522 211.256C257.109 210.909 256.549 210.736 255.842 210.736C255.189 210.736 254.669 210.876 254.282 211.156C253.896 211.436 253.702 211.803 253.702 212.256C253.702 212.616 253.816 212.916 254.042 213.156C254.282 213.383 254.576 213.569 254.922 213.716C255.282 213.849 255.776 214.003 256.402 214.176C257.189 214.389 257.829 214.603 258.322 214.816C258.816 215.016 259.236 215.323 259.582 215.736C259.942 216.149 260.129 216.689 260.142 217.356C260.142 217.956 259.976 218.496 259.642 218.976C259.309 219.456 258.836 219.836 258.222 220.116C257.622 220.383 256.929 220.516 256.142 220.516ZM268.152 209.176C268.978 209.176 269.725 209.356 270.392 209.716C271.058 210.063 271.578 210.589 271.952 211.296C272.338 212.003 272.532 212.863 272.532 213.876V220.336H270.732V214.136C270.732 213.043 270.458 212.209 269.912 211.636C269.365 211.049 268.618 210.756 267.672 210.756C266.712 210.756 265.945 211.056 265.372 211.656C264.812 212.256 264.532 213.129 264.532 214.276V220.336H262.712V205.536H264.532V210.936C264.892 210.376 265.385 209.943 266.012 209.636C266.652 209.329 267.365 209.176 268.152 209.176ZM274.825 214.816C274.825 213.696 275.051 212.716 275.505 211.876C275.958 211.023 276.578 210.363 277.365 209.896C278.165 209.429 279.051 209.196 280.025 209.196C280.985 209.196 281.818 209.403 282.525 209.816C283.231 210.229 283.758 210.749 284.105 211.376V209.376H285.945V220.336H284.105V218.296C283.745 218.936 283.205 219.469 282.485 219.896C281.778 220.309 280.951 220.516 280.005 220.516C279.031 220.516 278.151 220.276 277.365 219.796C276.578 219.316 275.958 218.643 275.505 217.776C275.051 216.909 274.825 215.923 274.825 214.816ZM284.105 214.836C284.105 214.009 283.938 213.289 283.605 212.676C283.271 212.063 282.818 211.596 282.245 211.276C281.685 210.943 281.065 210.776 280.385 210.776C279.705 210.776 279.085 210.936 278.525 211.256C277.965 211.576 277.518 212.043 277.185 212.656C276.851 213.269 276.685 213.989 276.685 214.816C276.685 215.656 276.851 216.389 277.185 217.016C277.518 217.629 277.965 218.103 278.525 218.436C279.085 218.756 279.705 218.916 280.385 218.916C281.065 218.916 281.685 218.756 282.245 218.436C282.818 218.103 283.271 217.629 283.605 217.016C283.938 216.389 284.105 215.663 284.105 214.836ZM290.84 211.396C291.2 210.769 291.733 210.249 292.44 209.836C293.16 209.409 293.993 209.196 294.94 209.196C295.913 209.196 296.793 209.429 297.58 209.896C298.38 210.363 299.007 211.023 299.46 211.876C299.913 212.716 300.14 213.696 300.14 214.816C300.14 215.923 299.913 216.909 299.46 217.776C299.007 218.643 298.38 219.316 297.58 219.796C296.793 220.276 295.913 220.516 294.94 220.516C294.007 220.516 293.18 220.309 292.46 219.896C291.753 219.469 291.213 218.943 290.84 218.316V225.536H289.02V209.376H290.84V211.396ZM298.28 214.816C298.28 213.989 298.113 213.269 297.78 212.656C297.447 212.043 296.993 211.576 296.42 211.256C295.86 210.936 295.24 210.776 294.56 210.776C293.893 210.776 293.273 210.943 292.7 211.276C292.14 211.596 291.687 212.069 291.34 212.696C291.007 213.309 290.84 214.023 290.84 214.836C290.84 215.663 291.007 216.389 291.34 217.016C291.687 217.629 292.14 218.103 292.7 218.436C293.273 218.756 293.893 218.916 294.56 218.916C295.24 218.916 295.86 218.756 296.42 218.436C296.993 218.103 297.447 217.629 297.78 217.016C298.113 216.389 298.28 215.656 298.28 214.816ZM312.536 214.436C312.536 214.783 312.516 215.149 312.476 215.536H303.716C303.782 216.616 304.149 217.463 304.816 218.076C305.496 218.676 306.316 218.976 307.276 218.976C308.062 218.976 308.716 218.796 309.236 218.436C309.769 218.063 310.142 217.569 310.356 216.956H312.316C312.022 218.009 311.436 218.869 310.556 219.536C309.676 220.189 308.582 220.516 307.276 220.516C306.236 220.516 305.302 220.283 304.476 219.816C303.662 219.349 303.022 218.689 302.556 217.836C302.089 216.969 301.856 215.969 301.856 214.836C301.856 213.703 302.082 212.709 302.536 211.856C302.989 211.003 303.622 210.349 304.436 209.896C305.262 209.429 306.209 209.196 307.276 209.196C308.316 209.196 309.236 209.423 310.036 209.876C310.836 210.329 311.449 210.956 311.876 211.756C312.316 212.543 312.536 213.436 312.536 214.436ZM310.656 214.056C310.656 213.363 310.502 212.769 310.196 212.276C309.889 211.769 309.469 211.389 308.936 211.136C308.416 210.869 307.836 210.736 307.196 210.736C306.276 210.736 305.489 211.029 304.836 211.616C304.196 212.203 303.829 213.016 303.736 214.056H310.656ZM96.7284 240.876V247.336C96.7284 247.869 96.8417 248.249 97.0684 248.476C97.2951 248.689 97.6884 248.796 98.2484 248.796H99.5884V250.336H97.9484C96.9351 250.336 96.1751 250.103 95.6684 249.636C95.1617 249.169 94.9084 248.403 94.9084 247.336V240.876H93.4884V239.376H94.9084V236.616H96.7284V239.376H99.5884V240.876H96.7284ZM107.234 239.176C108.06 239.176 108.807 239.356 109.474 239.716C110.14 240.063 110.66 240.589 111.034 241.296C111.42 242.003 111.614 242.863 111.614 243.876V250.336H109.814V244.136C109.814 243.043 109.54 242.209 108.994 241.636C108.447 241.049 107.7 240.756 106.754 240.756C105.794 240.756 105.027 241.056 104.454 241.656C103.894 242.256 103.614 243.129 103.614 244.276V250.336H101.794V235.536H103.614V240.936C103.974 240.376 104.467 239.943 105.094 239.636C105.734 239.329 106.447 239.176 107.234 239.176ZM124.587 244.436C124.587 244.783 124.567 245.149 124.527 245.536H115.767C115.833 246.616 116.2 247.463 116.867 248.076C117.547 248.676 118.367 248.976 119.327 248.976C120.113 248.976 120.767 248.796 121.287 248.436C121.82 248.063 122.193 247.569 122.407 246.956H124.367C124.073 248.009 123.487 248.869 122.607 249.536C121.727 250.189 120.633 250.516 119.327 250.516C118.287 250.516 117.353 250.283 116.527 249.816C115.713 249.349 115.073 248.689 114.607 247.836C114.14 246.969 113.907 245.969 113.907 244.836C113.907 243.703 114.133 242.709 114.587 241.856C115.04 241.003 115.673 240.349 116.487 239.896C117.313 239.429 118.26 239.196 119.327 239.196C120.367 239.196 121.287 239.423 122.087 239.876C122.887 240.329 123.5 240.956 123.927 241.756C124.367 242.543 124.587 243.436 124.587 244.436ZM122.707 244.056C122.707 243.363 122.553 242.769 122.247 242.276C121.94 241.769 121.52 241.389 120.987 241.136C120.467 240.869 119.887 240.736 119.247 240.736C118.327 240.736 117.54 241.029 116.887 241.616C116.247 242.203 115.88 243.016 115.787 244.056H122.707ZM131.641 244.836C131.641 243.703 131.868 242.716 132.321 241.876C132.774 241.023 133.401 240.363 134.201 239.896C135.014 239.429 135.941 239.196 136.981 239.196C138.328 239.196 139.434 239.523 140.301 240.176C141.181 240.829 141.761 241.736 142.041 242.896H140.081C139.894 242.229 139.528 241.703 138.981 241.316C138.448 240.929 137.781 240.736 136.981 240.736C135.941 240.736 135.101 241.096 134.461 241.816C133.821 242.523 133.501 243.529 133.501 244.836C133.501 246.156 133.821 247.176 134.461 247.896C135.101 248.616 135.941 248.976 136.981 248.976C137.781 248.976 138.448 248.789 138.981 248.416C139.514 248.043 139.881 247.509 140.081 246.816H142.041C141.748 247.936 141.161 248.836 140.281 249.516C139.401 250.183 138.301 250.516 136.981 250.516C135.941 250.516 135.014 250.283 134.201 249.816C133.401 249.349 132.774 248.689 132.321 247.836C131.868 246.983 131.641 245.983 131.641 244.836ZM149.909 239.176C150.736 239.176 151.483 239.356 152.149 239.716C152.816 240.063 153.336 240.589 153.709 241.296C154.096 242.003 154.289 242.863 154.289 243.876V250.336H152.489V244.136C152.489 243.043 152.216 242.209 151.669 241.636C151.123 241.049 150.376 240.756 149.429 240.756C148.469 240.756 147.703 241.056 147.129 241.656C146.569 242.256 146.289 243.129 146.289 244.276V250.336H144.469V235.536H146.289V240.936C146.649 240.376 147.143 239.943 147.769 239.636C148.409 239.329 149.123 239.176 149.909 239.176ZM156.582 244.816C156.582 243.696 156.809 242.716 157.262 241.876C157.716 241.023 158.336 240.363 159.122 239.896C159.922 239.429 160.809 239.196 161.782 239.196C162.742 239.196 163.576 239.403 164.282 239.816C164.989 240.229 165.516 240.749 165.862 241.376V239.376H167.702V250.336H165.862V248.296C165.502 248.936 164.962 249.469 164.242 249.896C163.536 250.309 162.709 250.516 161.762 250.516C160.789 250.516 159.909 250.276 159.122 249.796C158.336 249.316 157.716 248.643 157.262 247.776C156.809 246.909 156.582 245.923 156.582 244.816ZM165.862 244.836C165.862 244.009 165.696 243.289 165.362 242.676C165.029 242.063 164.576 241.596 164.002 241.276C163.442 240.943 162.822 240.776 162.142 240.776C161.462 240.776 160.842 240.936 160.282 241.256C159.722 241.576 159.276 242.043 158.942 242.656C158.609 243.269 158.442 243.989 158.442 244.816C158.442 245.656 158.609 246.389 158.942 247.016C159.276 247.629 159.722 248.103 160.282 248.436C160.842 248.756 161.462 248.916 162.142 248.916C162.822 248.916 163.442 248.756 164.002 248.436C164.576 248.103 165.029 247.629 165.362 247.016C165.696 246.389 165.862 245.663 165.862 244.836ZM172.598 241.156C172.918 240.529 173.371 240.043 173.958 239.696C174.558 239.349 175.285 239.176 176.138 239.176V241.056H175.658C173.618 241.056 172.598 242.163 172.598 244.376V250.336H170.778V239.376H172.598V241.156ZM177.559 244.816C177.559 243.696 177.786 242.716 178.239 241.876C178.692 241.023 179.312 240.363 180.099 239.896C180.899 239.429 181.786 239.196 182.759 239.196C183.719 239.196 184.552 239.403 185.259 239.816C185.966 240.229 186.492 240.749 186.839 241.376V239.376H188.679V250.336H186.839V248.296C186.479 248.936 185.939 249.469 185.219 249.896C184.512 250.309 183.686 250.516 182.739 250.516C181.766 250.516 180.886 250.276 180.099 249.796C179.312 249.316 178.692 248.643 178.239 247.776C177.786 246.909 177.559 245.923 177.559 244.816ZM186.839 244.836C186.839 244.009 186.672 243.289 186.339 242.676C186.006 242.063 185.552 241.596 184.979 241.276C184.419 240.943 183.799 240.776 183.119 240.776C182.439 240.776 181.819 240.936 181.259 241.256C180.699 241.576 180.252 242.043 179.919 242.656C179.586 243.269 179.419 243.989 179.419 244.816C179.419 245.656 179.586 246.389 179.919 247.016C180.252 247.629 180.699 248.103 181.259 248.436C181.819 248.756 182.439 248.916 183.119 248.916C183.799 248.916 184.419 248.756 184.979 248.436C185.552 248.103 186.006 247.629 186.339 247.016C186.672 246.389 186.839 245.663 186.839 244.836ZM191.075 244.836C191.075 243.703 191.301 242.716 191.755 241.876C192.208 241.023 192.835 240.363 193.635 239.896C194.448 239.429 195.375 239.196 196.415 239.196C197.761 239.196 198.868 239.523 199.735 240.176C200.615 240.829 201.195 241.736 201.475 242.896H199.515C199.328 242.229 198.961 241.703 198.415 241.316C197.881 240.929 197.215 240.736 196.415 240.736C195.375 240.736 194.535 241.096 193.895 241.816C193.255 242.523 192.935 243.529 192.935 244.836C192.935 246.156 193.255 247.176 193.895 247.896C194.535 248.616 195.375 248.976 196.415 248.976C197.215 248.976 197.881 248.789 198.415 248.416C198.948 248.043 199.315 247.509 199.515 246.816H201.475C201.181 247.936 200.595 248.836 199.715 249.516C198.835 250.183 197.735 250.516 196.415 250.516C195.375 250.516 194.448 250.283 193.635 249.816C192.835 249.349 192.208 248.689 191.755 247.836C191.301 246.983 191.075 245.983 191.075 244.836ZM206.123 240.876V247.336C206.123 247.869 206.236 248.249 206.463 248.476C206.69 248.689 207.083 248.796 207.643 248.796H208.983V250.336H207.343C206.33 250.336 205.57 250.103 205.063 249.636C204.556 249.169 204.303 248.403 204.303 247.336V240.876H202.883V239.376H204.303V236.616H206.123V239.376H208.983V240.876H206.123ZM221.188 244.436C221.188 244.783 221.168 245.149 221.128 245.536H212.368C212.435 246.616 212.801 247.463 213.468 248.076C214.148 248.676 214.968 248.976 215.928 248.976C216.715 248.976 217.368 248.796 217.888 248.436C218.421 248.063 218.795 247.569 219.008 246.956H220.968C220.675 248.009 220.088 248.869 219.208 249.536C218.328 250.189 217.235 250.516 215.928 250.516C214.888 250.516 213.955 250.283 213.128 249.816C212.315 249.349 211.675 248.689 211.208 247.836C210.741 246.969 210.508 245.969 210.508 244.836C210.508 243.703 210.735 242.709 211.188 241.856C211.641 241.003 212.275 240.349 213.088 239.896C213.915 239.429 214.861 239.196 215.928 239.196C216.968 239.196 217.888 239.423 218.688 239.876C219.488 240.329 220.101 240.956 220.528 241.756C220.968 242.543 221.188 243.436 221.188 244.436ZM219.308 244.056C219.308 243.363 219.155 242.769 218.848 242.276C218.541 241.769 218.121 241.389 217.588 241.136C217.068 240.869 216.488 240.736 215.848 240.736C214.928 240.736 214.141 241.029 213.488 241.616C212.848 242.203 212.481 243.016 212.388 244.056H219.308ZM225.41 241.156C225.73 240.529 226.184 240.043 226.77 239.696C227.37 239.349 228.097 239.176 228.95 239.176V241.056H228.47C226.43 241.056 225.41 242.163 225.41 244.376V250.336H223.59V239.376H225.41V241.156ZM241.163 250.516C240.137 250.516 239.203 250.283 238.363 249.816C237.537 249.349 236.883 248.689 236.403 247.836C235.937 246.969 235.703 245.969 235.703 244.836C235.703 243.716 235.943 242.729 236.423 241.876C236.917 241.009 237.583 240.349 238.423 239.896C239.263 239.429 240.203 239.196 241.243 239.196C242.283 239.196 243.223 239.429 244.063 239.896C244.903 240.349 245.563 241.003 246.043 241.856C246.537 242.709 246.783 243.703 246.783 244.836C246.783 245.969 246.53 246.969 246.023 247.836C245.53 248.689 244.857 249.349 244.003 249.816C243.15 250.283 242.203 250.516 241.163 250.516ZM241.163 248.916C241.817 248.916 242.43 248.763 243.003 248.456C243.577 248.149 244.037 247.689 244.383 247.076C244.743 246.463 244.923 245.716 244.923 244.836C244.923 243.956 244.75 243.209 244.403 242.596C244.057 241.983 243.603 241.529 243.043 241.236C242.483 240.929 241.877 240.776 241.223 240.776C240.557 240.776 239.943 240.929 239.383 241.236C238.837 241.529 238.397 241.983 238.063 242.596C237.73 243.209 237.563 243.956 237.563 244.836C237.563 245.729 237.723 246.483 238.043 247.096C238.377 247.709 238.817 248.169 239.363 248.476C239.91 248.769 240.51 248.916 241.163 248.916ZM253.636 240.876H251.336V250.336H249.516V240.876H248.096V239.376H249.516V238.596C249.516 237.369 249.83 236.476 250.456 235.916C251.096 235.343 252.116 235.056 253.516 235.056V236.576C252.716 236.576 252.15 236.736 251.816 237.056C251.496 237.363 251.336 237.876 251.336 238.596V239.376H253.636V240.876ZM263.31 240.876V247.336C263.31 247.869 263.424 248.249 263.65 248.476C263.877 248.689 264.27 248.796 264.83 248.796H266.17V250.336H264.53C263.517 250.336 262.757 250.103 262.25 249.636C261.744 249.169 261.49 248.403 261.49 247.336V240.876H260.07V239.376H261.49V236.616H263.31V239.376H266.17V240.876H263.31ZM273.816 239.176C274.642 239.176 275.389 239.356 276.056 239.716C276.722 240.063 277.242 240.589 277.616 241.296C278.002 242.003 278.196 242.863 278.196 243.876V250.336H276.396V244.136C276.396 243.043 276.122 242.209 275.576 241.636C275.029 241.049 274.282 240.756 273.336 240.756C272.376 240.756 271.609 241.056 271.036 241.656C270.476 242.256 270.196 243.129 270.196 244.276V250.336H268.376V235.536H270.196V240.936C270.556 240.376 271.049 239.943 271.676 239.636C272.316 239.329 273.029 239.176 273.816 239.176ZM291.169 244.436C291.169 244.783 291.149 245.149 291.109 245.536H282.349C282.415 246.616 282.782 247.463 283.449 248.076C284.129 248.676 284.949 248.976 285.909 248.976C286.695 248.976 287.349 248.796 287.869 248.436C288.402 248.063 288.775 247.569 288.989 246.956H290.949C290.655 248.009 290.069 248.869 289.189 249.536C288.309 250.189 287.215 250.516 285.909 250.516C284.869 250.516 283.935 250.283 283.109 249.816C282.295 249.349 281.655 248.689 281.189 247.836C280.722 246.969 280.489 245.969 280.489 244.836C280.489 243.703 280.715 242.709 281.169 241.856C281.622 241.003 282.255 240.349 283.069 239.896C283.895 239.429 284.842 239.196 285.909 239.196C286.949 239.196 287.869 239.423 288.669 239.876C289.469 240.329 290.082 240.956 290.509 241.756C290.949 242.543 291.169 243.436 291.169 244.436ZM289.289 244.056C289.289 243.363 289.135 242.769 288.829 242.276C288.522 241.769 288.102 241.389 287.569 241.136C287.049 240.869 286.469 240.736 285.829 240.736C284.909 240.736 284.122 241.029 283.469 241.616C282.829 242.203 282.462 243.016 282.369 244.056H289.289ZM165.229 269.176C166.563 269.176 167.643 269.583 168.469 270.396C169.296 271.196 169.709 272.356 169.709 273.876V280.336H167.909V274.136C167.909 273.043 167.636 272.209 167.089 271.636C166.543 271.049 165.796 270.756 164.849 270.756C163.889 270.756 163.123 271.056 162.549 271.656C161.989 272.256 161.709 273.129 161.709 274.276V280.336H159.889V269.376H161.709V270.936C162.069 270.376 162.556 269.943 163.169 269.636C163.796 269.329 164.483 269.176 165.229 269.176ZM172.002 274.816C172.002 273.696 172.229 272.716 172.682 271.876C173.136 271.023 173.756 270.363 174.542 269.896C175.342 269.429 176.229 269.196 177.202 269.196C178.162 269.196 178.996 269.403 179.702 269.816C180.409 270.229 180.936 270.749 181.282 271.376V269.376H183.122V280.336H181.282V278.296C180.922 278.936 180.382 279.469 179.662 279.896C178.956 280.309 178.129 280.516 177.182 280.516C176.209 280.516 175.329 280.276 174.542 279.796C173.756 279.316 173.136 278.643 172.682 277.776C172.229 276.909 172.002 275.923 172.002 274.816ZM181.282 274.836C181.282 274.009 181.116 273.289 180.782 272.676C180.449 272.063 179.996 271.596 179.422 271.276C178.862 270.943 178.242 270.776 177.562 270.776C176.882 270.776 176.262 270.936 175.702 271.256C175.142 271.576 174.696 272.043 174.362 272.656C174.029 273.269 173.862 273.989 173.862 274.816C173.862 275.656 174.029 276.389 174.362 277.016C174.696 277.629 175.142 278.103 175.702 278.436C176.262 278.756 176.882 278.916 177.562 278.916C178.242 278.916 178.862 278.756 179.422 278.436C179.996 278.103 180.449 277.629 180.782 277.016C181.116 276.389 181.282 275.663 181.282 274.836ZM188.418 270.876V277.336C188.418 277.869 188.531 278.249 188.758 278.476C188.985 278.689 189.378 278.796 189.938 278.796H191.278V280.336H189.638C188.625 280.336 187.865 280.103 187.358 279.636C186.851 279.169 186.598 278.403 186.598 277.336V270.876H185.178V269.376H186.598V266.616H188.418V269.376H191.278V270.876H188.418ZM194.423 267.596C194.076 267.596 193.783 267.476 193.543 267.236C193.303 266.996 193.183 266.703 193.183 266.356C193.183 266.009 193.303 265.716 193.543 265.476C193.783 265.236 194.076 265.116 194.423 265.116C194.756 265.116 195.036 265.236 195.263 265.476C195.503 265.716 195.623 266.009 195.623 266.356C195.623 266.703 195.503 266.996 195.263 267.236C195.036 267.476 194.756 267.596 194.423 267.596ZM195.303 269.376V280.336H193.483V269.376H195.303ZM203.185 280.516C202.158 280.516 201.225 280.283 200.385 279.816C199.558 279.349 198.905 278.689 198.425 277.836C197.958 276.969 197.725 275.969 197.725 274.836C197.725 273.716 197.965 272.729 198.445 271.876C198.938 271.009 199.605 270.349 200.445 269.896C201.285 269.429 202.225 269.196 203.265 269.196C204.305 269.196 205.245 269.429 206.085 269.896C206.925 270.349 207.585 271.003 208.065 271.856C208.558 272.709 208.805 273.703 208.805 274.836C208.805 275.969 208.552 276.969 208.045 277.836C207.552 278.689 206.878 279.349 206.025 279.816C205.172 280.283 204.225 280.516 203.185 280.516ZM203.185 278.916C203.838 278.916 204.452 278.763 205.025 278.456C205.598 278.149 206.058 277.689 206.405 277.076C206.765 276.463 206.945 275.716 206.945 274.836C206.945 273.956 206.772 273.209 206.425 272.596C206.078 271.983 205.625 271.529 205.065 271.236C204.505 270.929 203.898 270.776 203.245 270.776C202.578 270.776 201.965 270.929 201.405 271.236C200.858 271.529 200.418 271.983 200.085 272.596C199.752 273.209 199.585 273.956 199.585 274.836C199.585 275.729 199.745 276.483 200.065 277.096C200.398 277.709 200.838 278.169 201.385 278.476C201.932 278.769 202.532 278.916 203.185 278.916ZM216.538 269.176C217.871 269.176 218.951 269.583 219.778 270.396C220.605 271.196 221.018 272.356 221.018 273.876V280.336H219.218V274.136C219.218 273.043 218.945 272.209 218.398 271.636C217.851 271.049 217.105 270.756 216.158 270.756C215.198 270.756 214.431 271.056 213.858 271.656C213.298 272.256 213.018 273.129 213.018 274.276V280.336H211.198V269.376H213.018V270.936C213.378 270.376 213.865 269.943 214.478 269.636C215.105 269.329 215.791 269.176 216.538 269.176ZM224.571 280.456C224.224 280.456 223.931 280.336 223.691 280.096C223.451 279.856 223.331 279.563 223.331 279.216C223.331 278.869 223.451 278.576 223.691 278.336C223.931 278.096 224.224 277.976 224.571 277.976C224.904 277.976 225.184 278.096 225.411 278.336C225.651 278.576 225.771 278.869 225.771 279.216C225.771 279.563 225.651 279.856 225.411 280.096C225.184 280.336 224.904 280.456 224.571 280.456Z" fill="#243771"/>
<path d="M367.006 87.7822C367.006 49.6746 336.113 18.7822 298.006 18.7822L1.20116 18.7823L1.20117 326.412C1.20117 364.52 32.0935 395.412 70.2012 395.412L367.006 395.412L367.006 87.7822Z" stroke="#243771" stroke-width="2"/>
<path d="M382.998 70.9541C382.998 32.8465 352.106 1.9541 313.998 1.95411L17.1933 1.95413L17.1934 309.584C17.1934 347.692 48.0857 378.584 86.1934 378.584L382.998 378.584L382.998 70.9541Z" stroke="#FE4D01" stroke-width="2"/>
</svg>
