<svg width="384" height="396" viewBox="0 0 384 396" fill="none" xmlns="http://www.w3.org/2000/svg">
<path d="M81.7308 114.517C80.4374 114.517 79.2574 114.217 78.1908 113.617C77.1241 113.004 76.2774 112.157 75.6508 111.077C75.0374 109.984 74.7308 108.757 74.7308 107.397C74.7308 106.037 75.0374 104.817 75.6508 103.737C76.2774 102.644 77.1241 101.797 78.1908 101.197C79.2574 100.584 80.4374 100.277 81.7308 100.277C83.0374 100.277 84.2241 100.584 85.2908 101.197C86.3574 101.797 87.1974 102.637 87.8108 103.717C88.4241 104.797 88.7308 106.024 88.7308 107.397C88.7308 108.77 88.4241 109.997 87.8108 111.077C87.1974 112.157 86.3574 113.004 85.2908 113.617C84.2241 114.217 83.0374 114.517 81.7308 114.517ZM81.7308 112.937C82.7041 112.937 83.5774 112.71 84.3508 112.257C85.1374 111.804 85.7508 111.157 86.1908 110.317C86.6441 109.477 86.8708 108.504 86.8708 107.397C86.8708 106.277 86.6441 105.304 86.1908 104.477C85.7508 103.637 85.1441 102.99 84.3708 102.537C83.5974 102.084 82.7174 101.857 81.7308 101.857C80.7441 101.857 79.8641 102.084 79.0908 102.537C78.3174 102.99 77.7041 103.637 77.2508 104.477C76.8108 105.304 76.5908 106.277 76.5908 107.397C76.5908 108.504 76.8108 109.477 77.2508 110.317C77.7041 111.157 78.3174 111.804 79.0908 112.257C79.8774 112.71 80.7574 112.937 81.7308 112.937ZM92.9534 105.197C93.2734 104.57 93.7267 104.084 94.3134 103.737C94.9134 103.39 95.6401 103.217 96.4934 103.217V105.097H96.0134C93.9734 105.097 92.9534 106.204 92.9534 108.417V114.377H91.1334V103.417H92.9534V105.197ZM103.114 103.237C104.061 103.237 104.888 103.444 105.594 103.857C106.314 104.27 106.848 104.79 107.194 105.417V103.417H109.034V114.617C109.034 115.617 108.821 116.504 108.394 117.277C107.968 118.064 107.354 118.677 106.554 119.117C105.768 119.557 104.848 119.777 103.794 119.777C102.354 119.777 101.154 119.437 100.194 118.757C99.2344 118.077 98.6677 117.15 98.4944 115.977H100.294C100.494 116.644 100.908 117.177 101.534 117.577C102.161 117.99 102.914 118.197 103.794 118.197C104.794 118.197 105.608 117.884 106.234 117.257C106.874 116.63 107.194 115.75 107.194 114.617V112.317C106.834 112.957 106.301 113.49 105.594 113.917C104.888 114.344 104.061 114.557 103.114 114.557C102.141 114.557 101.254 114.317 100.454 113.837C99.6677 113.357 99.0477 112.684 98.5944 111.817C98.141 110.95 97.9144 109.964 97.9144 108.857C97.9144 107.737 98.141 106.757 98.5944 105.917C99.0477 105.064 99.6677 104.404 100.454 103.937C101.254 103.47 102.141 103.237 103.114 103.237ZM107.194 108.877C107.194 108.05 107.028 107.33 106.694 106.717C106.361 106.104 105.908 105.637 105.334 105.317C104.774 104.984 104.154 104.817 103.474 104.817C102.794 104.817 102.174 104.977 101.614 105.297C101.054 105.617 100.608 106.084 100.274 106.697C99.941 107.31 99.7744 108.03 99.7744 108.857C99.7744 109.697 99.941 110.43 100.274 111.057C100.608 111.67 101.054 112.144 101.614 112.477C102.174 112.797 102.794 112.957 103.474 112.957C104.154 112.957 104.774 112.797 105.334 112.477C105.908 112.144 106.361 111.67 106.694 111.057C107.028 110.43 107.194 109.704 107.194 108.877ZM111.43 108.857C111.43 107.737 111.657 106.757 112.11 105.917C112.563 105.064 113.183 104.404 113.97 103.937C114.77 103.47 115.657 103.237 116.63 103.237C117.59 103.237 118.423 103.444 119.13 103.857C119.837 104.27 120.363 104.79 120.71 105.417V103.417H122.55V114.377H120.71V112.337C120.35 112.977 119.81 113.51 119.09 113.937C118.383 114.35 117.557 114.557 116.61 114.557C115.637 114.557 114.757 114.317 113.97 113.837C113.183 113.357 112.563 112.684 112.11 111.817C111.657 110.95 111.43 109.964 111.43 108.857ZM120.71 108.877C120.71 108.05 120.543 107.33 120.21 106.717C119.877 106.104 119.423 105.637 118.85 105.317C118.29 104.984 117.67 104.817 116.99 104.817C116.31 104.817 115.69 104.977 115.13 105.297C114.57 105.617 114.123 106.084 113.79 106.697C113.457 107.31 113.29 108.03 113.29 108.857C113.29 109.697 113.457 110.43 113.79 111.057C114.123 111.67 114.57 112.144 115.13 112.477C115.69 112.797 116.31 112.957 116.99 112.957C117.67 112.957 118.29 112.797 118.85 112.477C119.423 112.144 119.877 111.67 120.21 111.057C120.543 110.43 120.71 109.704 120.71 108.877ZM130.966 103.217C132.299 103.217 133.379 103.624 134.206 104.437C135.032 105.237 135.446 106.397 135.446 107.917V114.377H133.646V108.177C133.646 107.084 133.372 106.25 132.826 105.677C132.279 105.09 131.532 104.797 130.586 104.797C129.626 104.797 128.859 105.097 128.286 105.697C127.726 106.297 127.446 107.17 127.446 108.317V114.377H125.626V103.417H127.446V104.977C127.806 104.417 128.292 103.984 128.906 103.677C129.532 103.37 130.219 103.217 130.966 103.217ZM139.359 101.637C139.012 101.637 138.719 101.517 138.479 101.277C138.239 101.037 138.119 100.744 138.119 100.397C138.119 100.05 138.239 99.757 138.479 99.517C138.719 99.277 139.012 99.157 139.359 99.157C139.692 99.157 139.972 99.277 140.199 99.517C140.439 99.757 140.559 100.05 140.559 100.397C140.559 100.744 140.439 101.037 140.199 101.277C139.972 101.517 139.692 101.637 139.359 101.637ZM140.239 103.417V114.377H138.419V103.417H140.239ZM144.7 112.877H150.08V114.377H142.62V112.877L147.94 104.897H142.66V103.417H150.04V104.897L144.7 112.877ZM153.382 101.637C153.035 101.637 152.742 101.517 152.502 101.277C152.262 101.037 152.142 100.744 152.142 100.397C152.142 100.05 152.262 99.757 152.502 99.517C152.742 99.277 153.035 99.157 153.382 99.157C153.715 99.157 153.995 99.277 154.222 99.517C154.462 99.757 154.582 100.05 154.582 100.397C154.582 100.744 154.462 101.037 154.222 101.277C153.995 101.517 153.715 101.637 153.382 101.637ZM154.262 103.417V114.377H152.442V103.417H154.262ZM162.704 103.217C164.037 103.217 165.117 103.624 165.944 104.437C166.771 105.237 167.184 106.397 167.184 107.917V114.377H165.384V108.177C165.384 107.084 165.111 106.25 164.564 105.677C164.017 105.09 163.271 104.797 162.324 104.797C161.364 104.797 160.597 105.097 160.024 105.697C159.464 106.297 159.184 107.17 159.184 108.317V114.377H157.364V103.417H159.184V104.977C159.544 104.417 160.031 103.984 160.644 103.677C161.271 103.37 161.957 103.217 162.704 103.217ZM174.677 103.237C175.624 103.237 176.45 103.444 177.157 103.857C177.877 104.27 178.41 104.79 178.757 105.417V103.417H180.597V114.617C180.597 115.617 180.384 116.504 179.957 117.277C179.53 118.064 178.917 118.677 178.117 119.117C177.33 119.557 176.41 119.777 175.357 119.777C173.917 119.777 172.717 119.437 171.757 118.757C170.797 118.077 170.23 117.15 170.057 115.977H171.857C172.057 116.644 172.47 117.177 173.097 117.577C173.724 117.99 174.477 118.197 175.357 118.197C176.357 118.197 177.17 117.884 177.797 117.257C178.437 116.63 178.757 115.75 178.757 114.617V112.317C178.397 112.957 177.864 113.49 177.157 113.917C176.45 114.344 175.624 114.557 174.677 114.557C173.704 114.557 172.817 114.317 172.017 113.837C171.23 113.357 170.61 112.684 170.157 111.817C169.704 110.95 169.477 109.964 169.477 108.857C169.477 107.737 169.704 106.757 170.157 105.917C170.61 105.064 171.23 104.404 172.017 103.937C172.817 103.47 173.704 103.237 174.677 103.237ZM178.757 108.877C178.757 108.05 178.59 107.33 178.257 106.717C177.924 106.104 177.47 105.637 176.897 105.317C176.337 104.984 175.717 104.817 175.037 104.817C174.357 104.817 173.737 104.977 173.177 105.297C172.617 105.617 172.17 106.084 171.837 106.697C171.504 107.31 171.337 108.03 171.337 108.857C171.337 109.697 171.504 110.43 171.837 111.057C172.17 111.67 172.617 112.144 173.177 112.477C173.737 112.797 174.357 112.957 175.037 112.957C175.717 112.957 176.337 112.797 176.897 112.477C177.47 112.144 177.924 111.67 178.257 111.057C178.59 110.43 178.757 109.704 178.757 108.877ZM194.445 103.217C195.271 103.217 196.018 103.397 196.685 103.757C197.351 104.104 197.871 104.63 198.245 105.337C198.631 106.044 198.825 106.904 198.825 107.917V114.377H197.025V108.177C197.025 107.084 196.751 106.25 196.205 105.677C195.658 105.09 194.911 104.797 193.965 104.797C193.005 104.797 192.238 105.097 191.665 105.697C191.105 106.297 190.825 107.17 190.825 108.317V114.377H189.005V99.577H190.825V104.977C191.185 104.417 191.678 103.984 192.305 103.677C192.945 103.37 193.658 103.217 194.445 103.217ZM202.737 101.637C202.391 101.637 202.097 101.517 201.857 101.277C201.617 101.037 201.497 100.744 201.497 100.397C201.497 100.05 201.617 99.757 201.857 99.517C202.097 99.277 202.391 99.157 202.737 99.157C203.071 99.157 203.351 99.277 203.577 99.517C203.817 99.757 203.937 100.05 203.937 100.397C203.937 100.744 203.817 101.037 203.577 101.277C203.351 101.517 203.071 101.637 202.737 101.637ZM203.617 103.417V114.377H201.797V103.417H203.617ZM211.239 103.237C212.186 103.237 213.013 103.444 213.719 103.857C214.439 104.27 214.973 104.79 215.319 105.417V103.417H217.159V114.617C217.159 115.617 216.946 116.504 216.519 117.277C216.093 118.064 215.479 118.677 214.679 119.117C213.893 119.557 212.973 119.777 211.919 119.777C210.479 119.777 209.279 119.437 208.319 118.757C207.359 118.077 206.793 117.15 206.619 115.977H208.419C208.619 116.644 209.033 117.177 209.659 117.577C210.286 117.99 211.039 118.197 211.919 118.197C212.919 118.197 213.733 117.884 214.359 117.257C214.999 116.63 215.319 115.75 215.319 114.617V112.317C214.959 112.957 214.426 113.49 213.719 113.917C213.013 114.344 212.186 114.557 211.239 114.557C210.266 114.557 209.379 114.317 208.579 113.837C207.793 113.357 207.173 112.684 206.719 111.817C206.266 110.95 206.039 109.964 206.039 108.857C206.039 107.737 206.266 106.757 206.719 105.917C207.173 105.064 207.793 104.404 208.579 103.937C209.379 103.47 210.266 103.237 211.239 103.237ZM215.319 108.877C215.319 108.05 215.153 107.33 214.819 106.717C214.486 106.104 214.033 105.637 213.459 105.317C212.899 104.984 212.279 104.817 211.599 104.817C210.919 104.817 210.299 104.977 209.739 105.297C209.179 105.617 208.733 106.084 208.399 106.697C208.066 107.31 207.899 108.03 207.899 108.857C207.899 109.697 208.066 110.43 208.399 111.057C208.733 111.67 209.179 112.144 209.739 112.477C210.299 112.797 210.919 112.957 211.599 112.957C212.279 112.957 212.899 112.797 213.459 112.477C214.033 112.144 214.486 111.67 214.819 111.057C215.153 110.43 215.319 109.704 215.319 108.877ZM225.675 103.217C226.502 103.217 227.248 103.397 227.915 103.757C228.582 104.104 229.102 104.63 229.475 105.337C229.862 106.044 230.055 106.904 230.055 107.917V114.377H228.255V108.177C228.255 107.084 227.982 106.25 227.435 105.677C226.888 105.09 226.142 104.797 225.195 104.797C224.235 104.797 223.468 105.097 222.895 105.697C222.335 106.297 222.055 107.17 222.055 108.317V114.377H220.235V99.577H222.055V104.977C222.415 104.417 222.908 103.984 223.535 103.677C224.175 103.37 224.888 103.217 225.675 103.217ZM240.628 106.277V107.817H232.648V106.277H240.628ZM243.364 108.857C243.364 107.737 243.59 106.757 244.044 105.917C244.497 105.064 245.117 104.404 245.904 103.937C246.704 103.47 247.597 103.237 248.584 103.237C249.53 103.237 250.357 103.45 251.064 103.877C251.784 104.29 252.31 104.804 252.644 105.417V103.417H254.484V119.577H252.644V112.357C252.297 112.97 251.764 113.49 251.044 113.917C250.324 114.344 249.484 114.557 248.524 114.557C247.564 114.557 246.69 114.317 245.904 113.837C245.117 113.357 244.497 112.684 244.044 111.817C243.59 110.95 243.364 109.964 243.364 108.857ZM252.644 108.877C252.644 108.05 252.477 107.33 252.144 106.717C251.81 106.104 251.357 105.637 250.784 105.317C250.224 104.984 249.604 104.817 248.924 104.817C248.244 104.817 247.624 104.977 247.064 105.297C246.504 105.617 246.057 106.084 245.724 106.697C245.39 107.31 245.224 108.03 245.224 108.857C245.224 109.697 245.39 110.43 245.724 111.057C246.057 111.67 246.504 112.144 247.064 112.477C247.624 112.797 248.244 112.957 248.924 112.957C249.604 112.957 250.224 112.797 250.784 112.477C251.357 112.144 251.81 111.67 252.144 111.057C252.477 110.43 252.644 109.704 252.644 108.877ZM267.279 103.417V114.377H265.459V112.757C265.113 113.317 264.626 113.757 263.999 114.077C263.386 114.384 262.706 114.537 261.959 114.537C261.106 114.537 260.339 114.364 259.659 114.017C258.979 113.657 258.439 113.124 258.039 112.417C257.653 111.71 257.459 110.85 257.459 109.837V103.417H259.259V109.597C259.259 110.677 259.533 111.51 260.079 112.097C260.626 112.67 261.373 112.957 262.319 112.957C263.293 112.957 264.059 112.657 264.619 112.057C265.179 111.457 265.459 110.584 265.459 109.437V103.417H267.279ZM269.672 108.857C269.672 107.737 269.899 106.757 270.352 105.917C270.805 105.064 271.425 104.404 272.212 103.937C273.012 103.47 273.899 103.237 274.872 103.237C275.832 103.237 276.665 103.444 277.372 103.857C278.079 104.27 278.605 104.79 278.952 105.417V103.417H280.792V114.377H278.952V112.337C278.592 112.977 278.052 113.51 277.332 113.937C276.625 114.35 275.799 114.557 274.852 114.557C273.879 114.557 272.999 114.317 272.212 113.837C271.425 113.357 270.805 112.684 270.352 111.817C269.899 110.95 269.672 109.964 269.672 108.857ZM278.952 108.877C278.952 108.05 278.785 107.33 278.452 106.717C278.119 106.104 277.665 105.637 277.092 105.317C276.532 104.984 275.912 104.817 275.232 104.817C274.552 104.817 273.932 104.977 273.372 105.297C272.812 105.617 272.365 106.084 272.032 106.697C271.699 107.31 271.532 108.03 271.532 108.857C271.532 109.697 271.699 110.43 272.032 111.057C272.365 111.67 272.812 112.144 273.372 112.477C273.932 112.797 274.552 112.957 275.232 112.957C275.912 112.957 276.532 112.797 277.092 112.477C277.665 112.144 278.119 111.67 278.452 111.057C278.785 110.43 278.952 109.704 278.952 108.877ZM285.688 99.577V114.377H283.868V99.577H285.688ZM289.73 101.637C289.383 101.637 289.09 101.517 288.85 101.277C288.61 101.037 288.49 100.744 288.49 100.397C288.49 100.05 288.61 99.757 288.85 99.517C289.09 99.277 289.383 99.157 289.73 99.157C290.063 99.157 290.343 99.277 290.57 99.517C290.81 99.757 290.93 100.05 290.93 100.397C290.93 100.744 290.81 101.037 290.57 101.277C290.343 101.517 290.063 101.637 289.73 101.637ZM290.61 103.417V114.377H288.79V103.417H290.61ZM295.932 104.917V111.377C295.932 111.91 296.045 112.29 296.272 112.517C296.498 112.73 296.892 112.837 297.452 112.837H298.792V114.377H297.152C296.138 114.377 295.378 114.144 294.872 113.677C294.365 113.21 294.112 112.444 294.112 111.377V104.917H292.692V103.417H294.112V100.657H295.932V103.417H298.792V104.917H295.932ZM310.437 103.417L303.837 119.537H301.957L304.117 114.257L299.697 103.417H301.717L305.157 112.297L308.557 103.417H310.437ZM84.9647 134.917V141.377C84.9647 141.91 85.0781 142.29 85.3047 142.517C85.5314 142.73 85.9247 142.837 86.4847 142.837H87.8247V144.377H86.1847C85.1714 144.377 84.4114 144.144 83.9047 143.677C83.3981 143.21 83.1447 142.444 83.1447 141.377V134.917H81.7247V133.417H83.1447V130.657H84.9647V133.417H87.8247V134.917H84.9647ZM100.03 138.477C100.03 138.824 100.01 139.19 99.9699 139.577H91.2099C91.2766 140.657 91.6432 141.504 92.3099 142.117C92.9899 142.717 93.8099 143.017 94.7699 143.017C95.5566 143.017 96.2099 142.837 96.7299 142.477C97.2632 142.104 97.6366 141.61 97.8499 140.997H99.8099C99.5166 142.05 98.9299 142.91 98.0499 143.577C97.1699 144.23 96.0766 144.557 94.7699 144.557C93.7299 144.557 92.7966 144.324 91.9699 143.857C91.1566 143.39 90.5166 142.73 90.0499 141.877C89.5832 141.01 89.3499 140.01 89.3499 138.877C89.3499 137.744 89.5766 136.75 90.0299 135.897C90.4832 135.044 91.1166 134.39 91.9299 133.937C92.7566 133.47 93.7032 133.237 94.7699 133.237C95.8099 133.237 96.7299 133.464 97.5299 133.917C98.3299 134.37 98.9432 134.997 99.3699 135.797C99.8099 136.584 100.03 137.477 100.03 138.477ZM98.1499 138.097C98.1499 137.404 97.9966 136.81 97.6899 136.317C97.3832 135.81 96.9632 135.43 96.4299 135.177C95.9099 134.91 95.3299 134.777 94.6899 134.777C93.7699 134.777 92.9832 135.07 92.3299 135.657C91.6899 136.244 91.3232 137.057 91.2299 138.097H98.1499ZM101.752 138.857C101.752 137.737 101.979 136.757 102.432 135.917C102.886 135.064 103.506 134.404 104.292 133.937C105.092 133.47 105.979 133.237 106.952 133.237C107.912 133.237 108.746 133.444 109.452 133.857C110.159 134.27 110.686 134.79 111.032 135.417V133.417H112.872V144.377H111.032V142.337C110.672 142.977 110.132 143.51 109.412 143.937C108.706 144.35 107.879 144.557 106.932 144.557C105.959 144.557 105.079 144.317 104.292 143.837C103.506 143.357 102.886 142.684 102.432 141.817C101.979 140.95 101.752 139.964 101.752 138.857ZM111.032 138.877C111.032 138.05 110.866 137.33 110.532 136.717C110.199 136.104 109.746 135.637 109.172 135.317C108.612 134.984 107.992 134.817 107.312 134.817C106.632 134.817 106.012 134.977 105.452 135.297C104.892 135.617 104.446 136.084 104.112 136.697C103.779 137.31 103.612 138.03 103.612 138.857C103.612 139.697 103.779 140.43 104.112 141.057C104.446 141.67 104.892 142.144 105.452 142.477C106.012 142.797 106.632 142.957 107.312 142.957C107.992 142.957 108.612 142.797 109.172 142.477C109.746 142.144 110.199 141.67 110.532 141.057C110.866 140.43 111.032 139.704 111.032 138.877ZM115.268 138.877C115.268 137.744 115.495 136.757 115.948 135.917C116.401 135.064 117.028 134.404 117.828 133.937C118.641 133.47 119.568 133.237 120.608 133.237C121.955 133.237 123.061 133.564 123.928 134.217C124.808 134.87 125.388 135.777 125.668 136.937H123.708C123.521 136.27 123.155 135.744 122.608 135.357C122.075 134.97 121.408 134.777 120.608 134.777C119.568 134.777 118.728 135.137 118.088 135.857C117.448 136.564 117.128 137.57 117.128 138.877C117.128 140.197 117.448 141.217 118.088 141.937C118.728 142.657 119.568 143.017 120.608 143.017C121.408 143.017 122.075 142.83 122.608 142.457C123.141 142.084 123.508 141.55 123.708 140.857H125.668C125.375 141.977 124.788 142.877 123.908 143.557C123.028 144.224 121.928 144.557 120.608 144.557C119.568 144.557 118.641 144.324 117.828 143.857C117.028 143.39 116.401 142.73 115.948 141.877C115.495 141.024 115.268 140.024 115.268 138.877ZM133.536 133.217C134.363 133.217 135.11 133.397 135.776 133.757C136.443 134.104 136.963 134.63 137.336 135.337C137.723 136.044 137.916 136.904 137.916 137.917V144.377H136.116V138.177C136.116 137.084 135.843 136.25 135.296 135.677C134.75 135.09 134.003 134.797 133.056 134.797C132.096 134.797 131.33 135.097 130.756 135.697C130.196 136.297 129.916 137.17 129.916 138.317V144.377H128.096V129.577H129.916V134.977C130.276 134.417 130.77 133.984 131.396 133.677C132.036 133.37 132.75 133.217 133.536 133.217ZM141.829 131.637C141.483 131.637 141.189 131.517 140.949 131.277C140.709 131.037 140.589 130.744 140.589 130.397C140.589 130.05 140.709 129.757 140.949 129.517C141.189 129.277 141.483 129.157 141.829 129.157C142.163 129.157 142.443 129.277 142.669 129.517C142.909 129.757 143.029 130.05 143.029 130.397C143.029 130.744 142.909 131.037 142.669 131.277C142.443 131.517 142.163 131.637 141.829 131.637ZM142.709 133.417V144.377H140.889V133.417H142.709ZM151.151 133.217C152.484 133.217 153.564 133.624 154.391 134.437C155.218 135.237 155.631 136.397 155.631 137.917V144.377H153.831V138.177C153.831 137.084 153.558 136.25 153.011 135.677C152.464 135.09 151.718 134.797 150.771 134.797C149.811 134.797 149.044 135.097 148.471 135.697C147.911 136.297 147.631 137.17 147.631 138.317V144.377H145.811V133.417H147.631V134.977C147.991 134.417 148.478 133.984 149.091 133.677C149.718 133.37 150.404 133.217 151.151 133.217ZM163.124 133.237C164.071 133.237 164.897 133.444 165.604 133.857C166.324 134.27 166.857 134.79 167.204 135.417V133.417H169.044V144.617C169.044 145.617 168.831 146.504 168.404 147.277C167.977 148.064 167.364 148.677 166.564 149.117C165.777 149.557 164.857 149.777 163.804 149.777C162.364 149.777 161.164 149.437 160.204 148.757C159.244 148.077 158.677 147.15 158.504 145.977H160.304C160.504 146.644 160.917 147.177 161.544 147.577C162.171 147.99 162.924 148.197 163.804 148.197C164.804 148.197 165.617 147.884 166.244 147.257C166.884 146.63 167.204 145.75 167.204 144.617V142.317C166.844 142.957 166.311 143.49 165.604 143.917C164.897 144.344 164.071 144.557 163.124 144.557C162.151 144.557 161.264 144.317 160.464 143.837C159.677 143.357 159.057 142.684 158.604 141.817C158.151 140.95 157.924 139.964 157.924 138.857C157.924 137.737 158.151 136.757 158.604 135.917C159.057 135.064 159.677 134.404 160.464 133.937C161.264 133.47 162.151 133.237 163.124 133.237ZM167.204 138.877C167.204 138.05 167.037 137.33 166.704 136.717C166.371 136.104 165.917 135.637 165.344 135.317C164.784 134.984 164.164 134.817 163.484 134.817C162.804 134.817 162.184 134.977 161.624 135.297C161.064 135.617 160.617 136.084 160.284 136.697C159.951 137.31 159.784 138.03 159.784 138.857C159.784 139.697 159.951 140.43 160.284 141.057C160.617 141.67 161.064 142.144 161.624 142.477C162.184 142.797 162.804 142.957 163.484 142.957C164.164 142.957 164.784 142.797 165.344 142.477C165.917 142.144 166.371 141.67 166.704 141.057C167.037 140.43 167.204 139.704 167.204 138.877ZM176.772 138.857C176.772 137.737 176.998 136.757 177.452 135.917C177.905 135.064 178.525 134.404 179.312 133.937C180.112 133.47 180.998 133.237 181.972 133.237C182.932 133.237 183.765 133.444 184.472 133.857C185.178 134.27 185.705 134.79 186.052 135.417V133.417H187.892V144.377H186.052V142.337C185.692 142.977 185.152 143.51 184.432 143.937C183.725 144.35 182.898 144.557 181.952 144.557C180.978 144.557 180.098 144.317 179.312 143.837C178.525 143.357 177.905 142.684 177.452 141.817C176.998 140.95 176.772 139.964 176.772 138.857ZM186.052 138.877C186.052 138.05 185.885 137.33 185.552 136.717C185.218 136.104 184.765 135.637 184.192 135.317C183.632 134.984 183.012 134.817 182.332 134.817C181.652 134.817 181.032 134.977 180.472 135.297C179.912 135.617 179.465 136.084 179.132 136.697C178.798 137.31 178.632 138.03 178.632 138.857C178.632 139.697 178.798 140.43 179.132 141.057C179.465 141.67 179.912 142.144 180.472 142.477C181.032 142.797 181.652 142.957 182.332 142.957C183.012 142.957 183.632 142.797 184.192 142.477C184.765 142.144 185.218 141.67 185.552 141.057C185.885 140.43 186.052 139.704 186.052 138.877ZM196.307 133.217C197.641 133.217 198.721 133.624 199.547 134.437C200.374 135.237 200.787 136.397 200.787 137.917V144.377H198.987V138.177C198.987 137.084 198.714 136.25 198.167 135.677C197.621 135.09 196.874 134.797 195.927 134.797C194.967 134.797 194.201 135.097 193.627 135.697C193.067 136.297 192.787 137.17 192.787 138.317V144.377H190.967V133.417H192.787V134.977C193.147 134.417 193.634 133.984 194.247 133.677C194.874 133.37 195.561 133.217 196.307 133.217ZM203.08 138.857C203.08 137.737 203.307 136.757 203.76 135.917C204.214 135.064 204.834 134.404 205.62 133.937C206.42 133.47 207.314 133.237 208.3 133.237C209.154 133.237 209.947 133.437 210.68 133.837C211.414 134.224 211.974 134.737 212.36 135.377V129.577H214.2V144.377H212.36V142.317C212 142.97 211.467 143.51 210.76 143.937C210.054 144.35 209.227 144.557 208.28 144.557C207.307 144.557 206.42 144.317 205.62 143.837C204.834 143.357 204.214 142.684 203.76 141.817C203.307 140.95 203.08 139.964 203.08 138.857ZM212.36 138.877C212.36 138.05 212.194 137.33 211.86 136.717C211.527 136.104 211.074 135.637 210.5 135.317C209.94 134.984 209.32 134.817 208.64 134.817C207.96 134.817 207.34 134.977 206.78 135.297C206.22 135.617 205.774 136.084 205.44 136.697C205.107 137.31 204.94 138.03 204.94 138.857C204.94 139.697 205.107 140.43 205.44 141.057C205.774 141.67 206.22 142.144 206.78 142.477C207.34 142.797 207.96 142.957 208.64 142.957C209.32 142.957 209.94 142.797 210.5 142.477C211.074 142.144 211.527 141.67 211.86 141.057C212.194 140.43 212.36 139.704 212.36 138.877ZM224.428 129.577V144.377H222.608V129.577H224.428ZM237.53 138.477C237.53 138.824 237.51 139.19 237.47 139.577H228.71C228.777 140.657 229.143 141.504 229.81 142.117C230.49 142.717 231.31 143.017 232.27 143.017C233.057 143.017 233.71 142.837 234.23 142.477C234.763 142.104 235.137 141.61 235.35 140.997H237.31C237.017 142.05 236.43 142.91 235.55 143.577C234.67 144.23 233.577 144.557 232.27 144.557C231.23 144.557 230.297 144.324 229.47 143.857C228.657 143.39 228.017 142.73 227.55 141.877C227.083 141.01 226.85 140.01 226.85 138.877C226.85 137.744 227.077 136.75 227.53 135.897C227.983 135.044 228.617 134.39 229.43 133.937C230.257 133.47 231.203 133.237 232.27 133.237C233.31 133.237 234.23 133.464 235.03 133.917C235.83 134.37 236.443 134.997 236.87 135.797C237.31 136.584 237.53 137.477 237.53 138.477ZM235.65 138.097C235.65 137.404 235.497 136.81 235.19 136.317C234.883 135.81 234.463 135.43 233.93 135.177C233.41 134.91 232.83 134.777 232.19 134.777C231.27 134.777 230.483 135.07 229.83 135.657C229.19 136.244 228.823 137.057 228.73 138.097H235.65ZM239.252 138.857C239.252 137.737 239.479 136.757 239.932 135.917C240.386 135.064 241.006 134.404 241.792 133.937C242.592 133.47 243.479 133.237 244.452 133.237C245.412 133.237 246.246 133.444 246.952 133.857C247.659 134.27 248.186 134.79 248.532 135.417V133.417H250.372V144.377H248.532V142.337C248.172 142.977 247.632 143.51 246.912 143.937C246.206 144.35 245.379 144.557 244.432 144.557C243.459 144.557 242.579 144.317 241.792 143.837C241.006 143.357 240.386 142.684 239.932 141.817C239.479 140.95 239.252 139.964 239.252 138.857ZM248.532 138.877C248.532 138.05 248.366 137.33 248.032 136.717C247.699 136.104 247.246 135.637 246.672 135.317C246.112 134.984 245.492 134.817 244.812 134.817C244.132 134.817 243.512 134.977 242.952 135.297C242.392 135.617 241.946 136.084 241.612 136.697C241.279 137.31 241.112 138.03 241.112 138.857C241.112 139.697 241.279 140.43 241.612 141.057C241.946 141.67 242.392 142.144 242.952 142.477C243.512 142.797 244.132 142.957 244.812 142.957C245.492 142.957 246.112 142.797 246.672 142.477C247.246 142.144 247.699 141.67 248.032 141.057C248.366 140.43 248.532 139.704 248.532 138.877ZM255.268 135.197C255.588 134.57 256.041 134.084 256.628 133.737C257.228 133.39 257.955 133.217 258.808 133.217V135.097H258.328C256.288 135.097 255.268 136.204 255.268 138.417V144.377H253.448V133.417H255.268V135.197ZM266.249 133.217C267.582 133.217 268.662 133.624 269.489 134.437C270.315 135.237 270.729 136.397 270.729 137.917V144.377H268.929V138.177C268.929 137.084 268.655 136.25 268.109 135.677C267.562 135.09 266.815 134.797 265.869 134.797C264.909 134.797 264.142 135.097 263.569 135.697C263.009 136.297 262.729 137.17 262.729 138.317V144.377H260.909V133.417H262.729V134.977C263.089 134.417 263.575 133.984 264.189 133.677C264.815 133.37 265.502 133.217 266.249 133.217ZM274.642 131.637C274.295 131.637 274.002 131.517 273.762 131.277C273.522 131.037 273.402 130.744 273.402 130.397C273.402 130.05 273.522 129.757 273.762 129.517C274.002 129.277 274.295 129.157 274.642 129.157C274.975 129.157 275.255 129.277 275.482 129.517C275.722 129.757 275.842 130.05 275.842 130.397C275.842 130.744 275.722 131.037 275.482 131.277C275.255 131.517 274.975 131.637 274.642 131.637ZM275.522 133.417V144.377H273.702V133.417H275.522ZM283.964 133.217C285.297 133.217 286.377 133.624 287.204 134.437C288.03 135.237 288.444 136.397 288.444 137.917V144.377H286.644V138.177C286.644 137.084 286.37 136.25 285.824 135.677C285.277 135.09 284.53 134.797 283.584 134.797C282.624 134.797 281.857 135.097 281.284 135.697C280.724 136.297 280.444 137.17 280.444 138.317V144.377H278.624V133.417H280.444V134.977C280.804 134.417 281.29 133.984 281.904 133.677C282.53 133.37 283.217 133.217 283.964 133.217ZM295.937 133.237C296.883 133.237 297.71 133.444 298.417 133.857C299.137 134.27 299.67 134.79 300.017 135.417V133.417H301.857V144.617C301.857 145.617 301.643 146.504 301.217 147.277C300.79 148.064 300.177 148.677 299.377 149.117C298.59 149.557 297.67 149.777 296.617 149.777C295.177 149.777 293.977 149.437 293.017 148.757C292.057 148.077 291.49 147.15 291.317 145.977H293.117C293.317 146.644 293.73 147.177 294.357 147.577C294.983 147.99 295.737 148.197 296.617 148.197C297.617 148.197 298.43 147.884 299.057 147.257C299.697 146.63 300.017 145.75 300.017 144.617V142.317C299.657 142.957 299.123 143.49 298.417 143.917C297.71 144.344 296.883 144.557 295.937 144.557C294.963 144.557 294.077 144.317 293.277 143.837C292.49 143.357 291.87 142.684 291.417 141.817C290.963 140.95 290.737 139.964 290.737 138.857C290.737 137.737 290.963 136.757 291.417 135.917C291.87 135.064 292.49 134.404 293.277 133.937C294.077 133.47 294.963 133.237 295.937 133.237ZM300.017 138.877C300.017 138.05 299.85 137.33 299.517 136.717C299.183 136.104 298.73 135.637 298.157 135.317C297.597 134.984 296.977 134.817 296.297 134.817C295.617 134.817 294.997 134.977 294.437 135.297C293.877 135.617 293.43 136.084 293.097 136.697C292.763 137.31 292.597 138.03 292.597 138.857C292.597 139.697 292.763 140.43 293.097 141.057C293.43 141.67 293.877 142.144 294.437 142.477C294.997 142.797 295.617 142.957 296.297 142.957C296.977 142.957 297.597 142.797 298.157 142.477C298.73 142.144 299.183 141.67 299.517 141.057C299.85 140.43 300.017 139.704 300.017 138.877ZM89.555 165.437C89.915 164.81 90.4483 164.29 91.155 163.877C91.875 163.45 92.7083 163.237 93.655 163.237C94.6283 163.237 95.5083 163.47 96.295 163.937C97.095 164.404 97.7216 165.064 98.175 165.917C98.6283 166.757 98.855 167.737 98.855 168.857C98.855 169.964 98.6283 170.95 98.175 171.817C97.7216 172.684 97.095 173.357 96.295 173.837C95.5083 174.317 94.6283 174.557 93.655 174.557C92.7216 174.557 91.895 174.35 91.175 173.937C90.4683 173.51 89.9283 172.984 89.555 172.357V179.577H87.735V163.417H89.555V165.437ZM96.995 168.857C96.995 168.03 96.8283 167.31 96.495 166.697C96.1616 166.084 95.7083 165.617 95.135 165.297C94.575 164.977 93.955 164.817 93.275 164.817C92.6083 164.817 91.9883 164.984 91.415 165.317C90.855 165.637 90.4016 166.11 90.055 166.737C89.7216 167.35 89.555 168.064 89.555 168.877C89.555 169.704 89.7216 170.43 90.055 171.057C90.4016 171.67 90.855 172.144 91.415 172.477C91.9883 172.797 92.6083 172.957 93.275 172.957C93.955 172.957 94.575 172.797 95.135 172.477C95.7083 172.144 96.1616 171.67 96.495 171.057C96.8283 170.43 96.995 169.697 96.995 168.857ZM103.071 165.197C103.391 164.57 103.844 164.084 104.431 163.737C105.031 163.39 105.757 163.217 106.611 163.217V165.097H106.131C104.091 165.097 103.071 166.204 103.071 168.417V174.377H101.251V163.417H103.071V165.197ZM113.492 174.557C112.465 174.557 111.532 174.324 110.692 173.857C109.865 173.39 109.212 172.73 108.732 171.877C108.265 171.01 108.032 170.01 108.032 168.877C108.032 167.757 108.272 166.77 108.752 165.917C109.245 165.05 109.912 164.39 110.752 163.937C111.592 163.47 112.532 163.237 113.572 163.237C114.612 163.237 115.552 163.47 116.392 163.937C117.232 164.39 117.892 165.044 118.372 165.897C118.865 166.75 119.112 167.744 119.112 168.877C119.112 170.01 118.858 171.01 118.352 171.877C117.858 172.73 117.185 173.39 116.332 173.857C115.478 174.324 114.532 174.557 113.492 174.557ZM113.492 172.957C114.145 172.957 114.758 172.804 115.332 172.497C115.905 172.19 116.365 171.73 116.712 171.117C117.072 170.504 117.252 169.757 117.252 168.877C117.252 167.997 117.078 167.25 116.732 166.637C116.385 166.024 115.932 165.57 115.372 165.277C114.812 164.97 114.205 164.817 113.552 164.817C112.885 164.817 112.272 164.97 111.712 165.277C111.165 165.57 110.725 166.024 110.392 166.637C110.058 167.25 109.892 167.997 109.892 168.877C109.892 169.77 110.052 170.524 110.372 171.137C110.705 171.75 111.145 172.21 111.692 172.517C112.238 172.81 112.838 172.957 113.492 172.957ZM120.825 168.877C120.825 167.744 121.051 166.757 121.505 165.917C121.958 165.064 122.585 164.404 123.385 163.937C124.198 163.47 125.125 163.237 126.165 163.237C127.511 163.237 128.618 163.564 129.485 164.217C130.365 164.87 130.945 165.777 131.225 166.937H129.265C129.078 166.27 128.711 165.744 128.165 165.357C127.631 164.97 126.965 164.777 126.165 164.777C125.125 164.777 124.285 165.137 123.645 165.857C123.005 166.564 122.685 167.57 122.685 168.877C122.685 170.197 123.005 171.217 123.645 171.937C124.285 172.657 125.125 173.017 126.165 173.017C126.965 173.017 127.631 172.83 128.165 172.457C128.698 172.084 129.065 171.55 129.265 170.857H131.225C130.931 171.977 130.345 172.877 129.465 173.557C128.585 174.224 127.485 174.557 126.165 174.557C125.125 174.557 124.198 174.324 123.385 173.857C122.585 173.39 121.958 172.73 121.505 171.877C121.051 171.024 120.825 170.024 120.825 168.877ZM143.653 168.477C143.653 168.824 143.633 169.19 143.593 169.577H134.833C134.9 170.657 135.266 171.504 135.933 172.117C136.613 172.717 137.433 173.017 138.393 173.017C139.18 173.017 139.833 172.837 140.353 172.477C140.886 172.104 141.26 171.61 141.473 170.997H143.433C143.14 172.05 142.553 172.91 141.673 173.577C140.793 174.23 139.7 174.557 138.393 174.557C137.353 174.557 136.42 174.324 135.593 173.857C134.78 173.39 134.14 172.73 133.673 171.877C133.206 171.01 132.973 170.01 132.973 168.877C132.973 167.744 133.2 166.75 133.653 165.897C134.106 165.044 134.74 164.39 135.553 163.937C136.38 163.47 137.326 163.237 138.393 163.237C139.433 163.237 140.353 163.464 141.153 163.917C141.953 164.37 142.566 164.997 142.993 165.797C143.433 166.584 143.653 167.477 143.653 168.477ZM141.773 168.097C141.773 167.404 141.62 166.81 141.313 166.317C141.006 165.81 140.586 165.43 140.053 165.177C139.533 164.91 138.953 164.777 138.313 164.777C137.393 164.777 136.606 165.07 135.953 165.657C135.313 166.244 134.946 167.057 134.853 168.097H141.773ZM149.935 174.557C149.095 174.557 148.342 174.417 147.675 174.137C147.009 173.844 146.482 173.444 146.095 172.937C145.709 172.417 145.495 171.824 145.455 171.157H147.335C147.389 171.704 147.642 172.15 148.095 172.497C148.562 172.844 149.169 173.017 149.915 173.017C150.609 173.017 151.155 172.864 151.555 172.557C151.955 172.25 152.155 171.864 152.155 171.397C152.155 170.917 151.942 170.564 151.515 170.337C151.089 170.097 150.429 169.864 149.535 169.637C148.722 169.424 148.055 169.21 147.535 168.997C147.029 168.77 146.589 168.444 146.215 168.017C145.855 167.577 145.675 167.004 145.675 166.297C145.675 165.737 145.842 165.224 146.175 164.757C146.509 164.29 146.982 163.924 147.595 163.657C148.209 163.377 148.909 163.237 149.695 163.237C150.909 163.237 151.889 163.544 152.635 164.157C153.382 164.77 153.782 165.61 153.835 166.677H152.015C151.975 166.104 151.742 165.644 151.315 165.297C150.902 164.95 150.342 164.777 149.635 164.777C148.982 164.777 148.462 164.917 148.075 165.197C147.689 165.477 147.495 165.844 147.495 166.297C147.495 166.657 147.609 166.957 147.835 167.197C148.075 167.424 148.369 167.61 148.715 167.757C149.075 167.89 149.569 168.044 150.195 168.217C150.982 168.43 151.622 168.644 152.115 168.857C152.609 169.057 153.029 169.364 153.375 169.777C153.735 170.19 153.922 170.73 153.935 171.397C153.935 171.997 153.769 172.537 153.435 173.017C153.102 173.497 152.629 173.877 152.015 174.157C151.415 174.424 150.722 174.557 149.935 174.557ZM160.385 174.557C159.545 174.557 158.791 174.417 158.125 174.137C157.458 173.844 156.931 173.444 156.545 172.937C156.158 172.417 155.945 171.824 155.905 171.157H157.785C157.838 171.704 158.091 172.15 158.545 172.497C159.011 172.844 159.618 173.017 160.365 173.017C161.058 173.017 161.605 172.864 162.005 172.557C162.405 172.25 162.605 171.864 162.605 171.397C162.605 170.917 162.391 170.564 161.965 170.337C161.538 170.097 160.878 169.864 159.985 169.637C159.171 169.424 158.505 169.21 157.985 168.997C157.478 168.77 157.038 168.444 156.665 168.017C156.305 167.577 156.125 167.004 156.125 166.297C156.125 165.737 156.291 165.224 156.625 164.757C156.958 164.29 157.431 163.924 158.045 163.657C158.658 163.377 159.358 163.237 160.145 163.237C161.358 163.237 162.338 163.544 163.085 164.157C163.831 164.77 164.231 165.61 164.285 166.677H162.465C162.425 166.104 162.191 165.644 161.765 165.297C161.351 164.95 160.791 164.777 160.085 164.777C159.431 164.777 158.911 164.917 158.525 165.197C158.138 165.477 157.945 165.844 157.945 166.297C157.945 166.657 158.058 166.957 158.285 167.197C158.525 167.424 158.818 167.61 159.165 167.757C159.525 167.89 160.018 168.044 160.645 168.217C161.431 168.43 162.071 168.644 162.565 168.857C163.058 169.057 163.478 169.364 163.825 169.777C164.185 170.19 164.371 170.73 164.385 171.397C164.385 171.997 164.218 172.537 163.885 173.017C163.551 173.497 163.078 173.877 162.465 174.157C161.865 174.424 161.171 174.557 160.385 174.557ZM176.954 168.477C176.954 168.824 176.934 169.19 176.894 169.577H168.134C168.2 170.657 168.567 171.504 169.234 172.117C169.914 172.717 170.734 173.017 171.694 173.017C172.48 173.017 173.134 172.837 173.654 172.477C174.187 172.104 174.56 171.61 174.774 170.997H176.734C176.44 172.05 175.854 172.91 174.974 173.577C174.094 174.23 173 174.557 171.694 174.557C170.654 174.557 169.72 174.324 168.894 173.857C168.08 173.39 167.44 172.73 166.974 171.877C166.507 171.01 166.274 170.01 166.274 168.877C166.274 167.744 166.5 166.75 166.954 165.897C167.407 165.044 168.04 164.39 168.854 163.937C169.68 163.47 170.627 163.237 171.694 163.237C172.734 163.237 173.654 163.464 174.454 163.917C175.254 164.37 175.867 164.997 176.294 165.797C176.734 166.584 176.954 167.477 176.954 168.477ZM175.074 168.097C175.074 167.404 174.92 166.81 174.614 166.317C174.307 165.81 173.887 165.43 173.354 165.177C172.834 164.91 172.254 164.777 171.614 164.777C170.694 164.777 169.907 165.07 169.254 165.657C168.614 166.244 168.247 167.057 168.154 168.097H175.074ZM183.236 174.557C182.396 174.557 181.643 174.417 180.976 174.137C180.309 173.844 179.783 173.444 179.396 172.937C179.009 172.417 178.796 171.824 178.756 171.157H180.636C180.689 171.704 180.943 172.15 181.396 172.497C181.863 172.844 182.469 173.017 183.216 173.017C183.909 173.017 184.456 172.864 184.856 172.557C185.256 172.25 185.456 171.864 185.456 171.397C185.456 170.917 185.243 170.564 184.816 170.337C184.389 170.097 183.729 169.864 182.836 169.637C182.023 169.424 181.356 169.21 180.836 168.997C180.329 168.77 179.889 168.444 179.516 168.017C179.156 167.577 178.976 167.004 178.976 166.297C178.976 165.737 179.143 165.224 179.476 164.757C179.809 164.29 180.283 163.924 180.896 163.657C181.509 163.377 182.209 163.237 182.996 163.237C184.209 163.237 185.189 163.544 185.936 164.157C186.683 164.77 187.083 165.61 187.136 166.677H185.316C185.276 166.104 185.043 165.644 184.616 165.297C184.203 164.95 183.643 164.777 182.936 164.777C182.283 164.777 181.763 164.917 181.376 165.197C180.989 165.477 180.796 165.844 180.796 166.297C180.796 166.657 180.909 166.957 181.136 167.197C181.376 167.424 181.669 167.61 182.016 167.757C182.376 167.89 182.869 168.044 183.496 168.217C184.283 168.43 184.923 168.644 185.416 168.857C185.909 169.057 186.329 169.364 186.676 169.777C187.036 170.19 187.223 170.73 187.236 171.397C187.236 171.997 187.069 172.537 186.736 173.017C186.403 173.497 185.929 173.877 185.316 174.157C184.716 174.424 184.023 174.557 183.236 174.557ZM197.357 164.917V171.377C197.357 171.91 197.471 172.29 197.697 172.517C197.924 172.73 198.317 172.837 198.877 172.837H200.217V174.377H198.577C197.564 174.377 196.804 174.144 196.297 173.677C195.791 173.21 195.537 172.444 195.537 171.377V164.917H194.117V163.417H195.537V160.657H197.357V163.417H200.217V164.917H197.357ZM207.202 174.557C206.176 174.557 205.242 174.324 204.402 173.857C203.576 173.39 202.922 172.73 202.442 171.877C201.976 171.01 201.742 170.01 201.742 168.877C201.742 167.757 201.982 166.77 202.462 165.917C202.956 165.05 203.622 164.39 204.462 163.937C205.302 163.47 206.242 163.237 207.282 163.237C208.322 163.237 209.262 163.47 210.102 163.937C210.942 164.39 211.602 165.044 212.082 165.897C212.576 166.75 212.822 167.744 212.822 168.877C212.822 170.01 212.569 171.01 212.062 171.877C211.569 172.73 210.896 173.39 210.042 173.857C209.189 174.324 208.242 174.557 207.202 174.557ZM207.202 172.957C207.856 172.957 208.469 172.804 209.042 172.497C209.616 172.19 210.076 171.73 210.422 171.117C210.782 170.504 210.962 169.757 210.962 168.877C210.962 167.997 210.789 167.25 210.442 166.637C210.096 166.024 209.642 165.57 209.082 165.277C208.522 164.97 207.916 164.817 207.262 164.817C206.596 164.817 205.982 164.97 205.422 165.277C204.876 165.57 204.436 166.024 204.102 166.637C203.769 167.25 203.602 167.997 203.602 168.877C203.602 169.77 203.762 170.524 204.082 171.137C204.416 171.75 204.856 172.21 205.402 172.517C205.949 172.81 206.549 172.957 207.202 172.957ZM219.867 168.857C219.867 167.737 220.094 166.757 220.547 165.917C221.001 165.064 221.621 164.404 222.407 163.937C223.207 163.47 224.094 163.237 225.067 163.237C226.027 163.237 226.861 163.444 227.567 163.857C228.274 164.27 228.801 164.79 229.147 165.417V163.417H230.987V174.377H229.147V172.337C228.787 172.977 228.247 173.51 227.527 173.937C226.821 174.35 225.994 174.557 225.047 174.557C224.074 174.557 223.194 174.317 222.407 173.837C221.621 173.357 221.001 172.684 220.547 171.817C220.094 170.95 219.867 169.964 219.867 168.857ZM229.147 168.877C229.147 168.05 228.981 167.33 228.647 166.717C228.314 166.104 227.861 165.637 227.287 165.317C226.727 164.984 226.107 164.817 225.427 164.817C224.747 164.817 224.127 164.977 223.567 165.297C223.007 165.617 222.561 166.084 222.227 166.697C221.894 167.31 221.727 168.03 221.727 168.857C221.727 169.697 221.894 170.43 222.227 171.057C222.561 171.67 223.007 172.144 223.567 172.477C224.127 172.797 224.747 172.957 225.427 172.957C226.107 172.957 226.727 172.797 227.287 172.477C227.861 172.144 228.314 171.67 228.647 171.057C228.981 170.43 229.147 169.704 229.147 168.877ZM233.383 168.877C233.383 167.744 233.61 166.757 234.063 165.917C234.516 165.064 235.143 164.404 235.943 163.937C236.756 163.47 237.683 163.237 238.723 163.237C240.07 163.237 241.176 163.564 242.043 164.217C242.923 164.87 243.503 165.777 243.783 166.937H241.823C241.636 166.27 241.27 165.744 240.723 165.357C240.19 164.97 239.523 164.777 238.723 164.777C237.683 164.777 236.843 165.137 236.203 165.857C235.563 166.564 235.243 167.57 235.243 168.877C235.243 170.197 235.563 171.217 236.203 171.937C236.843 172.657 237.683 173.017 238.723 173.017C239.523 173.017 240.19 172.83 240.723 172.457C241.256 172.084 241.623 171.55 241.823 170.857H243.783C243.49 171.977 242.903 172.877 242.023 173.557C241.143 174.224 240.043 174.557 238.723 174.557C237.683 174.557 236.756 174.324 235.943 173.857C235.143 173.39 234.516 172.73 234.063 171.877C233.61 171.024 233.383 170.024 233.383 168.877ZM251.652 163.217C252.478 163.217 253.225 163.397 253.892 163.757C254.558 164.104 255.078 164.63 255.452 165.337C255.838 166.044 256.032 166.904 256.032 167.917V174.377H254.232V168.177C254.232 167.084 253.958 166.25 253.412 165.677C252.865 165.09 252.118 164.797 251.172 164.797C250.212 164.797 249.445 165.097 248.872 165.697C248.312 166.297 248.032 167.17 248.032 168.317V174.377H246.212V159.577H248.032V164.977C248.392 164.417 248.885 163.984 249.512 163.677C250.152 163.37 250.865 163.217 251.652 163.217ZM259.945 161.637C259.598 161.637 259.305 161.517 259.065 161.277C258.825 161.037 258.705 160.744 258.705 160.397C258.705 160.05 258.825 159.757 259.065 159.517C259.305 159.277 259.598 159.157 259.945 159.157C260.278 159.157 260.558 159.277 260.785 159.517C261.025 159.757 261.145 160.05 261.145 160.397C261.145 160.744 261.025 161.037 260.785 161.277C260.558 161.517 260.278 161.637 259.945 161.637ZM260.825 163.417V174.377H259.005V163.417H260.825ZM273.926 168.477C273.926 168.824 273.906 169.19 273.866 169.577H265.106C265.173 170.657 265.54 171.504 266.206 172.117C266.886 172.717 267.706 173.017 268.666 173.017C269.453 173.017 270.106 172.837 270.626 172.477C271.16 172.104 271.533 171.61 271.746 170.997H273.706C273.413 172.05 272.826 172.91 271.946 173.577C271.066 174.23 269.973 174.557 268.666 174.557C267.626 174.557 266.693 174.324 265.866 173.857C265.053 173.39 264.413 172.73 263.946 171.877C263.48 171.01 263.246 170.01 263.246 168.877C263.246 167.744 263.473 166.75 263.926 165.897C264.38 165.044 265.013 164.39 265.826 163.937C266.653 163.47 267.6 163.237 268.666 163.237C269.706 163.237 270.626 163.464 271.426 163.917C272.226 164.37 272.84 164.997 273.266 165.797C273.706 166.584 273.926 167.477 273.926 168.477ZM272.046 168.097C272.046 167.404 271.893 166.81 271.586 166.317C271.28 165.81 270.86 165.43 270.326 165.177C269.806 164.91 269.226 164.777 268.586 164.777C267.666 164.777 266.88 165.07 266.226 165.657C265.586 166.244 265.22 167.057 265.126 168.097H272.046ZM280.409 172.697L283.809 163.417H285.749L281.449 174.377H279.329L275.029 163.417H276.989L280.409 172.697ZM297.54 168.477C297.54 168.824 297.52 169.19 297.48 169.577H288.72C288.786 170.657 289.153 171.504 289.82 172.117C290.5 172.717 291.32 173.017 292.28 173.017C293.066 173.017 293.72 172.837 294.24 172.477C294.773 172.104 295.146 171.61 295.36 170.997H297.32C297.026 172.05 296.44 172.91 295.56 173.577C294.68 174.23 293.586 174.557 292.28 174.557C291.24 174.557 290.306 174.324 289.48 173.857C288.666 173.39 288.026 172.73 287.56 171.877C287.093 171.01 286.86 170.01 286.86 168.877C286.86 167.744 287.086 166.75 287.54 165.897C287.993 165.044 288.626 164.39 289.44 163.937C290.266 163.47 291.213 163.237 292.28 163.237C293.32 163.237 294.24 163.464 295.04 163.917C295.84 164.37 296.453 164.997 296.88 165.797C297.32 166.584 297.54 167.477 297.54 168.477ZM295.66 168.097C295.66 167.404 295.506 166.81 295.2 166.317C294.893 165.81 294.473 165.43 293.94 165.177C293.42 164.91 292.84 164.777 292.2 164.777C291.28 164.777 290.493 165.07 289.84 165.657C289.2 166.244 288.833 167.057 288.74 168.097H295.66ZM68.9636 193.217C70.297 193.217 71.377 193.624 72.2036 194.437C73.0303 195.237 73.4436 196.397 73.4436 197.917V204.377H71.6436V198.177C71.6436 197.084 71.3703 196.25 70.8236 195.677C70.277 195.09 69.5303 194.797 68.5836 194.797C67.6236 194.797 66.857 195.097 66.2836 195.697C65.7236 196.297 65.4436 197.17 65.4436 198.317V204.377H63.6236V193.417H65.4436V194.977C65.8036 194.417 66.2903 193.984 66.9036 193.677C67.5303 193.37 68.217 193.217 68.9636 193.217ZM75.7366 198.857C75.7366 197.737 75.9633 196.757 76.4166 195.917C76.87 195.064 77.49 194.404 78.2766 193.937C79.0766 193.47 79.9633 193.237 80.9366 193.237C81.8966 193.237 82.73 193.444 83.4366 193.857C84.1433 194.27 84.67 194.79 85.0166 195.417V193.417H86.8566V204.377H85.0166V202.337C84.6566 202.977 84.1166 203.51 83.3966 203.937C82.69 204.35 81.8633 204.557 80.9166 204.557C79.9433 204.557 79.0633 204.317 78.2766 203.837C77.49 203.357 76.87 202.684 76.4166 201.817C75.9633 200.95 75.7366 199.964 75.7366 198.857ZM85.0166 198.877C85.0166 198.05 84.85 197.33 84.5166 196.717C84.1833 196.104 83.73 195.637 83.1566 195.317C82.5966 194.984 81.9766 194.817 81.2966 194.817C80.6166 194.817 79.9966 194.977 79.4366 195.297C78.8766 195.617 78.43 196.084 78.0966 196.697C77.7633 197.31 77.5966 198.03 77.5966 198.857C77.5966 199.697 77.7633 200.43 78.0966 201.057C78.43 201.67 78.8766 202.144 79.4366 202.477C79.9966 202.797 80.6166 202.957 81.2966 202.957C81.9766 202.957 82.5966 202.797 83.1566 202.477C83.73 202.144 84.1833 201.67 84.5166 201.057C84.85 200.43 85.0166 199.704 85.0166 198.877ZM92.1522 194.917V201.377C92.1522 201.91 92.2656 202.29 92.4922 202.517C92.7189 202.73 93.1122 202.837 93.6722 202.837H95.0122V204.377H93.3722C92.3589 204.377 91.5989 204.144 91.0922 203.677C90.5856 203.21 90.3322 202.444 90.3322 201.377V194.917H88.9122V193.417H90.3322V190.657H92.1522V193.417H95.0122V194.917H92.1522ZM98.1574 191.637C97.8107 191.637 97.5174 191.517 97.2774 191.277C97.0374 191.037 96.9174 190.744 96.9174 190.397C96.9174 190.05 97.0374 189.757 97.2774 189.517C97.5174 189.277 97.8107 189.157 98.1574 189.157C98.4907 189.157 98.7707 189.277 98.9974 189.517C99.2374 189.757 99.3574 190.05 99.3574 190.397C99.3574 190.744 99.2374 191.037 98.9974 191.277C98.7707 191.517 98.4907 191.637 98.1574 191.637ZM99.0374 193.417V204.377H97.2174V193.417H99.0374ZM106.919 204.557C105.893 204.557 104.959 204.324 104.119 203.857C103.293 203.39 102.639 202.73 102.159 201.877C101.693 201.01 101.459 200.01 101.459 198.877C101.459 197.757 101.699 196.77 102.179 195.917C102.673 195.05 103.339 194.39 104.179 193.937C105.019 193.47 105.959 193.237 106.999 193.237C108.039 193.237 108.979 193.47 109.819 193.937C110.659 194.39 111.319 195.044 111.799 195.897C112.293 196.75 112.539 197.744 112.539 198.877C112.539 200.01 112.286 201.01 111.779 201.877C111.286 202.73 110.613 203.39 109.759 203.857C108.906 204.324 107.959 204.557 106.919 204.557ZM106.919 202.957C107.573 202.957 108.186 202.804 108.759 202.497C109.333 202.19 109.793 201.73 110.139 201.117C110.499 200.504 110.679 199.757 110.679 198.877C110.679 197.997 110.506 197.25 110.159 196.637C109.813 196.024 109.359 195.57 108.799 195.277C108.239 194.97 107.633 194.817 106.979 194.817C106.313 194.817 105.699 194.97 105.139 195.277C104.593 195.57 104.153 196.024 103.819 196.637C103.486 197.25 103.319 197.997 103.319 198.877C103.319 199.77 103.479 200.524 103.799 201.137C104.133 201.75 104.573 202.21 105.119 202.517C105.666 202.81 106.266 202.957 106.919 202.957ZM120.272 193.217C121.606 193.217 122.686 193.624 123.512 194.437C124.339 195.237 124.752 196.397 124.752 197.917V204.377H122.952V198.177C122.952 197.084 122.679 196.25 122.132 195.677C121.586 195.09 120.839 194.797 119.892 194.797C118.932 194.797 118.166 195.097 117.592 195.697C117.032 196.297 116.752 197.17 116.752 198.317V204.377H114.932V193.417H116.752V194.977C117.112 194.417 117.599 193.984 118.212 193.677C118.839 193.37 119.526 193.217 120.272 193.217ZM127.045 198.857C127.045 197.737 127.272 196.757 127.725 195.917C128.179 195.064 128.799 194.404 129.585 193.937C130.385 193.47 131.272 193.237 132.245 193.237C133.205 193.237 134.039 193.444 134.745 193.857C135.452 194.27 135.979 194.79 136.325 195.417V193.417H138.165V204.377H136.325V202.337C135.965 202.977 135.425 203.51 134.705 203.937C133.999 204.35 133.172 204.557 132.225 204.557C131.252 204.557 130.372 204.317 129.585 203.837C128.799 203.357 128.179 202.684 127.725 201.817C127.272 200.95 127.045 199.964 127.045 198.857ZM136.325 198.877C136.325 198.05 136.159 197.33 135.825 196.717C135.492 196.104 135.039 195.637 134.465 195.317C133.905 194.984 133.285 194.817 132.605 194.817C131.925 194.817 131.305 194.977 130.745 195.297C130.185 195.617 129.739 196.084 129.405 196.697C129.072 197.31 128.905 198.03 128.905 198.857C128.905 199.697 129.072 200.43 129.405 201.057C129.739 201.67 130.185 202.144 130.745 202.477C131.305 202.797 131.925 202.957 132.605 202.957C133.285 202.957 133.905 202.797 134.465 202.477C135.039 202.144 135.492 201.67 135.825 201.057C136.159 200.43 136.325 199.704 136.325 198.877ZM143.061 189.577V204.377H141.241V189.577H143.061ZM150.815 198.857C150.815 197.737 151.041 196.757 151.495 195.917C151.948 195.064 152.568 194.404 153.355 193.937C154.155 193.47 155.041 193.237 156.015 193.237C156.975 193.237 157.808 193.444 158.515 193.857C159.221 194.27 159.748 194.79 160.095 195.417V193.417H161.935V204.377H160.095V202.337C159.735 202.977 159.195 203.51 158.475 203.937C157.768 204.35 156.941 204.557 155.995 204.557C155.021 204.557 154.141 204.317 153.355 203.837C152.568 203.357 151.948 202.684 151.495 201.817C151.041 200.95 150.815 199.964 150.815 198.857ZM160.095 198.877C160.095 198.05 159.928 197.33 159.595 196.717C159.261 196.104 158.808 195.637 158.235 195.317C157.675 194.984 157.055 194.817 156.375 194.817C155.695 194.817 155.075 194.977 154.515 195.297C153.955 195.617 153.508 196.084 153.175 196.697C152.841 197.31 152.675 198.03 152.675 198.857C152.675 199.697 152.841 200.43 153.175 201.057C153.508 201.67 153.955 202.144 154.515 202.477C155.075 202.797 155.695 202.957 156.375 202.957C157.055 202.957 157.675 202.797 158.235 202.477C158.808 202.144 159.261 201.67 159.595 201.057C159.928 200.43 160.095 199.704 160.095 198.877ZM170.35 193.217C171.684 193.217 172.764 193.624 173.59 194.437C174.417 195.237 174.83 196.397 174.83 197.917V204.377H173.03V198.177C173.03 197.084 172.757 196.25 172.21 195.677C171.664 195.09 170.917 194.797 169.97 194.797C169.01 194.797 168.244 195.097 167.67 195.697C167.11 196.297 166.83 197.17 166.83 198.317V204.377H165.01V193.417H166.83V194.977C167.19 194.417 167.677 193.984 168.29 193.677C168.917 193.37 169.604 193.217 170.35 193.217ZM177.123 198.857C177.123 197.737 177.35 196.757 177.803 195.917C178.257 195.064 178.877 194.404 179.663 193.937C180.463 193.47 181.357 193.237 182.343 193.237C183.197 193.237 183.99 193.437 184.723 193.837C185.457 194.224 186.017 194.737 186.403 195.377V189.577H188.243V204.377H186.403V202.317C186.043 202.97 185.51 203.51 184.803 203.937C184.097 204.35 183.27 204.557 182.323 204.557C181.35 204.557 180.463 204.317 179.663 203.837C178.877 203.357 178.257 202.684 177.803 201.817C177.35 200.95 177.123 199.964 177.123 198.857ZM186.403 198.877C186.403 198.05 186.237 197.33 185.903 196.717C185.57 196.104 185.117 195.637 184.543 195.317C183.983 194.984 183.363 194.817 182.683 194.817C182.003 194.817 181.383 194.977 180.823 195.297C180.263 195.617 179.817 196.084 179.483 196.697C179.15 197.31 178.983 198.03 178.983 198.857C178.983 199.697 179.15 200.43 179.483 201.057C179.817 201.67 180.263 202.144 180.823 202.477C181.383 202.797 182.003 202.957 182.683 202.957C183.363 202.957 183.983 202.797 184.543 202.477C185.117 202.144 185.57 201.67 185.903 201.057C186.237 200.43 186.403 199.704 186.403 198.877ZM197.591 191.637C197.244 191.637 196.951 191.517 196.711 191.277C196.471 191.037 196.351 190.744 196.351 190.397C196.351 190.05 196.471 189.757 196.711 189.517C196.951 189.277 197.244 189.157 197.591 189.157C197.924 189.157 198.204 189.277 198.431 189.517C198.671 189.757 198.791 190.05 198.791 190.397C198.791 190.744 198.671 191.037 198.431 191.277C198.204 191.517 197.924 191.637 197.591 191.637ZM198.471 193.417V204.377H196.651V193.417H198.471ZM206.913 193.217C208.246 193.217 209.326 193.624 210.153 194.437C210.98 195.237 211.393 196.397 211.393 197.917V204.377H209.593V198.177C209.593 197.084 209.32 196.25 208.773 195.677C208.226 195.09 207.48 194.797 206.533 194.797C205.573 194.797 204.806 195.097 204.233 195.697C203.673 196.297 203.393 197.17 203.393 198.317V204.377H201.573V193.417H203.393V194.977C203.753 194.417 204.24 193.984 204.853 193.677C205.48 193.37 206.166 193.217 206.913 193.217ZM216.586 194.917V201.377C216.586 201.91 216.699 202.29 216.926 202.517C217.153 202.73 217.546 202.837 218.106 202.837H219.446V204.377H217.806C216.793 204.377 216.033 204.144 215.526 203.677C215.019 203.21 214.766 202.444 214.766 201.377V194.917H213.346V193.417H214.766V190.657H216.586V193.417H219.446V194.917H216.586ZM231.651 198.477C231.651 198.824 231.631 199.19 231.591 199.577H222.831C222.898 200.657 223.264 201.504 223.931 202.117C224.611 202.717 225.431 203.017 226.391 203.017C227.178 203.017 227.831 202.837 228.351 202.477C228.884 202.104 229.258 201.61 229.471 200.997H231.431C231.138 202.05 230.551 202.91 229.671 203.577C228.791 204.23 227.698 204.557 226.391 204.557C225.351 204.557 224.418 204.324 223.591 203.857C222.778 203.39 222.138 202.73 221.671 201.877C221.204 201.01 220.971 200.01 220.971 198.877C220.971 197.744 221.198 196.75 221.651 195.897C222.104 195.044 222.738 194.39 223.551 193.937C224.378 193.47 225.324 193.237 226.391 193.237C227.431 193.237 228.351 193.464 229.151 193.917C229.951 194.37 230.564 194.997 230.991 195.797C231.431 196.584 231.651 197.477 231.651 198.477ZM229.771 198.097C229.771 197.404 229.618 196.81 229.311 196.317C229.004 195.81 228.584 195.43 228.051 195.177C227.531 194.91 226.951 194.777 226.311 194.777C225.391 194.777 224.604 195.07 223.951 195.657C223.311 196.244 222.944 197.057 222.851 198.097H229.771ZM235.873 195.197C236.193 194.57 236.647 194.084 237.233 193.737C237.833 193.39 238.56 193.217 239.413 193.217V195.097H238.933C236.893 195.097 235.873 196.204 235.873 198.417V204.377H234.053V193.417H235.873V195.197ZM246.854 193.217C248.188 193.217 249.268 193.624 250.094 194.437C250.921 195.237 251.334 196.397 251.334 197.917V204.377H249.534V198.177C249.534 197.084 249.261 196.25 248.714 195.677C248.168 195.09 247.421 194.797 246.474 194.797C245.514 194.797 244.748 195.097 244.174 195.697C243.614 196.297 243.334 197.17 243.334 198.317V204.377H241.514V193.417H243.334V194.977C243.694 194.417 244.181 193.984 244.794 193.677C245.421 193.37 246.108 193.217 246.854 193.217ZM253.627 198.857C253.627 197.737 253.854 196.757 254.307 195.917C254.761 195.064 255.381 194.404 256.167 193.937C256.967 193.47 257.854 193.237 258.827 193.237C259.787 193.237 260.621 193.444 261.327 193.857C262.034 194.27 262.561 194.79 262.907 195.417V193.417H264.747V204.377H262.907V202.337C262.547 202.977 262.007 203.51 261.287 203.937C260.581 204.35 259.754 204.557 258.807 204.557C257.834 204.557 256.954 204.317 256.167 203.837C255.381 203.357 254.761 202.684 254.307 201.817C253.854 200.95 253.627 199.964 253.627 198.857ZM262.907 198.877C262.907 198.05 262.741 197.33 262.407 196.717C262.074 196.104 261.621 195.637 261.047 195.317C260.487 194.984 259.867 194.817 259.187 194.817C258.507 194.817 257.887 194.977 257.327 195.297C256.767 195.617 256.321 196.084 255.987 196.697C255.654 197.31 255.487 198.03 255.487 198.857C255.487 199.697 255.654 200.43 255.987 201.057C256.321 201.67 256.767 202.144 257.327 202.477C257.887 202.797 258.507 202.957 259.187 202.957C259.867 202.957 260.487 202.797 261.047 202.477C261.621 202.144 262.074 201.67 262.407 201.057C262.741 200.43 262.907 199.704 262.907 198.877ZM270.043 194.917V201.377C270.043 201.91 270.156 202.29 270.383 202.517C270.61 202.73 271.003 202.837 271.563 202.837H272.903V204.377H271.263C270.25 204.377 269.49 204.144 268.983 203.677C268.476 203.21 268.223 202.444 268.223 201.377V194.917H266.803V193.417H268.223V190.657H270.043V193.417H272.903V194.917H270.043ZM276.048 191.637C275.701 191.637 275.408 191.517 275.168 191.277C274.928 191.037 274.808 190.744 274.808 190.397C274.808 190.05 274.928 189.757 275.168 189.517C275.408 189.277 275.701 189.157 276.048 189.157C276.381 189.157 276.661 189.277 276.888 189.517C277.128 189.757 277.248 190.05 277.248 190.397C277.248 190.744 277.128 191.037 276.888 191.277C276.661 191.517 276.381 191.637 276.048 191.637ZM276.928 193.417V204.377H275.108V193.417H276.928ZM284.81 204.557C283.783 204.557 282.85 204.324 282.01 203.857C281.183 203.39 280.53 202.73 280.05 201.877C279.583 201.01 279.35 200.01 279.35 198.877C279.35 197.757 279.59 196.77 280.07 195.917C280.563 195.05 281.23 194.39 282.07 193.937C282.91 193.47 283.85 193.237 284.89 193.237C285.93 193.237 286.87 193.47 287.71 193.937C288.55 194.39 289.21 195.044 289.69 195.897C290.183 196.75 290.43 197.744 290.43 198.877C290.43 200.01 290.177 201.01 289.67 201.877C289.177 202.73 288.503 203.39 287.65 203.857C286.797 204.324 285.85 204.557 284.81 204.557ZM284.81 202.957C285.463 202.957 286.077 202.804 286.65 202.497C287.223 202.19 287.683 201.73 288.03 201.117C288.39 200.504 288.57 199.757 288.57 198.877C288.57 197.997 288.397 197.25 288.05 196.637C287.703 196.024 287.25 195.57 286.69 195.277C286.13 194.97 285.523 194.817 284.87 194.817C284.203 194.817 283.59 194.97 283.03 195.277C282.483 195.57 282.043 196.024 281.71 196.637C281.377 197.25 281.21 197.997 281.21 198.877C281.21 199.77 281.37 200.524 281.69 201.137C282.023 201.75 282.463 202.21 283.01 202.517C283.557 202.81 284.157 202.957 284.81 202.957ZM298.163 193.217C299.496 193.217 300.576 193.624 301.403 194.437C302.23 195.237 302.643 196.397 302.643 197.917V204.377H300.843V198.177C300.843 197.084 300.57 196.25 300.023 195.677C299.476 195.09 298.73 194.797 297.783 194.797C296.823 194.797 296.056 195.097 295.483 195.697C294.923 196.297 294.643 197.17 294.643 198.317V204.377H292.823V193.417H294.643V194.977C295.003 194.417 295.49 193.984 296.103 193.677C296.73 193.37 297.416 193.217 298.163 193.217ZM304.936 198.857C304.936 197.737 305.163 196.757 305.616 195.917C306.069 195.064 306.689 194.404 307.476 193.937C308.276 193.47 309.163 193.237 310.136 193.237C311.096 193.237 311.929 193.444 312.636 193.857C313.343 194.27 313.869 194.79 314.216 195.417V193.417H316.056V204.377H314.216V202.337C313.856 202.977 313.316 203.51 312.596 203.937C311.889 204.35 311.063 204.557 310.116 204.557C309.143 204.557 308.263 204.317 307.476 203.837C306.689 203.357 306.069 202.684 305.616 201.817C305.163 200.95 304.936 199.964 304.936 198.857ZM314.216 198.877C314.216 198.05 314.049 197.33 313.716 196.717C313.383 196.104 312.929 195.637 312.356 195.317C311.796 194.984 311.176 194.817 310.496 194.817C309.816 194.817 309.196 194.977 308.636 195.297C308.076 195.617 307.629 196.084 307.296 196.697C306.963 197.31 306.796 198.03 306.796 198.857C306.796 199.697 306.963 200.43 307.296 201.057C307.629 201.67 308.076 202.144 308.636 202.477C309.196 202.797 309.816 202.957 310.496 202.957C311.176 202.957 311.796 202.797 312.356 202.477C312.929 202.144 313.383 201.67 313.716 201.057C314.049 200.43 314.216 199.704 314.216 198.877ZM320.951 189.577V204.377H319.131V189.577H320.951ZM110.765 234.557C109.925 234.557 109.172 234.417 108.505 234.137C107.839 233.844 107.312 233.444 106.925 232.937C106.539 232.417 106.325 231.824 106.285 231.157H108.165C108.219 231.704 108.472 232.15 108.925 232.497C109.392 232.844 109.999 233.017 110.745 233.017C111.439 233.017 111.985 232.864 112.385 232.557C112.785 232.25 112.985 231.864 112.985 231.397C112.985 230.917 112.772 230.564 112.345 230.337C111.919 230.097 111.259 229.864 110.365 229.637C109.552 229.424 108.885 229.21 108.365 228.997C107.859 228.77 107.419 228.444 107.045 228.017C106.685 227.577 106.505 227.004 106.505 226.297C106.505 225.737 106.672 225.224 107.005 224.757C107.339 224.29 107.812 223.924 108.425 223.657C109.039 223.377 109.739 223.237 110.525 223.237C111.739 223.237 112.719 223.544 113.465 224.157C114.212 224.77 114.612 225.61 114.665 226.677H112.845C112.805 226.104 112.572 225.644 112.145 225.297C111.732 224.95 111.172 224.777 110.465 224.777C109.812 224.777 109.292 224.917 108.905 225.197C108.519 225.477 108.325 225.844 108.325 226.297C108.325 226.657 108.439 226.957 108.665 227.197C108.905 227.424 109.199 227.61 109.545 227.757C109.905 227.89 110.399 228.044 111.025 228.217C111.812 228.43 112.452 228.644 112.945 228.857C113.439 229.057 113.859 229.364 114.205 229.777C114.565 230.19 114.752 230.73 114.765 231.397C114.765 231.997 114.599 232.537 114.265 233.017C113.932 233.497 113.459 233.877 112.845 234.157C112.245 234.424 111.552 234.557 110.765 234.557ZM119.555 224.917V231.377C119.555 231.91 119.668 232.29 119.895 232.517C120.121 232.73 120.515 232.837 121.075 232.837H122.415V234.377H120.775C119.761 234.377 119.001 234.144 118.495 233.677C117.988 233.21 117.735 232.444 117.735 231.377V224.917H116.315V223.417H117.735V220.657H119.555V223.417H122.415V224.917H119.555ZM123.94 228.857C123.94 227.737 124.166 226.757 124.62 225.917C125.073 225.064 125.693 224.404 126.48 223.937C127.28 223.47 128.166 223.237 129.14 223.237C130.1 223.237 130.933 223.444 131.64 223.857C132.346 224.27 132.873 224.79 133.22 225.417V223.417H135.06V234.377H133.22V232.337C132.86 232.977 132.32 233.51 131.6 233.937C130.893 234.35 130.066 234.557 129.12 234.557C128.146 234.557 127.266 234.317 126.48 233.837C125.693 233.357 125.073 232.684 124.62 231.817C124.166 230.95 123.94 229.964 123.94 228.857ZM133.22 228.877C133.22 228.05 133.053 227.33 132.72 226.717C132.386 226.104 131.933 225.637 131.36 225.317C130.8 224.984 130.18 224.817 129.5 224.817C128.82 224.817 128.2 224.977 127.64 225.297C127.08 225.617 126.633 226.084 126.3 226.697C125.966 227.31 125.8 228.03 125.8 228.857C125.8 229.697 125.966 230.43 126.3 231.057C126.633 231.67 127.08 232.144 127.64 232.477C128.2 232.797 128.82 232.957 129.5 232.957C130.18 232.957 130.8 232.797 131.36 232.477C131.933 232.144 132.386 231.67 132.72 231.057C133.053 230.43 133.22 229.704 133.22 228.877ZM143.475 223.217C144.809 223.217 145.889 223.624 146.715 224.437C147.542 225.237 147.955 226.397 147.955 227.917V234.377H146.155V228.177C146.155 227.084 145.882 226.25 145.335 225.677C144.789 225.09 144.042 224.797 143.095 224.797C142.135 224.797 141.369 225.097 140.795 225.697C140.235 226.297 139.955 227.17 139.955 228.317V234.377H138.135V223.417H139.955V224.977C140.315 224.417 140.802 223.984 141.415 223.677C142.042 223.37 142.729 223.217 143.475 223.217ZM150.248 228.857C150.248 227.737 150.475 226.757 150.928 225.917C151.382 225.064 152.002 224.404 152.788 223.937C153.588 223.47 154.482 223.237 155.468 223.237C156.322 223.237 157.115 223.437 157.848 223.837C158.582 224.224 159.142 224.737 159.528 225.377V219.577H161.368V234.377H159.528V232.317C159.168 232.97 158.635 233.51 157.928 233.937C157.222 234.35 156.395 234.557 155.448 234.557C154.475 234.557 153.588 234.317 152.788 233.837C152.002 233.357 151.382 232.684 150.928 231.817C150.475 230.95 150.248 229.964 150.248 228.857ZM159.528 228.877C159.528 228.05 159.362 227.33 159.028 226.717C158.695 226.104 158.242 225.637 157.668 225.317C157.108 224.984 156.488 224.817 155.808 224.817C155.128 224.817 154.508 224.977 153.948 225.297C153.388 225.617 152.942 226.084 152.608 226.697C152.275 227.31 152.108 228.03 152.108 228.857C152.108 229.697 152.275 230.43 152.608 231.057C152.942 231.67 153.388 232.144 153.948 232.477C154.508 232.797 155.128 232.957 155.808 232.957C156.488 232.957 157.108 232.797 157.668 232.477C158.242 232.144 158.695 231.67 159.028 231.057C159.362 230.43 159.528 229.704 159.528 228.877ZM163.764 228.857C163.764 227.737 163.991 226.757 164.444 225.917C164.897 225.064 165.517 224.404 166.304 223.937C167.104 223.47 167.991 223.237 168.964 223.237C169.924 223.237 170.757 223.444 171.464 223.857C172.171 224.27 172.697 224.79 173.044 225.417V223.417H174.884V234.377H173.044V232.337C172.684 232.977 172.144 233.51 171.424 233.937C170.717 234.35 169.891 234.557 168.944 234.557C167.971 234.557 167.091 234.317 166.304 233.837C165.517 233.357 164.897 232.684 164.444 231.817C163.991 230.95 163.764 229.964 163.764 228.857ZM173.044 228.877C173.044 228.05 172.877 227.33 172.544 226.717C172.211 226.104 171.757 225.637 171.184 225.317C170.624 224.984 170.004 224.817 169.324 224.817C168.644 224.817 168.024 224.977 167.464 225.297C166.904 225.617 166.457 226.084 166.124 226.697C165.791 227.31 165.624 228.03 165.624 228.857C165.624 229.697 165.791 230.43 166.124 231.057C166.457 231.67 166.904 232.144 167.464 232.477C168.024 232.797 168.644 232.957 169.324 232.957C170.004 232.957 170.624 232.797 171.184 232.477C171.757 232.144 172.211 231.67 172.544 231.057C172.877 230.43 173.044 229.704 173.044 228.877ZM179.78 225.197C180.1 224.57 180.553 224.084 181.14 223.737C181.74 223.39 182.466 223.217 183.32 223.217V225.097H182.84C180.8 225.097 179.78 226.204 179.78 228.417V234.377H177.96V223.417H179.78V225.197ZM184.741 228.857C184.741 227.737 184.967 226.757 185.421 225.917C185.874 225.064 186.494 224.404 187.281 223.937C188.081 223.47 188.974 223.237 189.961 223.237C190.814 223.237 191.607 223.437 192.341 223.837C193.074 224.224 193.634 224.737 194.021 225.377V219.577H195.861V234.377H194.021V232.317C193.661 232.97 193.127 233.51 192.421 233.937C191.714 234.35 190.887 234.557 189.941 234.557C188.967 234.557 188.081 234.317 187.281 233.837C186.494 233.357 185.874 232.684 185.421 231.817C184.967 230.95 184.741 229.964 184.741 228.857ZM194.021 228.877C194.021 228.05 193.854 227.33 193.521 226.717C193.187 226.104 192.734 225.637 192.161 225.317C191.601 224.984 190.981 224.817 190.301 224.817C189.621 224.817 189.001 224.977 188.441 225.297C187.881 225.617 187.434 226.084 187.101 226.697C186.767 227.31 186.601 228.03 186.601 228.857C186.601 229.697 186.767 230.43 187.101 231.057C187.434 231.67 187.881 232.144 188.441 232.477C189.001 232.797 189.621 232.957 190.301 232.957C190.981 232.957 191.601 232.797 192.161 232.477C192.734 232.144 193.187 231.67 193.521 231.057C193.854 230.43 194.021 229.704 194.021 228.877ZM208.148 234.557C207.308 234.557 206.555 234.417 205.888 234.137C205.222 233.844 204.695 233.444 204.308 232.937C203.922 232.417 203.708 231.824 203.668 231.157H205.548C205.602 231.704 205.855 232.15 206.308 232.497C206.775 232.844 207.382 233.017 208.128 233.017C208.822 233.017 209.368 232.864 209.768 232.557C210.168 232.25 210.368 231.864 210.368 231.397C210.368 230.917 210.155 230.564 209.728 230.337C209.302 230.097 208.642 229.864 207.748 229.637C206.935 229.424 206.268 229.21 205.748 228.997C205.242 228.77 204.802 228.444 204.428 228.017C204.068 227.577 203.888 227.004 203.888 226.297C203.888 225.737 204.055 225.224 204.388 224.757C204.722 224.29 205.195 223.924 205.808 223.657C206.422 223.377 207.122 223.237 207.908 223.237C209.122 223.237 210.102 223.544 210.848 224.157C211.595 224.77 211.995 225.61 212.048 226.677H210.228C210.188 226.104 209.955 225.644 209.528 225.297C209.115 224.95 208.555 224.777 207.848 224.777C207.195 224.777 206.675 224.917 206.288 225.197C205.902 225.477 205.708 225.844 205.708 226.297C205.708 226.657 205.822 226.957 206.048 227.197C206.288 227.424 206.582 227.61 206.928 227.757C207.288 227.89 207.782 228.044 208.408 228.217C209.195 228.43 209.835 228.644 210.328 228.857C210.822 229.057 211.242 229.364 211.588 229.777C211.948 230.19 212.135 230.73 212.148 231.397C212.148 231.997 211.982 232.537 211.648 233.017C211.315 233.497 210.842 233.877 210.228 234.157C209.628 234.424 208.935 234.557 208.148 234.557ZM216.937 224.917V231.377C216.937 231.91 217.051 232.29 217.277 232.517C217.504 232.73 217.897 232.837 218.457 232.837H219.797V234.377H218.157C217.144 234.377 216.384 234.144 215.877 233.677C215.371 233.21 215.117 232.444 215.117 231.377V224.917H213.697V223.417H215.117V220.657H216.937V223.417H219.797V224.917H216.937ZM231.723 223.417V234.377H229.903V232.757C229.556 233.317 229.069 233.757 228.443 234.077C227.829 234.384 227.149 234.537 226.403 234.537C225.549 234.537 224.783 234.364 224.103 234.017C223.423 233.657 222.883 233.124 222.483 232.417C222.096 231.71 221.903 230.85 221.903 229.837V223.417H223.703V229.597C223.703 230.677 223.976 231.51 224.523 232.097C225.069 232.67 225.816 232.957 226.763 232.957C227.736 232.957 228.503 232.657 229.063 232.057C229.623 231.457 229.903 230.584 229.903 229.437V223.417H231.723ZM234.116 228.857C234.116 227.737 234.342 226.757 234.796 225.917C235.249 225.064 235.869 224.404 236.656 223.937C237.456 223.47 238.349 223.237 239.336 223.237C240.189 223.237 240.982 223.437 241.716 223.837C242.449 224.224 243.009 224.737 243.396 225.377V219.577H245.236V234.377H243.396V232.317C243.036 232.97 242.502 233.51 241.796 233.937C241.089 234.35 240.262 234.557 239.316 234.557C238.342 234.557 237.456 234.317 236.656 233.837C235.869 233.357 235.249 232.684 234.796 231.817C234.342 230.95 234.116 229.964 234.116 228.857ZM243.396 228.877C243.396 228.05 243.229 227.33 242.896 226.717C242.562 226.104 242.109 225.637 241.536 225.317C240.976 224.984 240.356 224.817 239.676 224.817C238.996 224.817 238.376 224.977 237.816 225.297C237.256 225.617 236.809 226.084 236.476 226.697C236.142 227.31 235.976 228.03 235.976 228.857C235.976 229.697 236.142 230.43 236.476 231.057C236.809 231.67 237.256 232.144 237.816 232.477C238.376 232.797 238.996 232.957 239.676 232.957C240.356 232.957 240.976 232.797 241.536 232.477C242.109 232.144 242.562 231.67 242.896 231.057C243.229 230.43 243.396 229.704 243.396 228.877ZM258.311 228.477C258.311 228.824 258.291 229.19 258.251 229.577H249.491C249.558 230.657 249.924 231.504 250.591 232.117C251.271 232.717 252.091 233.017 253.051 233.017C253.838 233.017 254.491 232.837 255.011 232.477C255.544 232.104 255.918 231.61 256.131 230.997H258.091C257.798 232.05 257.211 232.91 256.331 233.577C255.451 234.23 254.358 234.557 253.051 234.557C252.011 234.557 251.078 234.324 250.251 233.857C249.438 233.39 248.798 232.73 248.331 231.877C247.864 231.01 247.631 230.01 247.631 228.877C247.631 227.744 247.858 226.75 248.311 225.897C248.764 225.044 249.398 224.39 250.211 223.937C251.038 223.47 251.984 223.237 253.051 223.237C254.091 223.237 255.011 223.464 255.811 223.917C256.611 224.37 257.224 224.997 257.651 225.797C258.091 226.584 258.311 227.477 258.311 228.477ZM256.431 228.097C256.431 227.404 256.278 226.81 255.971 226.317C255.664 225.81 255.244 225.43 254.711 225.177C254.191 224.91 253.611 224.777 252.971 224.777C252.051 224.777 251.264 225.07 250.611 225.657C249.971 226.244 249.604 227.057 249.511 228.097H256.431ZM266.053 223.217C267.387 223.217 268.467 223.624 269.293 224.437C270.12 225.237 270.533 226.397 270.533 227.917V234.377H268.733V228.177C268.733 227.084 268.46 226.25 267.913 225.677C267.367 225.09 266.62 224.797 265.673 224.797C264.713 224.797 263.947 225.097 263.373 225.697C262.813 226.297 262.533 227.17 262.533 228.317V234.377H260.713V223.417H262.533V224.977C262.893 224.417 263.38 223.984 263.993 223.677C264.62 223.37 265.307 223.217 266.053 223.217ZM275.726 224.917V231.377C275.726 231.91 275.84 232.29 276.066 232.517C276.293 232.73 276.686 232.837 277.246 232.837H278.586V234.377H276.946C275.933 234.377 275.173 234.144 274.666 233.677C274.16 233.21 273.906 232.444 273.906 231.377V224.917H272.486V223.417H273.906V220.657H275.726V223.417H278.586V224.917H275.726ZM61.0784 258.877C61.0784 257.744 61.3051 256.757 61.7584 255.917C62.2117 255.064 62.8384 254.404 63.6384 253.937C64.4517 253.47 65.3784 253.237 66.4184 253.237C67.7651 253.237 68.8717 253.564 69.7384 254.217C70.6184 254.87 71.1984 255.777 71.4784 256.937H69.5184C69.3317 256.27 68.9651 255.744 68.4184 255.357C67.8851 254.97 67.2184 254.777 66.4184 254.777C65.3784 254.777 64.5384 255.137 63.8984 255.857C63.2584 256.564 62.9384 257.57 62.9384 258.877C62.9384 260.197 63.2584 261.217 63.8984 261.937C64.5384 262.657 65.3784 263.017 66.4184 263.017C67.2184 263.017 67.8851 262.83 68.4184 262.457C68.9517 262.084 69.3184 261.55 69.5184 260.857H71.4784C71.1851 261.977 70.5984 262.877 69.7184 263.557C68.8384 264.224 67.7384 264.557 66.4184 264.557C65.3784 264.557 64.4517 264.324 63.6384 263.857C62.8384 263.39 62.2117 262.73 61.7584 261.877C61.3051 261.024 61.0784 260.024 61.0784 258.877ZM78.6869 264.557C77.6602 264.557 76.7269 264.324 75.8869 263.857C75.0602 263.39 74.4069 262.73 73.9269 261.877C73.4602 261.01 73.2269 260.01 73.2269 258.877C73.2269 257.757 73.4669 256.77 73.9469 255.917C74.4402 255.05 75.1069 254.39 75.9469 253.937C76.7869 253.47 77.7269 253.237 78.7669 253.237C79.8069 253.237 80.7469 253.47 81.5869 253.937C82.4269 254.39 83.0869 255.044 83.5669 255.897C84.0602 256.75 84.3069 257.744 84.3069 258.877C84.3069 260.01 84.0535 261.01 83.5469 261.877C83.0535 262.73 82.3802 263.39 81.5269 263.857C80.6735 264.324 79.7269 264.557 78.6869 264.557ZM78.6869 262.957C79.3402 262.957 79.9535 262.804 80.5269 262.497C81.1002 262.19 81.5602 261.73 81.9069 261.117C82.2669 260.504 82.4469 259.757 82.4469 258.877C82.4469 257.997 82.2735 257.25 81.9269 256.637C81.5802 256.024 81.1269 255.57 80.5669 255.277C80.0069 254.97 79.4002 254.817 78.7469 254.817C78.0802 254.817 77.4669 254.97 76.9069 255.277C76.3602 255.57 75.9202 256.024 75.5869 256.637C75.2535 257.25 75.0869 257.997 75.0869 258.877C75.0869 259.77 75.2469 260.524 75.5669 261.137C75.9002 261.75 76.3402 262.21 76.8869 262.517C77.4335 262.81 78.0335 262.957 78.6869 262.957ZM99.8798 253.217C100.733 253.217 101.493 253.397 102.16 253.757C102.826 254.104 103.353 254.63 103.74 255.337C104.126 256.044 104.32 256.904 104.32 257.917V264.377H102.52V258.177C102.52 257.084 102.246 256.25 101.7 255.677C101.166 255.09 100.44 254.797 99.5198 254.797C98.5732 254.797 97.8198 255.104 97.2598 255.717C96.6998 256.317 96.4198 257.19 96.4198 258.337V264.377H94.6198V258.177C94.6198 257.084 94.3465 256.25 93.7998 255.677C93.2665 255.09 92.5398 254.797 91.6198 254.797C90.6732 254.797 89.9198 255.104 89.3598 255.717C88.7998 256.317 88.5198 257.19 88.5198 258.337V264.377H86.6998V253.417H88.5198V254.997C88.8798 254.424 89.3598 253.984 89.9598 253.677C90.5732 253.37 91.2465 253.217 91.9798 253.217C92.8998 253.217 93.7132 253.424 94.4198 253.837C95.1265 254.25 95.6532 254.857 95.9998 255.657C96.3065 254.884 96.8132 254.284 97.5198 253.857C98.2265 253.43 99.0132 253.217 99.8798 253.217ZM109.125 255.437C109.485 254.81 110.019 254.29 110.725 253.877C111.445 253.45 112.279 253.237 113.225 253.237C114.199 253.237 115.079 253.47 115.865 253.937C116.665 254.404 117.292 255.064 117.745 255.917C118.199 256.757 118.425 257.737 118.425 258.857C118.425 259.964 118.199 260.95 117.745 261.817C117.292 262.684 116.665 263.357 115.865 263.837C115.079 264.317 114.199 264.557 113.225 264.557C112.292 264.557 111.465 264.35 110.745 263.937C110.039 263.51 109.499 262.984 109.125 262.357V269.577H107.305V253.417H109.125V255.437ZM116.565 258.857C116.565 258.03 116.399 257.31 116.065 256.697C115.732 256.084 115.279 255.617 114.705 255.297C114.145 254.977 113.525 254.817 112.845 254.817C112.179 254.817 111.559 254.984 110.985 255.317C110.425 255.637 109.972 256.11 109.625 256.737C109.292 257.35 109.125 258.064 109.125 258.877C109.125 259.704 109.292 260.43 109.625 261.057C109.972 261.67 110.425 262.144 110.985 262.477C111.559 262.797 112.179 262.957 112.845 262.957C113.525 262.957 114.145 262.797 114.705 262.477C115.279 262.144 115.732 261.67 116.065 261.057C116.399 260.43 116.565 259.697 116.565 258.857ZM130.821 258.477C130.821 258.824 130.801 259.19 130.761 259.577H122.001C122.068 260.657 122.434 261.504 123.101 262.117C123.781 262.717 124.601 263.017 125.561 263.017C126.348 263.017 127.001 262.837 127.521 262.477C128.054 262.104 128.428 261.61 128.641 260.997H130.601C130.308 262.05 129.721 262.91 128.841 263.577C127.961 264.23 126.868 264.557 125.561 264.557C124.521 264.557 123.588 264.324 122.761 263.857C121.948 263.39 121.308 262.73 120.841 261.877C120.374 261.01 120.141 260.01 120.141 258.877C120.141 257.744 120.368 256.75 120.821 255.897C121.274 255.044 121.908 254.39 122.721 253.937C123.548 253.47 124.494 253.237 125.561 253.237C126.601 253.237 127.521 253.464 128.321 253.917C129.121 254.37 129.734 254.997 130.161 255.797C130.601 256.584 130.821 257.477 130.821 258.477ZM128.941 258.097C128.941 257.404 128.788 256.81 128.481 256.317C128.174 255.81 127.754 255.43 127.221 255.177C126.701 254.91 126.121 254.777 125.481 254.777C124.561 254.777 123.774 255.07 123.121 255.657C122.481 256.244 122.114 257.057 122.021 258.097H128.941ZM135.443 254.917V261.377C135.443 261.91 135.557 262.29 135.783 262.517C136.01 262.73 136.403 262.837 136.963 262.837H138.303V264.377H136.663C135.65 264.377 134.89 264.144 134.383 263.677C133.877 263.21 133.623 262.444 133.623 261.377V254.917H132.203V253.417H133.623V250.657H135.443V253.417H138.303V254.917H135.443ZM150.508 258.477C150.508 258.824 150.488 259.19 150.448 259.577H141.688C141.755 260.657 142.122 261.504 142.788 262.117C143.468 262.717 144.288 263.017 145.248 263.017C146.035 263.017 146.688 262.837 147.208 262.477C147.742 262.104 148.115 261.61 148.328 260.997H150.288C149.995 262.05 149.408 262.91 148.528 263.577C147.648 264.23 146.555 264.557 145.248 264.557C144.208 264.557 143.275 264.324 142.448 263.857C141.635 263.39 140.995 262.73 140.528 261.877C140.062 261.01 139.828 260.01 139.828 258.877C139.828 257.744 140.055 256.75 140.508 255.897C140.962 255.044 141.595 254.39 142.408 253.937C143.235 253.47 144.182 253.237 145.248 253.237C146.288 253.237 147.208 253.464 148.008 253.917C148.808 254.37 149.422 254.997 149.848 255.797C150.288 256.584 150.508 257.477 150.508 258.477ZM148.628 258.097C148.628 257.404 148.475 256.81 148.168 256.317C147.862 255.81 147.442 255.43 146.908 255.177C146.388 254.91 145.808 254.777 145.168 254.777C144.248 254.777 143.462 255.07 142.808 255.657C142.168 256.244 141.802 257.057 141.708 258.097H148.628ZM158.251 253.217C159.584 253.217 160.664 253.624 161.491 254.437C162.317 255.237 162.731 256.397 162.731 257.917V264.377H160.931V258.177C160.931 257.084 160.657 256.25 160.111 255.677C159.564 255.09 158.817 254.797 157.871 254.797C156.911 254.797 156.144 255.097 155.571 255.697C155.011 256.297 154.731 257.17 154.731 258.317V264.377H152.911V253.417H154.731V254.977C155.091 254.417 155.577 253.984 156.191 253.677C156.817 253.37 157.504 253.217 158.251 253.217ZM165.024 258.877C165.024 257.744 165.25 256.757 165.704 255.917C166.157 255.064 166.784 254.404 167.584 253.937C168.397 253.47 169.324 253.237 170.364 253.237C171.71 253.237 172.817 253.564 173.684 254.217C174.564 254.87 175.144 255.777 175.424 256.937H173.464C173.277 256.27 172.91 255.744 172.364 255.357C171.83 254.97 171.164 254.777 170.364 254.777C169.324 254.777 168.484 255.137 167.844 255.857C167.204 256.564 166.884 257.57 166.884 258.877C166.884 260.197 167.204 261.217 167.844 261.937C168.484 262.657 169.324 263.017 170.364 263.017C171.164 263.017 171.83 262.83 172.364 262.457C172.897 262.084 173.264 261.55 173.464 260.857H175.424C175.13 261.977 174.544 262.877 173.664 263.557C172.784 264.224 171.684 264.557 170.364 264.557C169.324 264.557 168.397 264.324 167.584 263.857C166.784 263.39 166.157 262.73 165.704 261.877C165.25 261.024 165.024 260.024 165.024 258.877ZM178.792 251.637C178.445 251.637 178.152 251.517 177.912 251.277C177.672 251.037 177.552 250.744 177.552 250.397C177.552 250.05 177.672 249.757 177.912 249.517C178.152 249.277 178.445 249.157 178.792 249.157C179.125 249.157 179.405 249.277 179.632 249.517C179.872 249.757 179.992 250.05 179.992 250.397C179.992 250.744 179.872 251.037 179.632 251.277C179.405 251.517 179.125 251.637 178.792 251.637ZM179.672 253.417V264.377H177.852V253.417H179.672ZM192.774 258.477C192.774 258.824 192.754 259.19 192.714 259.577H183.954C184.021 260.657 184.387 261.504 185.054 262.117C185.734 262.717 186.554 263.017 187.514 263.017C188.301 263.017 188.954 262.837 189.474 262.477C190.007 262.104 190.381 261.61 190.594 260.997H192.554C192.261 262.05 191.674 262.91 190.794 263.577C189.914 264.23 188.821 264.557 187.514 264.557C186.474 264.557 185.541 264.324 184.714 263.857C183.901 263.39 183.261 262.73 182.794 261.877C182.327 261.01 182.094 260.01 182.094 258.877C182.094 257.744 182.321 256.75 182.774 255.897C183.227 255.044 183.861 254.39 184.674 253.937C185.501 253.47 186.447 253.237 187.514 253.237C188.554 253.237 189.474 253.464 190.274 253.917C191.074 254.37 191.687 254.997 192.114 255.797C192.554 256.584 192.774 257.477 192.774 258.477ZM190.894 258.097C190.894 257.404 190.741 256.81 190.434 256.317C190.127 255.81 189.707 255.43 189.174 255.177C188.654 254.91 188.074 254.777 187.434 254.777C186.514 254.777 185.727 255.07 185.074 255.657C184.434 256.244 184.067 257.057 183.974 258.097H190.894ZM199.056 264.557C198.216 264.557 197.463 264.417 196.796 264.137C196.13 263.844 195.603 263.444 195.216 262.937C194.83 262.417 194.616 261.824 194.576 261.157H196.456C196.51 261.704 196.763 262.15 197.216 262.497C197.683 262.844 198.29 263.017 199.036 263.017C199.73 263.017 200.276 262.864 200.676 262.557C201.076 262.25 201.276 261.864 201.276 261.397C201.276 260.917 201.063 260.564 200.636 260.337C200.21 260.097 199.55 259.864 198.656 259.637C197.843 259.424 197.176 259.21 196.656 258.997C196.15 258.77 195.71 258.444 195.336 258.017C194.976 257.577 194.796 257.004 194.796 256.297C194.796 255.737 194.963 255.224 195.296 254.757C195.63 254.29 196.103 253.924 196.716 253.657C197.33 253.377 198.03 253.237 198.816 253.237C200.03 253.237 201.01 253.544 201.756 254.157C202.503 254.77 202.903 255.61 202.956 256.677H201.136C201.096 256.104 200.863 255.644 200.436 255.297C200.023 254.95 199.463 254.777 198.756 254.777C198.103 254.777 197.583 254.917 197.196 255.197C196.81 255.477 196.616 255.844 196.616 256.297C196.616 256.657 196.73 256.957 196.956 257.197C197.196 257.424 197.49 257.61 197.836 257.757C198.196 257.89 198.69 258.044 199.316 258.217C200.103 258.43 200.743 258.644 201.236 258.857C201.73 259.057 202.15 259.364 202.496 259.777C202.856 260.19 203.043 260.73 203.056 261.397C203.056 261.997 202.89 262.537 202.556 263.017C202.223 263.497 201.75 263.877 201.136 264.157C200.536 264.424 199.843 264.557 199.056 264.557ZM225.558 253.417L222.138 264.377H220.258L217.618 255.677L214.978 264.377H213.098L209.658 253.417H211.518L214.038 262.617L216.758 253.417H218.618L221.278 262.637L223.758 253.417H225.558ZM228.304 251.637C227.957 251.637 227.664 251.517 227.424 251.277C227.184 251.037 227.064 250.744 227.064 250.397C227.064 250.05 227.184 249.757 227.424 249.517C227.664 249.277 227.957 249.157 228.304 249.157C228.637 249.157 228.917 249.277 229.144 249.517C229.384 249.757 229.504 250.05 229.504 250.397C229.504 250.744 229.384 251.037 229.144 251.277C228.917 251.517 228.637 251.637 228.304 251.637ZM229.184 253.417V264.377H227.364V253.417H229.184ZM234.506 254.917V261.377C234.506 261.91 234.619 262.29 234.846 262.517C235.072 262.73 235.466 262.837 236.026 262.837H237.366V264.377H235.726C234.712 264.377 233.952 264.144 233.446 263.677C232.939 263.21 232.686 262.444 232.686 261.377V254.917H231.266V253.417H232.686V250.657H234.506V253.417H237.366V254.917H234.506ZM245.011 253.217C245.838 253.217 246.584 253.397 247.251 253.757C247.918 254.104 248.438 254.63 248.811 255.337C249.198 256.044 249.391 256.904 249.391 257.917V264.377H247.591V258.177C247.591 257.084 247.318 256.25 246.771 255.677C246.224 255.09 245.478 254.797 244.531 254.797C243.571 254.797 242.804 255.097 242.231 255.697C241.671 256.297 241.391 257.17 241.391 258.317V264.377H239.571V249.577H241.391V254.977C241.751 254.417 242.244 253.984 242.871 253.677C243.511 253.37 244.224 253.217 245.011 253.217ZM257.016 258.857C257.016 257.737 257.243 256.757 257.696 255.917C258.149 255.064 258.769 254.404 259.556 253.937C260.356 253.47 261.249 253.237 262.236 253.237C263.183 253.237 264.009 253.45 264.716 253.877C265.436 254.29 265.963 254.804 266.296 255.417V253.417H268.136V269.577H266.296V262.357C265.949 262.97 265.416 263.49 264.696 263.917C263.976 264.344 263.136 264.557 262.176 264.557C261.216 264.557 260.343 264.317 259.556 263.837C258.769 263.357 258.149 262.684 257.696 261.817C257.243 260.95 257.016 259.964 257.016 258.857ZM266.296 258.877C266.296 258.05 266.129 257.33 265.796 256.717C265.463 256.104 265.009 255.637 264.436 255.317C263.876 254.984 263.256 254.817 262.576 254.817C261.896 254.817 261.276 254.977 260.716 255.297C260.156 255.617 259.709 256.084 259.376 256.697C259.043 257.31 258.876 258.03 258.876 258.857C258.876 259.697 259.043 260.43 259.376 261.057C259.709 261.67 260.156 262.144 260.716 262.477C261.276 262.797 261.896 262.957 262.576 262.957C263.256 262.957 263.876 262.797 264.436 262.477C265.009 262.144 265.463 261.67 265.796 261.057C266.129 260.43 266.296 259.704 266.296 258.877ZM280.932 253.417V264.377H279.112V262.757C278.765 263.317 278.278 263.757 277.652 264.077C277.038 264.384 276.358 264.537 275.612 264.537C274.758 264.537 273.992 264.364 273.312 264.017C272.632 263.657 272.092 263.124 271.692 262.417C271.305 261.71 271.112 260.85 271.112 259.837V253.417H272.912V259.597C272.912 260.677 273.185 261.51 273.732 262.097C274.278 262.67 275.025 262.957 275.972 262.957C276.945 262.957 277.712 262.657 278.272 262.057C278.832 261.457 279.112 260.584 279.112 259.437V253.417H280.932ZM283.325 258.857C283.325 257.737 283.551 256.757 284.005 255.917C284.458 255.064 285.078 254.404 285.865 253.937C286.665 253.47 287.551 253.237 288.525 253.237C289.485 253.237 290.318 253.444 291.025 253.857C291.731 254.27 292.258 254.79 292.605 255.417V253.417H294.445V264.377H292.605V262.337C292.245 262.977 291.705 263.51 290.985 263.937C290.278 264.35 289.451 264.557 288.505 264.557C287.531 264.557 286.651 264.317 285.865 263.837C285.078 263.357 284.458 262.684 284.005 261.817C283.551 260.95 283.325 259.964 283.325 258.857ZM292.605 258.877C292.605 258.05 292.438 257.33 292.105 256.717C291.771 256.104 291.318 255.637 290.745 255.317C290.185 254.984 289.565 254.817 288.885 254.817C288.205 254.817 287.585 254.977 287.025 255.297C286.465 255.617 286.018 256.084 285.685 256.697C285.351 257.31 285.185 258.03 285.185 258.857C285.185 259.697 285.351 260.43 285.685 261.057C286.018 261.67 286.465 262.144 287.025 262.477C287.585 262.797 288.205 262.957 288.885 262.957C289.565 262.957 290.185 262.797 290.745 262.477C291.318 262.144 291.771 261.67 292.105 261.057C292.438 260.43 292.605 259.704 292.605 258.877ZM299.34 249.577V264.377H297.52V249.577H299.34ZM303.382 251.637C303.035 251.637 302.742 251.517 302.502 251.277C302.262 251.037 302.142 250.744 302.142 250.397C302.142 250.05 302.262 249.757 302.502 249.517C302.742 249.277 303.035 249.157 303.382 249.157C303.715 249.157 303.995 249.277 304.222 249.517C304.462 249.757 304.582 250.05 304.582 250.397C304.582 250.744 304.462 251.037 304.222 251.277C303.995 251.517 303.715 251.637 303.382 251.637ZM304.262 253.417V264.377H302.442V253.417H304.262ZM309.584 254.917V261.377C309.584 261.91 309.697 262.29 309.924 262.517C310.151 262.73 310.544 262.837 311.104 262.837H312.444V264.377H310.804C309.791 264.377 309.031 264.144 308.524 263.677C308.017 263.21 307.764 262.444 307.764 261.377V254.917H306.344V253.417H307.764V250.657H309.584V253.417H312.444V254.917H309.584ZM324.089 253.417L317.489 269.537H315.609L317.769 264.257L313.349 253.417H315.369L318.809 262.297L322.209 253.417H324.089ZM138.295 288.857C138.295 287.737 138.522 286.757 138.975 285.917C139.429 285.064 140.049 284.404 140.835 283.937C141.635 283.47 142.522 283.237 143.495 283.237C144.455 283.237 145.289 283.444 145.995 283.857C146.702 284.27 147.229 284.79 147.575 285.417V283.417H149.415V294.377H147.575V292.337C147.215 292.977 146.675 293.51 145.955 293.937C145.249 294.35 144.422 294.557 143.475 294.557C142.502 294.557 141.622 294.317 140.835 293.837C140.049 293.357 139.429 292.684 138.975 291.817C138.522 290.95 138.295 289.964 138.295 288.857ZM147.575 288.877C147.575 288.05 147.409 287.33 147.075 286.717C146.742 286.104 146.289 285.637 145.715 285.317C145.155 284.984 144.535 284.817 143.855 284.817C143.175 284.817 142.555 284.977 141.995 285.297C141.435 285.617 140.989 286.084 140.655 286.697C140.322 287.31 140.155 288.03 140.155 288.857C140.155 289.697 140.322 290.43 140.655 291.057C140.989 291.67 141.435 292.144 141.995 292.477C142.555 292.797 143.175 292.957 143.855 292.957C144.535 292.957 145.155 292.797 145.715 292.477C146.289 292.144 146.742 291.67 147.075 291.057C147.409 290.43 147.575 289.704 147.575 288.877ZM156.371 294.557C155.531 294.557 154.778 294.417 154.111 294.137C153.444 293.844 152.918 293.444 152.531 292.937C152.144 292.417 151.931 291.824 151.891 291.157H153.771C153.824 291.704 154.078 292.15 154.531 292.497C154.998 292.844 155.604 293.017 156.351 293.017C157.044 293.017 157.591 292.864 157.991 292.557C158.391 292.25 158.591 291.864 158.591 291.397C158.591 290.917 158.378 290.564 157.951 290.337C157.524 290.097 156.864 289.864 155.971 289.637C155.158 289.424 154.491 289.21 153.971 288.997C153.464 288.77 153.024 288.444 152.651 288.017C152.291 287.577 152.111 287.004 152.111 286.297C152.111 285.737 152.278 285.224 152.611 284.757C152.944 284.29 153.418 283.924 154.031 283.657C154.644 283.377 155.344 283.237 156.131 283.237C157.344 283.237 158.324 283.544 159.071 284.157C159.818 284.77 160.218 285.61 160.271 286.677H158.451C158.411 286.104 158.178 285.644 157.751 285.297C157.338 284.95 156.778 284.777 156.071 284.777C155.418 284.777 154.898 284.917 154.511 285.197C154.124 285.477 153.931 285.844 153.931 286.297C153.931 286.657 154.044 286.957 154.271 287.197C154.511 287.424 154.804 287.61 155.151 287.757C155.511 287.89 156.004 288.044 156.631 288.217C157.418 288.43 158.058 288.644 158.551 288.857C159.044 289.057 159.464 289.364 159.811 289.777C160.171 290.19 160.358 290.73 160.371 291.397C160.371 291.997 160.204 292.537 159.871 293.017C159.538 293.497 159.064 293.877 158.451 294.157C157.851 294.424 157.158 294.557 156.371 294.557ZM166.82 294.557C165.98 294.557 165.227 294.417 164.56 294.137C163.893 293.844 163.367 293.444 162.98 292.937C162.593 292.417 162.38 291.824 162.34 291.157H164.22C164.273 291.704 164.527 292.15 164.98 292.497C165.447 292.844 166.053 293.017 166.8 293.017C167.493 293.017 168.04 292.864 168.44 292.557C168.84 292.25 169.04 291.864 169.04 291.397C169.04 290.917 168.827 290.564 168.4 290.337C167.973 290.097 167.313 289.864 166.42 289.637C165.607 289.424 164.94 289.21 164.42 288.997C163.913 288.77 163.473 288.444 163.1 288.017C162.74 287.577 162.56 287.004 162.56 286.297C162.56 285.737 162.727 285.224 163.06 284.757C163.393 284.29 163.867 283.924 164.48 283.657C165.093 283.377 165.793 283.237 166.58 283.237C167.793 283.237 168.773 283.544 169.52 284.157C170.267 284.77 170.667 285.61 170.72 286.677H168.9C168.86 286.104 168.627 285.644 168.2 285.297C167.787 284.95 167.227 284.777 166.52 284.777C165.867 284.777 165.347 284.917 164.96 285.197C164.573 285.477 164.38 285.844 164.38 286.297C164.38 286.657 164.493 286.957 164.72 287.197C164.96 287.424 165.253 287.61 165.6 287.757C165.96 287.89 166.453 288.044 167.08 288.217C167.867 288.43 168.507 288.644 169 288.857C169.493 289.057 169.913 289.364 170.26 289.777C170.62 290.19 170.807 290.73 170.82 291.397C170.82 291.997 170.653 292.537 170.32 293.017C169.987 293.497 169.513 293.877 168.9 294.157C168.3 294.424 167.607 294.557 166.82 294.557ZM183.109 283.417V294.377H181.289V292.757C180.943 293.317 180.456 293.757 179.829 294.077C179.216 294.384 178.536 294.537 177.789 294.537C176.936 294.537 176.169 294.364 175.489 294.017C174.809 293.657 174.269 293.124 173.869 292.417C173.483 291.71 173.289 290.85 173.289 289.837V283.417H175.089V289.597C175.089 290.677 175.363 291.51 175.909 292.097C176.456 292.67 177.203 292.957 178.149 292.957C179.123 292.957 179.889 292.657 180.449 292.057C181.009 291.457 181.289 290.584 181.289 289.437V283.417H183.109ZM188.002 285.197C188.322 284.57 188.776 284.084 189.362 283.737C189.962 283.39 190.689 283.217 191.542 283.217V285.097H191.062C189.022 285.097 188.002 286.204 188.002 288.417V294.377H186.182V283.417H188.002V285.197ZM192.963 288.857C192.963 287.737 193.19 286.757 193.643 285.917C194.097 285.064 194.717 284.404 195.503 283.937C196.303 283.47 197.19 283.237 198.163 283.237C199.123 283.237 199.957 283.444 200.663 283.857C201.37 284.27 201.897 284.79 202.243 285.417V283.417H204.083V294.377H202.243V292.337C201.883 292.977 201.343 293.51 200.623 293.937C199.917 294.35 199.09 294.557 198.143 294.557C197.17 294.557 196.29 294.317 195.503 293.837C194.717 293.357 194.097 292.684 193.643 291.817C193.19 290.95 192.963 289.964 192.963 288.857ZM202.243 288.877C202.243 288.05 202.077 287.33 201.743 286.717C201.41 286.104 200.957 285.637 200.383 285.317C199.823 284.984 199.203 284.817 198.523 284.817C197.843 284.817 197.223 284.977 196.663 285.297C196.103 285.617 195.657 286.084 195.323 286.697C194.99 287.31 194.823 288.03 194.823 288.857C194.823 289.697 194.99 290.43 195.323 291.057C195.657 291.67 196.103 292.144 196.663 292.477C197.223 292.797 197.843 292.957 198.523 292.957C199.203 292.957 199.823 292.797 200.383 292.477C200.957 292.144 201.41 291.67 201.743 291.057C202.077 290.43 202.243 289.704 202.243 288.877ZM212.499 283.217C213.832 283.217 214.912 283.624 215.739 284.437C216.565 285.237 216.979 286.397 216.979 287.917V294.377H215.179V288.177C215.179 287.084 214.905 286.25 214.359 285.677C213.812 285.09 213.065 284.797 212.119 284.797C211.159 284.797 210.392 285.097 209.819 285.697C209.259 286.297 208.979 287.17 208.979 288.317V294.377H207.159V283.417H208.979V284.977C209.339 284.417 209.825 283.984 210.439 283.677C211.065 283.37 211.752 283.217 212.499 283.217ZM219.272 288.877C219.272 287.744 219.498 286.757 219.952 285.917C220.405 285.064 221.032 284.404 221.832 283.937C222.645 283.47 223.572 283.237 224.612 283.237C225.958 283.237 227.065 283.564 227.932 284.217C228.812 284.87 229.392 285.777 229.672 286.937H227.712C227.525 286.27 227.158 285.744 226.612 285.357C226.078 284.97 225.412 284.777 224.612 284.777C223.572 284.777 222.732 285.137 222.092 285.857C221.452 286.564 221.132 287.57 221.132 288.877C221.132 290.197 221.452 291.217 222.092 291.937C222.732 292.657 223.572 293.017 224.612 293.017C225.412 293.017 226.078 292.83 226.612 292.457C227.145 292.084 227.512 291.55 227.712 290.857H229.672C229.378 291.977 228.792 292.877 227.912 293.557C227.032 294.224 225.932 294.557 224.612 294.557C223.572 294.557 222.645 294.324 221.832 293.857C221.032 293.39 220.405 292.73 219.952 291.877C219.498 291.024 219.272 290.024 219.272 288.877ZM242.1 288.477C242.1 288.824 242.08 289.19 242.04 289.577H233.28C233.347 290.657 233.714 291.504 234.38 292.117C235.06 292.717 235.88 293.017 236.84 293.017C237.627 293.017 238.28 292.837 238.8 292.477C239.334 292.104 239.707 291.61 239.92 290.997H241.88C241.587 292.05 241 292.91 240.12 293.577C239.24 294.23 238.147 294.557 236.84 294.557C235.8 294.557 234.867 294.324 234.04 293.857C233.227 293.39 232.587 292.73 232.12 291.877C231.654 291.01 231.42 290.01 231.42 288.877C231.42 287.744 231.647 286.75 232.1 285.897C232.554 285.044 233.187 284.39 234 283.937C234.827 283.47 235.774 283.237 236.84 283.237C237.88 283.237 238.8 283.464 239.6 283.917C240.4 284.37 241.014 284.997 241.44 285.797C241.88 286.584 242.1 287.477 242.1 288.477ZM240.22 288.097C240.22 287.404 240.067 286.81 239.76 286.317C239.454 285.81 239.034 285.43 238.5 285.177C237.98 284.91 237.4 284.777 236.76 284.777C235.84 284.777 235.054 285.07 234.4 285.657C233.76 286.244 233.394 287.057 233.3 288.097H240.22ZM245.083 294.497C244.736 294.497 244.443 294.377 244.203 294.137C243.963 293.897 243.843 293.604 243.843 293.257C243.843 292.91 243.963 292.617 244.203 292.377C244.443 292.137 244.736 292.017 245.083 292.017C245.416 292.017 245.696 292.137 245.923 292.377C246.163 292.617 246.283 292.91 246.283 293.257C246.283 293.604 246.163 293.897 245.923 294.137C245.696 294.377 245.416 294.497 245.083 294.497Z" fill="#243771"/>
<path d="M366.805 86.8301C366.805 48.7225 335.912 17.8301 297.805 17.8301L0.999989 17.8301L0.999998 325.461C0.999999 363.569 31.8923 394.461 70 394.461L366.805 394.461L366.805 86.8301Z" stroke="#243771" stroke-width="2"/>
<path d="M382.795 70C382.795 31.8924 351.903 1 313.795 1L16.9902 1.00002L16.9902 308.631C16.9902 346.739 47.8826 377.631 85.9902 377.631L382.795 377.631L382.795 70Z" stroke="#FE4D01" stroke-width="2"/>
</svg>
