<svg width="384" height="397" viewBox="0 0 384 397" fill="none" xmlns="http://www.w3.org/2000/svg">
<path d="M89.7226 101.496V115.336H87.9026V105.016L83.3026 115.336H82.0226L77.4026 104.996V115.336H75.5826V101.496H77.5426L82.6626 112.936L87.7826 101.496H89.7226ZM102.809 109.436C102.809 109.783 102.789 110.149 102.749 110.536H93.9892C94.0559 111.616 94.4225 112.463 95.0892 113.076C95.7692 113.676 96.5892 113.976 97.5492 113.976C98.3359 113.976 98.9892 113.796 99.5092 113.436C100.043 113.063 100.416 112.569 100.629 111.956H102.589C102.296 113.009 101.709 113.869 100.829 114.536C99.9492 115.189 98.8559 115.516 97.5492 115.516C96.5092 115.516 95.5759 115.283 94.7492 114.816C93.9359 114.349 93.2959 113.689 92.8292 112.836C92.3625 111.969 92.1292 110.969 92.1292 109.836C92.1292 108.703 92.3559 107.709 92.8092 106.856C93.2625 106.003 93.8959 105.349 94.7092 104.896C95.5359 104.429 96.4825 104.196 97.5492 104.196C98.5892 104.196 99.5092 104.423 100.309 104.876C101.109 105.329 101.723 105.956 102.149 106.756C102.589 107.543 102.809 108.436 102.809 109.436ZM100.929 109.056C100.929 108.363 100.776 107.769 100.469 107.276C100.163 106.769 99.7425 106.389 99.2092 106.136C98.6892 105.869 98.1092 105.736 97.4692 105.736C96.5492 105.736 95.7625 106.029 95.1092 106.616C94.4692 107.203 94.1025 108.016 94.0092 109.056H100.929ZM110.552 104.176C111.885 104.176 112.965 104.583 113.792 105.396C114.618 106.196 115.032 107.356 115.032 108.876V115.336H113.232V109.136C113.232 108.043 112.958 107.209 112.412 106.636C111.865 106.049 111.118 105.756 110.172 105.756C109.212 105.756 108.445 106.056 107.872 106.656C107.312 107.256 107.032 108.129 107.032 109.276V115.336H105.212V104.376H107.032V105.936C107.392 105.376 107.878 104.943 108.492 104.636C109.118 104.329 109.805 104.176 110.552 104.176ZM122.525 104.196C123.471 104.196 124.298 104.403 125.005 104.816C125.725 105.229 126.258 105.749 126.605 106.376V104.376H128.445V115.576C128.445 116.576 128.231 117.463 127.805 118.236C127.378 119.023 126.765 119.636 125.965 120.076C125.178 120.516 124.258 120.736 123.205 120.736C121.765 120.736 120.565 120.396 119.605 119.716C118.645 119.036 118.078 118.109 117.905 116.936H119.705C119.905 117.603 120.318 118.136 120.945 118.536C121.571 118.949 122.325 119.156 123.205 119.156C124.205 119.156 125.018 118.843 125.645 118.216C126.285 117.589 126.605 116.709 126.605 115.576V113.276C126.245 113.916 125.711 114.449 125.005 114.876C124.298 115.303 123.471 115.516 122.525 115.516C121.551 115.516 120.665 115.276 119.865 114.796C119.078 114.316 118.458 113.643 118.005 112.776C117.551 111.909 117.325 110.923 117.325 109.816C117.325 108.696 117.551 107.716 118.005 106.876C118.458 106.023 119.078 105.363 119.865 104.896C120.665 104.429 121.551 104.196 122.525 104.196ZM126.605 109.836C126.605 109.009 126.438 108.289 126.105 107.676C125.771 107.063 125.318 106.596 124.745 106.276C124.185 105.943 123.565 105.776 122.885 105.776C122.205 105.776 121.585 105.936 121.025 106.256C120.465 106.576 120.018 107.043 119.685 107.656C119.351 108.269 119.185 108.989 119.185 109.816C119.185 110.656 119.351 111.389 119.685 112.016C120.018 112.629 120.465 113.103 121.025 113.436C121.585 113.756 122.205 113.916 122.885 113.916C123.565 113.916 124.185 113.756 124.745 113.436C125.318 113.103 125.771 112.629 126.105 112.016C126.438 111.389 126.605 110.663 126.605 109.836ZM141.52 109.436C141.52 109.783 141.5 110.149 141.46 110.536H132.7C132.767 111.616 133.133 112.463 133.8 113.076C134.48 113.676 135.3 113.976 136.26 113.976C137.047 113.976 137.7 113.796 138.22 113.436C138.753 113.063 139.127 112.569 139.34 111.956H141.3C141.007 113.009 140.42 113.869 139.54 114.536C138.66 115.189 137.567 115.516 136.26 115.516C135.22 115.516 134.287 115.283 133.46 114.816C132.647 114.349 132.007 113.689 131.54 112.836C131.073 111.969 130.84 110.969 130.84 109.836C130.84 108.703 131.067 107.709 131.52 106.856C131.973 106.003 132.607 105.349 133.42 104.896C134.247 104.429 135.193 104.196 136.26 104.196C137.3 104.196 138.22 104.423 139.02 104.876C139.82 105.329 140.433 105.956 140.86 106.756C141.3 107.543 141.52 108.436 141.52 109.436ZM139.64 109.056C139.64 108.363 139.487 107.769 139.18 107.276C138.873 106.769 138.453 106.389 137.92 106.136C137.4 105.869 136.82 105.736 136.18 105.736C135.26 105.736 134.473 106.029 133.82 106.616C133.18 107.203 132.813 108.016 132.72 109.056H139.64ZM157.102 104.176C157.956 104.176 158.716 104.356 159.382 104.716C160.049 105.063 160.576 105.589 160.962 106.296C161.349 107.003 161.542 107.863 161.542 108.876V115.336H159.742V109.136C159.742 108.043 159.469 107.209 158.922 106.636C158.389 106.049 157.662 105.756 156.742 105.756C155.796 105.756 155.042 106.063 154.482 106.676C153.922 107.276 153.642 108.149 153.642 109.296V115.336H151.842V109.136C151.842 108.043 151.569 107.209 151.022 106.636C150.489 106.049 149.762 105.756 148.842 105.756C147.896 105.756 147.142 106.063 146.582 106.676C146.022 107.276 145.742 108.149 145.742 109.296V115.336H143.922V104.376H145.742V105.956C146.102 105.383 146.582 104.943 147.182 104.636C147.796 104.329 148.469 104.176 149.202 104.176C150.122 104.176 150.936 104.383 151.642 104.796C152.349 105.209 152.876 105.816 153.222 106.616C153.529 105.843 154.036 105.243 154.742 104.816C155.449 104.389 156.236 104.176 157.102 104.176ZM166.348 106.416C166.721 105.763 167.268 105.229 167.988 104.816C168.708 104.403 169.528 104.196 170.448 104.196C171.435 104.196 172.321 104.429 173.108 104.896C173.895 105.363 174.515 106.023 174.968 106.876C175.421 107.716 175.648 108.696 175.648 109.816C175.648 110.923 175.421 111.909 174.968 112.776C174.515 113.643 173.888 114.316 173.088 114.796C172.301 115.276 171.421 115.516 170.448 115.516C169.501 115.516 168.668 115.309 167.948 114.896C167.241 114.483 166.708 113.956 166.348 113.316V115.336H164.528V100.536H166.348V106.416ZM173.788 109.816C173.788 108.989 173.621 108.269 173.288 107.656C172.955 107.043 172.501 106.576 171.928 106.256C171.368 105.936 170.748 105.776 170.068 105.776C169.401 105.776 168.781 105.943 168.208 106.276C167.648 106.596 167.195 107.069 166.848 107.696C166.515 108.309 166.348 109.023 166.348 109.836C166.348 110.663 166.515 111.389 166.848 112.016C167.195 112.629 167.648 113.103 168.208 113.436C168.781 113.756 169.401 113.916 170.068 113.916C170.748 113.916 171.368 113.756 171.928 113.436C172.501 113.103 172.955 112.629 173.288 112.016C173.621 111.389 173.788 110.656 173.788 109.816ZM177.364 109.816C177.364 108.696 177.59 107.716 178.044 106.876C178.497 106.023 179.117 105.363 179.904 104.896C180.704 104.429 181.59 104.196 182.564 104.196C183.524 104.196 184.357 104.403 185.064 104.816C185.77 105.229 186.297 105.749 186.644 106.376V104.376H188.484V115.336H186.644V113.296C186.284 113.936 185.744 114.469 185.024 114.896C184.317 115.309 183.49 115.516 182.544 115.516C181.57 115.516 180.69 115.276 179.904 114.796C179.117 114.316 178.497 113.643 178.044 112.776C177.59 111.909 177.364 110.923 177.364 109.816ZM186.644 109.836C186.644 109.009 186.477 108.289 186.144 107.676C185.81 107.063 185.357 106.596 184.784 106.276C184.224 105.943 183.604 105.776 182.924 105.776C182.244 105.776 181.624 105.936 181.064 106.256C180.504 106.576 180.057 107.043 179.724 107.656C179.39 108.269 179.224 108.989 179.224 109.816C179.224 110.656 179.39 111.389 179.724 112.016C180.057 112.629 180.504 113.103 181.064 113.436C181.624 113.756 182.244 113.916 182.924 113.916C183.604 113.916 184.224 113.756 184.784 113.436C185.357 113.103 185.81 112.629 186.144 112.016C186.477 111.389 186.644 110.663 186.644 109.836ZM196.899 104.176C198.233 104.176 199.313 104.583 200.139 105.396C200.966 106.196 201.379 107.356 201.379 108.876V115.336H199.579V109.136C199.579 108.043 199.306 107.209 198.759 106.636C198.213 106.049 197.466 105.756 196.519 105.756C195.559 105.756 194.793 106.056 194.219 106.656C193.659 107.256 193.379 108.129 193.379 109.276V115.336H191.559V104.376H193.379V105.936C193.739 105.376 194.226 104.943 194.839 104.636C195.466 104.329 196.153 104.176 196.899 104.176ZM208.872 104.196C209.819 104.196 210.645 104.403 211.352 104.816C212.072 105.229 212.605 105.749 212.952 106.376V104.376H214.792V115.576C214.792 116.576 214.579 117.463 214.152 118.236C213.725 119.023 213.112 119.636 212.312 120.076C211.525 120.516 210.605 120.736 209.552 120.736C208.112 120.736 206.912 120.396 205.952 119.716C204.992 119.036 204.425 118.109 204.252 116.936H206.052C206.252 117.603 206.665 118.136 207.292 118.536C207.919 118.949 208.672 119.156 209.552 119.156C210.552 119.156 211.365 118.843 211.992 118.216C212.632 117.589 212.952 116.709 212.952 115.576V113.276C212.592 113.916 212.059 114.449 211.352 114.876C210.645 115.303 209.819 115.516 208.872 115.516C207.899 115.516 207.012 115.276 206.212 114.796C205.425 114.316 204.805 113.643 204.352 112.776C203.899 111.909 203.672 110.923 203.672 109.816C203.672 108.696 203.899 107.716 204.352 106.876C204.805 106.023 205.425 105.363 206.212 104.896C207.012 104.429 207.899 104.196 208.872 104.196ZM212.952 109.836C212.952 109.009 212.785 108.289 212.452 107.676C212.119 107.063 211.665 106.596 211.092 106.276C210.532 105.943 209.912 105.776 209.232 105.776C208.552 105.776 207.932 105.936 207.372 106.256C206.812 106.576 206.365 107.043 206.032 107.656C205.699 108.269 205.532 108.989 205.532 109.816C205.532 110.656 205.699 111.389 206.032 112.016C206.365 112.629 206.812 113.103 207.372 113.436C207.932 113.756 208.552 113.916 209.232 113.916C209.912 113.916 210.532 113.756 211.092 113.436C211.665 113.103 212.119 112.629 212.452 112.016C212.785 111.389 212.952 110.663 212.952 109.836ZM223.988 115.336L219.688 110.496V115.336H217.868V100.536H219.688V109.236L223.908 104.376H226.448L221.288 109.836L226.468 115.336H223.988ZM227.481 109.816C227.481 108.696 227.707 107.716 228.161 106.876C228.614 106.023 229.234 105.363 230.021 104.896C230.821 104.429 231.707 104.196 232.681 104.196C233.641 104.196 234.474 104.403 235.181 104.816C235.887 105.229 236.414 105.749 236.761 106.376V104.376H238.601V115.336H236.761V113.296C236.401 113.936 235.861 114.469 235.141 114.896C234.434 115.309 233.607 115.516 232.661 115.516C231.687 115.516 230.807 115.276 230.021 114.796C229.234 114.316 228.614 113.643 228.161 112.776C227.707 111.909 227.481 110.923 227.481 109.816ZM236.761 109.836C236.761 109.009 236.594 108.289 236.261 107.676C235.927 107.063 235.474 106.596 234.901 106.276C234.341 105.943 233.721 105.776 233.041 105.776C232.361 105.776 231.741 105.936 231.181 106.256C230.621 106.576 230.174 107.043 229.841 107.656C229.507 108.269 229.341 108.989 229.341 109.816C229.341 110.656 229.507 111.389 229.841 112.016C230.174 112.629 230.621 113.103 231.181 113.436C231.741 113.756 232.361 113.916 233.041 113.916C233.721 113.916 234.341 113.756 234.901 113.436C235.474 113.103 235.927 112.629 236.261 112.016C236.594 111.389 236.761 110.663 236.761 109.836ZM247.016 104.176C248.35 104.176 249.43 104.583 250.256 105.396C251.083 106.196 251.496 107.356 251.496 108.876V115.336H249.696V109.136C249.696 108.043 249.423 107.209 248.876 106.636C248.33 106.049 247.583 105.756 246.636 105.756C245.676 105.756 244.91 106.056 244.336 106.656C243.776 107.256 243.496 108.129 243.496 109.276V115.336H241.676V104.376H243.496V105.936C243.856 105.376 244.343 104.943 244.956 104.636C245.583 104.329 246.27 104.176 247.016 104.176ZM263.681 115.516C262.841 115.516 262.088 115.376 261.421 115.096C260.755 114.803 260.228 114.403 259.841 113.896C259.455 113.376 259.241 112.783 259.201 112.116H261.081C261.135 112.663 261.388 113.109 261.841 113.456C262.308 113.803 262.915 113.976 263.661 113.976C264.355 113.976 264.901 113.823 265.301 113.516C265.701 113.209 265.901 112.823 265.901 112.356C265.901 111.876 265.688 111.523 265.261 111.296C264.835 111.056 264.175 110.823 263.281 110.596C262.468 110.383 261.801 110.169 261.281 109.956C260.775 109.729 260.335 109.403 259.961 108.976C259.601 108.536 259.421 107.963 259.421 107.256C259.421 106.696 259.588 106.183 259.921 105.716C260.255 105.249 260.728 104.883 261.341 104.616C261.955 104.336 262.655 104.196 263.441 104.196C264.655 104.196 265.635 104.503 266.381 105.116C267.128 105.729 267.528 106.569 267.581 107.636H265.761C265.721 107.063 265.488 106.603 265.061 106.256C264.648 105.909 264.088 105.736 263.381 105.736C262.728 105.736 262.208 105.876 261.821 106.156C261.435 106.436 261.241 106.803 261.241 107.256C261.241 107.616 261.355 107.916 261.581 108.156C261.821 108.383 262.115 108.569 262.461 108.716C262.821 108.849 263.315 109.003 263.941 109.176C264.728 109.389 265.368 109.603 265.861 109.816C266.355 110.016 266.775 110.323 267.121 110.736C267.481 111.149 267.668 111.689 267.681 112.356C267.681 112.956 267.515 113.496 267.181 113.976C266.848 114.456 266.375 114.836 265.761 115.116C265.161 115.383 264.468 115.516 263.681 115.516ZM271.191 102.596C270.844 102.596 270.551 102.476 270.311 102.236C270.071 101.996 269.951 101.703 269.951 101.356C269.951 101.009 270.071 100.716 270.311 100.476C270.551 100.236 270.844 100.116 271.191 100.116C271.524 100.116 271.804 100.236 272.031 100.476C272.271 100.716 272.391 101.009 272.391 101.356C272.391 101.703 272.271 101.996 272.031 102.236C271.804 102.476 271.524 102.596 271.191 102.596ZM272.071 104.376V115.336H270.251V104.376H272.071ZM281.292 115.336L276.992 110.496V115.336H275.172V100.536H276.992V109.236L281.212 104.376H283.752L278.592 109.836L283.772 115.336H281.292ZM284.785 109.816C284.785 108.696 285.012 107.716 285.465 106.876C285.919 106.023 286.539 105.363 287.325 104.896C288.125 104.429 289.012 104.196 289.985 104.196C290.945 104.196 291.779 104.403 292.485 104.816C293.192 105.229 293.719 105.749 294.065 106.376V104.376H295.905V115.336H294.065V113.296C293.705 113.936 293.165 114.469 292.445 114.896C291.739 115.309 290.912 115.516 289.965 115.516C288.992 115.516 288.112 115.276 287.325 114.796C286.539 114.316 285.919 113.643 285.465 112.776C285.012 111.909 284.785 110.923 284.785 109.816ZM294.065 109.836C294.065 109.009 293.899 108.289 293.565 107.676C293.232 107.063 292.779 106.596 292.205 106.276C291.645 105.943 291.025 105.776 290.345 105.776C289.665 105.776 289.045 105.936 288.485 106.256C287.925 106.576 287.479 107.043 287.145 107.656C286.812 108.269 286.645 108.989 286.645 109.816C286.645 110.656 286.812 111.389 287.145 112.016C287.479 112.629 287.925 113.103 288.485 113.436C289.045 113.756 289.665 113.916 290.345 113.916C291.025 113.916 291.645 113.756 292.205 113.436C292.779 113.103 293.232 112.629 293.565 112.016C293.899 111.389 294.065 110.663 294.065 109.836ZM300.801 106.396C301.161 105.769 301.694 105.249 302.401 104.836C303.121 104.409 303.954 104.196 304.901 104.196C305.874 104.196 306.754 104.429 307.541 104.896C308.341 105.363 308.968 106.023 309.421 106.876C309.874 107.716 310.101 108.696 310.101 109.816C310.101 110.923 309.874 111.909 309.421 112.776C308.968 113.643 308.341 114.316 307.541 114.796C306.754 115.276 305.874 115.516 304.901 115.516C303.968 115.516 303.141 115.309 302.421 114.896C301.714 114.469 301.174 113.943 300.801 113.316V120.536H298.981V104.376H300.801V106.396ZM308.241 109.816C308.241 108.989 308.074 108.269 307.741 107.656C307.408 107.043 306.954 106.576 306.381 106.256C305.821 105.936 305.201 105.776 304.521 105.776C303.854 105.776 303.234 105.943 302.661 106.276C302.101 106.596 301.648 107.069 301.301 107.696C300.968 108.309 300.801 109.023 300.801 109.836C300.801 110.663 300.968 111.389 301.301 112.016C301.648 112.629 302.101 113.103 302.661 113.436C303.234 113.756 303.854 113.916 304.521 113.916C305.201 113.916 305.821 113.756 306.381 113.436C306.954 113.103 307.408 112.629 307.741 112.016C308.074 111.389 308.241 110.656 308.241 109.816ZM111.573 136.396C111.933 135.769 112.466 135.249 113.173 134.836C113.893 134.409 114.726 134.196 115.673 134.196C116.646 134.196 117.526 134.429 118.313 134.896C119.113 135.363 119.739 136.023 120.193 136.876C120.646 137.716 120.873 138.696 120.873 139.816C120.873 140.923 120.646 141.909 120.193 142.776C119.739 143.643 119.113 144.316 118.313 144.796C117.526 145.276 116.646 145.516 115.673 145.516C114.739 145.516 113.913 145.309 113.193 144.896C112.486 144.469 111.946 143.943 111.573 143.316V150.536H109.753V134.376H111.573V136.396ZM119.013 139.816C119.013 138.989 118.846 138.269 118.513 137.656C118.179 137.043 117.726 136.576 117.153 136.256C116.593 135.936 115.973 135.776 115.293 135.776C114.626 135.776 114.006 135.943 113.433 136.276C112.873 136.596 112.419 137.069 112.073 137.696C111.739 138.309 111.573 139.023 111.573 139.836C111.573 140.663 111.739 141.389 112.073 142.016C112.419 142.629 112.873 143.103 113.433 143.436C114.006 143.756 114.626 143.916 115.293 143.916C115.973 143.916 116.593 143.756 117.153 143.436C117.726 143.103 118.179 142.629 118.513 142.016C118.846 141.389 119.013 140.656 119.013 139.816ZM125.088 136.156C125.408 135.529 125.862 135.043 126.448 134.696C127.048 134.349 127.775 134.176 128.628 134.176V136.056H128.148C126.108 136.056 125.088 137.163 125.088 139.376V145.336H123.268V134.376H125.088V136.156ZM135.509 145.516C134.482 145.516 133.549 145.283 132.709 144.816C131.882 144.349 131.229 143.689 130.749 142.836C130.282 141.969 130.049 140.969 130.049 139.836C130.049 138.716 130.289 137.729 130.769 136.876C131.262 136.009 131.929 135.349 132.769 134.896C133.609 134.429 134.549 134.196 135.589 134.196C136.629 134.196 137.569 134.429 138.409 134.896C139.249 135.349 139.909 136.003 140.389 136.856C140.882 137.709 141.129 138.703 141.129 139.836C141.129 140.969 140.876 141.969 140.369 142.836C139.876 143.689 139.202 144.349 138.349 144.816C137.496 145.283 136.549 145.516 135.509 145.516ZM135.509 143.916C136.162 143.916 136.776 143.763 137.349 143.456C137.922 143.149 138.382 142.689 138.729 142.076C139.089 141.463 139.269 140.716 139.269 139.836C139.269 138.956 139.096 138.209 138.749 137.596C138.402 136.983 137.949 136.529 137.389 136.236C136.829 135.929 136.222 135.776 135.569 135.776C134.902 135.776 134.289 135.929 133.729 136.236C133.182 136.529 132.742 136.983 132.409 137.596C132.076 138.209 131.909 138.956 131.909 139.836C131.909 140.729 132.069 141.483 132.389 142.096C132.722 142.709 133.162 143.169 133.709 143.476C134.256 143.769 134.856 143.916 135.509 143.916ZM147.982 135.876H145.682V145.336H143.862V135.876H142.442V134.376H143.862V133.596C143.862 132.369 144.175 131.476 144.802 130.916C145.442 130.343 146.462 130.056 147.862 130.056V131.576C147.062 131.576 146.495 131.736 146.162 132.056C145.842 132.363 145.682 132.876 145.682 133.596V134.376H147.982V135.876ZM160.104 139.436C160.104 139.783 160.084 140.149 160.044 140.536H151.284C151.351 141.616 151.717 142.463 152.384 143.076C153.064 143.676 153.884 143.976 154.844 143.976C155.631 143.976 156.284 143.796 156.804 143.436C157.337 143.063 157.711 142.569 157.924 141.956H159.884C159.591 143.009 159.004 143.869 158.124 144.536C157.244 145.189 156.151 145.516 154.844 145.516C153.804 145.516 152.871 145.283 152.044 144.816C151.231 144.349 150.591 143.689 150.124 142.836C149.657 141.969 149.424 140.969 149.424 139.836C149.424 138.703 149.651 137.709 150.104 136.856C150.557 136.003 151.191 135.349 152.004 134.896C152.831 134.429 153.777 134.196 154.844 134.196C155.884 134.196 156.804 134.423 157.604 134.876C158.404 135.329 159.017 135.956 159.444 136.756C159.884 137.543 160.104 138.436 160.104 139.436ZM158.224 139.056C158.224 138.363 158.071 137.769 157.764 137.276C157.457 136.769 157.037 136.389 156.504 136.136C155.984 135.869 155.404 135.736 154.764 135.736C153.844 135.736 153.057 136.029 152.404 136.616C151.764 137.203 151.397 138.016 151.304 139.056H158.224ZM166.386 145.516C165.546 145.516 164.793 145.376 164.126 145.096C163.46 144.803 162.933 144.403 162.546 143.896C162.16 143.376 161.946 142.783 161.906 142.116H163.786C163.84 142.663 164.093 143.109 164.546 143.456C165.013 143.803 165.62 143.976 166.366 143.976C167.06 143.976 167.606 143.823 168.006 143.516C168.406 143.209 168.606 142.823 168.606 142.356C168.606 141.876 168.393 141.523 167.966 141.296C167.54 141.056 166.88 140.823 165.986 140.596C165.173 140.383 164.506 140.169 163.986 139.956C163.48 139.729 163.04 139.403 162.666 138.976C162.306 138.536 162.126 137.963 162.126 137.256C162.126 136.696 162.293 136.183 162.626 135.716C162.96 135.249 163.433 134.883 164.046 134.616C164.66 134.336 165.36 134.196 166.146 134.196C167.36 134.196 168.34 134.503 169.086 135.116C169.833 135.729 170.233 136.569 170.286 137.636H168.466C168.426 137.063 168.193 136.603 167.766 136.256C167.353 135.909 166.793 135.736 166.086 135.736C165.433 135.736 164.913 135.876 164.526 136.156C164.14 136.436 163.946 136.803 163.946 137.256C163.946 137.616 164.06 137.916 164.286 138.156C164.526 138.383 164.82 138.569 165.166 138.716C165.526 138.849 166.02 139.003 166.646 139.176C167.433 139.389 168.073 139.603 168.566 139.816C169.06 140.016 169.48 140.323 169.826 140.736C170.186 141.149 170.373 141.689 170.386 142.356C170.386 142.956 170.22 143.496 169.886 143.976C169.553 144.456 169.08 144.836 168.466 145.116C167.866 145.383 167.173 145.516 166.386 145.516ZM173.896 132.596C173.549 132.596 173.256 132.476 173.016 132.236C172.776 131.996 172.656 131.703 172.656 131.356C172.656 131.009 172.776 130.716 173.016 130.476C173.256 130.236 173.549 130.116 173.896 130.116C174.229 130.116 174.509 130.236 174.736 130.476C174.976 130.716 175.096 131.009 175.096 131.356C175.096 131.703 174.976 131.996 174.736 132.236C174.509 132.476 174.229 132.596 173.896 132.596ZM174.776 134.376V145.336H172.956V134.376H174.776ZM182.658 145.516C181.631 145.516 180.698 145.283 179.858 144.816C179.031 144.349 178.378 143.689 177.898 142.836C177.431 141.969 177.198 140.969 177.198 139.836C177.198 138.716 177.438 137.729 177.918 136.876C178.411 136.009 179.078 135.349 179.918 134.896C180.758 134.429 181.698 134.196 182.738 134.196C183.778 134.196 184.718 134.429 185.558 134.896C186.398 135.349 187.058 136.003 187.538 136.856C188.031 137.709 188.278 138.703 188.278 139.836C188.278 140.969 188.024 141.969 187.518 142.836C187.024 143.689 186.351 144.349 185.498 144.816C184.644 145.283 183.698 145.516 182.658 145.516ZM182.658 143.916C183.311 143.916 183.924 143.763 184.498 143.456C185.071 143.149 185.531 142.689 185.878 142.076C186.238 141.463 186.418 140.716 186.418 139.836C186.418 138.956 186.244 138.209 185.898 137.596C185.551 136.983 185.098 136.529 184.538 136.236C183.978 135.929 183.371 135.776 182.718 135.776C182.051 135.776 181.438 135.929 180.878 136.236C180.331 136.529 179.891 136.983 179.558 137.596C179.224 138.209 179.058 138.956 179.058 139.836C179.058 140.729 179.218 141.483 179.538 142.096C179.871 142.709 180.311 143.169 180.858 143.476C181.404 143.769 182.004 143.916 182.658 143.916ZM196.011 134.176C197.344 134.176 198.424 134.583 199.251 135.396C200.077 136.196 200.491 137.356 200.491 138.876V145.336H198.691V139.136C198.691 138.043 198.417 137.209 197.871 136.636C197.324 136.049 196.577 135.756 195.631 135.756C194.671 135.756 193.904 136.056 193.331 136.656C192.771 137.256 192.491 138.129 192.491 139.276V145.336H190.671V134.376H192.491V135.936C192.851 135.376 193.337 134.943 193.951 134.636C194.577 134.329 195.264 134.176 196.011 134.176ZM202.783 139.816C202.783 138.696 203.01 137.716 203.463 136.876C203.917 136.023 204.537 135.363 205.323 134.896C206.123 134.429 207.01 134.196 207.983 134.196C208.943 134.196 209.777 134.403 210.483 134.816C211.19 135.229 211.717 135.749 212.063 136.376V134.376H213.903V145.336H212.063V143.296C211.703 143.936 211.163 144.469 210.443 144.896C209.737 145.309 208.91 145.516 207.963 145.516C206.99 145.516 206.11 145.276 205.323 144.796C204.537 144.316 203.917 143.643 203.463 142.776C203.01 141.909 202.783 140.923 202.783 139.816ZM212.063 139.836C212.063 139.009 211.897 138.289 211.563 137.676C211.23 137.063 210.777 136.596 210.203 136.276C209.643 135.943 209.023 135.776 208.343 135.776C207.663 135.776 207.043 135.936 206.483 136.256C205.923 136.576 205.477 137.043 205.143 137.656C204.81 138.269 204.643 138.989 204.643 139.816C204.643 140.656 204.81 141.389 205.143 142.016C205.477 142.629 205.923 143.103 206.483 143.436C207.043 143.756 207.663 143.916 208.343 143.916C209.023 143.916 209.643 143.756 210.203 143.436C210.777 143.103 211.23 142.629 211.563 142.016C211.897 141.389 212.063 140.663 212.063 139.836ZM218.799 130.536V145.336H216.979V130.536H218.799ZM236.673 134.376L230.073 150.496H228.193L230.353 145.216L225.933 134.376H227.953L231.393 143.256L234.793 134.376H236.673ZM237.823 139.816C237.823 138.696 238.049 137.716 238.503 136.876C238.956 136.023 239.576 135.363 240.363 134.896C241.163 134.429 242.049 134.196 243.023 134.196C243.983 134.196 244.816 134.403 245.523 134.816C246.229 135.229 246.756 135.749 247.103 136.376V134.376H248.943V145.336H247.103V143.296C246.743 143.936 246.203 144.469 245.483 144.896C244.776 145.309 243.949 145.516 243.003 145.516C242.029 145.516 241.149 145.276 240.363 144.796C239.576 144.316 238.956 143.643 238.503 142.776C238.049 141.909 237.823 140.923 237.823 139.816ZM247.103 139.836C247.103 139.009 246.936 138.289 246.603 137.676C246.269 137.063 245.816 136.596 245.243 136.276C244.683 135.943 244.063 135.776 243.383 135.776C242.703 135.776 242.083 135.936 241.523 136.256C240.963 136.576 240.516 137.043 240.183 137.656C239.849 138.269 239.683 138.989 239.683 139.816C239.683 140.656 239.849 141.389 240.183 142.016C240.516 142.629 240.963 143.103 241.523 143.436C242.083 143.756 242.703 143.916 243.383 143.916C244.063 143.916 244.683 143.756 245.243 143.436C245.816 143.103 246.269 142.629 246.603 142.016C246.936 141.389 247.103 140.663 247.103 139.836ZM257.358 134.176C258.692 134.176 259.772 134.583 260.598 135.396C261.425 136.196 261.838 137.356 261.838 138.876V145.336H260.038V139.136C260.038 138.043 259.765 137.209 259.218 136.636C258.672 136.049 257.925 135.756 256.978 135.756C256.018 135.756 255.252 136.056 254.678 136.656C254.118 137.256 253.838 138.129 253.838 139.276V145.336H252.018V134.376H253.838V135.936C254.198 135.376 254.685 134.943 255.298 134.636C255.925 134.329 256.612 134.176 257.358 134.176ZM269.331 134.196C270.278 134.196 271.104 134.403 271.811 134.816C272.531 135.229 273.064 135.749 273.411 136.376V134.376H275.251V145.576C275.251 146.576 275.038 147.463 274.611 148.236C274.184 149.023 273.571 149.636 272.771 150.076C271.984 150.516 271.064 150.736 270.011 150.736C268.571 150.736 267.371 150.396 266.411 149.716C265.451 149.036 264.884 148.109 264.711 146.936H266.511C266.711 147.603 267.124 148.136 267.751 148.536C268.378 148.949 269.131 149.156 270.011 149.156C271.011 149.156 271.824 148.843 272.451 148.216C273.091 147.589 273.411 146.709 273.411 145.576V143.276C273.051 143.916 272.518 144.449 271.811 144.876C271.104 145.303 270.278 145.516 269.331 145.516C268.358 145.516 267.471 145.276 266.671 144.796C265.884 144.316 265.264 143.643 264.811 142.776C264.358 141.909 264.131 140.923 264.131 139.816C264.131 138.696 264.358 137.716 264.811 136.876C265.264 136.023 265.884 135.363 266.671 134.896C267.471 134.429 268.358 134.196 269.331 134.196ZM273.411 139.836C273.411 139.009 273.244 138.289 272.911 137.676C272.578 137.063 272.124 136.596 271.551 136.276C270.991 135.943 270.371 135.776 269.691 135.776C269.011 135.776 268.391 135.936 267.831 136.256C267.271 136.576 266.824 137.043 266.491 137.656C266.158 138.269 265.991 138.989 265.991 139.816C265.991 140.656 266.158 141.389 266.491 142.016C266.824 142.629 267.271 143.103 267.831 143.436C268.391 143.756 269.011 143.916 269.691 143.916C270.371 143.916 270.991 143.756 271.551 143.436C272.124 143.103 272.578 142.629 272.911 142.016C273.244 141.389 273.411 140.663 273.411 139.836ZM115.843 164.176C116.696 164.176 117.456 164.356 118.123 164.716C118.789 165.063 119.316 165.589 119.703 166.296C120.089 167.003 120.283 167.863 120.283 168.876V175.336H118.483V169.136C118.483 168.043 118.209 167.209 117.663 166.636C117.129 166.049 116.403 165.756 115.483 165.756C114.536 165.756 113.783 166.063 113.223 166.676C112.663 167.276 112.383 168.149 112.383 169.296V175.336H110.583V169.136C110.583 168.043 110.309 167.209 109.763 166.636C109.229 166.049 108.503 165.756 107.583 165.756C106.636 165.756 105.883 166.063 105.323 166.676C104.763 167.276 104.483 168.149 104.483 169.296V175.336H102.663V164.376H104.483V165.956C104.843 165.383 105.323 164.943 105.923 164.636C106.536 164.329 107.209 164.176 107.943 164.176C108.863 164.176 109.676 164.383 110.383 164.796C111.089 165.209 111.616 165.816 111.963 166.616C112.269 165.843 112.776 165.243 113.483 164.816C114.189 164.389 114.976 164.176 115.843 164.176ZM133.268 169.436C133.268 169.783 133.248 170.149 133.208 170.536H124.448C124.515 171.616 124.882 172.463 125.548 173.076C126.228 173.676 127.048 173.976 128.008 173.976C128.795 173.976 129.448 173.796 129.968 173.436C130.502 173.063 130.875 172.569 131.088 171.956H133.048C132.755 173.009 132.168 173.869 131.288 174.536C130.408 175.189 129.315 175.516 128.008 175.516C126.968 175.516 126.035 175.283 125.208 174.816C124.395 174.349 123.755 173.689 123.288 172.836C122.822 171.969 122.588 170.969 122.588 169.836C122.588 168.703 122.815 167.709 123.268 166.856C123.722 166.003 124.355 165.349 125.168 164.896C125.995 164.429 126.942 164.196 128.008 164.196C129.048 164.196 129.968 164.423 130.768 164.876C131.568 165.329 132.182 165.956 132.608 166.756C133.048 167.543 133.268 168.436 133.268 169.436ZM131.388 169.056C131.388 168.363 131.235 167.769 130.928 167.276C130.622 166.769 130.202 166.389 129.668 166.136C129.148 165.869 128.568 165.736 127.928 165.736C127.008 165.736 126.222 166.029 125.568 166.616C124.928 167.203 124.562 168.016 124.468 169.056H131.388ZM141.011 164.176C142.344 164.176 143.424 164.583 144.251 165.396C145.077 166.196 145.491 167.356 145.491 168.876V175.336H143.691V169.136C143.691 168.043 143.417 167.209 142.871 166.636C142.324 166.049 141.577 165.756 140.631 165.756C139.671 165.756 138.904 166.056 138.331 166.656C137.771 167.256 137.491 168.129 137.491 169.276V175.336H135.671V164.376H137.491V165.936C137.851 165.376 138.337 164.943 138.951 164.636C139.577 164.329 140.264 164.176 141.011 164.176ZM152.983 164.196C153.93 164.196 154.757 164.403 155.463 164.816C156.183 165.229 156.717 165.749 157.063 166.376V164.376H158.903V175.576C158.903 176.576 158.69 177.463 158.263 178.236C157.837 179.023 157.223 179.636 156.423 180.076C155.637 180.516 154.717 180.736 153.663 180.736C152.223 180.736 151.023 180.396 150.063 179.716C149.103 179.036 148.537 178.109 148.363 176.936H150.163C150.363 177.603 150.777 178.136 151.403 178.536C152.03 178.949 152.783 179.156 153.663 179.156C154.663 179.156 155.477 178.843 156.103 178.216C156.743 177.589 157.063 176.709 157.063 175.576V173.276C156.703 173.916 156.17 174.449 155.463 174.876C154.757 175.303 153.93 175.516 152.983 175.516C152.01 175.516 151.123 175.276 150.323 174.796C149.537 174.316 148.917 173.643 148.463 172.776C148.01 171.909 147.783 170.923 147.783 169.816C147.783 168.696 148.01 167.716 148.463 166.876C148.917 166.023 149.537 165.363 150.323 164.896C151.123 164.429 152.01 164.196 152.983 164.196ZM157.063 169.836C157.063 169.009 156.897 168.289 156.563 167.676C156.23 167.063 155.777 166.596 155.203 166.276C154.643 165.943 154.023 165.776 153.343 165.776C152.663 165.776 152.043 165.936 151.483 166.256C150.923 166.576 150.477 167.043 150.143 167.656C149.81 168.269 149.643 168.989 149.643 169.816C149.643 170.656 149.81 171.389 150.143 172.016C150.477 172.629 150.923 173.103 151.483 173.436C152.043 173.756 152.663 173.916 153.343 173.916C154.023 173.916 154.643 173.756 155.203 173.436C155.777 173.103 156.23 172.629 156.563 172.016C156.897 171.389 157.063 170.663 157.063 169.836ZM167.419 164.176C168.246 164.176 168.992 164.356 169.659 164.716C170.326 165.063 170.846 165.589 171.219 166.296C171.606 167.003 171.799 167.863 171.799 168.876V175.336H169.999V169.136C169.999 168.043 169.726 167.209 169.179 166.636C168.632 166.049 167.886 165.756 166.939 165.756C165.979 165.756 165.212 166.056 164.639 166.656C164.079 167.256 163.799 168.129 163.799 169.276V175.336H161.979V160.536H163.799V165.936C164.159 165.376 164.652 164.943 165.279 164.636C165.919 164.329 166.632 164.176 167.419 164.176ZM174.092 169.816C174.092 168.696 174.319 167.716 174.772 166.876C175.225 166.023 175.845 165.363 176.632 164.896C177.432 164.429 178.319 164.196 179.292 164.196C180.252 164.196 181.085 164.403 181.792 164.816C182.499 165.229 183.025 165.749 183.372 166.376V164.376H185.212V175.336H183.372V173.296C183.012 173.936 182.472 174.469 181.752 174.896C181.045 175.309 180.219 175.516 179.272 175.516C178.299 175.516 177.419 175.276 176.632 174.796C175.845 174.316 175.225 173.643 174.772 172.776C174.319 171.909 174.092 170.923 174.092 169.816ZM183.372 169.836C183.372 169.009 183.205 168.289 182.872 167.676C182.539 167.063 182.085 166.596 181.512 166.276C180.952 165.943 180.332 165.776 179.652 165.776C178.972 165.776 178.352 165.936 177.792 166.256C177.232 166.576 176.785 167.043 176.452 167.656C176.119 168.269 175.952 168.989 175.952 169.816C175.952 170.656 176.119 171.389 176.452 172.016C176.785 172.629 177.232 173.103 177.792 173.436C178.352 173.756 178.972 173.916 179.652 173.916C180.332 173.916 180.952 173.756 181.512 173.436C182.085 173.103 182.539 172.629 182.872 172.016C183.205 171.389 183.372 170.663 183.372 169.836ZM190.108 166.156C190.428 165.529 190.881 165.043 191.468 164.696C192.068 164.349 192.794 164.176 193.648 164.176V166.056H193.168C191.128 166.056 190.108 167.163 190.108 169.376V175.336H188.288V164.376H190.108V166.156ZM200.269 164.196C201.215 164.196 202.042 164.403 202.749 164.816C203.469 165.229 204.002 165.749 204.349 166.376V164.376H206.189V175.576C206.189 176.576 205.975 177.463 205.549 178.236C205.122 179.023 204.509 179.636 203.709 180.076C202.922 180.516 202.002 180.736 200.949 180.736C199.509 180.736 198.309 180.396 197.349 179.716C196.389 179.036 195.822 178.109 195.649 176.936H197.449C197.649 177.603 198.062 178.136 198.689 178.536C199.315 178.949 200.069 179.156 200.949 179.156C201.949 179.156 202.762 178.843 203.389 178.216C204.029 177.589 204.349 176.709 204.349 175.576V173.276C203.989 173.916 203.455 174.449 202.749 174.876C202.042 175.303 201.215 175.516 200.269 175.516C199.295 175.516 198.409 175.276 197.609 174.796C196.822 174.316 196.202 173.643 195.749 172.776C195.295 171.909 195.069 170.923 195.069 169.816C195.069 168.696 195.295 167.716 195.749 166.876C196.202 166.023 196.822 165.363 197.609 164.896C198.409 164.429 199.295 164.196 200.269 164.196ZM204.349 169.836C204.349 169.009 204.182 168.289 203.849 167.676C203.515 167.063 203.062 166.596 202.489 166.276C201.929 165.943 201.309 165.776 200.629 165.776C199.949 165.776 199.329 165.936 198.769 166.256C198.209 166.576 197.762 167.043 197.429 167.656C197.095 168.269 196.929 168.989 196.929 169.816C196.929 170.656 197.095 171.389 197.429 172.016C197.762 172.629 198.209 173.103 198.769 173.436C199.329 173.756 199.949 173.916 200.629 173.916C201.309 173.916 201.929 173.756 202.489 173.436C203.062 173.103 203.515 172.629 203.849 172.016C204.182 171.389 204.349 170.663 204.349 169.836ZM208.584 169.816C208.584 168.696 208.811 167.716 209.264 166.876C209.718 166.023 210.338 165.363 211.124 164.896C211.924 164.429 212.811 164.196 213.784 164.196C214.744 164.196 215.578 164.403 216.284 164.816C216.991 165.229 217.518 165.749 217.864 166.376V164.376H219.704V175.336H217.864V173.296C217.504 173.936 216.964 174.469 216.244 174.896C215.538 175.309 214.711 175.516 213.764 175.516C212.791 175.516 211.911 175.276 211.124 174.796C210.338 174.316 209.718 173.643 209.264 172.776C208.811 171.909 208.584 170.923 208.584 169.816ZM217.864 169.836C217.864 169.009 217.698 168.289 217.364 167.676C217.031 167.063 216.578 166.596 216.004 166.276C215.444 165.943 214.824 165.776 214.144 165.776C213.464 165.776 212.844 165.936 212.284 166.256C211.724 166.576 211.278 167.043 210.944 167.656C210.611 168.269 210.444 168.989 210.444 169.816C210.444 170.656 210.611 171.389 210.944 172.016C211.278 172.629 211.724 173.103 212.284 173.436C212.844 173.756 213.464 173.916 214.144 173.916C214.824 173.916 215.444 173.756 216.004 173.436C216.578 173.103 217.031 172.629 217.364 172.016C217.698 171.389 217.864 170.663 217.864 169.836ZM223.72 162.596C223.373 162.596 223.08 162.476 222.84 162.236C222.6 161.996 222.48 161.703 222.48 161.356C222.48 161.009 222.6 160.716 222.84 160.476C223.08 160.236 223.373 160.116 223.72 160.116C224.053 160.116 224.333 160.236 224.56 160.476C224.8 160.716 224.92 161.009 224.92 161.356C224.92 161.703 224.8 161.996 224.56 162.236C224.333 162.476 224.053 162.596 223.72 162.596ZM224.6 164.376V175.336H222.78V164.376H224.6ZM243.034 169.436C243.034 169.783 243.014 170.149 242.974 170.536H234.214C234.28 171.616 234.647 172.463 235.314 173.076C235.994 173.676 236.814 173.976 237.774 173.976C238.56 173.976 239.214 173.796 239.734 173.436C240.267 173.063 240.64 172.569 240.854 171.956H242.814C242.52 173.009 241.934 173.869 241.054 174.536C240.174 175.189 239.08 175.516 237.774 175.516C236.734 175.516 235.8 175.283 234.974 174.816C234.16 174.349 233.52 173.689 233.054 172.836C232.587 171.969 232.354 170.969 232.354 169.836C232.354 168.703 232.58 167.709 233.034 166.856C233.487 166.003 234.12 165.349 234.934 164.896C235.76 164.429 236.707 164.196 237.774 164.196C238.814 164.196 239.734 164.423 240.534 164.876C241.334 165.329 241.947 165.956 242.374 166.756C242.814 167.543 243.034 168.436 243.034 169.436ZM241.154 169.056C241.154 168.363 241 167.769 240.694 167.276C240.387 166.769 239.967 166.389 239.434 166.136C238.914 165.869 238.334 165.736 237.694 165.736C236.774 165.736 235.987 166.029 235.334 166.616C234.694 167.203 234.327 168.016 234.234 169.056H241.154ZM247.656 165.876V172.336C247.656 172.869 247.769 173.249 247.996 173.476C248.223 173.689 248.616 173.796 249.176 173.796H250.516V175.336H248.876C247.863 175.336 247.103 175.103 246.596 174.636C246.089 174.169 245.836 173.403 245.836 172.336V165.876H244.416V164.376H245.836V161.616H247.656V164.376H250.516V165.876H247.656ZM253.661 162.596C253.315 162.596 253.021 162.476 252.781 162.236C252.541 161.996 252.421 161.703 252.421 161.356C252.421 161.009 252.541 160.716 252.781 160.476C253.021 160.236 253.315 160.116 253.661 160.116C253.995 160.116 254.275 160.236 254.501 160.476C254.741 160.716 254.861 161.009 254.861 161.356C254.861 161.703 254.741 161.996 254.501 162.236C254.275 162.476 253.995 162.596 253.661 162.596ZM254.541 164.376V175.336H252.721V164.376H254.541ZM263.763 175.336L259.463 170.496V175.336H257.643V160.536H259.463V169.236L263.683 164.376H266.223L261.063 169.836L266.243 175.336H263.763ZM267.256 169.816C267.256 168.696 267.483 167.716 267.936 166.876C268.389 166.023 269.009 165.363 269.796 164.896C270.596 164.429 271.483 164.196 272.456 164.196C273.416 164.196 274.249 164.403 274.956 164.816C275.663 165.229 276.189 165.749 276.536 166.376V164.376H278.376V175.336H276.536V173.296C276.176 173.936 275.636 174.469 274.916 174.896C274.209 175.309 273.383 175.516 272.436 175.516C271.463 175.516 270.583 175.276 269.796 174.796C269.009 174.316 268.389 173.643 267.936 172.776C267.483 171.909 267.256 170.923 267.256 169.816ZM276.536 169.836C276.536 169.009 276.369 168.289 276.036 167.676C275.703 167.063 275.249 166.596 274.676 166.276C274.116 165.943 273.496 165.776 272.816 165.776C272.136 165.776 271.516 165.936 270.956 166.256C270.396 166.576 269.949 167.043 269.616 167.656C269.283 168.269 269.116 168.989 269.116 169.816C269.116 170.656 269.283 171.389 269.616 172.016C269.949 172.629 270.396 173.103 270.956 173.436C271.516 173.756 272.136 173.916 272.816 173.916C273.496 173.916 274.116 173.756 274.676 173.436C275.249 173.103 275.703 172.629 276.036 172.016C276.369 171.389 276.536 170.663 276.536 169.836ZM283.332 172.816L281.092 178.196H279.872L281.332 172.816H283.332ZM103.832 205.336L99.5315 200.496V205.336H97.7115V190.536H99.5315V199.236L103.752 194.376H106.292L101.132 199.836L106.312 205.336H103.832ZM118.005 199.436C118.005 199.783 117.985 200.149 117.945 200.536H109.185C109.251 201.616 109.618 202.463 110.285 203.076C110.965 203.676 111.785 203.976 112.745 203.976C113.531 203.976 114.185 203.796 114.705 203.436C115.238 203.063 115.611 202.569 115.825 201.956H117.785C117.491 203.009 116.905 203.869 116.025 204.536C115.145 205.189 114.051 205.516 112.745 205.516C111.705 205.516 110.771 205.283 109.945 204.816C109.131 204.349 108.491 203.689 108.025 202.836C107.558 201.969 107.325 200.969 107.325 199.836C107.325 198.703 107.551 197.709 108.005 196.856C108.458 196.003 109.091 195.349 109.905 194.896C110.731 194.429 111.678 194.196 112.745 194.196C113.785 194.196 114.705 194.423 115.505 194.876C116.305 195.329 116.918 195.956 117.345 196.756C117.785 197.543 118.005 198.436 118.005 199.436ZM116.125 199.056C116.125 198.363 115.971 197.769 115.665 197.276C115.358 196.769 114.938 196.389 114.405 196.136C113.885 195.869 113.305 195.736 112.665 195.736C111.745 195.736 110.958 196.029 110.305 196.616C109.665 197.203 109.298 198.016 109.205 199.056H116.125ZM122.227 196.416C122.6 195.763 123.147 195.229 123.867 194.816C124.587 194.403 125.407 194.196 126.327 194.196C127.314 194.196 128.2 194.429 128.987 194.896C129.774 195.363 130.394 196.023 130.847 196.876C131.3 197.716 131.527 198.696 131.527 199.816C131.527 200.923 131.3 201.909 130.847 202.776C130.394 203.643 129.767 204.316 128.967 204.796C128.18 205.276 127.3 205.516 126.327 205.516C125.38 205.516 124.547 205.309 123.827 204.896C123.12 204.483 122.587 203.956 122.227 203.316V205.336H120.407V190.536H122.227V196.416ZM129.667 199.816C129.667 198.989 129.5 198.269 129.167 197.656C128.834 197.043 128.38 196.576 127.807 196.256C127.247 195.936 126.627 195.776 125.947 195.776C125.28 195.776 124.66 195.943 124.087 196.276C123.527 196.596 123.074 197.069 122.727 197.696C122.394 198.309 122.227 199.023 122.227 199.836C122.227 200.663 122.394 201.389 122.727 202.016C123.074 202.629 123.527 203.103 124.087 203.436C124.66 203.756 125.28 203.916 125.947 203.916C126.627 203.916 127.247 203.756 127.807 203.436C128.38 203.103 128.834 202.629 129.167 202.016C129.5 201.389 129.667 200.656 129.667 199.816ZM143.922 199.436C143.922 199.783 143.902 200.149 143.862 200.536H135.102C135.169 201.616 135.536 202.463 136.202 203.076C136.882 203.676 137.702 203.976 138.662 203.976C139.449 203.976 140.102 203.796 140.622 203.436C141.156 203.063 141.529 202.569 141.742 201.956H143.702C143.409 203.009 142.822 203.869 141.942 204.536C141.062 205.189 139.969 205.516 138.662 205.516C137.622 205.516 136.689 205.283 135.862 204.816C135.049 204.349 134.409 203.689 133.942 202.836C133.476 201.969 133.242 200.969 133.242 199.836C133.242 198.703 133.469 197.709 133.922 196.856C134.376 196.003 135.009 195.349 135.822 194.896C136.649 194.429 137.596 194.196 138.662 194.196C139.702 194.196 140.622 194.423 141.422 194.876C142.222 195.329 142.836 195.956 143.262 196.756C143.702 197.543 143.922 198.436 143.922 199.436ZM142.042 199.056C142.042 198.363 141.889 197.769 141.582 197.276C141.276 196.769 140.856 196.389 140.322 196.136C139.802 195.869 139.222 195.736 138.582 195.736C137.662 195.736 136.876 196.029 136.222 196.616C135.582 197.203 135.216 198.016 135.122 199.056H142.042ZM148.145 196.156C148.465 195.529 148.918 195.043 149.505 194.696C150.105 194.349 150.831 194.176 151.685 194.176V196.056H151.205C149.165 196.056 148.145 197.163 148.145 199.376V205.336H146.325V194.376H148.145V196.156ZM153.106 199.816C153.106 198.696 153.332 197.716 153.786 196.876C154.239 196.023 154.859 195.363 155.646 194.896C156.446 194.429 157.332 194.196 158.306 194.196C159.266 194.196 160.099 194.403 160.806 194.816C161.512 195.229 162.039 195.749 162.386 196.376V194.376H164.226V205.336H162.386V203.296C162.026 203.936 161.486 204.469 160.766 204.896C160.059 205.309 159.232 205.516 158.286 205.516C157.312 205.516 156.432 205.276 155.646 204.796C154.859 204.316 154.239 203.643 153.786 202.776C153.332 201.909 153.106 200.923 153.106 199.816ZM162.386 199.836C162.386 199.009 162.219 198.289 161.886 197.676C161.552 197.063 161.099 196.596 160.526 196.276C159.966 195.943 159.346 195.776 158.666 195.776C157.986 195.776 157.366 195.936 156.806 196.256C156.246 196.576 155.799 197.043 155.466 197.656C155.132 198.269 154.966 198.989 154.966 199.816C154.966 200.656 155.132 201.389 155.466 202.016C155.799 202.629 156.246 203.103 156.806 203.436C157.366 203.756 157.986 203.916 158.666 203.916C159.346 203.916 159.966 203.756 160.526 203.436C161.099 203.103 161.552 202.629 161.886 202.016C162.219 201.389 162.386 200.663 162.386 199.836ZM171.821 194.196C172.768 194.196 173.595 194.403 174.301 194.816C175.021 195.229 175.555 195.749 175.901 196.376V194.376H177.741V205.576C177.741 206.576 177.528 207.463 177.101 208.236C176.675 209.023 176.061 209.636 175.261 210.076C174.475 210.516 173.555 210.736 172.501 210.736C171.061 210.736 169.861 210.396 168.901 209.716C167.941 209.036 167.375 208.109 167.201 206.936H169.001C169.201 207.603 169.615 208.136 170.241 208.536C170.868 208.949 171.621 209.156 172.501 209.156C173.501 209.156 174.315 208.843 174.941 208.216C175.581 207.589 175.901 206.709 175.901 205.576V203.276C175.541 203.916 175.008 204.449 174.301 204.876C173.595 205.303 172.768 205.516 171.821 205.516C170.848 205.516 169.961 205.276 169.161 204.796C168.375 204.316 167.755 203.643 167.301 202.776C166.848 201.909 166.621 200.923 166.621 199.816C166.621 198.696 166.848 197.716 167.301 196.876C167.755 196.023 168.375 195.363 169.161 194.896C169.961 194.429 170.848 194.196 171.821 194.196ZM175.901 199.836C175.901 199.009 175.735 198.289 175.401 197.676C175.068 197.063 174.615 196.596 174.041 196.276C173.481 195.943 172.861 195.776 172.181 195.776C171.501 195.776 170.881 195.936 170.321 196.256C169.761 196.576 169.315 197.043 168.981 197.656C168.648 198.269 168.481 198.989 168.481 199.816C168.481 200.656 168.648 201.389 168.981 202.016C169.315 202.629 169.761 203.103 170.321 203.436C170.881 203.756 171.501 203.916 172.181 203.916C172.861 203.916 173.481 203.756 174.041 203.436C174.615 203.103 175.068 202.629 175.401 202.016C175.735 201.389 175.901 200.663 175.901 199.836ZM180.137 199.816C180.137 198.696 180.364 197.716 180.817 196.876C181.27 196.023 181.89 195.363 182.677 194.896C183.477 194.429 184.364 194.196 185.337 194.196C186.297 194.196 187.13 194.403 187.837 194.816C188.544 195.229 189.07 195.749 189.417 196.376V194.376H191.257V205.336H189.417V203.296C189.057 203.936 188.517 204.469 187.797 204.896C187.09 205.309 186.264 205.516 185.317 205.516C184.344 205.516 183.464 205.276 182.677 204.796C181.89 204.316 181.27 203.643 180.817 202.776C180.364 201.909 180.137 200.923 180.137 199.816ZM189.417 199.836C189.417 199.009 189.25 198.289 188.917 197.676C188.584 197.063 188.13 196.596 187.557 196.276C186.997 195.943 186.377 195.776 185.697 195.776C185.017 195.776 184.397 195.936 183.837 196.256C183.277 196.576 182.83 197.043 182.497 197.656C182.164 198.269 181.997 198.989 181.997 199.816C181.997 200.656 182.164 201.389 182.497 202.016C182.83 202.629 183.277 203.103 183.837 203.436C184.397 203.756 185.017 203.916 185.697 203.916C186.377 203.916 186.997 203.756 187.557 203.436C188.13 203.103 188.584 202.629 188.917 202.016C189.25 201.389 189.417 200.663 189.417 199.836ZM207.513 194.176C208.366 194.176 209.126 194.356 209.793 194.716C210.459 195.063 210.986 195.589 211.373 196.296C211.759 197.003 211.953 197.863 211.953 198.876V205.336H210.153V199.136C210.153 198.043 209.879 197.209 209.333 196.636C208.799 196.049 208.073 195.756 207.153 195.756C206.206 195.756 205.453 196.063 204.893 196.676C204.333 197.276 204.053 198.149 204.053 199.296V205.336H202.253V199.136C202.253 198.043 201.979 197.209 201.433 196.636C200.899 196.049 200.173 195.756 199.253 195.756C198.306 195.756 197.553 196.063 196.993 196.676C196.433 197.276 196.153 198.149 196.153 199.296V205.336H194.333V194.376H196.153V195.956C196.513 195.383 196.993 194.943 197.593 194.636C198.206 194.329 198.879 194.176 199.613 194.176C200.533 194.176 201.346 194.383 202.053 194.796C202.759 195.209 203.286 195.816 203.633 196.616C203.939 195.843 204.446 195.243 205.153 194.816C205.859 194.389 206.646 194.176 207.513 194.176ZM214.258 199.816C214.258 198.696 214.485 197.716 214.938 196.876C215.391 196.023 216.011 195.363 216.798 194.896C217.598 194.429 218.485 194.196 219.458 194.196C220.418 194.196 221.251 194.403 221.958 194.816C222.665 195.229 223.191 195.749 223.538 196.376V194.376H225.378V205.336H223.538V203.296C223.178 203.936 222.638 204.469 221.918 204.896C221.211 205.309 220.385 205.516 219.438 205.516C218.465 205.516 217.585 205.276 216.798 204.796C216.011 204.316 215.391 203.643 214.938 202.776C214.485 201.909 214.258 200.923 214.258 199.816ZM223.538 199.836C223.538 199.009 223.371 198.289 223.038 197.676C222.705 197.063 222.251 196.596 221.678 196.276C221.118 195.943 220.498 195.776 219.818 195.776C219.138 195.776 218.518 195.936 217.958 196.256C217.398 196.576 216.951 197.043 216.618 197.656C216.285 198.269 216.118 198.989 216.118 199.816C216.118 200.656 216.285 201.389 216.618 202.016C216.951 202.629 217.398 203.103 217.958 203.436C218.518 203.756 219.138 203.916 219.818 203.916C220.498 203.916 221.118 203.756 221.678 203.436C222.251 203.103 222.705 202.629 223.038 202.016C223.371 201.389 223.538 200.663 223.538 199.836ZM233.794 194.176C235.127 194.176 236.207 194.583 237.034 195.396C237.86 196.196 238.274 197.356 238.274 198.876V205.336H236.474V199.136C236.474 198.043 236.2 197.209 235.654 196.636C235.107 196.049 234.36 195.756 233.414 195.756C232.454 195.756 231.687 196.056 231.114 196.656C230.554 197.256 230.274 198.129 230.274 199.276V205.336H228.454V194.376H230.274V195.936C230.634 195.376 231.12 194.943 231.734 194.636C232.36 194.329 233.047 194.176 233.794 194.176ZM243.127 202.816L240.887 208.196H239.667L241.127 202.816H243.127ZM249.864 199.816C249.864 198.696 250.09 197.716 250.544 196.876C250.997 196.023 251.617 195.363 252.404 194.896C253.204 194.429 254.097 194.196 255.084 194.196C255.937 194.196 256.73 194.396 257.464 194.796C258.197 195.183 258.757 195.696 259.144 196.336V190.536H260.984V205.336H259.144V203.276C258.784 203.929 258.25 204.469 257.544 204.896C256.837 205.309 256.01 205.516 255.064 205.516C254.09 205.516 253.204 205.276 252.404 204.796C251.617 204.316 250.997 203.643 250.544 202.776C250.09 201.909 249.864 200.923 249.864 199.816ZM259.144 199.836C259.144 199.009 258.977 198.289 258.644 197.676C258.31 197.063 257.857 196.596 257.284 196.276C256.724 195.943 256.104 195.776 255.424 195.776C254.744 195.776 254.124 195.936 253.564 196.256C253.004 196.576 252.557 197.043 252.224 197.656C251.89 198.269 251.724 198.989 251.724 199.816C251.724 200.656 251.89 201.389 252.224 202.016C252.557 202.629 253.004 203.103 253.564 203.436C254.124 203.756 254.744 203.916 255.424 203.916C256.104 203.916 256.724 203.756 257.284 203.436C257.857 203.103 258.31 202.629 258.644 202.016C258.977 201.389 259.144 200.663 259.144 199.836ZM263.379 199.816C263.379 198.696 263.606 197.716 264.059 196.876C264.513 196.023 265.133 195.363 265.919 194.896C266.719 194.429 267.606 194.196 268.579 194.196C269.539 194.196 270.373 194.403 271.079 194.816C271.786 195.229 272.313 195.749 272.659 196.376V194.376H274.499V205.336H272.659V203.296C272.299 203.936 271.759 204.469 271.039 204.896C270.333 205.309 269.506 205.516 268.559 205.516C267.586 205.516 266.706 205.276 265.919 204.796C265.133 204.316 264.513 203.643 264.059 202.776C263.606 201.909 263.379 200.923 263.379 199.816ZM272.659 199.836C272.659 199.009 272.493 198.289 272.159 197.676C271.826 197.063 271.373 196.596 270.799 196.276C270.239 195.943 269.619 195.776 268.939 195.776C268.259 195.776 267.639 195.936 267.079 196.256C266.519 196.576 266.073 197.043 265.739 197.656C265.406 198.269 265.239 198.989 265.239 199.816C265.239 200.656 265.406 201.389 265.739 202.016C266.073 202.629 266.519 203.103 267.079 203.436C267.639 203.756 268.259 203.916 268.939 203.916C269.619 203.916 270.239 203.756 270.799 203.436C271.373 203.103 271.826 202.629 272.159 202.016C272.493 201.389 272.659 200.663 272.659 199.836ZM282.915 194.176C284.248 194.176 285.328 194.583 286.155 195.396C286.981 196.196 287.395 197.356 287.395 198.876V205.336H285.595V199.136C285.595 198.043 285.321 197.209 284.775 196.636C284.228 196.049 283.481 195.756 282.535 195.756C281.575 195.756 280.808 196.056 280.235 196.656C279.675 197.256 279.395 198.129 279.395 199.276V205.336H277.575V194.376H279.395V195.936C279.755 195.376 280.241 194.943 280.855 194.636C281.481 194.329 282.168 194.176 282.915 194.176ZM100.843 224.176C101.696 224.176 102.456 224.356 103.123 224.716C103.789 225.063 104.316 225.589 104.703 226.296C105.089 227.003 105.283 227.863 105.283 228.876V235.336H103.483V229.136C103.483 228.043 103.209 227.209 102.663 226.636C102.129 226.049 101.403 225.756 100.483 225.756C99.536 225.756 98.7827 226.063 98.2227 226.676C97.6627 227.276 97.3827 228.149 97.3827 229.296V235.336H95.5827V229.136C95.5827 228.043 95.3094 227.209 94.7627 226.636C94.2294 226.049 93.5027 225.756 92.5827 225.756C91.636 225.756 90.8827 226.063 90.3227 226.676C89.7627 227.276 89.4827 228.149 89.4827 229.296V235.336H87.6627V224.376H89.4827V225.956C89.8427 225.383 90.3227 224.943 90.9227 224.636C91.536 224.329 92.2094 224.176 92.9427 224.176C93.8627 224.176 94.676 224.383 95.3827 224.796C96.0894 225.209 96.616 225.816 96.9627 226.616C97.2694 225.843 97.776 225.243 98.4827 224.816C99.1894 224.389 99.976 224.176 100.843 224.176ZM118.268 229.436C118.268 229.783 118.248 230.149 118.208 230.536H109.448C109.515 231.616 109.882 232.463 110.548 233.076C111.228 233.676 112.048 233.976 113.008 233.976C113.795 233.976 114.448 233.796 114.968 233.436C115.502 233.063 115.875 232.569 116.088 231.956H118.048C117.755 233.009 117.168 233.869 116.288 234.536C115.408 235.189 114.315 235.516 113.008 235.516C111.968 235.516 111.035 235.283 110.208 234.816C109.395 234.349 108.755 233.689 108.288 232.836C107.822 231.969 107.588 230.969 107.588 229.836C107.588 228.703 107.815 227.709 108.268 226.856C108.722 226.003 109.355 225.349 110.168 224.896C110.995 224.429 111.942 224.196 113.008 224.196C114.048 224.196 114.968 224.423 115.768 224.876C116.568 225.329 117.182 225.956 117.608 226.756C118.048 227.543 118.268 228.436 118.268 229.436ZM116.388 229.056C116.388 228.363 116.235 227.769 115.928 227.276C115.622 226.769 115.202 226.389 114.668 226.136C114.148 225.869 113.568 225.736 112.928 225.736C112.008 225.736 111.222 226.029 110.568 226.616C109.928 227.203 109.562 228.016 109.468 229.056H116.388ZM126.011 224.176C127.344 224.176 128.424 224.583 129.251 225.396C130.077 226.196 130.491 227.356 130.491 228.876V235.336H128.691V229.136C128.691 228.043 128.417 227.209 127.871 226.636C127.324 226.049 126.577 225.756 125.631 225.756C124.671 225.756 123.904 226.056 123.331 226.656C122.771 227.256 122.491 228.129 122.491 229.276V235.336H120.671V224.376H122.491V225.936C122.851 225.376 123.337 224.943 123.951 224.636C124.577 224.329 125.264 224.176 126.011 224.176ZM143.463 229.436C143.463 229.783 143.443 230.149 143.403 230.536H134.643C134.71 231.616 135.077 232.463 135.743 233.076C136.423 233.676 137.243 233.976 138.203 233.976C138.99 233.976 139.643 233.796 140.163 233.436C140.697 233.063 141.07 232.569 141.283 231.956H143.243C142.95 233.009 142.363 233.869 141.483 234.536C140.603 235.189 139.51 235.516 138.203 235.516C137.163 235.516 136.23 235.283 135.403 234.816C134.59 234.349 133.95 233.689 133.483 232.836C133.017 231.969 132.783 230.969 132.783 229.836C132.783 228.703 133.01 227.709 133.463 226.856C133.917 226.003 134.55 225.349 135.363 224.896C136.19 224.429 137.137 224.196 138.203 224.196C139.243 224.196 140.163 224.423 140.963 224.876C141.763 225.329 142.377 225.956 142.803 226.756C143.243 227.543 143.463 228.436 143.463 229.436ZM141.583 229.056C141.583 228.363 141.43 227.769 141.123 227.276C140.817 226.769 140.397 226.389 139.863 226.136C139.343 225.869 138.763 225.736 138.123 225.736C137.203 225.736 136.417 226.029 135.763 226.616C135.123 227.203 134.757 228.016 134.663 229.056H141.583ZM147.686 226.156C148.006 225.529 148.459 225.043 149.046 224.696C149.646 224.349 150.373 224.176 151.226 224.176V226.056H150.746C148.706 226.056 147.686 227.163 147.686 229.376V235.336H145.866V224.376H147.686V226.156ZM152.647 229.816C152.647 228.696 152.873 227.716 153.327 226.876C153.78 226.023 154.4 225.363 155.187 224.896C155.987 224.429 156.873 224.196 157.847 224.196C158.807 224.196 159.64 224.403 160.347 224.816C161.053 225.229 161.58 225.749 161.927 226.376V224.376H163.767V235.336H161.927V233.296C161.567 233.936 161.027 234.469 160.307 234.896C159.6 235.309 158.773 235.516 157.827 235.516C156.853 235.516 155.973 235.276 155.187 234.796C154.4 234.316 153.78 233.643 153.327 232.776C152.873 231.909 152.647 230.923 152.647 229.816ZM161.927 229.836C161.927 229.009 161.76 228.289 161.427 227.676C161.093 227.063 160.64 226.596 160.067 226.276C159.507 225.943 158.887 225.776 158.207 225.776C157.527 225.776 156.907 225.936 156.347 226.256C155.787 226.576 155.34 227.043 155.007 227.656C154.673 228.269 154.507 228.989 154.507 229.816C154.507 230.656 154.673 231.389 155.007 232.016C155.34 232.629 155.787 233.103 156.347 233.436C156.907 233.756 157.527 233.916 158.207 233.916C158.887 233.916 159.507 233.756 160.067 233.436C160.64 233.103 161.093 232.629 161.427 232.016C161.76 231.389 161.927 230.663 161.927 229.836ZM168.662 226.396C169.022 225.769 169.556 225.249 170.262 224.836C170.982 224.409 171.816 224.196 172.762 224.196C173.736 224.196 174.616 224.429 175.402 224.896C176.202 225.363 176.829 226.023 177.282 226.876C177.736 227.716 177.962 228.696 177.962 229.816C177.962 230.923 177.736 231.909 177.282 232.776C176.829 233.643 176.202 234.316 175.402 234.796C174.616 235.276 173.736 235.516 172.762 235.516C171.829 235.516 171.002 235.309 170.282 234.896C169.576 234.469 169.036 233.943 168.662 233.316V240.536H166.842V224.376H168.662V226.396ZM176.102 229.816C176.102 228.989 175.936 228.269 175.602 227.656C175.269 227.043 174.816 226.576 174.242 226.256C173.682 225.936 173.062 225.776 172.382 225.776C171.716 225.776 171.096 225.943 170.522 226.276C169.962 226.596 169.509 227.069 169.162 227.696C168.829 228.309 168.662 229.023 168.662 229.836C168.662 230.663 168.829 231.389 169.162 232.016C169.509 232.629 169.962 233.103 170.522 233.436C171.096 233.756 171.716 233.916 172.382 233.916C173.062 233.916 173.682 233.756 174.242 233.436C174.816 233.103 175.269 232.629 175.602 232.016C175.936 231.389 176.102 230.656 176.102 229.816ZM186.478 235.336L182.178 230.496V235.336H180.358V220.536H182.178V229.236L186.398 224.376H188.938L183.778 229.836L188.958 235.336H186.478ZM189.971 229.816C189.971 228.696 190.198 227.716 190.651 226.876C191.104 226.023 191.724 225.363 192.511 224.896C193.311 224.429 194.198 224.196 195.171 224.196C196.131 224.196 196.964 224.403 197.671 224.816C198.378 225.229 198.904 225.749 199.251 226.376V224.376H201.091V235.336H199.251V233.296C198.891 233.936 198.351 234.469 197.631 234.896C196.924 235.309 196.098 235.516 195.151 235.516C194.178 235.516 193.298 235.276 192.511 234.796C191.724 234.316 191.104 233.643 190.651 232.776C190.198 231.909 189.971 230.923 189.971 229.816ZM199.251 229.836C199.251 229.009 199.084 228.289 198.751 227.676C198.418 227.063 197.964 226.596 197.391 226.276C196.831 225.943 196.211 225.776 195.531 225.776C194.851 225.776 194.231 225.936 193.671 226.256C193.111 226.576 192.664 227.043 192.331 227.656C191.998 228.269 191.831 228.989 191.831 229.816C191.831 230.656 191.998 231.389 192.331 232.016C192.664 232.629 193.111 233.103 193.671 233.436C194.231 233.756 194.851 233.916 195.531 233.916C196.211 233.916 196.831 233.756 197.391 233.436C197.964 233.103 198.418 232.629 198.751 232.016C199.084 231.389 199.251 230.663 199.251 229.836ZM209.507 224.176C210.84 224.176 211.92 224.583 212.747 225.396C213.573 226.196 213.987 227.356 213.987 228.876V235.336H212.187V229.136C212.187 228.043 211.913 227.209 211.367 226.636C210.82 226.049 210.073 225.756 209.127 225.756C208.167 225.756 207.4 226.056 206.827 226.656C206.267 227.256 205.987 228.129 205.987 229.276V235.336H204.167V224.376H205.987V225.936C206.347 225.376 206.833 224.943 207.447 224.636C208.073 224.329 208.76 224.176 209.507 224.176ZM224.112 226.416C224.485 225.763 225.032 225.229 225.752 224.816C226.472 224.403 227.292 224.196 228.212 224.196C229.198 224.196 230.085 224.429 230.872 224.896C231.658 225.363 232.278 226.023 232.732 226.876C233.185 227.716 233.412 228.696 233.412 229.816C233.412 230.923 233.185 231.909 232.732 232.776C232.278 233.643 231.652 234.316 230.852 234.796C230.065 235.276 229.185 235.516 228.212 235.516C227.265 235.516 226.432 235.309 225.712 234.896C225.005 234.483 224.472 233.956 224.112 233.316V235.336H222.292V220.536H224.112V226.416ZM231.552 229.816C231.552 228.989 231.385 228.269 231.052 227.656C230.718 227.043 230.265 226.576 229.692 226.256C229.132 225.936 228.512 225.776 227.832 225.776C227.165 225.776 226.545 225.943 225.972 226.276C225.412 226.596 224.958 227.069 224.612 227.696C224.278 228.309 224.112 229.023 224.112 229.836C224.112 230.663 224.278 231.389 224.612 232.016C224.958 232.629 225.412 233.103 225.972 233.436C226.545 233.756 227.165 233.916 227.832 233.916C228.512 233.916 229.132 233.756 229.692 233.436C230.265 233.103 230.718 232.629 231.052 232.016C231.385 231.389 231.552 230.656 231.552 229.816ZM245.527 224.376V235.336H243.707V233.716C243.361 234.276 242.874 234.716 242.247 235.036C241.634 235.343 240.954 235.496 240.207 235.496C239.354 235.496 238.587 235.323 237.907 234.976C237.227 234.616 236.687 234.083 236.287 233.376C235.901 232.669 235.707 231.809 235.707 230.796V224.376H237.507V230.556C237.507 231.636 237.781 232.469 238.327 233.056C238.874 233.629 239.621 233.916 240.567 233.916C241.541 233.916 242.307 233.616 242.867 233.016C243.427 232.416 243.707 231.543 243.707 230.396V224.376H245.527ZM247.92 229.816C247.92 228.696 248.147 227.716 248.6 226.876C249.054 226.023 249.674 225.363 250.46 224.896C251.26 224.429 252.154 224.196 253.14 224.196C253.994 224.196 254.787 224.396 255.52 224.796C256.254 225.183 256.814 225.696 257.2 226.336V220.536H259.04V235.336H257.2V233.276C256.84 233.929 256.307 234.469 255.6 234.896C254.894 235.309 254.067 235.516 253.12 235.516C252.147 235.516 251.26 235.276 250.46 234.796C249.674 234.316 249.054 233.643 248.6 232.776C248.147 231.909 247.92 230.923 247.92 229.816ZM257.2 229.836C257.2 229.009 257.034 228.289 256.7 227.676C256.367 227.063 255.914 226.596 255.34 226.276C254.78 225.943 254.16 225.776 253.48 225.776C252.8 225.776 252.18 225.936 251.62 226.256C251.06 226.576 250.614 227.043 250.28 227.656C249.947 228.269 249.78 228.989 249.78 229.816C249.78 230.656 249.947 231.389 250.28 232.016C250.614 232.629 251.06 233.103 251.62 233.436C252.18 233.756 252.8 233.916 253.48 233.916C254.16 233.916 254.78 233.756 255.34 233.436C255.914 233.103 256.367 232.629 256.7 232.016C257.034 231.389 257.2 230.663 257.2 229.836ZM261.436 229.816C261.436 228.696 261.663 227.716 262.116 226.876C262.569 226.023 263.189 225.363 263.976 224.896C264.776 224.429 265.663 224.196 266.636 224.196C267.596 224.196 268.429 224.403 269.136 224.816C269.843 225.229 270.369 225.749 270.716 226.376V224.376H272.556V235.336H270.716V233.296C270.356 233.936 269.816 234.469 269.096 234.896C268.389 235.309 267.563 235.516 266.616 235.516C265.643 235.516 264.763 235.276 263.976 234.796C263.189 234.316 262.569 233.643 262.116 232.776C261.663 231.909 261.436 230.923 261.436 229.816ZM270.716 229.836C270.716 229.009 270.549 228.289 270.216 227.676C269.883 227.063 269.429 226.596 268.856 226.276C268.296 225.943 267.676 225.776 266.996 225.776C266.316 225.776 265.696 225.936 265.136 226.256C264.576 226.576 264.129 227.043 263.796 227.656C263.463 228.269 263.296 228.989 263.296 229.816C263.296 230.656 263.463 231.389 263.796 232.016C264.129 232.629 264.576 233.103 265.136 233.436C265.696 233.756 266.316 233.916 266.996 233.916C267.676 233.916 268.296 233.756 268.856 233.436C269.429 233.103 269.883 232.629 270.216 232.016C270.549 231.389 270.716 230.663 270.716 229.836ZM285.071 224.376L278.471 240.496H276.591L278.751 235.216L274.331 224.376H276.351L279.791 233.256L283.191 224.376H285.071ZM286.221 229.816C286.221 228.696 286.448 227.716 286.901 226.876C287.354 226.023 287.974 225.363 288.761 224.896C289.561 224.429 290.448 224.196 291.421 224.196C292.381 224.196 293.214 224.403 293.921 224.816C294.628 225.229 295.154 225.749 295.501 226.376V224.376H297.341V235.336H295.501V233.296C295.141 233.936 294.601 234.469 293.881 234.896C293.174 235.309 292.348 235.516 291.401 235.516C290.428 235.516 289.548 235.276 288.761 234.796C287.974 234.316 287.354 233.643 286.901 232.776C286.448 231.909 286.221 230.923 286.221 229.816ZM295.501 229.836C295.501 229.009 295.334 228.289 295.001 227.676C294.668 227.063 294.214 226.596 293.641 226.276C293.081 225.943 292.461 225.776 291.781 225.776C291.101 225.776 290.481 225.936 289.921 226.256C289.361 226.576 288.914 227.043 288.581 227.656C288.248 228.269 288.081 228.989 288.081 229.816C288.081 230.656 288.248 231.389 288.581 232.016C288.914 232.629 289.361 233.103 289.921 233.436C290.481 233.756 291.101 233.916 291.781 233.916C292.461 233.916 293.081 233.756 293.641 233.436C294.214 233.103 294.668 232.629 295.001 232.016C295.334 231.389 295.501 230.663 295.501 229.836ZM111.767 254.376V265.336H109.947V263.716C109.601 264.276 109.114 264.716 108.487 265.036C107.874 265.343 107.194 265.496 106.447 265.496C105.594 265.496 104.827 265.323 104.147 264.976C103.467 264.616 102.927 264.083 102.527 263.376C102.141 262.669 101.947 261.809 101.947 260.796V254.376H103.747V260.556C103.747 261.636 104.021 262.469 104.567 263.056C105.114 263.629 105.861 263.916 106.807 263.916C107.781 263.916 108.547 263.616 109.107 263.016C109.667 262.416 109.947 261.543 109.947 260.396V254.376H111.767ZM120.18 254.176C121.514 254.176 122.594 254.583 123.42 255.396C124.247 256.196 124.66 257.356 124.66 258.876V265.336H122.86V259.136C122.86 258.043 122.587 257.209 122.04 256.636C121.494 256.049 120.747 255.756 119.8 255.756C118.84 255.756 118.074 256.056 117.5 256.656C116.94 257.256 116.66 258.129 116.66 259.276V265.336H114.84V254.376H116.66V255.936C117.02 255.376 117.507 254.943 118.12 254.636C118.747 254.329 119.434 254.176 120.18 254.176ZM129.853 255.876V262.336C129.853 262.869 129.967 263.249 130.193 263.476C130.42 263.689 130.813 263.796 131.373 263.796H132.713V265.336H131.073C130.06 265.336 129.3 265.103 128.793 264.636C128.287 264.169 128.033 263.403 128.033 262.336V255.876H126.613V254.376H128.033V251.616H129.853V254.376H132.713V255.876H129.853ZM144.639 254.376V265.336H142.819V263.716C142.472 264.276 141.985 264.716 141.359 265.036C140.745 265.343 140.065 265.496 139.319 265.496C138.465 265.496 137.699 265.323 137.019 264.976C136.339 264.616 135.799 264.083 135.399 263.376C135.012 262.669 134.819 261.809 134.819 260.796V254.376H136.619V260.556C136.619 261.636 136.892 262.469 137.439 263.056C137.985 263.629 138.732 263.916 139.679 263.916C140.652 263.916 141.419 263.616 141.979 263.016C142.539 262.416 142.819 261.543 142.819 260.396V254.376H144.639ZM153.832 265.336L149.532 260.496V265.336H147.712V250.536H149.532V259.236L153.752 254.376H156.292L151.132 259.836L156.312 265.336H153.832ZM176.517 254.176C177.37 254.176 178.13 254.356 178.797 254.716C179.463 255.063 179.99 255.589 180.377 256.296C180.763 257.003 180.957 257.863 180.957 258.876V265.336H179.157V259.136C179.157 258.043 178.883 257.209 178.337 256.636C177.803 256.049 177.077 255.756 176.157 255.756C175.21 255.756 174.457 256.063 173.897 256.676C173.337 257.276 173.057 258.149 173.057 259.296V265.336H171.257V259.136C171.257 258.043 170.983 257.209 170.437 256.636C169.903 256.049 169.177 255.756 168.257 255.756C167.31 255.756 166.557 256.063 165.997 256.676C165.437 257.276 165.157 258.149 165.157 259.296V265.336H163.337V254.376H165.157V255.956C165.517 255.383 165.997 254.943 166.597 254.636C167.21 254.329 167.883 254.176 168.617 254.176C169.537 254.176 170.35 254.383 171.057 254.796C171.763 255.209 172.29 255.816 172.637 256.616C172.943 255.843 173.45 255.243 174.157 254.816C174.863 254.389 175.65 254.176 176.517 254.176ZM193.942 259.436C193.942 259.783 193.922 260.149 193.882 260.536H185.122C185.189 261.616 185.555 262.463 186.222 263.076C186.902 263.676 187.722 263.976 188.682 263.976C189.469 263.976 190.122 263.796 190.642 263.436C191.175 263.063 191.549 262.569 191.762 261.956H193.722C193.429 263.009 192.842 263.869 191.962 264.536C191.082 265.189 189.989 265.516 188.682 265.516C187.642 265.516 186.709 265.283 185.882 264.816C185.069 264.349 184.429 263.689 183.962 262.836C183.495 261.969 183.262 260.969 183.262 259.836C183.262 258.703 183.489 257.709 183.942 256.856C184.395 256.003 185.029 255.349 185.842 254.896C186.669 254.429 187.615 254.196 188.682 254.196C189.722 254.196 190.642 254.423 191.442 254.876C192.242 255.329 192.855 255.956 193.282 256.756C193.722 257.543 193.942 258.436 193.942 259.436ZM192.062 259.056C192.062 258.363 191.909 257.769 191.602 257.276C191.295 256.769 190.875 256.389 190.342 256.136C189.822 255.869 189.242 255.736 188.602 255.736C187.682 255.736 186.895 256.029 186.242 256.616C185.602 257.203 185.235 258.016 185.142 259.056H192.062ZM209.524 254.176C210.378 254.176 211.138 254.356 211.804 254.716C212.471 255.063 212.998 255.589 213.384 256.296C213.771 257.003 213.964 257.863 213.964 258.876V265.336H212.164V259.136C212.164 258.043 211.891 257.209 211.344 256.636C210.811 256.049 210.084 255.756 209.164 255.756C208.218 255.756 207.464 256.063 206.904 256.676C206.344 257.276 206.064 258.149 206.064 259.296V265.336H204.264V259.136C204.264 258.043 203.991 257.209 203.444 256.636C202.911 256.049 202.184 255.756 201.264 255.756C200.318 255.756 199.564 256.063 199.004 256.676C198.444 257.276 198.164 258.149 198.164 259.296V265.336H196.344V254.376H198.164V255.956C198.524 255.383 199.004 254.943 199.604 254.636C200.218 254.329 200.891 254.176 201.624 254.176C202.544 254.176 203.358 254.383 204.064 254.796C204.771 255.209 205.298 255.816 205.644 256.616C205.951 255.843 206.458 255.243 207.164 254.816C207.871 254.389 208.658 254.176 209.524 254.176ZM218.77 256.416C219.143 255.763 219.69 255.229 220.41 254.816C221.13 254.403 221.95 254.196 222.87 254.196C223.856 254.196 224.743 254.429 225.53 254.896C226.316 255.363 226.936 256.023 227.39 256.876C227.843 257.716 228.07 258.696 228.07 259.816C228.07 260.923 227.843 261.909 227.39 262.776C226.936 263.643 226.31 264.316 225.51 264.796C224.723 265.276 223.843 265.516 222.87 265.516C221.923 265.516 221.09 265.309 220.37 264.896C219.663 264.483 219.13 263.956 218.77 263.316V265.336H216.95V250.536H218.77V256.416ZM226.21 259.816C226.21 258.989 226.043 258.269 225.71 257.656C225.376 257.043 224.923 256.576 224.35 256.256C223.79 255.936 223.17 255.776 222.49 255.776C221.823 255.776 221.203 255.943 220.63 256.276C220.07 256.596 219.616 257.069 219.27 257.696C218.936 258.309 218.77 259.023 218.77 259.836C218.77 260.663 218.936 261.389 219.27 262.016C219.616 262.629 220.07 263.103 220.63 263.436C221.203 263.756 221.823 263.916 222.49 263.916C223.17 263.916 223.79 263.756 224.35 263.436C224.923 263.103 225.376 262.629 225.71 262.016C226.043 261.389 226.21 260.656 226.21 259.816ZM240.465 259.436C240.465 259.783 240.445 260.149 240.405 260.536H231.645C231.712 261.616 232.079 262.463 232.745 263.076C233.425 263.676 234.245 263.976 235.205 263.976C235.992 263.976 236.645 263.796 237.165 263.436C237.699 263.063 238.072 262.569 238.285 261.956H240.245C239.952 263.009 239.365 263.869 238.485 264.536C237.605 265.189 236.512 265.516 235.205 265.516C234.165 265.516 233.232 265.283 232.405 264.816C231.592 264.349 230.952 263.689 230.485 262.836C230.019 261.969 229.785 260.969 229.785 259.836C229.785 258.703 230.012 257.709 230.465 256.856C230.919 256.003 231.552 255.349 232.365 254.896C233.192 254.429 234.139 254.196 235.205 254.196C236.245 254.196 237.165 254.423 237.965 254.876C238.765 255.329 239.379 255.956 239.805 256.756C240.245 257.543 240.465 258.436 240.465 259.436ZM238.585 259.056C238.585 258.363 238.432 257.769 238.125 257.276C237.819 256.769 237.399 256.389 236.865 256.136C236.345 255.869 235.765 255.736 235.125 255.736C234.205 255.736 233.419 256.029 232.765 256.616C232.125 257.203 231.759 258.016 231.665 259.056H238.585ZM248.208 254.176C249.541 254.176 250.621 254.583 251.448 255.396C252.274 256.196 252.688 257.356 252.688 258.876V265.336H250.888V259.136C250.888 258.043 250.614 257.209 250.068 256.636C249.521 256.049 248.774 255.756 247.828 255.756C246.868 255.756 246.101 256.056 245.528 256.656C244.968 257.256 244.688 258.129 244.688 259.276V265.336H242.868V254.376H244.688V255.936C245.048 255.376 245.534 254.943 246.148 254.636C246.774 254.329 247.461 254.176 248.208 254.176ZM257.881 255.876V262.336C257.881 262.869 257.994 263.249 258.221 263.476C258.447 263.689 258.841 263.796 259.401 263.796H260.741V265.336H259.101C258.087 265.336 257.327 265.103 256.821 264.636C256.314 264.169 256.061 263.403 256.061 262.336V255.876H254.641V254.376H256.061V251.616H257.881V254.376H260.741V255.876H257.881ZM272.666 254.376V265.336H270.846V263.716C270.499 264.276 270.013 264.716 269.386 265.036C268.773 265.343 268.093 265.496 267.346 265.496C266.493 265.496 265.726 265.323 265.046 264.976C264.366 264.616 263.826 264.083 263.426 263.376C263.039 262.669 262.846 261.809 262.846 260.796V254.376H264.646V260.556C264.646 261.636 264.919 262.469 265.466 263.056C266.013 263.629 266.759 263.916 267.706 263.916C268.679 263.916 269.446 263.616 270.006 263.016C270.566 262.416 270.846 261.543 270.846 260.396V254.376H272.666ZM281.859 265.336L277.559 260.496V265.336H275.739V250.536H277.559V259.236L281.779 254.376H284.319L279.159 259.836L284.339 265.336H281.859ZM115.628 295.336L111.328 290.496V295.336H109.508V280.536H111.328V289.236L115.548 284.376H118.088L112.928 289.836L118.108 295.336H115.628ZM119.121 289.816C119.121 288.696 119.348 287.716 119.801 286.876C120.255 286.023 120.875 285.363 121.661 284.896C122.461 284.429 123.348 284.196 124.321 284.196C125.281 284.196 126.115 284.403 126.821 284.816C127.528 285.229 128.055 285.749 128.401 286.376V284.376H130.241V295.336H128.401V293.296C128.041 293.936 127.501 294.469 126.781 294.896C126.075 295.309 125.248 295.516 124.301 295.516C123.328 295.516 122.448 295.276 121.661 294.796C120.875 294.316 120.255 293.643 119.801 292.776C119.348 291.909 119.121 290.923 119.121 289.816ZM128.401 289.836C128.401 289.009 128.235 288.289 127.901 287.676C127.568 287.063 127.115 286.596 126.541 286.276C125.981 285.943 125.361 285.776 124.681 285.776C124.001 285.776 123.381 285.936 122.821 286.256C122.261 286.576 121.815 287.043 121.481 287.656C121.148 288.269 120.981 288.989 120.981 289.816C120.981 290.656 121.148 291.389 121.481 292.016C121.815 292.629 122.261 293.103 122.821 293.436C123.381 293.756 124.001 293.916 124.681 293.916C125.361 293.916 125.981 293.756 126.541 293.436C127.115 293.103 127.568 292.629 127.901 292.016C128.235 291.389 128.401 290.663 128.401 289.836ZM135.137 286.156C135.457 285.529 135.91 285.043 136.497 284.696C137.097 284.349 137.824 284.176 138.677 284.176V286.056H138.197C136.157 286.056 135.137 287.163 135.137 289.376V295.336H133.317V284.376H135.137V286.156ZM140.098 289.816C140.098 288.696 140.325 287.716 140.778 286.876C141.231 286.023 141.851 285.363 142.638 284.896C143.438 284.429 144.325 284.196 145.298 284.196C146.258 284.196 147.091 284.403 147.798 284.816C148.505 285.229 149.031 285.749 149.378 286.376V284.376H151.218V295.336H149.378V293.296C149.018 293.936 148.478 294.469 147.758 294.896C147.051 295.309 146.225 295.516 145.278 295.516C144.305 295.516 143.425 295.276 142.638 294.796C141.851 294.316 141.231 293.643 140.778 292.776C140.325 291.909 140.098 290.923 140.098 289.816ZM149.378 289.836C149.378 289.009 149.211 288.289 148.878 287.676C148.545 287.063 148.091 286.596 147.518 286.276C146.958 285.943 146.338 285.776 145.658 285.776C144.978 285.776 144.358 285.936 143.798 286.256C143.238 286.576 142.791 287.043 142.458 287.656C142.125 288.269 141.958 288.989 141.958 289.816C141.958 290.656 142.125 291.389 142.458 292.016C142.791 292.629 143.238 293.103 143.798 293.436C144.358 293.756 144.978 293.916 145.658 293.916C146.338 293.916 146.958 293.756 147.518 293.436C148.091 293.103 148.545 292.629 148.878 292.016C149.211 291.389 149.378 290.663 149.378 289.836ZM160.414 295.336L156.114 290.496V295.336H154.294V280.536H156.114V289.236L160.334 284.376H162.874L157.714 289.836L162.894 295.336H160.414ZM166.807 285.876V292.336C166.807 292.869 166.92 293.249 167.147 293.476C167.373 293.689 167.767 293.796 168.327 293.796H169.667V295.336H168.027C167.013 295.336 166.253 295.103 165.747 294.636C165.24 294.169 164.987 293.403 164.987 292.336V285.876H163.567V284.376H164.987V281.616H166.807V284.376H169.667V285.876H166.807ZM181.872 289.436C181.872 289.783 181.852 290.149 181.812 290.536H173.052C173.118 291.616 173.485 292.463 174.152 293.076C174.832 293.676 175.652 293.976 176.612 293.976C177.398 293.976 178.052 293.796 178.572 293.436C179.105 293.063 179.478 292.569 179.692 291.956H181.652C181.358 293.009 180.772 293.869 179.892 294.536C179.012 295.189 177.918 295.516 176.612 295.516C175.572 295.516 174.638 295.283 173.812 294.816C172.998 294.349 172.358 293.689 171.892 292.836C171.425 291.969 171.192 290.969 171.192 289.836C171.192 288.703 171.418 287.709 171.872 286.856C172.325 286.003 172.958 285.349 173.772 284.896C174.598 284.429 175.545 284.196 176.612 284.196C177.652 284.196 178.572 284.423 179.372 284.876C180.172 285.329 180.785 285.956 181.212 286.756C181.652 287.543 181.872 288.436 181.872 289.436ZM179.992 289.056C179.992 288.363 179.838 287.769 179.532 287.276C179.225 286.769 178.805 286.389 178.272 286.136C177.752 285.869 177.172 285.736 176.532 285.736C175.612 285.736 174.825 286.029 174.172 286.616C173.532 287.203 173.165 288.016 173.072 289.056H179.992ZM186.094 286.156C186.414 285.529 186.867 285.043 187.454 284.696C188.054 284.349 188.781 284.176 189.634 284.176V286.056H189.154C187.114 286.056 186.094 287.163 186.094 289.376V295.336H184.274V284.376H186.094V286.156ZM198.887 286.416C199.26 285.763 199.807 285.229 200.527 284.816C201.247 284.403 202.067 284.196 202.987 284.196C203.974 284.196 204.86 284.429 205.647 284.896C206.434 285.363 207.054 286.023 207.507 286.876C207.96 287.716 208.187 288.696 208.187 289.816C208.187 290.923 207.96 291.909 207.507 292.776C207.054 293.643 206.427 294.316 205.627 294.796C204.84 295.276 203.96 295.516 202.987 295.516C202.04 295.516 201.207 295.309 200.487 294.896C199.78 294.483 199.247 293.956 198.887 293.316V295.336H197.067V280.536H198.887V286.416ZM206.327 289.816C206.327 288.989 206.16 288.269 205.827 287.656C205.494 287.043 205.04 286.576 204.467 286.256C203.907 285.936 203.287 285.776 202.607 285.776C201.94 285.776 201.32 285.943 200.747 286.276C200.187 286.596 199.734 287.069 199.387 287.696C199.054 288.309 198.887 289.023 198.887 289.836C198.887 290.663 199.054 291.389 199.387 292.016C199.734 292.629 200.187 293.103 200.747 293.436C201.32 293.756 201.94 293.916 202.607 293.916C203.287 293.916 203.907 293.756 204.467 293.436C205.04 293.103 205.494 292.629 205.827 292.016C206.16 291.389 206.327 290.656 206.327 289.816ZM209.903 289.816C209.903 288.696 210.129 287.716 210.583 286.876C211.036 286.023 211.656 285.363 212.443 284.896C213.243 284.429 214.129 284.196 215.103 284.196C216.063 284.196 216.896 284.403 217.603 284.816C218.309 285.229 218.836 285.749 219.183 286.376V284.376H221.023V295.336H219.183V293.296C218.823 293.936 218.283 294.469 217.563 294.896C216.856 295.309 216.029 295.516 215.083 295.516C214.109 295.516 213.229 295.276 212.443 294.796C211.656 294.316 211.036 293.643 210.583 292.776C210.129 291.909 209.903 290.923 209.903 289.816ZM219.183 289.836C219.183 289.009 219.016 288.289 218.683 287.676C218.349 287.063 217.896 286.596 217.323 286.276C216.763 285.943 216.143 285.776 215.463 285.776C214.783 285.776 214.163 285.936 213.603 286.256C213.043 286.576 212.596 287.043 212.263 287.656C211.929 288.269 211.763 288.989 211.763 289.816C211.763 290.656 211.929 291.389 212.263 292.016C212.596 292.629 213.043 293.103 213.603 293.436C214.163 293.756 214.783 293.916 215.463 293.916C216.143 293.916 216.763 293.756 217.323 293.436C217.896 293.103 218.349 292.629 218.683 292.016C219.016 291.389 219.183 290.663 219.183 289.836ZM229.438 284.176C230.772 284.176 231.852 284.583 232.678 285.396C233.505 286.196 233.918 287.356 233.918 288.876V295.336H232.118V289.136C232.118 288.043 231.845 287.209 231.298 286.636C230.752 286.049 230.005 285.756 229.058 285.756C228.098 285.756 227.332 286.056 226.758 286.656C226.198 287.256 225.918 288.129 225.918 289.276V295.336H224.098V284.376H225.918V285.936C226.278 285.376 226.765 284.943 227.378 284.636C228.005 284.329 228.692 284.176 229.438 284.176ZM241.411 284.196C242.358 284.196 243.185 284.403 243.891 284.816C244.611 285.229 245.145 285.749 245.491 286.376V284.376H247.331V295.576C247.331 296.576 247.118 297.463 246.691 298.236C246.265 299.023 245.651 299.636 244.851 300.076C244.065 300.516 243.145 300.736 242.091 300.736C240.651 300.736 239.451 300.396 238.491 299.716C237.531 299.036 236.965 298.109 236.791 296.936H238.591C238.791 297.603 239.205 298.136 239.831 298.536C240.458 298.949 241.211 299.156 242.091 299.156C243.091 299.156 243.905 298.843 244.531 298.216C245.171 297.589 245.491 296.709 245.491 295.576V293.276C245.131 293.916 244.598 294.449 243.891 294.876C243.185 295.303 242.358 295.516 241.411 295.516C240.438 295.516 239.551 295.276 238.751 294.796C237.965 294.316 237.345 293.643 236.891 292.776C236.438 291.909 236.211 290.923 236.211 289.816C236.211 288.696 236.438 287.716 236.891 286.876C237.345 286.023 237.965 285.363 238.751 284.896C239.551 284.429 240.438 284.196 241.411 284.196ZM245.491 289.836C245.491 289.009 245.325 288.289 244.991 287.676C244.658 287.063 244.205 286.596 243.631 286.276C243.071 285.943 242.451 285.776 241.771 285.776C241.091 285.776 240.471 285.936 239.911 286.256C239.351 286.576 238.905 287.043 238.571 287.656C238.238 288.269 238.071 288.989 238.071 289.816C238.071 290.656 238.238 291.389 238.571 292.016C238.905 292.629 239.351 293.103 239.911 293.436C240.471 293.756 241.091 293.916 241.771 293.916C242.451 293.916 243.071 293.756 243.631 293.436C244.205 293.103 244.658 292.629 244.991 292.016C245.325 291.389 245.491 290.663 245.491 289.836ZM254.287 295.516C253.447 295.516 252.694 295.376 252.027 295.096C251.36 294.803 250.834 294.403 250.447 293.896C250.06 293.376 249.847 292.783 249.807 292.116H251.687C251.74 292.663 251.994 293.109 252.447 293.456C252.914 293.803 253.52 293.976 254.267 293.976C254.96 293.976 255.507 293.823 255.907 293.516C256.307 293.209 256.507 292.823 256.507 292.356C256.507 291.876 256.294 291.523 255.867 291.296C255.44 291.056 254.78 290.823 253.887 290.596C253.074 290.383 252.407 290.169 251.887 289.956C251.38 289.729 250.94 289.403 250.567 288.976C250.207 288.536 250.027 287.963 250.027 287.256C250.027 286.696 250.194 286.183 250.527 285.716C250.86 285.249 251.334 284.883 251.947 284.616C252.56 284.336 253.26 284.196 254.047 284.196C255.26 284.196 256.24 284.503 256.987 285.116C257.734 285.729 258.134 286.569 258.187 287.636H256.367C256.327 287.063 256.094 286.603 255.667 286.256C255.254 285.909 254.694 285.736 253.987 285.736C253.334 285.736 252.814 285.876 252.427 286.156C252.04 286.436 251.847 286.803 251.847 287.256C251.847 287.616 251.96 287.916 252.187 288.156C252.427 288.383 252.72 288.569 253.067 288.716C253.427 288.849 253.92 289.003 254.547 289.176C255.334 289.389 255.974 289.603 256.467 289.816C256.96 290.016 257.38 290.323 257.727 290.736C258.087 291.149 258.274 291.689 258.287 292.356C258.287 292.956 258.12 293.496 257.787 293.976C257.454 294.456 256.98 294.836 256.367 295.116C255.767 295.383 255.074 295.516 254.287 295.516ZM260.176 289.816C260.176 288.696 260.403 287.716 260.856 286.876C261.309 286.023 261.929 285.363 262.716 284.896C263.516 284.429 264.403 284.196 265.376 284.196C266.336 284.196 267.169 284.403 267.876 284.816C268.583 285.229 269.109 285.749 269.456 286.376V284.376H271.296V295.336H269.456V293.296C269.096 293.936 268.556 294.469 267.836 294.896C267.129 295.309 266.303 295.516 265.356 295.516C264.383 295.516 263.503 295.276 262.716 294.796C261.929 294.316 261.309 293.643 260.856 292.776C260.403 291.909 260.176 290.923 260.176 289.816ZM269.456 289.836C269.456 289.009 269.289 288.289 268.956 287.676C268.623 287.063 268.169 286.596 267.596 286.276C267.036 285.943 266.416 285.776 265.736 285.776C265.056 285.776 264.436 285.936 263.876 286.256C263.316 286.576 262.869 287.043 262.536 287.656C262.203 288.269 262.036 288.989 262.036 289.816C262.036 290.656 262.203 291.389 262.536 292.016C262.869 292.629 263.316 293.103 263.876 293.436C264.436 293.756 265.056 293.916 265.736 293.916C266.416 293.916 267.036 293.756 267.596 293.436C268.169 293.103 268.623 292.629 268.956 292.016C269.289 291.389 269.456 290.663 269.456 289.836ZM274.952 295.456C274.605 295.456 274.312 295.336 274.072 295.096C273.832 294.856 273.712 294.563 273.712 294.216C273.712 293.869 273.832 293.576 274.072 293.336C274.312 293.096 274.605 292.976 274.952 292.976C275.285 292.976 275.565 293.096 275.792 293.336C276.032 293.576 276.152 293.869 276.152 294.216C276.152 294.563 276.032 294.856 275.792 295.096C275.565 295.336 275.285 295.456 274.952 295.456Z" fill="#243771"/>
<path d="M367.006 87.7822C367.006 49.6746 336.113 18.7822 298.006 18.7822L1.20116 18.7823L1.20117 326.412C1.20117 364.52 32.0935 395.412 70.2012 395.412L367.006 395.412L367.006 87.7822Z" stroke="#243771" stroke-width="2"/>
<path d="M382.998 70.9541C382.998 32.8465 352.106 1.9541 313.998 1.95411L17.1933 1.95413L17.1934 309.584C17.1934 347.692 48.0857 378.584 86.1934 378.584L382.998 378.584L382.998 70.9541Z" stroke="#FE4D01" stroke-width="2"/>
</svg>
