<svg width="384" height="396" viewBox="0 0 384 396" fill="none" xmlns="http://www.w3.org/2000/svg">
<path d="M79.9829 130.541V144.381H78.1629V134.061L73.5629 144.381H72.2829L67.6629 134.041V144.381H65.8429V130.541H67.8029L72.9229 141.981L78.0429 130.541H79.9829ZM93.0695 138.481C93.0695 138.828 93.0495 139.194 93.0095 139.581H84.2495C84.3162 140.661 84.6828 141.508 85.3495 142.121C86.0295 142.721 86.8495 143.021 87.8095 143.021C88.5962 143.021 89.2495 142.841 89.7695 142.481C90.3028 142.108 90.6762 141.614 90.8895 141.001H92.8495C92.5562 142.054 91.9695 142.914 91.0895 143.581C90.2095 144.234 89.1162 144.561 87.8095 144.561C86.7695 144.561 85.8362 144.328 85.0095 143.861C84.1962 143.394 83.5562 142.734 83.0895 141.881C82.6228 141.014 82.3895 140.014 82.3895 138.881C82.3895 137.748 82.6162 136.754 83.0695 135.901C83.5228 135.048 84.1562 134.394 84.9695 133.941C85.7962 133.474 86.7428 133.241 87.8095 133.241C88.8495 133.241 89.7695 133.468 90.5695 133.921C91.3695 134.374 91.9828 135.001 92.4095 135.801C92.8495 136.588 93.0695 137.481 93.0695 138.481ZM91.1895 138.101C91.1895 137.408 91.0362 136.814 90.7295 136.321C90.4228 135.814 90.0028 135.434 89.4695 135.181C88.9495 134.914 88.3695 134.781 87.7295 134.781C86.8095 134.781 86.0228 135.074 85.3695 135.661C84.7295 136.248 84.3628 137.061 84.2695 138.101H91.1895ZM100.812 133.221C102.145 133.221 103.225 133.628 104.052 134.441C104.879 135.241 105.292 136.401 105.292 137.921V144.381H103.492V138.181C103.492 137.088 103.219 136.254 102.672 135.681C102.125 135.094 101.379 134.801 100.432 134.801C99.4719 134.801 98.7052 135.101 98.1319 135.701C97.5719 136.301 97.2919 137.174 97.2919 138.321V144.381H95.4719V133.421H97.2919V134.981C97.6519 134.421 98.1385 133.988 98.7519 133.681C99.3785 133.374 100.065 133.221 100.812 133.221ZM117.705 133.421L111.105 149.541H109.225L111.385 144.261L106.965 133.421H108.985L112.425 142.301L115.825 133.421H117.705ZM120.474 131.641C120.128 131.641 119.834 131.521 119.594 131.281C119.354 131.041 119.234 130.748 119.234 130.401C119.234 130.054 119.354 129.761 119.594 129.521C119.834 129.281 120.128 129.161 120.474 129.161C120.808 129.161 121.088 129.281 121.314 129.521C121.554 129.761 121.674 130.054 121.674 130.401C121.674 130.748 121.554 131.041 121.314 131.281C121.088 131.521 120.808 131.641 120.474 131.641ZM121.354 133.421V144.381H119.534V133.421H121.354ZM123.776 138.861C123.776 137.741 124.003 136.761 124.456 135.921C124.91 135.068 125.53 134.408 126.316 133.941C127.116 133.474 128.003 133.241 128.976 133.241C129.936 133.241 130.77 133.448 131.476 133.861C132.183 134.274 132.71 134.794 133.056 135.421V133.421H134.896V144.381H133.056V142.341C132.696 142.981 132.156 143.514 131.436 143.941C130.73 144.354 129.903 144.561 128.956 144.561C127.983 144.561 127.103 144.321 126.316 143.841C125.53 143.361 124.91 142.688 124.456 141.821C124.003 140.954 123.776 139.968 123.776 138.861ZM133.056 138.881C133.056 138.054 132.89 137.334 132.556 136.721C132.223 136.108 131.77 135.641 131.196 135.321C130.636 134.988 130.016 134.821 129.336 134.821C128.656 134.821 128.036 134.981 127.476 135.301C126.916 135.621 126.47 136.088 126.136 136.701C125.803 137.314 125.636 138.034 125.636 138.861C125.636 139.701 125.803 140.434 126.136 141.061C126.47 141.674 126.916 142.148 127.476 142.481C128.036 142.801 128.656 142.961 129.336 142.961C130.016 142.961 130.636 142.801 131.196 142.481C131.77 142.148 132.223 141.674 132.556 141.061C132.89 140.434 133.056 139.708 133.056 138.881ZM139.792 135.441C140.152 134.814 140.685 134.294 141.392 133.881C142.112 133.454 142.945 133.241 143.892 133.241C144.865 133.241 145.745 133.474 146.532 133.941C147.332 134.408 147.959 135.068 148.412 135.921C148.865 136.761 149.092 137.741 149.092 138.861C149.092 139.968 148.865 140.954 148.412 141.821C147.959 142.688 147.332 143.361 146.532 143.841C145.745 144.321 144.865 144.561 143.892 144.561C142.959 144.561 142.132 144.354 141.412 143.941C140.705 143.514 140.165 142.988 139.792 142.361V149.581H137.972V133.421H139.792V135.441ZM147.232 138.861C147.232 138.034 147.065 137.314 146.732 136.701C146.399 136.088 145.945 135.621 145.372 135.301C144.812 134.981 144.192 134.821 143.512 134.821C142.845 134.821 142.225 134.988 141.652 135.321C141.092 135.641 140.639 136.114 140.292 136.741C139.959 137.354 139.792 138.068 139.792 138.881C139.792 139.708 139.959 140.434 140.292 141.061C140.639 141.674 141.092 142.148 141.652 142.481C142.225 142.801 142.845 142.961 143.512 142.961C144.192 142.961 144.812 142.801 145.372 142.481C145.945 142.148 146.399 141.674 146.732 141.061C147.065 140.434 147.232 139.701 147.232 138.861ZM157.607 144.381L153.307 139.541V144.381H151.487V129.581H153.307V138.281L157.527 133.421H160.067L154.907 138.881L160.087 144.381H157.607ZM161.1 138.861C161.1 137.741 161.327 136.761 161.78 135.921C162.234 135.068 162.854 134.408 163.64 133.941C164.44 133.474 165.327 133.241 166.3 133.241C167.26 133.241 168.094 133.448 168.8 133.861C169.507 134.274 170.034 134.794 170.38 135.421V133.421H172.22V144.381H170.38V142.341C170.02 142.981 169.48 143.514 168.76 143.941C168.054 144.354 167.227 144.561 166.28 144.561C165.307 144.561 164.427 144.321 163.64 143.841C162.854 143.361 162.234 142.688 161.78 141.821C161.327 140.954 161.1 139.968 161.1 138.861ZM170.38 138.881C170.38 138.054 170.214 137.334 169.88 136.721C169.547 136.108 169.094 135.641 168.52 135.321C167.96 134.988 167.34 134.821 166.66 134.821C165.98 134.821 165.36 134.981 164.8 135.301C164.24 135.621 163.794 136.088 163.46 136.701C163.127 137.314 162.96 138.034 162.96 138.861C162.96 139.701 163.127 140.434 163.46 141.061C163.794 141.674 164.24 142.148 164.8 142.481C165.36 142.801 165.98 142.961 166.66 142.961C167.34 142.961 167.96 142.801 168.52 142.481C169.094 142.148 169.547 141.674 169.88 141.061C170.214 140.434 170.38 139.708 170.38 138.881ZM180.636 133.221C181.969 133.221 183.049 133.628 183.876 134.441C184.703 135.241 185.116 136.401 185.116 137.921V144.381H183.316V138.181C183.316 137.088 183.043 136.254 182.496 135.681C181.949 135.094 181.203 134.801 180.256 134.801C179.296 134.801 178.529 135.101 177.956 135.701C177.396 136.301 177.116 137.174 177.116 138.321V144.381H175.296V133.421H177.116V134.981C177.476 134.421 177.963 133.988 178.576 133.681C179.203 133.374 179.889 133.221 180.636 133.221ZM195.241 129.581V144.381H193.421V129.581H195.241ZM208.063 133.421V144.381H206.243V142.761C205.896 143.321 205.41 143.761 204.783 144.081C204.17 144.388 203.49 144.541 202.743 144.541C201.89 144.541 201.123 144.368 200.443 144.021C199.763 143.661 199.223 143.128 198.823 142.421C198.436 141.714 198.243 140.854 198.243 139.841V133.421H200.043V139.601C200.043 140.681 200.316 141.514 200.863 142.101C201.41 142.674 202.156 142.961 203.103 142.961C204.076 142.961 204.843 142.661 205.403 142.061C205.963 141.461 206.243 140.588 206.243 139.441V133.421H208.063ZM212.956 129.581V144.381H211.136V129.581H212.956ZM225.778 133.421V144.381H223.958V142.761C223.611 143.321 223.124 143.761 222.498 144.081C221.884 144.388 221.204 144.541 220.458 144.541C219.604 144.541 218.838 144.368 218.158 144.021C217.478 143.661 216.938 143.128 216.538 142.421C216.151 141.714 215.958 140.854 215.958 139.841V133.421H217.758V139.601C217.758 140.681 218.031 141.514 218.578 142.101C219.124 142.674 219.871 142.961 220.818 142.961C221.791 142.961 222.558 142.661 223.118 142.061C223.678 141.461 223.958 140.588 223.958 139.441V133.421H225.778ZM232.731 144.561C231.891 144.561 231.137 144.421 230.471 144.141C229.804 143.848 229.277 143.448 228.891 142.941C228.504 142.421 228.291 141.828 228.251 141.161H230.131C230.184 141.708 230.437 142.154 230.891 142.501C231.357 142.848 231.964 143.021 232.711 143.021C233.404 143.021 233.951 142.868 234.351 142.561C234.751 142.254 234.951 141.868 234.951 141.401C234.951 140.921 234.737 140.568 234.311 140.341C233.884 140.101 233.224 139.868 232.331 139.641C231.517 139.428 230.851 139.214 230.331 139.001C229.824 138.774 229.384 138.448 229.011 138.021C228.651 137.581 228.471 137.008 228.471 136.301C228.471 135.741 228.637 135.228 228.971 134.761C229.304 134.294 229.777 133.928 230.391 133.661C231.004 133.381 231.704 133.241 232.491 133.241C233.704 133.241 234.684 133.548 235.431 134.161C236.177 134.774 236.577 135.614 236.631 136.681H234.811C234.771 136.108 234.537 135.648 234.111 135.301C233.697 134.954 233.137 134.781 232.431 134.781C231.777 134.781 231.257 134.921 230.871 135.201C230.484 135.481 230.291 135.848 230.291 136.301C230.291 136.661 230.404 136.961 230.631 137.201C230.871 137.428 231.164 137.614 231.511 137.761C231.871 137.894 232.364 138.048 232.991 138.221C233.777 138.434 234.417 138.648 234.911 138.861C235.404 139.061 235.824 139.368 236.171 139.781C236.531 140.194 236.717 140.734 236.731 141.401C236.731 142.001 236.564 142.541 236.231 143.021C235.897 143.501 235.424 143.881 234.811 144.161C234.211 144.428 233.517 144.561 232.731 144.561ZM238.62 138.861C238.62 137.741 238.847 136.761 239.3 135.921C239.753 135.068 240.373 134.408 241.16 133.941C241.96 133.474 242.847 133.241 243.82 133.241C244.78 133.241 245.613 133.448 246.32 133.861C247.027 134.274 247.553 134.794 247.9 135.421V133.421H249.74V144.381H247.9V142.341C247.54 142.981 247 143.514 246.28 143.941C245.573 144.354 244.747 144.561 243.8 144.561C242.827 144.561 241.947 144.321 241.16 143.841C240.373 143.361 239.753 142.688 239.3 141.821C238.847 140.954 238.62 139.968 238.62 138.861ZM247.9 138.881C247.9 138.054 247.733 137.334 247.4 136.721C247.067 136.108 246.613 135.641 246.04 135.321C245.48 134.988 244.86 134.821 244.18 134.821C243.5 134.821 242.88 134.981 242.32 135.301C241.76 135.621 241.313 136.088 240.98 136.701C240.647 137.314 240.48 138.034 240.48 138.861C240.48 139.701 240.647 140.434 240.98 141.061C241.313 141.674 241.76 142.148 242.32 142.481C242.88 142.801 243.5 142.961 244.18 142.961C244.86 142.961 245.48 142.801 246.04 142.481C246.613 142.148 247.067 141.674 247.4 141.061C247.733 140.434 247.9 139.708 247.9 138.881ZM258.156 133.221C259.489 133.221 260.569 133.628 261.396 134.441C262.222 135.241 262.636 136.401 262.636 137.921V144.381H260.836V138.181C260.836 137.088 260.562 136.254 260.016 135.681C259.469 135.094 258.722 134.801 257.776 134.801C256.816 134.801 256.049 135.101 255.476 135.701C254.916 136.301 254.636 137.174 254.636 138.321V144.381H252.816V133.421H254.636V134.981C254.996 134.421 255.482 133.988 256.096 133.681C256.722 133.374 257.409 133.221 258.156 133.221ZM280.381 133.421L273.781 149.541H271.901L274.061 144.261L269.641 133.421H271.661L275.101 142.301L278.501 133.421H280.381ZM281.53 138.861C281.53 137.741 281.757 136.761 282.21 135.921C282.663 135.068 283.283 134.408 284.07 133.941C284.87 133.474 285.757 133.241 286.73 133.241C287.69 133.241 288.523 133.448 289.23 133.861C289.937 134.274 290.463 134.794 290.81 135.421V133.421H292.65V144.381H290.81V142.341C290.45 142.981 289.91 143.514 289.19 143.941C288.483 144.354 287.657 144.561 286.71 144.561C285.737 144.561 284.857 144.321 284.07 143.841C283.283 143.361 282.663 142.688 282.21 141.821C281.757 140.954 281.53 139.968 281.53 138.861ZM290.81 138.881C290.81 138.054 290.643 137.334 290.31 136.721C289.977 136.108 289.523 135.641 288.95 135.321C288.39 134.988 287.77 134.821 287.09 134.821C286.41 134.821 285.79 134.981 285.23 135.301C284.67 135.621 284.223 136.088 283.89 136.701C283.557 137.314 283.39 138.034 283.39 138.861C283.39 139.701 283.557 140.434 283.89 141.061C284.223 141.674 284.67 142.148 285.23 142.481C285.79 142.801 286.41 142.961 287.09 142.961C287.77 142.961 288.39 142.801 288.95 142.481C289.523 142.148 289.977 141.674 290.31 141.061C290.643 140.434 290.81 139.708 290.81 138.881ZM301.066 133.221C302.399 133.221 303.479 133.628 304.306 134.441C305.132 135.241 305.546 136.401 305.546 137.921V144.381H303.746V138.181C303.746 137.088 303.472 136.254 302.926 135.681C302.379 135.094 301.632 134.801 300.686 134.801C299.726 134.801 298.959 135.101 298.386 135.701C297.826 136.301 297.546 137.174 297.546 138.321V144.381H295.726V133.421H297.546V134.981C297.906 134.421 298.392 133.988 299.006 133.681C299.632 133.374 300.319 133.221 301.066 133.221ZM313.039 133.241C313.985 133.241 314.812 133.448 315.519 133.861C316.239 134.274 316.772 134.794 317.119 135.421V133.421H318.959V144.621C318.959 145.621 318.745 146.508 318.319 147.281C317.892 148.068 317.279 148.681 316.479 149.121C315.692 149.561 314.772 149.781 313.719 149.781C312.279 149.781 311.079 149.441 310.119 148.761C309.159 148.081 308.592 147.154 308.419 145.981H310.219C310.419 146.648 310.832 147.181 311.459 147.581C312.085 147.994 312.839 148.201 313.719 148.201C314.719 148.201 315.532 147.888 316.159 147.261C316.799 146.634 317.119 145.754 317.119 144.621V142.321C316.759 142.961 316.225 143.494 315.519 143.921C314.812 144.348 313.985 144.561 313.039 144.561C312.065 144.561 311.179 144.321 310.379 143.841C309.592 143.361 308.972 142.688 308.519 141.821C308.065 140.954 307.839 139.968 307.839 138.861C307.839 137.741 308.065 136.761 308.519 135.921C308.972 135.068 309.592 134.408 310.379 133.941C311.179 133.474 312.065 133.241 313.039 133.241ZM317.119 138.881C317.119 138.054 316.952 137.334 316.619 136.721C316.285 136.108 315.832 135.641 315.259 135.321C314.699 134.988 314.079 134.821 313.399 134.821C312.719 134.821 312.099 134.981 311.539 135.301C310.979 135.621 310.532 136.088 310.199 136.701C309.865 137.314 309.699 138.034 309.699 138.861C309.699 139.701 309.865 140.434 310.199 141.061C310.532 141.674 310.979 142.148 311.539 142.481C312.099 142.801 312.719 142.961 313.399 142.961C314.079 142.961 314.699 142.801 315.259 142.481C315.832 142.148 316.285 141.674 316.619 141.061C316.952 140.434 317.119 139.708 317.119 138.881ZM102.568 174.381L98.2684 169.541V174.381H96.4484V159.581H98.2684V168.281L102.488 163.421H105.028L99.8684 168.881L105.048 174.381H102.568ZM111.521 174.561C110.495 174.561 109.561 174.328 108.721 173.861C107.895 173.394 107.241 172.734 106.761 171.881C106.295 171.014 106.061 170.014 106.061 168.881C106.061 167.761 106.301 166.774 106.781 165.921C107.275 165.054 107.941 164.394 108.781 163.941C109.621 163.474 110.561 163.241 111.601 163.241C112.641 163.241 113.581 163.474 114.421 163.941C115.261 164.394 115.921 165.048 116.401 165.901C116.895 166.754 117.141 167.748 117.141 168.881C117.141 170.014 116.888 171.014 116.381 171.881C115.888 172.734 115.215 173.394 114.361 173.861C113.508 174.328 112.561 174.561 111.521 174.561ZM111.521 172.961C112.175 172.961 112.788 172.808 113.361 172.501C113.935 172.194 114.395 171.734 114.741 171.121C115.101 170.508 115.281 169.761 115.281 168.881C115.281 168.001 115.108 167.254 114.761 166.641C114.415 166.028 113.961 165.574 113.401 165.281C112.841 164.974 112.235 164.821 111.581 164.821C110.915 164.821 110.301 164.974 109.741 165.281C109.195 165.574 108.755 166.028 108.421 166.641C108.088 167.254 107.921 168.001 107.921 168.881C107.921 169.774 108.081 170.528 108.401 171.141C108.735 171.754 109.175 172.214 109.721 172.521C110.268 172.814 110.868 172.961 111.521 172.961ZM132.714 163.221C133.568 163.221 134.328 163.401 134.994 163.761C135.661 164.108 136.188 164.634 136.574 165.341C136.961 166.048 137.154 166.908 137.154 167.921V174.381H135.354V168.181C135.354 167.088 135.081 166.254 134.534 165.681C134.001 165.094 133.274 164.801 132.354 164.801C131.408 164.801 130.654 165.108 130.094 165.721C129.534 166.321 129.254 167.194 129.254 168.341V174.381H127.454V168.181C127.454 167.088 127.181 166.254 126.634 165.681C126.101 165.094 125.374 164.801 124.454 164.801C123.508 164.801 122.754 165.108 122.194 165.721C121.634 166.321 121.354 167.194 121.354 168.341V174.381H119.534V163.421H121.354V165.001C121.714 164.428 122.194 163.988 122.794 163.681C123.408 163.374 124.081 163.221 124.814 163.221C125.734 163.221 126.548 163.428 127.254 163.841C127.961 164.254 128.488 164.861 128.834 165.661C129.141 164.888 129.648 164.288 130.354 163.861C131.061 163.434 131.848 163.221 132.714 163.221ZM141.96 165.441C142.32 164.814 142.853 164.294 143.56 163.881C144.28 163.454 145.113 163.241 146.06 163.241C147.033 163.241 147.913 163.474 148.7 163.941C149.5 164.408 150.126 165.068 150.58 165.921C151.033 166.761 151.26 167.741 151.26 168.861C151.26 169.968 151.033 170.954 150.58 171.821C150.126 172.688 149.5 173.361 148.7 173.841C147.913 174.321 147.033 174.561 146.06 174.561C145.126 174.561 144.3 174.354 143.58 173.941C142.873 173.514 142.333 172.988 141.96 172.361V179.581H140.14V163.421H141.96V165.441ZM149.4 168.861C149.4 168.034 149.233 167.314 148.9 166.701C148.566 166.088 148.113 165.621 147.54 165.301C146.98 164.981 146.36 164.821 145.68 164.821C145.013 164.821 144.393 164.988 143.82 165.321C143.26 165.641 142.806 166.114 142.46 166.741C142.126 167.354 141.96 168.068 141.96 168.881C141.96 169.708 142.126 170.434 142.46 171.061C142.806 171.674 143.26 172.148 143.82 172.481C144.393 172.801 145.013 172.961 145.68 172.961C146.36 172.961 146.98 172.801 147.54 172.481C148.113 172.148 148.566 171.674 148.9 171.061C149.233 170.434 149.4 169.701 149.4 168.861ZM163.655 168.481C163.655 168.828 163.635 169.194 163.595 169.581H154.835C154.902 170.661 155.269 171.508 155.935 172.121C156.615 172.721 157.435 173.021 158.395 173.021C159.182 173.021 159.835 172.841 160.355 172.481C160.889 172.108 161.262 171.614 161.475 171.001H163.435C163.142 172.054 162.555 172.914 161.675 173.581C160.795 174.234 159.702 174.561 158.395 174.561C157.355 174.561 156.422 174.328 155.595 173.861C154.782 173.394 154.142 172.734 153.675 171.881C153.209 171.014 152.975 170.014 152.975 168.881C152.975 167.748 153.202 166.754 153.655 165.901C154.109 165.048 154.742 164.394 155.555 163.941C156.382 163.474 157.329 163.241 158.395 163.241C159.435 163.241 160.355 163.468 161.155 163.921C161.955 164.374 162.569 165.001 162.995 165.801C163.435 166.588 163.655 167.481 163.655 168.481ZM161.775 168.101C161.775 167.408 161.622 166.814 161.315 166.321C161.009 165.814 160.589 165.434 160.055 165.181C159.535 164.914 158.955 164.781 158.315 164.781C157.395 164.781 156.609 165.074 155.955 165.661C155.315 166.248 154.949 167.061 154.855 168.101H161.775ZM168.278 164.921V171.381C168.278 171.914 168.391 172.294 168.618 172.521C168.844 172.734 169.238 172.841 169.798 172.841H171.138V174.381H169.498C168.484 174.381 167.724 174.148 167.218 173.681C166.711 173.214 166.458 172.448 166.458 171.381V164.921H165.038V163.421H166.458V160.661H168.278V163.421H171.138V164.921H168.278ZM183.343 168.481C183.343 168.828 183.323 169.194 183.283 169.581H174.523C174.59 170.661 174.956 171.508 175.623 172.121C176.303 172.721 177.123 173.021 178.083 173.021C178.87 173.021 179.523 172.841 180.043 172.481C180.576 172.108 180.95 171.614 181.163 171.001H183.123C182.83 172.054 182.243 172.914 181.363 173.581C180.483 174.234 179.39 174.561 178.083 174.561C177.043 174.561 176.11 174.328 175.283 173.861C174.47 173.394 173.83 172.734 173.363 171.881C172.896 171.014 172.663 170.014 172.663 168.881C172.663 167.748 172.89 166.754 173.343 165.901C173.796 165.048 174.43 164.394 175.243 163.941C176.07 163.474 177.016 163.241 178.083 163.241C179.123 163.241 180.043 163.468 180.843 163.921C181.643 164.374 182.256 165.001 182.683 165.801C183.123 166.588 183.343 167.481 183.343 168.481ZM181.463 168.101C181.463 167.408 181.31 166.814 181.003 166.321C180.696 165.814 180.276 165.434 179.743 165.181C179.223 164.914 178.643 164.781 178.003 164.781C177.083 164.781 176.296 165.074 175.643 165.661C175.003 166.248 174.636 167.061 174.543 168.101H181.463ZM191.085 163.221C192.419 163.221 193.499 163.628 194.325 164.441C195.152 165.241 195.565 166.401 195.565 167.921V174.381H193.765V168.181C193.765 167.088 193.492 166.254 192.945 165.681C192.399 165.094 191.652 164.801 190.705 164.801C189.745 164.801 188.979 165.101 188.405 165.701C187.845 166.301 187.565 167.174 187.565 168.321V174.381H185.745V163.421H187.565V164.981C187.925 164.421 188.412 163.988 189.025 163.681C189.652 163.374 190.339 163.221 191.085 163.221ZM203.19 168.861C203.19 167.741 203.417 166.761 203.87 165.921C204.324 165.068 204.944 164.408 205.73 163.941C206.53 163.474 207.424 163.241 208.41 163.241C209.264 163.241 210.057 163.441 210.79 163.841C211.524 164.228 212.084 164.741 212.47 165.381V159.581H214.31V174.381H212.47V172.321C212.11 172.974 211.577 173.514 210.87 173.941C210.164 174.354 209.337 174.561 208.39 174.561C207.417 174.561 206.53 174.321 205.73 173.841C204.944 173.361 204.324 172.688 203.87 171.821C203.417 170.954 203.19 169.968 203.19 168.861ZM212.47 168.881C212.47 168.054 212.304 167.334 211.97 166.721C211.637 166.108 211.184 165.641 210.61 165.321C210.05 164.988 209.43 164.821 208.75 164.821C208.07 164.821 207.45 164.981 206.89 165.301C206.33 165.621 205.884 166.088 205.55 166.701C205.217 167.314 205.05 168.034 205.05 168.861C205.05 169.701 205.217 170.434 205.55 171.061C205.884 171.674 206.33 172.148 206.89 172.481C207.45 172.801 208.07 172.961 208.75 172.961C209.43 172.961 210.05 172.801 210.61 172.481C211.184 172.148 211.637 171.674 211.97 171.061C212.304 170.434 212.47 169.708 212.47 168.881ZM216.706 168.861C216.706 167.741 216.933 166.761 217.386 165.921C217.839 165.068 218.459 164.408 219.246 163.941C220.046 163.474 220.933 163.241 221.906 163.241C222.866 163.241 223.699 163.448 224.406 163.861C225.113 164.274 225.639 164.794 225.986 165.421V163.421H227.826V174.381H225.986V172.341C225.626 172.981 225.086 173.514 224.366 173.941C223.659 174.354 222.833 174.561 221.886 174.561C220.913 174.561 220.033 174.321 219.246 173.841C218.459 173.361 217.839 172.688 217.386 171.821C216.933 170.954 216.706 169.968 216.706 168.861ZM225.986 168.881C225.986 168.054 225.819 167.334 225.486 166.721C225.153 166.108 224.699 165.641 224.126 165.321C223.566 164.988 222.946 164.821 222.266 164.821C221.586 164.821 220.966 164.981 220.406 165.301C219.846 165.621 219.399 166.088 219.066 166.701C218.733 167.314 218.566 168.034 218.566 168.861C218.566 169.701 218.733 170.434 219.066 171.061C219.399 171.674 219.846 172.148 220.406 172.481C220.966 172.801 221.586 172.961 222.266 172.961C222.946 172.961 223.566 172.801 224.126 172.481C224.699 172.148 225.153 171.674 225.486 171.061C225.819 170.434 225.986 169.708 225.986 168.881ZM236.242 163.221C237.575 163.221 238.655 163.628 239.482 164.441C240.308 165.241 240.722 166.401 240.722 167.921V174.381H238.922V168.181C238.922 167.088 238.648 166.254 238.102 165.681C237.555 165.094 236.808 164.801 235.862 164.801C234.902 164.801 234.135 165.101 233.562 165.701C233.002 166.301 232.722 167.174 232.722 168.321V174.381H230.902V163.421H232.722V164.981C233.082 164.421 233.568 163.988 234.182 163.681C234.808 163.374 235.495 163.221 236.242 163.221ZM252.907 174.561C252.067 174.561 251.313 174.421 250.647 174.141C249.98 173.848 249.453 173.448 249.067 172.941C248.68 172.421 248.467 171.828 248.427 171.161H250.307C250.36 171.708 250.613 172.154 251.067 172.501C251.533 172.848 252.14 173.021 252.887 173.021C253.58 173.021 254.127 172.868 254.527 172.561C254.927 172.254 255.127 171.868 255.127 171.401C255.127 170.921 254.913 170.568 254.487 170.341C254.06 170.101 253.4 169.868 252.507 169.641C251.693 169.428 251.027 169.214 250.507 169.001C250 168.774 249.56 168.448 249.187 168.021C248.827 167.581 248.647 167.008 248.647 166.301C248.647 165.741 248.813 165.228 249.147 164.761C249.48 164.294 249.953 163.928 250.567 163.661C251.18 163.381 251.88 163.241 252.667 163.241C253.88 163.241 254.86 163.548 255.607 164.161C256.353 164.774 256.753 165.614 256.807 166.681H254.987C254.947 166.108 254.713 165.648 254.287 165.301C253.873 164.954 253.313 164.781 252.607 164.781C251.953 164.781 251.433 164.921 251.047 165.201C250.66 165.481 250.467 165.848 250.467 166.301C250.467 166.661 250.58 166.961 250.807 167.201C251.047 167.428 251.34 167.614 251.687 167.761C252.047 167.894 252.54 168.048 253.167 168.221C253.953 168.434 254.593 168.648 255.087 168.861C255.58 169.061 256 169.368 256.347 169.781C256.707 170.194 256.893 170.734 256.907 171.401C256.907 172.001 256.74 172.541 256.407 173.021C256.073 173.501 255.6 173.881 254.987 174.161C254.387 174.428 253.693 174.561 252.907 174.561ZM260.416 161.641C260.069 161.641 259.776 161.521 259.536 161.281C259.296 161.041 259.176 160.748 259.176 160.401C259.176 160.054 259.296 159.761 259.536 159.521C259.776 159.281 260.069 159.161 260.416 159.161C260.749 159.161 261.029 159.281 261.256 159.521C261.496 159.761 261.616 160.054 261.616 160.401C261.616 160.748 261.496 161.041 261.256 161.281C261.029 161.521 260.749 161.641 260.416 161.641ZM261.296 163.421V174.381H259.476V163.421H261.296ZM263.718 168.861C263.718 167.741 263.944 166.761 264.398 165.921C264.851 165.068 265.471 164.408 266.258 163.941C267.058 163.474 267.944 163.241 268.918 163.241C269.878 163.241 270.711 163.448 271.418 163.861C272.124 164.274 272.651 164.794 272.998 165.421V163.421H274.838V174.381H272.998V172.341C272.638 172.981 272.098 173.514 271.378 173.941C270.671 174.354 269.844 174.561 268.898 174.561C267.924 174.561 267.044 174.321 266.258 173.841C265.471 173.361 264.851 172.688 264.398 171.821C263.944 170.954 263.718 169.968 263.718 168.861ZM272.998 168.881C272.998 168.054 272.831 167.334 272.498 166.721C272.164 166.108 271.711 165.641 271.138 165.321C270.578 164.988 269.958 164.821 269.278 164.821C268.598 164.821 267.978 164.981 267.418 165.301C266.858 165.621 266.411 166.088 266.078 166.701C265.744 167.314 265.578 168.034 265.578 168.861C265.578 169.701 265.744 170.434 266.078 171.061C266.411 171.674 266.858 172.148 267.418 172.481C267.978 172.801 268.598 172.961 269.278 172.961C269.958 172.961 270.578 172.801 271.138 172.481C271.711 172.148 272.164 171.674 272.498 171.061C272.831 170.434 272.998 169.708 272.998 168.881ZM279.733 165.441C280.093 164.814 280.627 164.294 281.333 163.881C282.053 163.454 282.887 163.241 283.833 163.241C284.807 163.241 285.687 163.474 286.473 163.941C287.273 164.408 287.9 165.068 288.353 165.921C288.807 166.761 289.033 167.741 289.033 168.861C289.033 169.968 288.807 170.954 288.353 171.821C287.9 172.688 287.273 173.361 286.473 173.841C285.687 174.321 284.807 174.561 283.833 174.561C282.9 174.561 282.073 174.354 281.353 173.941C280.647 173.514 280.107 172.988 279.733 172.361V179.581H277.913V163.421H279.733V165.441ZM287.173 168.861C287.173 168.034 287.007 167.314 286.673 166.701C286.34 166.088 285.887 165.621 285.313 165.301C284.753 164.981 284.133 164.821 283.453 164.821C282.787 164.821 282.167 164.988 281.593 165.321C281.033 165.641 280.58 166.114 280.233 166.741C279.9 167.354 279.733 168.068 279.733 168.881C279.733 169.708 279.9 170.434 280.233 171.061C280.58 171.674 281.033 172.148 281.593 172.481C282.167 172.801 282.787 172.961 283.453 172.961C284.133 172.961 284.753 172.801 285.313 172.481C285.887 172.148 286.34 171.674 286.673 171.061C287.007 170.434 287.173 169.701 287.173 168.861ZM76.7352 195.461C77.1085 194.808 77.6552 194.274 78.3752 193.861C79.0952 193.448 79.9152 193.241 80.8352 193.241C81.8219 193.241 82.7085 193.474 83.4952 193.941C84.2819 194.408 84.9019 195.068 85.3552 195.921C85.8085 196.761 86.0352 197.741 86.0352 198.861C86.0352 199.968 85.8085 200.954 85.3552 201.821C84.9019 202.688 84.2752 203.361 83.4752 203.841C82.6885 204.321 81.8085 204.561 80.8352 204.561C79.8885 204.561 79.0552 204.354 78.3352 203.941C77.6285 203.528 77.0952 203.001 76.7352 202.361V204.381H74.9152V189.581H76.7352V195.461ZM84.1752 198.861C84.1752 198.034 84.0085 197.314 83.6752 196.701C83.3419 196.088 82.8885 195.621 82.3152 195.301C81.7552 194.981 81.1352 194.821 80.4552 194.821C79.7885 194.821 79.1685 194.988 78.5952 195.321C78.0352 195.641 77.5819 196.114 77.2352 196.741C76.9019 197.354 76.7352 198.068 76.7352 198.881C76.7352 199.708 76.9019 200.434 77.2352 201.061C77.5819 201.674 78.0352 202.148 78.5952 202.481C79.1685 202.801 79.7885 202.961 80.4552 202.961C81.1352 202.961 81.7552 202.801 82.3152 202.481C82.8885 202.148 83.3419 201.674 83.6752 201.061C84.0085 200.434 84.1752 199.701 84.1752 198.861ZM98.4308 198.481C98.4308 198.828 98.4108 199.194 98.3708 199.581H89.6108C89.6775 200.661 90.0442 201.508 90.7108 202.121C91.3908 202.721 92.2108 203.021 93.1708 203.021C93.9575 203.021 94.6108 202.841 95.1308 202.481C95.6642 202.108 96.0375 201.614 96.2508 201.001H98.2108C97.9175 202.054 97.3308 202.914 96.4508 203.581C95.5708 204.234 94.4775 204.561 93.1708 204.561C92.1308 204.561 91.1975 204.328 90.3708 203.861C89.5575 203.394 88.9175 202.734 88.4508 201.881C87.9842 201.014 87.7508 200.014 87.7508 198.881C87.7508 197.748 87.9775 196.754 88.4308 195.901C88.8842 195.048 89.5175 194.394 90.3308 193.941C91.1575 193.474 92.1042 193.241 93.1708 193.241C94.2108 193.241 95.1308 193.468 95.9308 193.921C96.7308 194.374 97.3442 195.001 97.7708 195.801C98.2108 196.588 98.4308 197.481 98.4308 198.481ZM96.5508 198.101C96.5508 197.408 96.3975 196.814 96.0908 196.321C95.7842 195.814 95.3642 195.434 94.8308 195.181C94.3108 194.914 93.7308 194.781 93.0908 194.781C92.1708 194.781 91.3842 195.074 90.7308 195.661C90.0908 196.248 89.7242 197.061 89.6308 198.101H96.5508ZM102.653 195.201C102.973 194.574 103.427 194.088 104.013 193.741C104.613 193.394 105.34 193.221 106.193 193.221V195.101H105.713C103.673 195.101 102.653 196.208 102.653 198.421V204.381H100.833V193.421H102.653V195.201ZM112.174 204.561C111.334 204.561 110.581 204.421 109.914 204.141C109.247 203.848 108.721 203.448 108.334 202.941C107.947 202.421 107.734 201.828 107.694 201.161H109.574C109.627 201.708 109.881 202.154 110.334 202.501C110.801 202.848 111.407 203.021 112.154 203.021C112.847 203.021 113.394 202.868 113.794 202.561C114.194 202.254 114.394 201.868 114.394 201.401C114.394 200.921 114.181 200.568 113.754 200.341C113.327 200.101 112.667 199.868 111.774 199.641C110.961 199.428 110.294 199.214 109.774 199.001C109.267 198.774 108.827 198.448 108.454 198.021C108.094 197.581 107.914 197.008 107.914 196.301C107.914 195.741 108.081 195.228 108.414 194.761C108.747 194.294 109.221 193.928 109.834 193.661C110.447 193.381 111.147 193.241 111.934 193.241C113.147 193.241 114.127 193.548 114.874 194.161C115.621 194.774 116.021 195.614 116.074 196.681H114.254C114.214 196.108 113.981 195.648 113.554 195.301C113.141 194.954 112.581 194.781 111.874 194.781C111.221 194.781 110.701 194.921 110.314 195.201C109.927 195.481 109.734 195.848 109.734 196.301C109.734 196.661 109.847 196.961 110.074 197.201C110.314 197.428 110.607 197.614 110.954 197.761C111.314 197.894 111.807 198.048 112.434 198.221C113.221 198.434 113.861 198.648 114.354 198.861C114.847 199.061 115.267 199.368 115.614 199.781C115.974 200.194 116.161 200.734 116.174 201.401C116.174 202.001 116.007 202.541 115.674 203.021C115.341 203.501 114.867 203.881 114.254 204.161C113.654 204.428 112.961 204.561 112.174 204.561ZM118.063 198.861C118.063 197.741 118.29 196.761 118.743 195.921C119.197 195.068 119.817 194.408 120.603 193.941C121.403 193.474 122.29 193.241 123.263 193.241C124.223 193.241 125.057 193.448 125.763 193.861C126.47 194.274 126.997 194.794 127.343 195.421V193.421H129.183V204.381H127.343V202.341C126.983 202.981 126.443 203.514 125.723 203.941C125.017 204.354 124.19 204.561 123.243 204.561C122.27 204.561 121.39 204.321 120.603 203.841C119.817 203.361 119.197 202.688 118.743 201.821C118.29 200.954 118.063 199.968 118.063 198.861ZM127.343 198.881C127.343 198.054 127.177 197.334 126.843 196.721C126.51 196.108 126.057 195.641 125.483 195.321C124.923 194.988 124.303 194.821 123.623 194.821C122.943 194.821 122.323 194.981 121.763 195.301C121.203 195.621 120.757 196.088 120.423 196.701C120.09 197.314 119.923 198.034 119.923 198.861C119.923 199.701 120.09 200.434 120.423 201.061C120.757 201.674 121.203 202.148 121.763 202.481C122.323 202.801 122.943 202.961 123.623 202.961C124.303 202.961 124.923 202.801 125.483 202.481C126.057 202.148 126.51 201.674 126.843 201.061C127.177 200.434 127.343 199.708 127.343 198.881ZM133.199 191.641C132.852 191.641 132.559 191.521 132.319 191.281C132.079 191.041 131.959 190.748 131.959 190.401C131.959 190.054 132.079 189.761 132.319 189.521C132.559 189.281 132.852 189.161 133.199 189.161C133.532 189.161 133.812 189.281 134.039 189.521C134.279 189.761 134.399 190.054 134.399 190.401C134.399 190.748 134.279 191.041 134.039 191.281C133.812 191.521 133.532 191.641 133.199 191.641ZM134.079 193.421V204.381H132.259V193.421H134.079ZM142.521 193.221C143.854 193.221 144.934 193.628 145.761 194.441C146.588 195.241 147.001 196.401 147.001 197.921V204.381H145.201V198.181C145.201 197.088 144.928 196.254 144.381 195.681C143.834 195.094 143.088 194.801 142.141 194.801C141.181 194.801 140.414 195.101 139.841 195.701C139.281 196.301 139.001 197.174 139.001 198.321V204.381H137.181V193.421H139.001V194.981C139.361 194.421 139.848 193.988 140.461 193.681C141.088 193.374 141.774 193.221 142.521 193.221ZM154.494 193.241C155.44 193.241 156.267 193.448 156.974 193.861C157.694 194.274 158.227 194.794 158.574 195.421V193.421H160.414V204.621C160.414 205.621 160.2 206.508 159.774 207.281C159.347 208.068 158.734 208.681 157.934 209.121C157.147 209.561 156.227 209.781 155.174 209.781C153.734 209.781 152.534 209.441 151.574 208.761C150.614 208.081 150.047 207.154 149.874 205.981H151.674C151.874 206.648 152.287 207.181 152.914 207.581C153.54 207.994 154.294 208.201 155.174 208.201C156.174 208.201 156.987 207.888 157.614 207.261C158.254 206.634 158.574 205.754 158.574 204.621V202.321C158.214 202.961 157.68 203.494 156.974 203.921C156.267 204.348 155.44 204.561 154.494 204.561C153.52 204.561 152.634 204.321 151.834 203.841C151.047 203.361 150.427 202.688 149.974 201.821C149.52 200.954 149.294 199.968 149.294 198.861C149.294 197.741 149.52 196.761 149.974 195.921C150.427 195.068 151.047 194.408 151.834 193.941C152.634 193.474 153.52 193.241 154.494 193.241ZM158.574 198.881C158.574 198.054 158.407 197.334 158.074 196.721C157.74 196.108 157.287 195.641 156.714 195.321C156.154 194.988 155.534 194.821 154.854 194.821C154.174 194.821 153.554 194.981 152.994 195.301C152.434 195.621 151.987 196.088 151.654 196.701C151.32 197.314 151.154 198.034 151.154 198.861C151.154 199.701 151.32 200.434 151.654 201.061C151.987 201.674 152.434 202.148 152.994 202.481C153.554 202.801 154.174 202.961 154.854 202.961C155.534 202.961 156.154 202.801 156.714 202.481C157.287 202.148 157.74 201.674 158.074 201.061C158.407 200.434 158.574 199.708 158.574 198.881ZM168.141 198.861C168.141 197.741 168.368 196.761 168.821 195.921C169.275 195.068 169.895 194.408 170.681 193.941C171.481 193.474 172.375 193.241 173.361 193.241C174.215 193.241 175.008 193.441 175.741 193.841C176.475 194.228 177.035 194.741 177.421 195.381V189.581H179.261V204.381H177.421V202.321C177.061 202.974 176.528 203.514 175.821 203.941C175.115 204.354 174.288 204.561 173.341 204.561C172.368 204.561 171.481 204.321 170.681 203.841C169.895 203.361 169.275 202.688 168.821 201.821C168.368 200.954 168.141 199.968 168.141 198.861ZM177.421 198.881C177.421 198.054 177.255 197.334 176.921 196.721C176.588 196.108 176.135 195.641 175.561 195.321C175.001 194.988 174.381 194.821 173.701 194.821C173.021 194.821 172.401 194.981 171.841 195.301C171.281 195.621 170.835 196.088 170.501 196.701C170.168 197.314 170.001 198.034 170.001 198.861C170.001 199.701 170.168 200.434 170.501 201.061C170.835 201.674 171.281 202.148 171.841 202.481C172.401 202.801 173.021 202.961 173.701 202.961C174.381 202.961 175.001 202.801 175.561 202.481C176.135 202.148 176.588 201.674 176.921 201.061C177.255 200.434 177.421 199.708 177.421 198.881ZM183.277 191.641C182.93 191.641 182.637 191.521 182.397 191.281C182.157 191.041 182.037 190.748 182.037 190.401C182.037 190.054 182.157 189.761 182.397 189.521C182.637 189.281 182.93 189.161 183.277 189.161C183.61 189.161 183.89 189.281 184.117 189.521C184.357 189.761 184.477 190.054 184.477 190.401C184.477 190.748 184.357 191.041 184.117 191.281C183.89 191.521 183.61 191.641 183.277 191.641ZM184.157 193.421V204.381H182.337V193.421H184.157ZM202.591 198.481C202.591 198.828 202.571 199.194 202.531 199.581H193.771C193.838 200.661 194.204 201.508 194.871 202.121C195.551 202.721 196.371 203.021 197.331 203.021C198.118 203.021 198.771 202.841 199.291 202.481C199.824 202.108 200.198 201.614 200.411 201.001H202.371C202.078 202.054 201.491 202.914 200.611 203.581C199.731 204.234 198.638 204.561 197.331 204.561C196.291 204.561 195.358 204.328 194.531 203.861C193.718 203.394 193.078 202.734 192.611 201.881C192.144 201.014 191.911 200.014 191.911 198.881C191.911 197.748 192.138 196.754 192.591 195.901C193.044 195.048 193.678 194.394 194.491 193.941C195.318 193.474 196.264 193.241 197.331 193.241C198.371 193.241 199.291 193.468 200.091 193.921C200.891 194.374 201.504 195.001 201.931 195.801C202.371 196.588 202.591 197.481 202.591 198.481ZM200.711 198.101C200.711 197.408 200.558 196.814 200.251 196.321C199.944 195.814 199.524 195.434 198.991 195.181C198.471 194.914 197.891 194.781 197.251 194.781C196.331 194.781 195.544 195.074 194.891 195.661C194.251 196.248 193.884 197.061 193.791 198.101H200.711ZM206.813 195.201C207.133 194.574 207.587 194.088 208.173 193.741C208.773 193.394 209.5 193.221 210.353 193.221V195.101H209.873C207.833 195.101 206.813 196.208 206.813 198.421V204.381H204.993V193.421H206.813V195.201ZM211.774 198.861C211.774 197.741 212.001 196.761 212.454 195.921C212.908 195.068 213.528 194.408 214.314 193.941C215.114 193.474 216.001 193.241 216.974 193.241C217.934 193.241 218.768 193.448 219.474 193.861C220.181 194.274 220.708 194.794 221.054 195.421V193.421H222.894V204.381H221.054V202.341C220.694 202.981 220.154 203.514 219.434 203.941C218.728 204.354 217.901 204.561 216.954 204.561C215.981 204.561 215.101 204.321 214.314 203.841C213.528 203.361 212.908 202.688 212.454 201.821C212.001 200.954 211.774 199.968 211.774 198.861ZM221.054 198.881C221.054 198.054 220.888 197.334 220.554 196.721C220.221 196.108 219.768 195.641 219.194 195.321C218.634 194.988 218.014 194.821 217.334 194.821C216.654 194.821 216.034 194.981 215.474 195.301C214.914 195.621 214.468 196.088 214.134 196.701C213.801 197.314 213.634 198.034 213.634 198.861C213.634 199.701 213.801 200.434 214.134 201.061C214.468 201.674 214.914 202.148 215.474 202.481C216.034 202.801 216.654 202.961 217.334 202.961C218.014 202.961 218.634 202.801 219.194 202.481C219.768 202.148 220.221 201.674 220.554 201.061C220.888 200.434 221.054 199.708 221.054 198.881ZM238.642 204.381L235.322 198.681H233.122V204.381H231.302V190.441H235.802C236.855 190.441 237.742 190.621 238.462 190.981C239.195 191.341 239.742 191.828 240.102 192.441C240.462 193.054 240.642 193.754 240.642 194.541C240.642 195.501 240.362 196.348 239.802 197.081C239.255 197.814 238.429 198.301 237.322 198.541L240.822 204.381H238.642ZM233.122 197.221H235.802C236.789 197.221 237.529 196.981 238.022 196.501C238.515 196.008 238.762 195.354 238.762 194.541C238.762 193.714 238.515 193.074 238.022 192.621C237.542 192.168 236.802 191.941 235.802 191.941H233.122V197.221ZM253.47 198.481C253.47 198.828 253.45 199.194 253.41 199.581H244.65C244.717 200.661 245.083 201.508 245.75 202.121C246.43 202.721 247.25 203.021 248.21 203.021C248.997 203.021 249.65 202.841 250.17 202.481C250.703 202.108 251.077 201.614 251.29 201.001H253.25C252.957 202.054 252.37 202.914 251.49 203.581C250.61 204.234 249.517 204.561 248.21 204.561C247.17 204.561 246.237 204.328 245.41 203.861C244.597 203.394 243.957 202.734 243.49 201.881C243.023 201.014 242.79 200.014 242.79 198.881C242.79 197.748 243.017 196.754 243.47 195.901C243.923 195.048 244.557 194.394 245.37 193.941C246.197 193.474 247.143 193.241 248.21 193.241C249.25 193.241 250.17 193.468 250.97 193.921C251.77 194.374 252.383 195.001 252.81 195.801C253.25 196.588 253.47 197.481 253.47 198.481ZM251.59 198.101C251.59 197.408 251.437 196.814 251.13 196.321C250.823 195.814 250.403 195.434 249.87 195.181C249.35 194.914 248.77 194.781 248.13 194.781C247.21 194.781 246.423 195.074 245.77 195.661C245.13 196.248 244.763 197.061 244.67 198.101H251.59ZM259.952 202.701L263.352 193.421H265.292L260.992 204.381H258.872L254.572 193.421H256.532L259.952 202.701ZM271.863 204.561C270.837 204.561 269.903 204.328 269.063 203.861C268.237 203.394 267.583 202.734 267.103 201.881C266.637 201.014 266.403 200.014 266.403 198.881C266.403 197.761 266.643 196.774 267.123 195.921C267.617 195.054 268.283 194.394 269.123 193.941C269.963 193.474 270.903 193.241 271.943 193.241C272.983 193.241 273.923 193.474 274.763 193.941C275.603 194.394 276.263 195.048 276.743 195.901C277.237 196.754 277.483 197.748 277.483 198.881C277.483 200.014 277.23 201.014 276.723 201.881C276.23 202.734 275.557 203.394 274.703 203.861C273.85 204.328 272.903 204.561 271.863 204.561ZM271.863 202.961C272.517 202.961 273.13 202.808 273.703 202.501C274.277 202.194 274.737 201.734 275.083 201.121C275.443 200.508 275.623 199.761 275.623 198.881C275.623 198.001 275.45 197.254 275.103 196.641C274.757 196.028 274.303 195.574 273.743 195.281C273.183 194.974 272.577 194.821 271.923 194.821C271.257 194.821 270.643 194.974 270.083 195.281C269.537 195.574 269.097 196.028 268.763 196.641C268.43 197.254 268.263 198.001 268.263 198.881C268.263 199.774 268.423 200.528 268.743 201.141C269.077 201.754 269.517 202.214 270.063 202.521C270.61 202.814 271.21 202.961 271.863 202.961ZM281.696 189.581V204.381H279.876V189.581H281.696ZM294.518 193.421V204.381H292.698V202.761C292.351 203.321 291.865 203.761 291.238 204.081C290.625 204.388 289.945 204.541 289.198 204.541C288.345 204.541 287.578 204.368 286.898 204.021C286.218 203.661 285.678 203.128 285.278 202.421C284.891 201.714 284.698 200.854 284.698 199.841V193.421H286.498V199.601C286.498 200.681 286.771 201.514 287.318 202.101C287.865 202.674 288.611 202.961 289.558 202.961C290.531 202.961 291.298 202.661 291.858 202.061C292.418 201.461 292.698 200.588 292.698 199.441V193.421H294.518ZM301.471 204.561C300.631 204.561 299.878 204.421 299.211 204.141C298.544 203.848 298.018 203.448 297.631 202.941C297.244 202.421 297.031 201.828 296.991 201.161H298.871C298.924 201.708 299.178 202.154 299.631 202.501C300.098 202.848 300.704 203.021 301.451 203.021C302.144 203.021 302.691 202.868 303.091 202.561C303.491 202.254 303.691 201.868 303.691 201.401C303.691 200.921 303.478 200.568 303.051 200.341C302.624 200.101 301.964 199.868 301.071 199.641C300.258 199.428 299.591 199.214 299.071 199.001C298.564 198.774 298.124 198.448 297.751 198.021C297.391 197.581 297.211 197.008 297.211 196.301C297.211 195.741 297.378 195.228 297.711 194.761C298.044 194.294 298.518 193.928 299.131 193.661C299.744 193.381 300.444 193.241 301.231 193.241C302.444 193.241 303.424 193.548 304.171 194.161C304.918 194.774 305.318 195.614 305.371 196.681H303.551C303.511 196.108 303.278 195.648 302.851 195.301C302.438 194.954 301.878 194.781 301.171 194.781C300.518 194.781 299.998 194.921 299.611 195.201C299.224 195.481 299.031 195.848 299.031 196.301C299.031 196.661 299.144 196.961 299.371 197.201C299.611 197.428 299.904 197.614 300.251 197.761C300.611 197.894 301.104 198.048 301.731 198.221C302.518 198.434 303.158 198.648 303.651 198.861C304.144 199.061 304.564 199.368 304.911 199.781C305.271 200.194 305.458 200.734 305.471 201.401C305.471 202.001 305.304 202.541 304.971 203.021C304.638 203.501 304.164 203.881 303.551 204.161C302.951 204.428 302.258 204.561 301.471 204.561ZM308.98 191.641C308.634 191.641 308.34 191.521 308.1 191.281C307.86 191.041 307.74 190.748 307.74 190.401C307.74 190.054 307.86 189.761 308.1 189.521C308.34 189.281 308.634 189.161 308.98 189.161C309.314 189.161 309.594 189.281 309.82 189.521C310.06 189.761 310.18 190.054 310.18 190.401C310.18 190.748 310.06 191.041 309.82 191.281C309.594 191.521 309.314 191.641 308.98 191.641ZM309.86 193.421V204.381H308.04V193.421H309.86ZM118.776 220.441V234.381H116.956V220.441H118.776ZM127.218 223.221C128.551 223.221 129.631 223.628 130.458 224.441C131.285 225.241 131.698 226.401 131.698 227.921V234.381H129.898V228.181C129.898 227.088 129.625 226.254 129.078 225.681C128.531 225.094 127.785 224.801 126.838 224.801C125.878 224.801 125.111 225.101 124.538 225.701C123.978 226.301 123.698 227.174 123.698 228.321V234.381H121.878V223.421H123.698V224.981C124.058 224.421 124.545 223.988 125.158 223.681C125.785 223.374 126.471 223.221 127.218 223.221ZM133.991 228.861C133.991 227.741 134.218 226.761 134.671 225.921C135.124 225.068 135.744 224.408 136.531 223.941C137.331 223.474 138.224 223.241 139.211 223.241C140.064 223.241 140.858 223.441 141.591 223.841C142.324 224.228 142.884 224.741 143.271 225.381V219.581H145.111V234.381H143.271V232.321C142.911 232.974 142.378 233.514 141.671 233.941C140.964 234.354 140.138 234.561 139.191 234.561C138.218 234.561 137.331 234.321 136.531 233.841C135.744 233.361 135.124 232.688 134.671 231.821C134.218 230.954 133.991 229.968 133.991 228.861ZM143.271 228.881C143.271 228.054 143.104 227.334 142.771 226.721C142.438 226.108 141.984 225.641 141.411 225.321C140.851 224.988 140.231 224.821 139.551 224.821C138.871 224.821 138.251 224.981 137.691 225.301C137.131 225.621 136.684 226.088 136.351 226.701C136.018 227.314 135.851 228.034 135.851 228.861C135.851 229.701 136.018 230.434 136.351 231.061C136.684 231.674 137.131 232.148 137.691 232.481C138.251 232.801 138.871 232.961 139.551 232.961C140.231 232.961 140.851 232.801 141.411 232.481C141.984 232.148 142.438 231.674 142.771 231.061C143.104 230.434 143.271 229.708 143.271 228.881ZM157.907 223.421V234.381H156.087V232.761C155.74 233.321 155.253 233.761 154.627 234.081C154.013 234.388 153.333 234.541 152.587 234.541C151.733 234.541 150.967 234.368 150.287 234.021C149.607 233.661 149.067 233.128 148.667 232.421C148.28 231.714 148.087 230.854 148.087 229.841V223.421H149.887V229.601C149.887 230.681 150.16 231.514 150.707 232.101C151.253 232.674 152 232.961 152.947 232.961C153.92 232.961 154.687 232.661 155.247 232.061C155.807 231.461 156.087 230.588 156.087 229.441V223.421H157.907ZM164.86 234.561C164.02 234.561 163.266 234.421 162.6 234.141C161.933 233.848 161.406 233.448 161.02 232.941C160.633 232.421 160.42 231.828 160.38 231.161H162.26C162.313 231.708 162.566 232.154 163.02 232.501C163.486 232.848 164.093 233.021 164.84 233.021C165.533 233.021 166.08 232.868 166.48 232.561C166.88 232.254 167.08 231.868 167.08 231.401C167.08 230.921 166.866 230.568 166.44 230.341C166.013 230.101 165.353 229.868 164.46 229.641C163.646 229.428 162.98 229.214 162.46 229.001C161.953 228.774 161.513 228.448 161.14 228.021C160.78 227.581 160.6 227.008 160.6 226.301C160.6 225.741 160.766 225.228 161.1 224.761C161.433 224.294 161.906 223.928 162.52 223.661C163.133 223.381 163.833 223.241 164.62 223.241C165.833 223.241 166.813 223.548 167.56 224.161C168.306 224.774 168.706 225.614 168.76 226.681H166.94C166.9 226.108 166.666 225.648 166.24 225.301C165.826 224.954 165.266 224.781 164.56 224.781C163.906 224.781 163.386 224.921 163 225.201C162.613 225.481 162.42 225.848 162.42 226.301C162.42 226.661 162.533 226.961 162.76 227.201C163 227.428 163.293 227.614 163.64 227.761C164 227.894 164.493 228.048 165.12 228.221C165.906 228.434 166.546 228.648 167.04 228.861C167.533 229.061 167.953 229.368 168.3 229.781C168.66 230.194 168.846 230.734 168.86 231.401C168.86 232.001 168.693 232.541 168.36 233.021C168.026 233.501 167.553 233.881 166.94 234.161C166.34 234.428 165.646 234.561 164.86 234.561ZM173.649 224.921V231.381C173.649 231.914 173.762 232.294 173.989 232.521C174.216 232.734 174.609 232.841 175.169 232.841H176.509V234.381H174.869C173.856 234.381 173.096 234.148 172.589 233.681C172.082 233.214 171.829 232.448 171.829 231.381V224.921H170.409V223.421H171.829V220.661H173.649V223.421H176.509V224.921H173.649ZM180.534 225.201C180.854 224.574 181.307 224.088 181.894 223.741C182.494 223.394 183.221 223.221 184.074 223.221V225.101H183.594C181.554 225.101 180.534 226.208 180.534 228.421V234.381H178.714V223.421H180.534V225.201ZM187.115 221.641C186.768 221.641 186.475 221.521 186.235 221.281C185.995 221.041 185.875 220.748 185.875 220.401C185.875 220.054 185.995 219.761 186.235 219.521C186.475 219.281 186.768 219.161 187.115 219.161C187.448 219.161 187.728 219.281 187.955 219.521C188.195 219.761 188.315 220.054 188.315 220.401C188.315 220.748 188.195 221.041 187.955 221.281C187.728 221.521 187.448 221.641 187.115 221.641ZM187.995 223.421V234.381H186.175V223.421H187.995ZM195.689 231.161V229.781L202.709 220.061H204.889V229.581H206.889V231.161H204.889V234.381H203.089V231.161H195.689ZM203.169 221.961L197.789 229.581H203.169V221.961ZM209.587 234.501C209.24 234.501 208.947 234.381 208.707 234.141C208.467 233.901 208.347 233.608 208.347 233.261C208.347 232.914 208.467 232.621 208.707 232.381C208.947 232.141 209.24 232.021 209.587 232.021C209.92 232.021 210.2 232.141 210.427 232.381C210.667 232.621 210.787 232.914 210.787 233.261C210.787 233.608 210.667 233.901 210.427 234.141C210.2 234.381 209.92 234.501 209.587 234.501ZM212.906 227.001C212.906 224.708 213.28 222.921 214.026 221.641C214.773 220.348 216.08 219.701 217.946 219.701C219.8 219.701 221.1 220.348 221.846 221.641C222.593 222.921 222.966 224.708 222.966 227.001C222.966 229.334 222.593 231.148 221.846 232.441C221.1 233.734 219.8 234.381 217.946 234.381C216.08 234.381 214.773 233.734 214.026 232.441C213.28 231.148 212.906 229.334 212.906 227.001ZM221.166 227.001C221.166 225.841 221.086 224.861 220.926 224.061C220.78 223.248 220.466 222.594 219.986 222.101C219.52 221.608 218.84 221.361 217.946 221.361C217.04 221.361 216.346 221.608 215.866 222.101C215.4 222.594 215.086 223.248 214.926 224.061C214.78 224.861 214.706 225.841 214.706 227.001C214.706 228.201 214.78 229.208 214.926 230.021C215.086 230.834 215.4 231.488 215.866 231.981C216.346 232.474 217.04 232.721 217.946 232.721C218.84 232.721 219.52 232.474 219.986 231.981C220.466 231.488 220.78 230.834 220.926 230.021C221.086 229.208 221.166 228.201 221.166 227.001ZM230.417 228.861C230.417 227.741 230.644 226.761 231.097 225.921C231.55 225.068 232.17 224.408 232.957 223.941C233.757 223.474 234.65 223.241 235.637 223.241C236.49 223.241 237.284 223.441 238.017 223.841C238.75 224.228 239.31 224.741 239.697 225.381V219.581H241.537V234.381H239.697V232.321C239.337 232.974 238.804 233.514 238.097 233.941C237.39 234.354 236.564 234.561 235.617 234.561C234.644 234.561 233.757 234.321 232.957 233.841C232.17 233.361 231.55 232.688 231.097 231.821C230.644 230.954 230.417 229.968 230.417 228.861ZM239.697 228.881C239.697 228.054 239.53 227.334 239.197 226.721C238.864 226.108 238.41 225.641 237.837 225.321C237.277 224.988 236.657 224.821 235.977 224.821C235.297 224.821 234.677 224.981 234.117 225.301C233.557 225.621 233.11 226.088 232.777 226.701C232.444 227.314 232.277 228.034 232.277 228.861C232.277 229.701 232.444 230.434 232.777 231.061C233.11 231.674 233.557 232.148 234.117 232.481C234.677 232.801 235.297 232.961 235.977 232.961C236.657 232.961 237.277 232.801 237.837 232.481C238.41 232.148 238.864 231.674 239.197 231.061C239.53 230.434 239.697 229.708 239.697 228.881ZM243.932 228.861C243.932 227.741 244.159 226.761 244.612 225.921C245.066 225.068 245.686 224.408 246.472 223.941C247.272 223.474 248.159 223.241 249.132 223.241C250.092 223.241 250.926 223.448 251.632 223.861C252.339 224.274 252.866 224.794 253.212 225.421V223.421H255.052V234.381H253.212V232.341C252.852 232.981 252.312 233.514 251.592 233.941C250.886 234.354 250.059 234.561 249.112 234.561C248.139 234.561 247.259 234.321 246.472 233.841C245.686 233.361 245.066 232.688 244.612 231.821C244.159 230.954 243.932 229.968 243.932 228.861ZM253.212 228.881C253.212 228.054 253.046 227.334 252.712 226.721C252.379 226.108 251.926 225.641 251.352 225.321C250.792 224.988 250.172 224.821 249.492 224.821C248.812 224.821 248.192 224.981 247.632 225.301C247.072 225.621 246.626 226.088 246.292 226.701C245.959 227.314 245.792 228.034 245.792 228.861C245.792 229.701 245.959 230.434 246.292 231.061C246.626 231.674 247.072 232.148 247.632 232.481C248.192 232.801 248.812 232.961 249.492 232.961C250.172 232.961 250.792 232.801 251.352 232.481C251.926 232.148 252.379 231.674 252.712 231.061C253.046 230.434 253.212 229.708 253.212 228.881ZM263.468 223.221C264.801 223.221 265.881 223.628 266.708 224.441C267.535 225.241 267.948 226.401 267.948 227.921V234.381H266.148V228.181C266.148 227.088 265.875 226.254 265.328 225.681C264.781 225.094 264.035 224.801 263.088 224.801C262.128 224.801 261.361 225.101 260.788 225.701C260.228 226.301 259.948 227.174 259.948 228.321V234.381H258.128V223.421H259.948V224.981C260.308 224.421 260.795 223.988 261.408 223.681C262.035 223.374 262.721 223.221 263.468 223.221ZM142.638 253.241C143.585 253.241 144.412 253.448 145.118 253.861C145.838 254.274 146.372 254.794 146.718 255.421V253.421H148.558V264.621C148.558 265.621 148.345 266.508 147.918 267.281C147.492 268.068 146.878 268.681 146.078 269.121C145.292 269.561 144.372 269.781 143.318 269.781C141.878 269.781 140.678 269.441 139.718 268.761C138.758 268.081 138.192 267.154 138.018 265.981H139.818C140.018 266.648 140.432 267.181 141.058 267.581C141.685 267.994 142.438 268.201 143.318 268.201C144.318 268.201 145.132 267.888 145.758 267.261C146.398 266.634 146.718 265.754 146.718 264.621V262.321C146.358 262.961 145.825 263.494 145.118 263.921C144.412 264.348 143.585 264.561 142.638 264.561C141.665 264.561 140.778 264.321 139.978 263.841C139.192 263.361 138.572 262.688 138.118 261.821C137.665 260.954 137.438 259.968 137.438 258.861C137.438 257.741 137.665 256.761 138.118 255.921C138.572 255.068 139.192 254.408 139.978 253.941C140.778 253.474 141.665 253.241 142.638 253.241ZM146.718 258.881C146.718 258.054 146.552 257.334 146.218 256.721C145.885 256.108 145.432 255.641 144.858 255.321C144.298 254.988 143.678 254.821 142.998 254.821C142.318 254.821 141.698 254.981 141.138 255.301C140.578 255.621 140.132 256.088 139.798 256.701C139.465 257.314 139.298 258.034 139.298 258.861C139.298 259.701 139.465 260.434 139.798 261.061C140.132 261.674 140.578 262.148 141.138 262.481C141.698 262.801 142.318 262.961 142.998 262.961C143.678 262.961 144.298 262.801 144.858 262.481C145.432 262.148 145.885 261.674 146.218 261.061C146.552 260.434 146.718 259.708 146.718 258.881ZM153.454 249.581V264.381H151.634V249.581H153.454ZM161.336 264.561C160.309 264.561 159.376 264.328 158.536 263.861C157.709 263.394 157.056 262.734 156.576 261.881C156.109 261.014 155.876 260.014 155.876 258.881C155.876 257.761 156.116 256.774 156.596 255.921C157.089 255.054 157.756 254.394 158.596 253.941C159.436 253.474 160.376 253.241 161.416 253.241C162.456 253.241 163.396 253.474 164.236 253.941C165.076 254.394 165.736 255.048 166.216 255.901C166.709 256.754 166.956 257.748 166.956 258.881C166.956 260.014 166.703 261.014 166.196 261.881C165.703 262.734 165.029 263.394 164.176 263.861C163.323 264.328 162.376 264.561 161.336 264.561ZM161.336 262.961C161.989 262.961 162.603 262.808 163.176 262.501C163.749 262.194 164.209 261.734 164.556 261.121C164.916 260.508 165.096 259.761 165.096 258.881C165.096 258.001 164.923 257.254 164.576 256.641C164.229 256.028 163.776 255.574 163.216 255.281C162.656 254.974 162.049 254.821 161.396 254.821C160.729 254.821 160.116 254.974 159.556 255.281C159.009 255.574 158.569 256.028 158.236 256.641C157.903 257.254 157.736 258.001 157.736 258.881C157.736 259.774 157.896 260.528 158.216 261.141C158.549 261.754 158.989 262.214 159.536 262.521C160.083 262.814 160.683 262.961 161.336 262.961ZM171.169 255.461C171.542 254.808 172.089 254.274 172.809 253.861C173.529 253.448 174.349 253.241 175.269 253.241C176.255 253.241 177.142 253.474 177.929 253.941C178.715 254.408 179.335 255.068 179.789 255.921C180.242 256.761 180.469 257.741 180.469 258.861C180.469 259.968 180.242 260.954 179.789 261.821C179.335 262.688 178.709 263.361 177.909 263.841C177.122 264.321 176.242 264.561 175.269 264.561C174.322 264.561 173.489 264.354 172.769 263.941C172.062 263.528 171.529 263.001 171.169 262.361V264.381H169.349V249.581H171.169V255.461ZM178.609 258.861C178.609 258.034 178.442 257.314 178.109 256.701C177.775 256.088 177.322 255.621 176.749 255.301C176.189 254.981 175.569 254.821 174.889 254.821C174.222 254.821 173.602 254.988 173.029 255.321C172.469 255.641 172.015 256.114 171.669 256.741C171.335 257.354 171.169 258.068 171.169 258.881C171.169 259.708 171.335 260.434 171.669 261.061C172.015 261.674 172.469 262.148 173.029 262.481C173.602 262.801 174.222 262.961 174.889 262.961C175.569 262.961 176.189 262.801 176.749 262.481C177.322 262.148 177.775 261.674 178.109 261.061C178.442 260.434 178.609 259.701 178.609 258.861ZM182.184 258.861C182.184 257.741 182.411 256.761 182.864 255.921C183.318 255.068 183.938 254.408 184.724 253.941C185.524 253.474 186.411 253.241 187.384 253.241C188.344 253.241 189.178 253.448 189.884 253.861C190.591 254.274 191.118 254.794 191.464 255.421V253.421H193.304V264.381H191.464V262.341C191.104 262.981 190.564 263.514 189.844 263.941C189.138 264.354 188.311 264.561 187.364 264.561C186.391 264.561 185.511 264.321 184.724 263.841C183.938 263.361 183.318 262.688 182.864 261.821C182.411 260.954 182.184 259.968 182.184 258.861ZM191.464 258.881C191.464 258.054 191.298 257.334 190.964 256.721C190.631 256.108 190.178 255.641 189.604 255.321C189.044 254.988 188.424 254.821 187.744 254.821C187.064 254.821 186.444 254.981 185.884 255.301C185.324 255.621 184.878 256.088 184.544 256.701C184.211 257.314 184.044 258.034 184.044 258.861C184.044 259.701 184.211 260.434 184.544 261.061C184.878 261.674 185.324 262.148 185.884 262.481C186.444 262.801 187.064 262.961 187.744 262.961C188.424 262.961 189.044 262.801 189.604 262.481C190.178 262.148 190.631 261.674 190.964 261.061C191.298 260.434 191.464 259.708 191.464 258.881ZM198.2 249.581V264.381H196.38V249.581H198.2ZM202.242 251.641C201.895 251.641 201.602 251.521 201.362 251.281C201.122 251.041 201.002 250.748 201.002 250.401C201.002 250.054 201.122 249.761 201.362 249.521C201.602 249.281 201.895 249.161 202.242 249.161C202.575 249.161 202.855 249.281 203.082 249.521C203.322 249.761 203.442 250.054 203.442 250.401C203.442 250.748 203.322 251.041 203.082 251.281C202.855 251.521 202.575 251.641 202.242 251.641ZM203.122 253.421V264.381H201.302V253.421H203.122ZM210.104 264.561C209.264 264.561 208.51 264.421 207.844 264.141C207.177 263.848 206.65 263.448 206.264 262.941C205.877 262.421 205.664 261.828 205.624 261.161H207.504C207.557 261.708 207.81 262.154 208.264 262.501C208.73 262.848 209.337 263.021 210.084 263.021C210.777 263.021 211.324 262.868 211.724 262.561C212.124 262.254 212.324 261.868 212.324 261.401C212.324 260.921 212.11 260.568 211.684 260.341C211.257 260.101 210.597 259.868 209.704 259.641C208.89 259.428 208.224 259.214 207.704 259.001C207.197 258.774 206.757 258.448 206.384 258.021C206.024 257.581 205.844 257.008 205.844 256.301C205.844 255.741 206.01 255.228 206.344 254.761C206.677 254.294 207.15 253.928 207.764 253.661C208.377 253.381 209.077 253.241 209.864 253.241C211.077 253.241 212.057 253.548 212.804 254.161C213.55 254.774 213.95 255.614 214.004 256.681H212.184C212.144 256.108 211.91 255.648 211.484 255.301C211.07 254.954 210.51 254.781 209.804 254.781C209.15 254.781 208.63 254.921 208.244 255.201C207.857 255.481 207.664 255.848 207.664 256.301C207.664 256.661 207.777 256.961 208.004 257.201C208.244 257.428 208.537 257.614 208.884 257.761C209.244 257.894 209.737 258.048 210.364 258.221C211.15 258.434 211.79 258.648 212.284 258.861C212.777 259.061 213.197 259.368 213.544 259.781C213.904 260.194 214.09 260.734 214.104 261.401C214.104 262.001 213.937 262.541 213.604 263.021C213.27 263.501 212.797 263.881 212.184 264.161C211.584 264.428 210.89 264.561 210.104 264.561ZM215.993 258.861C215.993 257.741 216.22 256.761 216.673 255.921C217.126 255.068 217.746 254.408 218.533 253.941C219.333 253.474 220.22 253.241 221.193 253.241C222.153 253.241 222.986 253.448 223.693 253.861C224.4 254.274 224.926 254.794 225.273 255.421V253.421H227.113V264.381H225.273V262.341C224.913 262.981 224.373 263.514 223.653 263.941C222.946 264.354 222.12 264.561 221.173 264.561C220.2 264.561 219.32 264.321 218.533 263.841C217.746 263.361 217.126 262.688 216.673 261.821C216.22 260.954 215.993 259.968 215.993 258.861ZM225.273 258.881C225.273 258.054 225.106 257.334 224.773 256.721C224.44 256.108 223.986 255.641 223.413 255.321C222.853 254.988 222.233 254.821 221.553 254.821C220.873 254.821 220.253 254.981 219.693 255.301C219.133 255.621 218.686 256.088 218.353 256.701C218.02 257.314 217.853 258.034 217.853 258.861C217.853 259.701 218.02 260.434 218.353 261.061C218.686 261.674 219.133 262.148 219.693 262.481C220.253 262.801 220.873 262.961 221.553 262.961C222.233 262.961 222.853 262.801 223.413 262.481C223.986 262.148 224.44 261.674 224.773 261.061C225.106 260.434 225.273 259.708 225.273 258.881ZM234.069 264.561C233.229 264.561 232.475 264.421 231.809 264.141C231.142 263.848 230.615 263.448 230.229 262.941C229.842 262.421 229.629 261.828 229.589 261.161H231.469C231.522 261.708 231.775 262.154 232.229 262.501C232.695 262.848 233.302 263.021 234.049 263.021C234.742 263.021 235.289 262.868 235.689 262.561C236.089 262.254 236.289 261.868 236.289 261.401C236.289 260.921 236.075 260.568 235.649 260.341C235.222 260.101 234.562 259.868 233.669 259.641C232.855 259.428 232.189 259.214 231.669 259.001C231.162 258.774 230.722 258.448 230.349 258.021C229.989 257.581 229.809 257.008 229.809 256.301C229.809 255.741 229.975 255.228 230.309 254.761C230.642 254.294 231.115 253.928 231.729 253.661C232.342 253.381 233.042 253.241 233.829 253.241C235.042 253.241 236.022 253.548 236.769 254.161C237.515 254.774 237.915 255.614 237.969 256.681H236.149C236.109 256.108 235.875 255.648 235.449 255.301C235.035 254.954 234.475 254.781 233.769 254.781C233.115 254.781 232.595 254.921 232.209 255.201C231.822 255.481 231.629 255.848 231.629 256.301C231.629 256.661 231.742 256.961 231.969 257.201C232.209 257.428 232.502 257.614 232.849 257.761C233.209 257.894 233.702 258.048 234.329 258.221C235.115 258.434 235.755 258.648 236.249 258.861C236.742 259.061 237.162 259.368 237.509 259.781C237.869 260.194 238.055 260.734 238.069 261.401C238.069 262.001 237.902 262.541 237.569 263.021C237.235 263.501 236.762 263.881 236.149 264.161C235.549 264.428 234.855 264.561 234.069 264.561ZM241.578 251.641C241.231 251.641 240.938 251.521 240.698 251.281C240.458 251.041 240.338 250.748 240.338 250.401C240.338 250.054 240.458 249.761 240.698 249.521C240.938 249.281 241.231 249.161 241.578 249.161C241.911 249.161 242.191 249.281 242.418 249.521C242.658 249.761 242.778 250.054 242.778 250.401C242.778 250.748 242.658 251.041 242.418 251.281C242.191 251.521 241.911 251.641 241.578 251.641ZM242.458 253.421V264.381H240.638V253.421H242.458ZM246.14 264.501C245.793 264.501 245.5 264.381 245.26 264.141C245.02 263.901 244.9 263.608 244.9 263.261C244.9 262.914 245.02 262.621 245.26 262.381C245.5 262.141 245.793 262.021 246.14 262.021C246.473 262.021 246.753 262.141 246.98 262.381C247.22 262.621 247.34 262.914 247.34 263.261C247.34 263.608 247.22 263.901 246.98 264.141C246.753 264.381 246.473 264.501 246.14 264.501Z" fill="#243771"/>
<path d="M366.9 86.8311C366.9 48.7235 336.008 17.8311 297.9 17.8311L1.0996 17.8311L1.09961 325.461C1.09961 363.569 31.992 394.461 70.0996 394.461L366.9 394.461L366.9 86.8311Z" stroke="#243771" stroke-width="2"/>
<path d="M382.896 70.0049C382.896 31.8973 352.004 1.00489 313.896 1.00489L17.0957 1.00491L17.0957 308.635C17.0957 346.742 47.9881 377.635 86.0957 377.635L382.896 377.635L382.896 70.0049Z" stroke="#FE4D01" stroke-width="2"/>
</svg>
