<svg width="492" height="247" viewBox="0 0 492 247" fill="none" xmlns="http://www.w3.org/2000/svg">
<g clip-path="url(#clip0_1002_2811)">
<path d="M492 112.308H148.479C133.387 112.308 121.116 124.59 121.116 139.677C121.116 198.118 73.5814 245.665 15.1548 245.665H2.29666C-56.13 245.665 -103.665 198.118 -103.665 139.677V0" stroke="#243771" stroke-width="3" stroke-miterlimit="10"/>
<path d="M-25.0664 0V139.677C-25.0664 154.772 -12.7867 167.046 2.29606 167.046H15.1542C30.2458 167.046 42.5166 154.763 42.5166 139.677C42.5166 81.2356 90.0517 33.6887 148.478 33.6887H492" stroke="#243771" stroke-width="3" stroke-miterlimit="10"/>
<path d="M492 99.2059H148.479C126.171 99.2059 108.018 117.363 108.018 139.677C108.018 190.891 66.3562 232.563 15.155 232.563H2.29691C-48.9043 232.563 -90.5664 190.891 -90.5664 139.677V0" stroke="#243771" stroke-width="3" stroke-miterlimit="10"/>
<path d="M-38.1641 0V139.677C-38.1641 161.991 -20.0114 180.148 2.29679 180.148H15.1549C37.4631 180.148 55.6158 161.991 55.6158 139.677C55.6158 88.4629 97.269 46.7903 148.479 46.7903H492" stroke="#243771" stroke-width="3" stroke-miterlimit="10"/>
<path d="M492 86.0953H148.478C118.945 86.0953 94.9192 110.127 94.9192 139.677C94.9192 183.672 59.1389 219.462 15.1543 219.462H2.29617C-41.6884 219.462 -77.4688 183.672 -77.4688 139.677V0" stroke="#243771" stroke-width="3" stroke-miterlimit="10"/>
<path d="M-51.2715 0V139.677C-51.2715 169.218 -27.2459 193.258 2.28775 193.258H15.1459C44.6796 193.258 68.714 169.227 68.714 139.677C68.714 95.6812 104.494 59.892 148.479 59.892H492" stroke="#243771" stroke-width="3" stroke-miterlimit="10"/>
<path d="M-64.3701 0V139.677C-64.3701 176.507 -34.525 206.36 2.29641 206.36H15.1545C51.976 206.36 81.8211 176.507 81.8211 139.677C81.8211 102.846 111.666 72.9937 148.488 72.9937H492.009" stroke="#243771" stroke-width="3" stroke-miterlimit="10"/>
</g>
<defs>
<clipPath id="clip0_1002_2811">
<rect width="597" height="247" fill="white" transform="translate(-105)"/>
</clipPath>
</defs>
</svg>
